<svg width="75" height="24" viewBox="0 0 75 24" fill="none" xmlns="http://www.w3.org/2000/svg">
<g clip-path="url(#clip0_2017_16003)">
<path d="M71.5817 8.83959H74.9892C74.5582 5.52922 72.136 3.78918 68.7694 3.78918C65.3619 3.78918 63.0834 5.59291 63.0834 8.69105C63.0834 12.2136 66.0188 12.9987 67.5789 13.3171C69.5905 13.7202 71.5611 13.7627 71.5611 15.5451C71.5611 16.7547 70.5758 17.3488 69.18 17.3488C67.4557 17.3488 66.3063 16.4576 66.0188 14.845H62.6523C62.8576 18.325 65.3004 20.1924 68.8927 20.1924C72.2181 20.1924 74.9481 18.6221 74.9481 15.2269C74.9481 11.577 71.8075 10.9192 69.6111 10.5796C68.1125 10.3462 66.4704 10.134 66.4704 8.50004C66.4704 7.35417 67.312 6.65394 68.7284 6.65394C70.3706 6.65394 71.3558 7.60889 71.5817 8.83959Z" fill="#403F41"/>
<path d="M60.7853 4.3197H57.5625V19.7042H60.7853V4.3197Z" fill="#403F41"/>
<path d="M47.8341 14.3356H52.0423C51.3853 15.9909 49.9073 16.7759 48.2036 16.7759C45.2067 16.7759 43.8108 14.378 43.8108 12.0014C43.8108 9.60348 45.1245 7.16321 48.1831 7.16321C50.0511 7.16321 51.4469 8.05445 51.9806 9.64594L55.4497 9.64596C54.8545 6.05982 51.8164 4.00146 48.2242 4.00146C43.7903 4.00146 40.4648 7.12074 40.4648 12.0439C40.4648 17.0306 44.0776 19.9802 48.2036 19.9802C52.268 19.9802 55.4497 17.2428 55.4497 12.9563V11.7043H47.8341V14.3356Z" fill="#403F41"/>
<path d="M33.096 4.00146C29.4011 4.00146 26.671 6.39928 26.6915 10.3887H30.017C29.9759 8.64863 31.0433 7.05714 32.9318 7.05714C34.574 7.05714 35.5388 8.24548 35.5388 9.60349C35.5388 10.9616 34.574 11.7255 32.7881 12.5532C30.3453 13.6778 28.6006 14.3993 26.8147 15.0359V19.7043H39.2542V16.5637H30.7143C30.7143 16.5637 30.7428 16.5545 30.7568 16.5502C32.2093 16.0952 33.3005 15.6009 34.5946 15.0147C37.3657 13.7415 38.9463 12.1499 38.9463 9.4338C38.9463 6.10218 36.5652 4.00146 33.096 4.00146Z" fill="#403F41"/>
<path d="M17.945 14.2932C13.7574 14.3144 13.0801 16.9245 12.8543 19.1314L12.7517 20.1075H11.91L11.8074 19.1314C11.5816 16.9245 10.8837 14.3144 6.83977 14.2932C6.16238 12.8501 5.875 11.6831 5.875 10.3674C5.875 7.07835 8.48198 4.00135 12.341 4.00135C16.2002 4.00135 18.7661 7.05702 18.7661 10.3887C18.7661 11.6831 18.643 12.8501 17.945 14.2932ZM12.3001 0.0119629C5.93664 0.0119629 0.722656 5.40192 0.722656 12.0013C0.722656 18.622 5.93664 24.0119 12.3001 24.0119C18.725 24.0119 23.9185 18.622 23.9185 12.0013C23.9185 5.40194 18.725 0.0119629 12.3001 0.0119629Z" fill="#29B24A"/>
</g>
<defs>
<clipPath id="clip0_2017_16003">
<rect width="74.2677" height="24" fill="white" transform="translate(0.730469)"/>
</clipPath>
</defs>
</svg>
