<svg width="62" height="32" viewBox="0 0 62 32" fill="none" xmlns="http://www.w3.org/2000/svg">
<g clip-path="url(#clip0_2017_7890)">
<path fill-rule="evenodd" clip-rule="evenodd" d="M60.4372 0.0307617C57.0623 0.0307617 53.9184 1.00959 51.2667 2.69275C49.6965 3.68937 48.2993 4.93224 47.1317 6.37018C45.7088 5.31076 44.0675 4.52873 42.2888 4.09767C41.2695 3.85057 40.2057 3.71641 39.1103 3.71641C38.6604 3.71641 38.2159 3.73848 37.7773 3.78178C39.3814 3.93955 40.9008 4.38208 42.2888 5.05305C43.715 5.74268 45.0001 6.67564 46.0904 7.7994C46.6712 8.39799 47.196 9.05048 47.6577 9.74849C47.9821 9.07307 48.3483 8.42178 48.7553 7.79906C50.0158 5.87016 51.6536 4.20993 53.5674 2.92633C55.9466 1.33044 58.7481 0.314141 61.77 0.0817564C61.3302 0.0480451 60.8857 0.0307617 60.4372 0.0307617Z" fill="#0F9AEF"/>
<path fill-rule="evenodd" clip-rule="evenodd" d="M40.1536 14.9333V29.9984H38.8203C38.1095 29.9984 37.5301 29.4282 37.4908 28.7102L37.487 14.9333H34.8203V27.904C34.8203 30.166 36.6113 32 38.8203 32H42.8203V27.229V14.9333H40.1536Z" fill="#F97D41"/>
<path fill-rule="evenodd" clip-rule="evenodd" d="M32.1328 19.0293C32.1328 16.7672 30.342 14.9333 28.1328 14.9333H24.1328V32H26.7995V27.3677V24.5333H28.1328C28.8438 24.5333 29.4231 25.1062 29.4625 25.824L29.4661 32H32.1328V26.3893C32.1328 25.1472 31.5921 24.035 30.7395 23.2839C31.5921 22.5326 32.1328 21.4206 32.1328 20.1784V19.0293ZM29.203 21.9466C28.9525 22.2355 28.5837 22.4189 28.1705 22.4189H26.7995V17.0667H28.1705C28.5946 17.0667 28.9717 17.2599 29.2224 17.5621C29.2483 17.5934 29.2717 17.6244 29.294 17.6565C29.6104 18.0979 29.8207 18.8671 29.8207 19.7442C29.8207 20.6538 29.5946 21.4466 29.2587 21.8787C29.2514 21.8882 29.2143 21.9339 29.203 21.9466Z" fill="#F97D41"/>
<path fill-rule="evenodd" clip-rule="evenodd" d="M19.8672 29.3333H22.5339V31.9999H19.8672V29.3333Z" fill="#F97D41"/>
<path fill-rule="evenodd" clip-rule="evenodd" d="M14.5339 14.9333H11.8672V32H18.2672V29.3334H14.5339V14.9333Z" fill="#F97D41"/>
<path fill-rule="evenodd" clip-rule="evenodd" d="M5.37069 24.9788L3.40998 14.9333H0.667969L3.99917 32H6.74221L10.0734 14.9333H7.3314L5.37069 24.9788Z" fill="#F97D41"/>
</g>
<defs>
<clipPath id="clip0_2017_7890">
<rect width="61.3333" height="32" fill="white" transform="translate(0.667969)"/>
</clipPath>
</defs>
</svg>
