<svg width="48" height="48" viewBox="0 0 48 48" fill="none" xmlns="http://www.w3.org/2000/svg">
<path fill-rule="evenodd" clip-rule="evenodd" d="M39 9V39H9V9H39ZM24.7413 38.0725L24.7275 38.075L24.6388 38.1187L24.6138 38.1237L24.5963 38.1187L24.5075 38.075C24.4942 38.0708 24.4842 38.0729 24.4775 38.0812L24.4725 38.0938L24.4513 38.6287L24.4575 38.6537L24.47 38.67L24.6 38.7625L24.6187 38.7675L24.6337 38.7625L24.7638 38.67L24.7788 38.65L24.7837 38.6287L24.7625 38.095C24.7592 38.0817 24.7521 38.0742 24.7413 38.0725ZM25.0725 37.9313L25.0562 37.9338L24.825 38.05L24.8125 38.0625L24.8088 38.0763L24.8313 38.6138L24.8375 38.6287L24.8475 38.6375L25.0987 38.7537C25.1146 38.7579 25.1267 38.7546 25.135 38.7437L25.14 38.7262L25.0975 37.9587C25.0933 37.9429 25.085 37.9338 25.0725 37.9313ZM24.1787 37.9338C24.1732 37.9304 24.1667 37.9293 24.1604 37.9307C24.1541 37.9321 24.1486 37.9359 24.145 37.9412L24.1375 37.9587L24.095 38.7262C24.0958 38.7413 24.1029 38.7513 24.1163 38.7563L24.135 38.7537L24.3862 38.6375L24.3988 38.6275L24.4037 38.6138L24.425 38.0763L24.4212 38.0613L24.4087 38.0487L24.1787 37.9338Z" fill="white"/>
<path d="M8.52 8.52C6 11.064 6 15.132 6 23.28V24.72C6 32.856 6 36.924 8.52 39.48C11.064 42 15.132 42 23.28 42H24.72C32.856 42 36.924 42 39.48 39.48C42 36.936 42 32.868 42 24.72V23.28C42 15.144 42 11.076 39.48 8.52C36.936 6 32.868 6 24.72 6H23.28C15.144 6 11.076 6 8.52 8.52ZM12.072 16.956H16.2C16.332 23.82 19.356 26.724 21.756 27.324V16.956H25.632V22.872C27.996 22.62 30.492 19.92 31.332 16.944H35.196C34.8807 18.4844 34.2513 19.9433 33.3469 21.2296C32.4426 22.5159 31.2828 23.602 29.94 24.42C31.4389 25.1657 32.7625 26.2209 33.8237 27.5157C34.8848 28.8106 35.6593 30.3158 36.096 31.932H31.836C30.924 29.088 28.644 26.88 25.632 26.58V31.932H25.152C16.944 31.932 12.264 26.316 12.072 16.956Z" fill="#0077FF"/>
</svg>
