<svg width="40" height="40" viewBox="0 0 40 40" fill="none" xmlns="http://www.w3.org/2000/svg">
<path fill-rule="evenodd" clip-rule="evenodd" d="M17.8552 10.0081C17.9326 10.0292 18.2138 10.2613 18.481 10.5214C18.7904 10.8238 19.0294 11.1331 19.3669 11.8292V16.7159L28.8238 16.751L29.1684 16.9268C29.3582 17.0252 29.6043 17.2151 29.7168 17.3487C29.8293 17.4823 29.9629 17.7565 30.0191 17.9463C30.1035 18.2276 30.1246 18.783 30.1246 23.079L30.3355 23.2759C30.455 23.3814 30.5816 23.5923 30.6238 23.7681C30.666 23.9298 30.6871 24.4009 30.673 24.8368C30.6519 25.4415 30.6168 25.6735 30.4972 25.8915C30.4199 26.0462 30.2371 26.2782 30.0965 26.4048C29.9558 26.5243 29.766 26.6438 29.6676 26.6649C29.5691 26.686 29.4918 26.7493 29.4918 26.8056C29.4918 26.897 29.6746 26.911 31.8824 26.911V24.5064C31.8824 22.3478 31.8964 22.0666 32.0089 21.8486C32.0722 21.715 32.241 21.5322 32.3746 21.4408C32.5574 21.3213 32.7191 21.2861 33.0284 21.2861C33.2464 21.2861 33.5277 21.3353 33.6402 21.3916C33.7527 21.4478 33.9284 21.6025 34.0128 21.7291C34.1042 21.8486 34.7089 23.2337 35.3628 24.8017C36.0097 26.3696 36.5862 27.7337 36.6354 27.8462C36.7268 28.029 36.762 28.036 37.226 28.036C37.6831 28.036 37.7323 28.0501 37.8588 28.2329C37.9432 28.3383 38.0065 28.479 37.9995 28.5493C37.9995 28.6126 37.9784 28.718 37.9432 28.7813C37.9151 28.8446 37.8096 28.943 37.6971 28.9922C37.5495 29.0696 37.001 29.0907 35.2011 29.0907C33.9355 29.0907 32.7894 29.0625 32.6558 29.0274C32.5222 28.9922 32.3042 28.8446 32.1847 28.711C32.0511 28.5633 31.9386 28.3524 31.8824 27.9657L29.5269 27.9587L29.3652 28.3665C29.2808 28.5915 29.098 28.9219 28.9644 29.1118C28.8309 29.2946 28.5355 29.5618 28.3176 29.7094C28.0926 29.85 27.7551 30.0188 27.5582 30.075C27.2559 30.1664 25.7161 30.1805 16.3084 30.1805C6.16947 30.1805 5.38901 30.1735 5.05855 30.061C4.86871 29.9907 4.55231 29.836 4.36247 29.7094C4.16559 29.5829 3.89841 29.3368 3.75779 29.161C3.61716 28.9852 3.42732 28.6547 3.33592 28.4227C3.21639 28.1063 3.16717 27.8391 3.13905 26.7352L2.90702 26.6227C2.77343 26.5595 2.55546 26.3837 2.42187 26.229C2.28828 26.0743 2.13359 25.8212 2.0914 25.6735C2.04219 25.5259 2 25.0618 2 24.647C2 24.1267 2.03516 23.8103 2.10547 23.6415C2.16172 23.5079 2.28828 23.3251 2.54843 23.079L2.57655 21.04C2.59765 19.001 2.59765 19.001 2.78046 18.6143C2.88592 18.4033 3.05467 18.1432 3.15311 18.0377C3.25154 17.9252 3.41326 17.7916 3.5117 17.7354C3.68748 17.6299 3.68748 17.6229 3.68748 16.5752C3.68748 15.8721 3.71794 15.462 3.77888 15.3448C3.82107 15.2463 3.96169 15.1339 4.07419 15.0987C4.19372 15.0565 4.91089 15.0284 7.06243 15.0284V14.1495C7.06243 13.3198 7.05539 13.2706 6.9218 13.2706C6.84446 13.2706 6.7179 13.1862 6.64056 13.0808C6.55618 12.9683 6.4929 12.8417 6.49993 12.7995C6.49993 12.7503 6.54212 12.6237 6.59134 12.5253C6.64056 12.4198 6.76712 12.3214 6.9218 12.2792C7.07649 12.237 8.85537 12.2159 11.71 12.23C16.1467 12.2511 16.2592 12.2511 16.4068 12.3917C16.5053 12.4831 16.5615 12.6167 16.5545 12.7644C16.5545 12.919 16.4912 13.0456 16.1678 13.3479L17.0185 16.6807L18.3123 16.7159V14.3604C18.3123 12.7714 18.2841 11.9558 18.2349 11.8503C18.1927 11.7589 17.9677 11.4987 17.7427 11.2667C17.5177 11.0347 17.3068 10.7675 17.2646 10.6691C17.2154 10.5425 17.2224 10.4441 17.2998 10.3175C17.356 10.2261 17.4756 10.1066 17.5599 10.0574C17.6443 10.0081 17.7779 9.98705 17.8552 10.0081ZM8.1171 15.6471C8.11007 17.651 8.096 18.0377 8.0046 18.1572C7.90616 18.2908 7.79366 18.2979 6.19759 18.333C4.7984 18.3611 4.4609 18.3893 4.28512 18.4877C4.17262 18.551 4.00388 18.6775 3.9195 18.769C3.83513 18.8533 3.73669 19.015 3.69451 19.1275C3.64529 19.24 3.61716 20.0205 3.61716 21.1455V22.9736H16.0623L16.0271 19.9221C12.2092 18.9658 11.028 18.6283 10.8241 18.5299C10.6342 18.4315 10.3178 18.1924 10.135 18.0096C9.95223 17.8197 9.72723 17.5104 9.63583 17.3135C9.54442 17.1237 9.43192 16.7721 9.38973 16.5401C9.34755 16.3081 9.31239 15.4784 9.31239 14.6979V13.2706H8.1171V15.6471ZM10.3811 14.9089C10.4022 16.3362 10.4233 16.5752 10.5358 16.7932C10.6061 16.9268 10.7678 17.1448 10.8874 17.2713C11.0069 17.3979 11.1897 17.5455 11.2811 17.6018C11.3795 17.651 12.4764 17.9463 13.728 18.2627C14.9725 18.5721 16.0131 18.8322 16.0271 18.8322C16.0482 18.8322 16.0623 18.4666 16.0623 18.0237C16.0623 17.2643 16.0342 17.0955 15.6404 15.5065C15.4084 14.5714 15.1834 13.6854 15.1482 13.5378L15.0779 13.2776H10.36L10.3811 14.9089ZM4.74215 17.2783H7.06243V16.0831H4.74215V17.2783ZM17.1451 20.4424L17.1521 22.9384H29.0348C29.0699 19.3314 29.0488 18.4104 28.9996 18.2416C28.9434 18.0447 28.873 17.9604 28.6832 17.876C28.4723 17.7846 27.6567 17.7705 22.8122 17.7705C18.3544 17.7705 17.1802 17.7916 17.1592 17.8619C17.1451 17.9041 17.1381 19.0713 17.1451 20.4424ZM32.937 28.036C35.4472 28.036 35.5386 28.029 35.4964 27.9094C35.4753 27.8462 34.948 26.5665 34.3222 25.0618C33.4363 22.9455 33.155 22.3408 33.0636 22.3408C32.9441 22.3408 32.937 22.5236 32.937 25.1884V28.036ZM3.05467 24.6751C3.04764 25.2095 3.07577 25.3642 3.18123 25.5048C3.25154 25.6032 3.3992 25.6946 3.49763 25.7157C3.65232 25.7438 3.74372 25.6946 3.98278 25.4485C4.15153 25.2798 4.47496 25.0548 4.70699 24.9353C4.93902 24.8228 5.26948 24.7103 5.44526 24.6892C5.62104 24.6681 6.20463 24.5415 6.74602 24.4079C7.28742 24.2743 7.79366 24.1337 7.87101 24.0986C7.96241 24.0634 7.08352 24.0353 5.53667 24.0353L3.05467 24.0282V24.6751ZM12.1038 24.4642C12.0756 24.5345 12.0967 24.6892 12.1459 24.8157C12.2092 24.9634 12.3217 25.0759 12.4623 25.1321C12.5889 25.1814 12.7436 25.2024 12.8139 25.1743C12.8772 25.1462 13.0108 25.0618 13.0951 24.9845C13.2006 24.886 13.2569 24.7525 13.2569 24.6048C13.2498 24.4572 13.1936 24.3165 13.0741 24.197C12.9569 24.0845 12.8209 24.0259 12.6662 24.0212C12.5116 24.0212 12.385 24.0775 12.2936 24.1829C12.2092 24.2673 12.1249 24.3939 12.1038 24.4642ZM14.2694 25.2235L18.4177 25.2165V24.0212L14.2694 24.0282V25.2235ZM19.4302 24.5907C19.4372 24.7243 19.4794 24.886 19.5286 24.9493C19.5779 25.0126 19.7044 25.104 19.8099 25.1462C19.9505 25.1954 20.056 25.1954 20.1966 25.1462C20.3021 25.104 20.4286 25.0126 20.4779 24.9493C20.52 24.886 20.5622 24.7243 20.5622 24.5907C20.5693 24.422 20.52 24.2884 20.4075 24.1829C20.3021 24.0845 20.1615 24.0282 19.9997 24.0282C19.824 24.0282 19.6904 24.0775 19.5779 24.19C19.4583 24.3025 19.4161 24.415 19.4302 24.5907ZM25.9411 24.4009C26.4825 24.5345 27.0731 24.6611 27.2418 24.6892C27.4176 24.7103 27.7199 24.8017 27.9098 24.8931C28.1066 24.9845 28.4371 25.2165 28.648 25.4134C29.0207 25.7509 29.0488 25.7649 29.2457 25.6806C29.3863 25.6243 29.4918 25.5118 29.548 25.3571C29.5972 25.2235 29.6394 24.872 29.6394 24.5696L29.6324 24.0282C25.6036 24.0353 24.7317 24.0564 24.8161 24.0986C24.8934 24.1337 25.3997 24.2673 25.9411 24.4009ZM7.71632 25.2587C8.16632 25.8001 8.34913 26.0884 8.41944 26.2431C8.48272 26.3977 8.57412 26.6087 8.60928 26.7141L8.67959 26.911C10.5639 26.904 10.6272 26.911 10.7749 27.0657C10.8592 27.1501 10.9296 27.3048 10.9366 27.4032C10.9366 27.4946 10.8733 27.6563 10.803 27.7548C10.6694 27.9235 10.6342 27.9305 9.65692 27.9446L8.64443 27.9657C8.50381 28.4297 8.39834 28.6618 8.321 28.7883C8.25069 28.9149 8.18741 29.0485 8.18741 29.0907C8.18741 29.1329 10.9577 29.161 16.3435 29.161C20.8294 29.161 24.4997 29.1329 24.4997 29.1047C24.4997 29.0766 24.4083 28.8657 24.2887 28.6336C24.1692 28.4016 24.0778 28.1555 24.0778 28.0852C24.0778 27.9727 23.8317 27.9587 19.9716 27.9446L15.8584 27.9305C15.5842 27.6563 15.542 27.5368 15.5561 27.3821C15.5631 27.2555 15.6193 27.1079 15.6756 27.0516C15.774 26.9602 16.3717 26.9391 19.9083 26.911L24.0286 26.8759C24.2114 26.3274 24.3661 26.0251 24.4786 25.8563C24.5981 25.6806 24.7669 25.4767 24.8512 25.3993L25.0059 25.2587C22.5731 24.6329 21.8067 24.4501 21.7435 24.4501C21.645 24.4501 21.6169 24.5064 21.6169 24.7454C21.6169 24.9282 21.5536 25.1743 21.4552 25.3642C21.3638 25.5329 21.1599 25.772 21.0122 25.8915C20.8505 26.0181 20.5833 26.1446 20.3513 26.1938C20.07 26.2571 18.924 26.2712 16.1326 26.2571C12.4202 26.2431 12.2936 26.236 11.9842 26.0954C11.8155 26.011 11.5694 25.8282 11.4428 25.6876C11.3163 25.547 11.1686 25.2657 11.1053 25.0618C11.0491 24.8579 10.9999 24.64 10.9999 24.5696C10.9999 24.4993 10.9506 24.4501 10.8803 24.4501C10.81 24.4571 10.0718 24.64 9.23505 24.8579L7.71632 25.2587ZM4.81949 26.1165C4.65074 26.2642 4.45387 26.5102 4.37653 26.6649C4.29918 26.8196 4.22184 27.0868 4.20075 27.2626C4.17966 27.4384 4.20075 27.7055 4.24997 27.8602C4.29918 28.0149 4.41871 28.261 4.52418 28.4087C4.62262 28.5563 4.82652 28.7532 4.97417 28.8516C5.1148 28.943 5.38901 29.0485 5.57182 29.0907C5.81088 29.1469 6.00775 29.1399 6.289 29.0766C6.514 29.0274 6.79524 28.9008 6.95696 28.7813C7.10461 28.6618 7.32258 28.3876 7.43508 28.1766C7.56867 27.9165 7.63195 27.6844 7.63195 27.4735C7.63195 27.2977 7.58273 27.0165 7.51945 26.8407C7.4632 26.6649 7.30148 26.3977 7.15383 26.2501C7.00618 26.0954 6.76009 25.9196 6.6054 25.8493C6.43665 25.7649 6.1765 25.7228 5.93744 25.7228C5.72651 25.7228 5.45932 25.7579 5.33979 25.786C5.2273 25.8212 4.99527 25.9688 4.81949 26.1165ZM25.3715 26.461C25.2379 26.6509 25.1325 26.8266 25.1325 26.8548C25.1325 26.8829 25.8637 26.911 26.7496 26.911C27.9941 26.911 28.3668 26.8899 28.3738 26.8196C28.3738 26.7704 28.2824 26.6087 28.177 26.454C28.0645 26.2993 27.8817 26.1024 27.7692 26.0251C27.6567 25.9407 27.4527 25.8423 27.3121 25.7931C27.1785 25.7509 26.9043 25.7157 26.7074 25.7157C26.4543 25.7157 26.2504 25.772 25.9832 25.9126C25.7442 26.0392 25.5262 26.236 25.3715 26.461ZM25.1958 28.1204C25.2168 28.2118 25.3786 28.4297 25.5543 28.6055C25.8004 28.8657 25.9692 28.9641 26.2926 29.0555C26.5739 29.1329 26.8129 29.154 26.9957 29.1258C27.1504 29.0977 27.3895 29.0133 27.5231 28.943C27.6637 28.8727 27.8254 28.7743 27.8817 28.7251C27.9449 28.6758 28.0785 28.5071 28.184 28.3524C28.2895 28.1977 28.3738 28.043 28.3738 28.0149C28.3668 27.9868 27.6426 27.9657 26.7637 27.9657H25.1536L25.1958 28.1204ZM20.5552 19.0291C20.731 19.0291 20.8575 19.0783 20.956 19.1768C21.0755 19.3104 21.0966 19.4228 21.0966 20.0838C21.0966 20.7447 21.0755 20.8642 20.956 20.9978C20.8575 21.0963 20.7239 21.1455 20.5693 21.1455C20.4075 21.1455 20.274 21.0963 20.1825 20.9978C20.056 20.8642 20.0419 20.7447 20.0419 20.0838C20.0419 19.4369 20.056 19.3033 20.1685 19.1768C20.2599 19.0854 20.3935 19.0291 20.5552 19.0291ZM22.2356 19.0291C22.4184 19.0291 22.545 19.0713 22.6434 19.1768C22.763 19.3104 22.7841 19.4228 22.7841 20.0838C22.7841 20.7447 22.763 20.8642 22.6434 20.9978C22.545 21.0963 22.4184 21.1455 22.2356 21.1455C22.0388 21.1384 21.9474 21.0963 21.863 20.9838C21.7927 20.8713 21.7575 20.6181 21.7505 20.0838C21.7505 19.5002 21.7716 19.3104 21.863 19.1908C21.9474 19.0783 22.0528 19.0291 22.2356 19.0291ZM23.9583 19.0291C24.1059 19.0291 24.2395 19.0783 24.3309 19.1768C24.4505 19.3104 24.4715 19.4228 24.4715 20.0838C24.4715 20.7447 24.4505 20.8642 24.3309 20.9978C24.2395 21.0892 24.1059 21.1455 23.9583 21.1455C23.8247 21.1384 23.67 21.0822 23.5927 20.9978C23.4661 20.8783 23.452 20.7658 23.452 20.0838C23.452 19.4088 23.4661 19.2963 23.5927 19.1697C23.67 19.0924 23.8247 19.0291 23.9583 19.0291ZM5.89526 26.911C6.02885 26.911 6.18353 26.9743 6.27494 27.0657C6.36634 27.1501 6.43665 27.2907 6.43665 27.3821C6.43665 27.4665 6.40853 27.593 6.3804 27.6563C6.35228 27.7196 6.23275 27.818 6.12025 27.8743C5.95854 27.9446 5.8601 27.9516 5.73354 27.8954C5.6351 27.8532 5.51557 27.7407 5.46636 27.6423C5.41714 27.5509 5.37495 27.4243 5.36792 27.3751C5.36792 27.3188 5.4312 27.1923 5.51557 27.0938C5.62104 26.9602 5.73354 26.904 5.89526 26.911ZM13.2639 26.904C13.9319 26.904 14.0444 26.9251 14.1709 27.0446C14.2483 27.122 14.3115 27.2766 14.3115 27.3821C14.3115 27.4876 14.2553 27.6563 14.1779 27.7477C14.0444 27.9165 14.0092 27.9235 13.2639 27.9235C12.5467 27.9235 12.4694 27.9094 12.3217 27.7688C12.2233 27.6704 12.167 27.5227 12.167 27.3821C12.167 27.2345 12.2163 27.122 12.3288 27.0376C12.4694 26.9251 12.6241 26.904 13.2639 26.904Z" fill="#111111"/>
</svg>
