<svg width="40" height="40" viewBox="0 0 40 40" fill="none" xmlns="http://www.w3.org/2000/svg">
<path fill-rule="evenodd" clip-rule="evenodd" d="M12.3903 10H22.4306L22.6072 10.1766C22.7062 10.2756 22.7839 10.4381 22.7839 10.5511C22.7909 10.6571 22.7273 10.8196 22.6496 10.9185C22.5224 11.0881 22.473 11.0952 20.6076 11.1658L22.2186 16.0411V19.256L22.042 19.4327C21.9501 19.5316 21.8229 19.6093 21.7593 19.6093C21.6746 19.6093 21.6534 19.7153 21.6534 20.7398H23.4904L23.6247 20.4713C23.6953 20.33 23.9426 19.9697 24.1687 19.68C24.4019 19.3903 24.8259 18.9663 25.1155 18.7402C25.4052 18.5071 25.9352 18.182 26.2814 18.0125C26.6276 17.8429 27.1717 17.6309 27.4825 17.5532C27.9277 17.4331 28.2527 17.3978 29.0017 17.3978C29.7506 17.3978 30.0756 17.4331 30.5208 17.5532C30.8317 17.6309 31.3757 17.8429 31.7219 18.0125C32.0682 18.182 32.5769 18.4929 32.8524 18.7049C33.128 18.9169 33.559 19.3549 33.8204 19.687C34.1172 20.0474 34.421 20.5349 34.9015 21.5806L35.2548 21.6584C35.4455 21.7007 35.7494 21.8067 35.9189 21.8915C36.0956 21.9763 36.3429 22.1741 36.4701 22.3296C36.6043 22.485 36.7739 22.8171 37 23.5308L36.8516 24.0254C36.7668 24.3362 36.6185 24.6259 36.4701 24.8026C36.3429 24.958 36.0956 25.1559 35.9189 25.2407C35.7494 25.3254 35.4455 25.4314 34.9015 25.5515L34.5977 26.2016C34.4281 26.5761 34.1101 27.0919 33.8487 27.4169C33.6014 27.7278 33.1633 28.1658 32.8807 28.399C32.591 28.6251 32.0682 28.9501 31.7219 29.1197C31.3757 29.2893 30.8317 29.5012 30.5208 29.579C30.0756 29.6991 29.7506 29.7344 29.0017 29.7344C28.2527 29.7344 27.9277 29.6991 27.4825 29.579C27.1717 29.5012 26.6276 29.2893 26.2814 29.1197C25.9352 28.9501 25.4052 28.6251 25.1155 28.3919C24.8259 28.1658 24.4019 27.7419 24.1687 27.4522C23.9426 27.1625 23.6953 26.8022 23.4904 26.3924H21.8441C20.2756 26.3924 20.1908 26.3853 19.8516 26.2228C19.6538 26.138 19.4489 26.0108 19.3924 25.9402C19.3005 25.8342 19.0885 25.82 15.3649 25.8271L15.2165 26.3429C15.1388 26.6185 14.9763 27.0283 14.8633 27.2402C14.7502 27.4522 14.517 27.8055 14.3404 28.0175C14.1638 28.2294 13.8529 28.5403 13.648 28.7099C13.4431 28.8795 13.0262 29.1409 12.7153 29.2893C12.4044 29.4377 11.9027 29.6143 11.5989 29.6708C11.3022 29.7344 10.8641 29.7839 10.6309 29.7839C10.3978 29.7839 9.95968 29.7344 9.65586 29.6708C9.3591 29.6072 8.8857 29.4589 8.61721 29.3317C8.34871 29.2045 7.93184 28.9501 7.69867 28.7735C7.4655 28.5968 7.14755 28.3001 6.9921 28.1093C6.83666 27.9256 6.60349 27.5935 6.47631 27.3815C6.34913 27.1696 6.16542 26.7315 5.89692 25.8271H4.6251C3.36035 25.8271 3.35328 25.8271 3 25.4738L3.00707 20.4925L3.65711 19.8354C4.01746 19.468 4.54738 18.9805 4.83707 18.7402C5.12677 18.5071 5.63549 18.1326 5.96758 17.9206C6.29967 17.7016 6.88612 17.3624 7.27473 17.1575C7.66334 16.9597 8.25686 16.6912 9.21779 16.3238V14.522H8.82918C8.51122 14.522 8.4123 14.4938 8.26392 14.3454C8.15087 14.2323 8.08728 14.091 8.08728 13.9568C8.08728 13.8296 8.15087 13.6741 8.26392 13.5682C8.42643 13.3986 8.47589 13.3915 9.21779 13.3915C9.95262 13.3915 10.0021 13.3986 10.1717 13.5682C10.3483 13.7448 10.3483 13.766 10.3483 14.8753C10.3483 15.4971 10.3695 16.0058 10.3978 16.0058C10.4331 16.0058 10.7864 15.9422 11.1962 15.8716C11.606 15.7938 12.2348 15.7091 13.2452 15.6172L13.2805 15.3346C13.3017 15.1791 13.4148 14.1758 13.5278 13.1089C13.648 12.042 13.7398 11.1588 13.7398 11.1517C13.7398 11.1376 13.436 11.1305 13.0686 11.1305C12.4468 11.1305 12.3832 11.1164 12.2207 10.9539C12.1076 10.8408 12.0441 10.6995 12.0441 10.5653C12.0511 10.431 12.1218 10.2756 12.2207 10.1766L12.3903 10ZM14.8421 11.3919C14.8209 11.5403 14.7078 12.5507 14.5877 13.6388C14.4746 14.7269 14.3616 15.7515 14.3404 15.914L14.3051 16.2178H18.2618V11.1305H14.8774L14.8421 11.3919ZM19.3994 18.4717H21.0952V16.2814C19.8516 12.4518 19.4701 11.3354 19.4418 11.3354C19.4135 11.3354 19.3994 12.9393 19.3994 14.9036V18.4717ZM11.0619 17.0303C10.7298 17.0939 10.0798 17.2706 9.61347 17.426C9.14713 17.5744 8.4123 17.8712 7.98836 18.0761C7.55736 18.288 6.92145 18.6484 6.57523 18.8745C6.22194 19.1076 5.64963 19.5316 5.30341 19.8283C4.95012 20.118 4.54738 20.4925 4.399 20.655L4.13757 20.9447V24.6895C5.73441 24.6895 5.83333 24.6754 5.8616 24.5694C5.87573 24.4988 5.91106 24.2868 5.93932 24.0889C5.96052 23.8982 6.05943 23.5449 6.14422 23.3117C6.22901 23.0786 6.39152 22.7323 6.50457 22.5345C6.61762 22.3437 6.90731 21.9834 7.14048 21.7361L7.56442 21.2909C6.22901 21.298 6.17249 21.2839 6.00997 21.1214C5.89692 21.0083 5.83333 20.867 5.83333 20.7328C5.83333 20.6056 5.89692 20.4501 6.00291 20.3441L6.17955 20.1675C10.5532 20.1675 11.175 20.1887 11.606 20.2805C11.9098 20.3371 12.4115 20.5137 12.7224 20.6621C13.0332 20.8175 13.4572 21.079 13.6762 21.2485C13.8882 21.4181 14.2203 21.7643 14.404 22.0116C14.5948 22.2589 14.8633 22.6899 14.9904 22.9584C15.1247 23.234 15.2872 23.7286 15.3508 24.0748L15.478 24.6895H16.5731V19.6022H13.5349C13.1816 19.249 13.1816 19.2348 13.1816 18.0125V16.776C12.7153 16.7901 12.3691 16.8184 12.1218 16.8537C11.8674 16.889 11.3869 16.9668 11.0619 17.0303ZM14.3121 18.4717H18.2689V17.3412H14.3121V18.4717ZM27.101 18.8533C26.8466 18.9593 26.4368 19.1783 26.1895 19.3408C25.9352 19.5033 25.5324 19.8495 25.2851 20.118C25.0378 20.3795 24.84 20.6268 24.84 20.6621C24.84 20.7116 25.7868 20.7328 27.5391 20.7328H30.2452C32.7253 21.1991 33.4672 21.3121 33.4884 21.2839C33.5096 21.2485 33.4389 21.079 33.34 20.8953C33.234 20.7045 32.8878 20.3017 32.5769 19.9909C32.266 19.68 31.7997 19.3055 31.5524 19.1571C31.298 19.0158 30.8387 18.8109 30.5278 18.712C30.111 18.5848 29.7577 18.5212 29.2207 18.5071C28.7544 18.4859 28.3022 18.5141 28.0195 18.5707C27.7652 18.6272 27.3483 18.7544 27.101 18.8533ZM17.7037 24.6895H18.8342C18.8342 22.6687 18.8695 22.0752 18.919 21.8986C18.9684 21.729 19.138 21.4746 19.357 21.2627C19.5761 21.0436 19.8234 20.8741 20 20.8175C20.1554 20.7751 20.3321 20.7328 20.4027 20.7328C20.5087 20.7328 20.5299 20.6621 20.5299 20.1675V19.6022H17.7037V24.6895ZM8.9069 21.7431C8.67373 21.8633 8.28512 22.16 8.05195 22.3932C7.81879 22.6264 7.52909 23.0079 7.40191 23.2411C7.2818 23.4742 7.13342 23.8699 7.06983 24.1243C7.0133 24.3786 6.96384 24.7602 6.96384 24.9722C6.96384 25.1841 7.0133 25.5657 7.06983 25.82C7.13342 26.0744 7.2818 26.4701 7.40191 26.7032C7.52909 26.9364 7.81879 27.318 8.05195 27.5511C8.28512 27.7843 8.67373 28.081 8.9069 28.2012C9.14007 28.3283 9.53574 28.4767 9.79011 28.5333C10.0374 28.5968 10.419 28.6463 10.638 28.6463C10.85 28.6463 11.2315 28.5968 11.4859 28.5333C11.7332 28.4767 12.1359 28.3283 12.3691 28.2012C12.6022 28.081 12.9838 27.7843 13.217 27.5511C13.4501 27.318 13.7398 26.9364 13.8599 26.7032C13.9871 26.4701 14.1355 26.0744 14.1991 25.82C14.2556 25.5657 14.3051 25.1841 14.3051 24.9722C14.3051 24.7602 14.2556 24.3786 14.1991 24.1243C14.1355 23.8699 13.9871 23.4742 13.867 23.2411C13.7398 23.0079 13.4501 22.6264 13.217 22.3932C12.9838 22.16 12.6022 21.8633 12.3691 21.7431C12.1359 21.616 11.7332 21.4676 11.4859 21.4111C11.2315 21.3475 10.8358 21.3051 10.6027 21.3051C10.3695 21.3051 9.98795 21.3545 9.75478 21.4111C9.52161 21.4676 9.14007 21.616 8.9069 21.7431ZM20.1413 22.0399C19.9717 22.2095 19.9647 22.2307 19.9647 23.559C19.9647 24.9015 19.9647 24.9015 20.1413 25.0781L20.318 25.2548H30.1039C35.1135 24.3433 35.3466 24.2868 35.5445 24.1172C35.7282 23.9476 35.7564 23.877 35.7564 23.559C35.7564 23.2411 35.7282 23.1704 35.5445 23.0079C35.3466 22.8313 35.1135 22.7747 32.7182 22.3367L30.1039 21.8633H20.3109L20.1413 22.0399ZM30.3159 26.3853C25.8009 26.3853 24.84 26.4135 24.84 26.463C24.84 26.4983 25.0378 26.7456 25.2781 27C25.5254 27.2614 25.9422 27.6218 26.2178 27.7984C26.4863 27.9751 26.9314 28.2082 27.207 28.3071C27.4755 28.4061 27.9347 28.5333 28.2315 28.5827C28.5565 28.6322 28.9946 28.6534 29.3761 28.6251C29.7153 28.5968 30.224 28.505 30.5066 28.4202C30.7893 28.3283 31.2415 28.1305 31.517 27.9751C31.7855 27.8267 32.2236 27.4946 32.4921 27.2402C32.7606 26.9859 33.0997 26.5902 33.2552 26.357C33.4106 26.1239 33.5308 25.9048 33.5308 25.8766C33.5308 25.8483 33.4601 25.8271 33.3682 25.8271C33.2835 25.8342 32.5557 25.9613 31.7643 26.1097L30.3159 26.3853ZM10.6027 23.0079C10.7581 23.0008 11.0549 23.0503 11.2739 23.1139C11.5636 23.1987 11.7544 23.3259 12.0229 23.5943C12.3055 23.877 12.4115 24.0466 12.5104 24.3786C12.5881 24.6542 12.6164 24.9298 12.5952 25.1559C12.574 25.3466 12.4821 25.6646 12.3832 25.8624C12.2843 26.0532 12.1147 26.3005 12.0017 26.4065C11.8886 26.5054 11.6766 26.6608 11.5212 26.7386C11.3658 26.8234 11.0619 26.9081 10.85 26.9293C10.5744 26.9647 10.3342 26.9364 10.0374 26.8516C9.69825 26.7527 9.53574 26.6467 9.25312 26.3641C8.99875 26.1027 8.86451 25.8907 8.77972 25.6151C8.70906 25.4032 8.65253 25.1135 8.65253 24.9792C8.65253 24.845 8.70199 24.5694 8.75852 24.3786C8.81505 24.1808 8.97049 23.8982 9.09767 23.7498C9.22485 23.5943 9.45096 23.3965 9.59227 23.3047C9.74065 23.2128 9.95968 23.1139 10.0869 23.0786C10.214 23.0432 10.4472 23.0079 10.6027 23.0079ZM9.98795 24.4422C9.86076 24.5906 9.82544 24.7178 9.82544 24.9863C9.82544 25.283 9.8537 25.3608 10.0515 25.5586C10.2494 25.7564 10.3342 25.7918 10.638 25.7918C10.9347 25.7918 11.0195 25.7564 11.2174 25.5586C11.4152 25.3608 11.4505 25.283 11.4505 24.9792C11.4505 24.6825 11.4152 24.5906 11.2386 24.414C11.0902 24.2656 10.9347 24.1879 10.744 24.1667C10.5885 24.1455 10.3907 24.1596 10.3059 24.1949C10.2211 24.2232 10.0798 24.3362 9.98795 24.4422ZM29.0017 23.0008C30.3441 23.0008 30.3512 23.0008 30.5278 23.1775C30.6338 23.2835 30.7045 23.4318 30.7045 23.5661C30.7045 23.6933 30.6338 23.8487 30.5278 23.9547C30.3583 24.1313 30.3512 24.1313 29.0087 24.1313C27.6663 24.1313 27.6663 24.1313 27.4896 23.9547C27.3766 23.8416 27.313 23.7003 27.313 23.559C27.313 23.4318 27.3836 23.2764 27.4896 23.1704C27.6592 23.0008 27.6663 23.0008 29.0017 23.0008Z" fill="#111111"/>
</svg>
