<svg width="40" height="40" viewBox="0 0 40 40" fill="none" xmlns="http://www.w3.org/2000/svg">
<path fill-rule="evenodd" clip-rule="evenodd" d="M30.1953 9.375L30.5469 9.54687C30.8047 9.67969 30.9453 9.82031 31.0781 10.0781C31.2344 10.4062 31.25 10.5312 31.25 13.125H34.0469C35.6875 13.125 36.9297 13.1562 37.0703 13.2031C37.1953 13.2422 37.3516 13.3672 37.4062 13.4766C37.4531 13.5859 37.5 13.7266 37.5 13.7891C37.5 13.8516 37.4141 14 37.1172 14.3359L38.6797 19.0234L39.1953 19.5703C39.4766 19.8672 39.7734 20.2578 39.8516 20.4297C39.9922 20.7187 40 20.9297 39.9844 23.7266C39.9609 26.6172 39.9531 26.7109 39.7969 26.9297C39.7031 27.0469 39.5156 27.2187 39.3672 27.3047C39.1328 27.4453 38.9375 27.4609 36.25 27.5L36.1719 27.9844C36.125 28.2578 36.0078 28.6484 35.9141 28.8672C35.8125 29.0781 35.5391 29.4453 35.3047 29.6797C35.0703 29.9141 34.7031 30.1875 34.4922 30.2891C34.2734 30.3828 33.8906 30.5 33.6328 30.5469C33.3125 30.5937 33 30.5937 32.6562 30.5391C32.3672 30.4922 31.9531 30.3516 31.6875 30.2109C31.4297 30.0703 31.0703 29.7812 30.875 29.5703C30.6875 29.3516 30.4688 29.0547 30.3906 28.9062C30.3125 28.7578 30.2344 28.5156 30.1562 28.125H22.8125C15.8672 28.125 15.4688 28.1328 15.4688 28.2578C15.4688 28.3359 15.3672 28.6094 15.2422 28.8672C15.1172 29.125 14.8438 29.5 14.6328 29.6953C14.4297 29.8906 14.0703 30.1484 13.8438 30.2578C13.625 30.375 13.1797 30.5078 12.8672 30.5547C12.3906 30.6328 12.2266 30.625 11.7969 30.5156C11.5156 30.4453 11.1328 30.2891 10.9375 30.1797C10.7422 30.0703 10.4531 29.8437 10 29.375L9.625 29.7109C9.42188 29.8984 9.07031 30.1484 8.84375 30.2578C8.625 30.375 8.23438 30.5078 7.98438 30.5547C7.67188 30.6094 7.39062 30.6094 7.03125 30.5547C6.75 30.5078 6.32812 30.375 6.09375 30.2578C5.85938 30.1406 5.5 29.8906 5.30469 29.6953C5.10938 29.4922 4.85938 29.1562 4.75 28.9453C4.64062 28.7266 4.53125 28.4609 4.45312 28.125L3.60938 28.1016C3.00781 28.0859 2.70312 28.0391 2.51562 27.9453C2.38281 27.875 2.1875 27.6953 2.08594 27.5547C1.9375 27.3438 1.91406 27.1797 1.86719 25.6641L1.38281 25.6172C1.11719 25.5937 0.78125 25.5078 0.640625 25.4375C0.507812 25.3672 0.304688 25.1797 0 24.7266V17.5547C0 11.8203 0.0234375 10.3437 0.101562 10.1328C0.15625 10 0.328125 9.78906 0.476562 9.67969C0.625 9.5625 0.8125 9.45312 0.898438 9.42969C0.984375 9.41406 7.60937 9.39062 30.1953 9.375ZM1.21094 24.4141L26.5234 24.4453C26.7656 24.7031 26.8359 24.8828 26.8359 25.0078C26.8359 25.1328 26.7578 25.3047 26.6562 25.4062L26.4766 25.5859L14.9219 25.625C15.1875 26.0156 15.3281 26.3047 15.3984 26.5234L15.5312 26.9141L30.0781 26.9531C30.1641 26.6797 30.2891 26.3828 30.4219 26.1172L30.6641 25.6328C29.2734 25.625 28.75 25.5937 28.6172 25.5469C28.4766 25.5078 28.3281 25.3984 28.2812 25.3125C28.2422 25.2266 28.2031 25.0781 28.2031 24.9766C28.2031 24.8828 28.25 24.7344 28.3125 24.6484C28.4062 24.5156 28.5391 24.4844 29.2344 24.4531L30.0391 24.4141V10.5859L1.17188 10.5469L1.21094 24.4141ZM31.25 24.4531C33.9141 24.4922 33.9531 24.5 34.4453 24.7266C34.7656 24.875 35.0859 25.1172 35.3516 25.3906C35.5703 25.625 35.8125 25.9375 35.8828 26.0703L36.0156 26.3281H38.8281V23.75C38.3438 23.75 38.1094 23.7109 37.9844 23.6641C37.8672 23.6172 37.7266 23.5234 37.6797 23.4531C37.625 23.375 37.5781 23.2344 37.5781 23.125C37.5781 23.0156 37.6562 22.8516 37.75 22.7578C37.8906 22.6172 38.0234 22.5781 38.375 22.5781H38.8281C38.8281 21.1953 38.7969 20.9297 38.7109 20.7969C38.5938 20.625 38.5938 20.625 36.0312 20.6016C33.6328 20.5859 33.4609 20.5781 33.2109 20.4297C33.0625 20.3437 32.875 20.1719 32.7812 20.0547C32.625 19.8438 32.6172 19.7187 32.5938 18.0234C32.5781 17.0234 32.5859 16.1328 32.6094 16.0312C32.6406 15.9297 32.7656 15.8125 32.9297 15.7422C33.1406 15.6484 33.5469 15.625 34.7266 15.625C35.5625 15.625 36.25 15.6016 36.25 15.5625C36.25 15.5312 36.1641 15.2344 36.0547 14.8984L35.8594 14.2969H31.25V24.4531ZM33.75 19.375C37.0781 19.375 37.5 19.3516 37.4922 19.2734C37.4922 19.2266 37.3047 18.6484 37.0859 18.0078L36.6797 16.8359L33.75 16.7969V19.375ZM3.04688 26.9531H4.41406C4.57812 26.4375 4.71094 26.1328 4.8125 25.9531L5 25.625H3.04688V26.9531ZM6.25781 26.0703C6.07031 26.2266 5.85156 26.4922 5.77344 26.6562C5.69531 26.8203 5.60938 27.1016 5.57812 27.2812C5.55469 27.4609 5.57812 27.7734 5.625 27.9687C5.67969 28.1562 5.82031 28.4609 5.9375 28.6328C6.0625 28.8125 6.32812 29.0391 6.57812 29.1719C6.91406 29.3516 7.08594 29.3984 7.46094 29.3984C7.71875 29.3984 8.05469 29.3437 8.20312 29.2812C8.35938 29.2109 8.60156 29.0547 8.75 28.9375C8.89062 28.8125 9.09375 28.5312 9.19531 28.3203C9.3151 28.0599 9.375 27.7865 9.375 27.5C9.375 27.25 9.3125 26.9297 9.23438 26.7578C9.15625 26.5859 8.96875 26.3203 8.82812 26.1719C8.67969 26.0312 8.41406 25.8437 8.24219 25.7656C8.05469 25.6797 7.75781 25.625 7.5 25.6328C7.26562 25.6328 6.96875 25.6641 6.83594 25.7031C6.71094 25.7422 6.45312 25.9062 6.25781 26.0703ZM11.4844 25.8984C11.3359 25.9922 11.1406 26.1562 11.0391 26.2578C10.9453 26.3594 10.8125 26.5859 10.7344 26.7578C10.6641 26.9297 10.6016 27.2656 10.6016 27.5391C10.6016 27.8594 10.6484 28.1016 10.7656 28.3203C10.8516 28.4922 11.0234 28.7266 11.1484 28.8516C11.2734 28.9766 11.5078 29.1484 11.6797 29.2344C11.8984 29.3438 12.1406 29.3984 12.4609 29.3984C12.7266 29.3984 13.0703 29.3359 13.2422 29.2578C13.4141 29.1875 13.6406 29.0547 13.7422 28.9531C13.8437 28.8594 14.0234 28.6484 14.1328 28.4766C14.3125 28.2031 14.3359 28.0781 14.3359 27.5312C14.3359 26.9609 14.3125 26.8594 14.1016 26.5156C13.9531 26.2734 13.7188 26.0391 13.4844 25.8984C13.1719 25.7031 13.0078 25.6562 12.5859 25.6484C12.3047 25.6406 12 25.6484 11.9141 25.6719C11.8281 25.7031 11.6406 25.7969 11.4844 25.8984ZM31.8125 26.1719C31.6641 26.3203 31.4922 26.5469 31.4297 26.6797C31.3594 26.8047 31.2891 27.125 31.2734 27.3828C31.2422 27.7578 31.2656 27.9297 31.4219 28.2734C31.5234 28.5 31.7266 28.7969 31.875 28.9297C32.0312 29.0547 32.2734 29.2187 32.4219 29.2812C32.5781 29.3437 32.9062 29.3984 33.1641 29.3984C33.5391 29.3984 33.7188 29.3516 34.0547 29.1719C34.3047 29.0391 34.5625 28.8125 34.6953 28.6328C34.8125 28.4609 34.9531 28.1562 35 27.9687C35.0547 27.7734 35.0781 27.4609 35.0469 27.2812C35.0234 27.1016 34.9375 26.8203 34.8594 26.6562C34.7734 26.4922 34.5781 26.2422 34.4062 26.0937C34.2422 25.9531 33.9922 25.7812 33.8516 25.7266C33.7109 25.6641 33.3984 25.625 33.1484 25.625C32.8828 25.625 32.5703 25.6797 32.3828 25.7656C32.2109 25.8437 31.9531 26.0312 31.8125 26.1719ZM2.82812 21.9531L28.3984 21.9453L28.5547 22.1094C28.6406 22.2031 28.7109 22.3828 28.7109 22.5C28.7109 22.6328 28.6406 22.8047 28.3594 23.0859L15.8047 23.1016C7.72656 23.1172 3.14844 23.1016 2.96875 23.0547C2.80469 23 2.66406 22.8984 2.60156 22.7734C2.54688 22.6641 2.5 22.5234 2.49219 22.4687C2.49219 22.4062 2.5625 22.2656 2.65625 22.1562L2.82812 21.9531ZM7.47656 26.9531C7.64844 26.9531 7.79688 27.0156 7.89844 27.125C7.98438 27.2266 8.05469 27.3906 8.05469 27.5C8.05469 27.6094 7.99219 27.7812 7.92188 27.8828C7.82031 28.0156 7.70312 28.0703 7.50781 28.0703C7.29688 28.0703 7.1875 28.0156 7.04688 27.8437C6.91406 27.6797 6.88281 27.5625 6.92188 27.4219C6.94531 27.3125 7.02344 27.1641 7.09375 27.0859C7.16406 27.0078 7.32812 26.9531 7.47656 26.9531ZM12.5156 26.9531C12.6406 26.9531 12.8125 27.0234 12.8984 27.1094C12.9844 27.1953 13.0547 27.375 13.0547 27.5156C13.0547 27.6797 13 27.8281 12.8906 27.9297C12.7969 28.0156 12.625 28.0859 12.5 28.0859C12.3672 28.0859 12.2031 28.0078 12.0938 27.9062C11.9844 27.7969 11.9219 27.6328 11.9219 27.4844C11.9219 27.3203 11.9766 27.1953 12.1016 27.0937C12.2031 27.0156 12.3906 26.9531 12.5156 26.9531ZM33.1797 26.9531C33.375 26.9531 33.4844 27.0078 33.6016 27.1641C33.6875 27.2812 33.7578 27.4219 33.7578 27.4766C33.7578 27.5312 33.7109 27.6641 33.6562 27.7734C33.6016 27.8828 33.4609 28.0078 33.3438 28.0469C33.1875 28.1016 33.0703 28.0937 32.9141 28.0156C32.7969 27.9609 32.6719 27.8516 32.6406 27.7812C32.6094 27.7109 32.5781 27.5781 32.5703 27.4844C32.5625 27.3906 32.6328 27.2344 32.7344 27.1328C32.8594 27.0156 33.0156 26.9531 33.1797 26.9531Z" fill="#111111"/>
</svg>
