<svg width="32" height="32" viewBox="0 0 32 32" fill="none" xmlns="http://www.w3.org/2000/svg">
<path d="M16.0013 2.66663C12.4659 2.66663 9.07214 4.07225 6.57422 6.57183C4.07422 9.07142 2.66797 12.4652 2.66797 16C2.66797 19.5347 4.07422 22.9285 6.57422 25.4281C9.07214 27.9277 12.4659 29.3333 16.0013 29.3333C19.5367 29.3333 22.9305 27.9277 25.4284 25.4281C27.9284 22.9285 29.3346 19.5347 29.3346 16C29.3346 12.4652 27.9284 9.07142 25.4284 6.57183C22.9305 4.07225 19.5367 2.66663 16.0013 2.66663Z" fill="url(#paint0_linear_272_7868)"/>
<path d="M8.70617 15.8591C12.5937 14.1658 15.1853 13.0493 16.4812 12.5099C20.1853 10.9697 20.9541 10.7022 21.4562 10.6932C21.5666 10.6914 21.8124 10.7187 21.9728 10.8485C22.1062 10.9579 22.1437 11.1058 22.1624 11.2095C22.1791 11.3133 22.202 11.5497 22.1833 11.7343C21.9833 13.8427 21.1145 18.9589 20.6728 21.3204C20.4874 22.3196 20.1187 22.6546 19.7624 22.6873C18.9874 22.7585 18.3999 22.1756 17.6499 21.6841C16.477 20.9147 15.8145 20.436 14.6749 19.6854C13.3583 18.8179 14.2124 18.341 14.9624 17.5618C15.1583 17.3579 18.5708 14.2547 18.6353 13.9733C18.6437 13.9381 18.652 13.8068 18.5728 13.7377C18.4958 13.6683 18.3812 13.692 18.2978 13.7108C18.1791 13.7374 16.3062 14.9766 12.6728 17.4281C12.1416 17.7935 11.6603 17.9716 11.227 17.9622C10.752 17.952 9.83534 17.6931 9.15409 17.4718C8.32076 17.2004 7.65617 17.0568 7.71451 16.5958C7.74367 16.3558 8.07492 16.1102 8.70617 15.8591Z" fill="white"/>
<defs>
<linearGradient id="paint0_linear_272_7868" x1="1336" y1="2.66663" x2="1336" y2="2669.33" gradientUnits="userSpaceOnUse">
<stop stop-color="#2AABEE"/>
<stop offset="1" stop-color="#229ED9"/>
</linearGradient>
</defs>
</svg>
