<svg width="32" height="32" viewBox="0 0 32 32" fill="none" xmlns="http://www.w3.org/2000/svg">
<g clip-path="url(#clip0_272_7853)">
<path d="M31.2464 8.25934C30.8729 6.87901 29.7946 5.80075 28.4143 5.42724C25.9311 4.75 15.9367 4.75 15.9367 4.75C15.9367 4.75 5.94224 4.77052 3.45903 5.44776C2.0787 5.82128 1.00044 6.89953 0.626929 8.27986C-0.124192 12.6922 -0.41561 19.4153 0.647452 23.6512C1.02096 25.0315 2.09922 26.1097 3.47955 26.4833C5.96276 27.1605 15.9572 27.1605 15.9572 27.1605C15.9572 27.1605 25.9516 27.1605 28.4348 26.4833C29.8152 26.1097 30.8934 25.0315 31.2669 23.6512C32.0591 19.2327 32.3033 12.5136 31.2464 8.25934Z" fill="#FF0000"/>
<path d="M12.7578 20.7575L21.0489 15.9552L12.7578 11.153V20.7575Z" fill="white"/>
</g>
<defs>
<clipPath id="clip0_272_7853">
<rect width="32" height="32" fill="white"/>
</clipPath>
</defs>
</svg>
