<svg width="24" height="24" viewBox="0 0 24 24" fill="none" xmlns="http://www.w3.org/2000/svg">
<path d="M12.9255 3C13.9379 3.0027 14.4518 3.0081 14.8955 3.0207L15.0701 3.027C15.2717 3.0342 15.4706 3.0432 15.7109 3.054C16.6685 3.099 17.3219 3.25019 17.8951 3.47249C18.4891 3.70108 18.9895 4.01068 19.4899 4.51016C19.9477 4.95991 20.3019 5.50416 20.5276 6.10492C20.7499 6.67821 20.9011 7.33159 20.9461 8.29007C20.9569 8.52947 20.9659 8.72836 20.9731 8.93086L20.9785 9.10545C20.992 9.54824 20.9974 10.0621 20.9992 11.0746L21.0001 11.746V12.925C21.0023 13.5814 20.9954 14.2379 20.9794 14.8941L20.974 15.0687C20.9668 15.2712 20.9578 15.4701 20.947 15.7095C20.902 16.668 20.749 17.3205 20.5276 17.8946C20.3019 18.4954 19.9477 19.0397 19.4899 19.4894C19.0402 19.9472 18.4959 20.3013 17.8951 20.5271C17.3219 20.7494 16.6685 20.9006 15.7109 20.9456L15.0701 20.9726L14.8955 20.978C14.4518 20.9906 13.9379 20.9969 12.9255 20.9987L12.2541 20.9996H11.076C10.4193 21.0019 9.76252 20.995 9.10596 20.9789L8.93137 20.9735C8.71772 20.9654 8.50412 20.9561 8.29058 20.9456C7.33301 20.9006 6.67962 20.7494 6.10544 20.5271C5.505 20.3012 4.96106 19.9471 4.51158 19.4894C4.05344 19.0397 3.69899 18.4955 3.473 17.8946C3.25071 17.3214 3.09951 16.668 3.05451 15.7095L3.02751 15.0687L3.02301 14.8941C3.00642 14.2379 2.99892 13.5814 3.00051 12.925V11.0746C2.99802 10.4182 3.00462 9.76171 3.02031 9.10545L3.02661 8.93086C3.03381 8.72836 3.04281 8.52947 3.05361 8.29007C3.09861 7.33159 3.24981 6.67911 3.4721 6.10492C3.69862 5.50392 4.05369 4.95965 4.51248 4.51016C4.9617 4.05257 5.50532 3.69845 6.10544 3.47249C6.67962 3.25019 7.33211 3.099 8.29058 3.054C8.52998 3.0432 8.72977 3.0342 8.93137 3.027L9.10596 3.0216C9.76222 3.00561 10.4187 2.99871 11.0751 3.0009L12.9255 3ZM12.0003 7.49989C10.8068 7.49989 9.66228 7.97399 8.81839 8.81788C7.9745 9.66177 7.5004 10.8063 7.5004 11.9998C7.5004 13.1932 7.9745 14.3378 8.81839 15.1817C9.66228 16.0256 10.8068 16.4997 12.0003 16.4997C13.1937 16.4997 14.3383 16.0256 15.1822 15.1817C16.0261 14.3378 16.5002 13.1932 16.5002 11.9998C16.5002 10.8063 16.0261 9.66177 15.1822 8.81788C14.3383 7.97399 13.1937 7.49989 12.0003 7.49989ZM12.0003 9.29985C12.3549 9.29979 12.706 9.36957 13.0335 9.5052C13.3611 9.64083 13.6588 9.83965 13.9096 10.0903C14.1603 10.341 14.3592 10.6386 14.495 10.9661C14.6307 11.2937 14.7006 11.6448 14.7007 11.9993C14.7007 12.3539 14.631 12.705 14.4953 13.0326C14.3597 13.3602 14.1609 13.6579 13.9102 13.9086C13.6595 14.1594 13.3619 14.3583 13.0344 14.494C12.7068 14.6298 12.3558 14.6997 12.0012 14.6997C11.2851 14.6997 10.5984 14.4153 10.0921 13.9089C9.58572 13.4026 9.30126 12.7158 9.30126 11.9998C9.30126 11.2837 9.58572 10.597 10.0921 10.0906C10.5984 9.5843 11.2851 9.29985 12.0012 9.29985M16.7261 6.14992C16.4277 6.14992 16.1416 6.26845 15.9306 6.47942C15.7196 6.69039 15.6011 6.97654 15.6011 7.2749C15.6011 7.57326 15.7196 7.8594 15.9306 8.07037C16.1416 8.28135 16.4277 8.39987 16.7261 8.39987C17.0244 8.39987 17.3106 8.28135 17.5216 8.07037C17.7325 7.8594 17.8511 7.57326 17.8511 7.2749C17.8511 6.97654 17.7325 6.69039 17.5216 6.47942C17.3106 6.26845 17.0244 6.14992 16.7261 6.14992Z" fill="#E8E8E8"/>
</svg>
