<svg width="25" height="24" viewBox="0 0 25 24" fill="none" xmlns="http://www.w3.org/2000/svg">
<path d="M20.6661 15.9791V18.3877C20.667 18.6113 20.6211 18.8327 20.5314 19.0375C20.4416 19.2424 20.31 19.4263 20.1449 19.5775C19.9798 19.7286 19.7849 19.8437 19.5726 19.9154C19.3604 19.987 19.1355 20.0136 18.9124 19.9935C16.4369 19.725 14.059 18.8808 11.9697 17.5286C10.026 16.2959 8.37804 14.6512 7.1429 12.7113C5.78331 10.6168 4.93722 8.23206 4.67316 5.75036C4.65305 5.52834 4.67949 5.30457 4.75079 5.0933C4.82208 4.88203 4.93668 4.6879 5.08727 4.52325C5.23787 4.35861 5.42116 4.22706 5.62549 4.13699C5.82981 4.04691 6.05069 4.00029 6.27406 4.00008H8.68749C9.07791 3.99624 9.4564 4.13422 9.75242 4.3883C10.0484 4.64237 10.2418 4.99521 10.2964 5.38103C10.3983 6.15185 10.5872 6.9087 10.8596 7.63713C10.9678 7.9245 10.9912 8.23682 10.9271 8.53707C10.8629 8.83732 10.7139 9.11292 10.4976 9.33121L9.47588 10.3509C10.6211 12.3609 12.2887 14.0252 14.3027 15.1682L15.3244 14.1485C15.5431 13.9326 15.8193 13.7839 16.1201 13.7198C16.421 13.6558 16.7339 13.6792 17.0219 13.7872C17.7517 14.059 18.5101 14.2476 19.2824 14.3492C19.6732 14.4042 20.0301 14.6007 20.2852 14.9012C20.5404 15.2017 20.6759 15.5853 20.6661 15.9791Z" stroke="#111111" stroke-width="1.5" stroke-linecap="round" stroke-linejoin="round"/>
</svg>
