<svg width="24" height="24" viewBox="0 0 24 24" fill="none" xmlns="http://www.w3.org/2000/svg">
<path fill-rule="evenodd" clip-rule="evenodd" d="M12.5 22C18.299 22 23 17.299 23 11.5C23 5.70101 18.299 1 12.5 1C6.70101 1 2 5.70101 2 11.5C2 17.299 6.70101 22 12.5 22ZM8.09989 8.47805H6.03589C6.13189 13.158 8.47189 15.966 12.5759 15.966H12.8159V13.29C14.3219 13.44 15.4619 14.544 15.9179 15.966H18.0479C17.8295 15.158 17.4423 14.4054 16.9117 13.7579C16.3812 13.1105 15.7193 12.5829 14.9699 12.21C15.6413 11.801 16.2212 11.258 16.6734 10.6149C17.1255 9.97171 17.4402 9.24226 17.5979 8.47205H15.6659C15.2459 9.96005 13.9979 11.31 12.8159 11.436V8.47805H10.8779V13.662C9.67789 13.362 8.16589 11.91 8.09989 8.47805Z" fill="#E8E8E8"/>
</svg>
