<svg width="40" height="40" viewBox="0 0 40 40" fill="none" xmlns="http://www.w3.org/2000/svg">
<path fill-rule="evenodd" clip-rule="evenodd" d="M20.8333 36.6666C30.4983 36.6666 38.3333 28.8316 38.3333 19.1666C38.3333 9.50164 30.4983 1.66663 20.8333 1.66663C11.1683 1.66663 3.33331 9.50164 3.33331 19.1666C3.33331 28.8316 11.1683 36.6666 20.8333 36.6666ZM13.4998 14.13H10.0598C10.2198 21.93 14.1198 26.61 20.9598 26.61H21.3598V22.15C23.8698 22.4 25.7698 24.24 26.5298 26.61H30.0798C29.7159 25.2632 29.0705 24.0089 28.1862 22.9298C27.3019 21.8508 26.1989 20.9715 24.9498 20.35C26.0688 19.6683 27.0353 18.7633 27.7889 17.6914C28.5425 16.6195 29.0671 15.4037 29.3298 14.12H26.1098C25.4098 16.6 23.3298 18.85 21.3598 19.06V14.13H18.1298V22.77C16.1298 22.27 13.6098 19.85 13.4998 14.13Z" fill="white"/>
</svg>
