<svg width="40" height="40" viewBox="0 0 40 40" fill="none" xmlns="http://www.w3.org/2000/svg">
<path d="M20.0017 3.33337C29.2067 3.33337 36.6683 10.795 36.6683 20C36.6683 29.205 29.2067 36.6667 20.0017 36.6667C17.0562 36.6718 14.1626 35.8923 11.6183 34.4084L3.34165 36.6667L5.59499 28.3867C4.10992 25.8416 3.32982 22.9467 3.33499 20C3.33499 10.795 10.7967 3.33337 20.0017 3.33337ZM14.3217 12.1667L13.9883 12.18C13.7728 12.1949 13.5622 12.2515 13.3683 12.3467C13.1876 12.4492 13.0226 12.5772 12.8783 12.7267C12.6783 12.915 12.565 13.0784 12.4433 13.2367C11.8269 14.0382 11.4949 15.0222 11.5 16.0334C11.5033 16.85 11.7167 17.645 12.05 18.3884C12.7317 19.8917 13.8533 21.4834 15.3333 22.9584C15.69 23.3134 16.04 23.67 16.4167 24.0017C18.2557 25.6207 20.4471 26.7883 22.8167 27.4117L23.7633 27.5567C24.0717 27.5734 24.38 27.55 24.69 27.535C25.1753 27.5094 25.6491 27.378 26.0783 27.15C26.2964 27.0373 26.5094 26.9149 26.7167 26.7834C26.7167 26.7834 26.7872 26.7356 26.925 26.6334C27.15 26.4667 27.2883 26.3484 27.475 26.1534C27.615 26.0089 27.7317 25.8412 27.825 25.65C27.955 25.3784 28.085 24.86 28.1383 24.4284C28.1783 24.0984 28.1667 23.9184 28.1617 23.8067C28.155 23.6284 28.0067 23.4434 27.845 23.365L26.875 22.93C26.875 22.93 25.425 22.2984 24.5383 21.895C24.4455 21.8546 24.3461 21.8315 24.245 21.8267C24.1309 21.8148 24.0157 21.8275 23.907 21.864C23.7983 21.9005 23.6987 21.96 23.615 22.0384C23.6067 22.035 23.495 22.13 22.29 23.59C22.2208 23.683 22.1256 23.7532 22.0163 23.7918C21.9071 23.8304 21.7888 23.8356 21.6767 23.8067C21.568 23.7778 21.4616 23.741 21.3583 23.6967C21.1517 23.61 21.08 23.5767 20.9383 23.5167C19.9814 23.0999 19.0957 22.5358 18.3133 21.845C18.1033 21.6617 17.9083 21.4617 17.7083 21.2684C17.0527 20.6404 16.4812 19.93 16.0083 19.155L15.91 18.9967C15.8404 18.8897 15.7834 18.7751 15.74 18.655C15.6767 18.41 15.8417 18.2134 15.8417 18.2134C15.8417 18.2134 16.2467 17.77 16.435 17.53C16.6183 17.2967 16.7733 17.07 16.8733 16.9084C17.07 16.5917 17.1317 16.2667 17.0283 16.015C16.5617 14.875 16.0794 13.7412 15.5817 12.6134C15.4833 12.39 15.1917 12.23 14.9267 12.1984C14.8367 12.1873 14.7467 12.1784 14.6567 12.1717C14.4329 12.1589 14.2085 12.1611 13.985 12.1784L14.3217 12.1667Z" fill="white"/>
</svg>
