<svg width="40" height="40" viewBox="0 0 40 40" fill="none" xmlns="http://www.w3.org/2000/svg">
<g clip-path="url(#clip0_6_173)">
<path fill-rule="evenodd" clip-rule="evenodd" d="M8.36712 0H34.7265L35.0859 0.351562L35.0781 3.69531C35.0781 6.92188 35.0702 7.03906 34.9218 7.1875C34.8359 7.27344 34.664 7.34375 34.5312 7.34375C34.3827 7.34375 34.2265 7.27344 33.9062 6.95312V1.17188H9.21868V34.0625H13.1249V26.9297C13.1171 19.9766 13.1249 19.7969 13.4218 19.4141H16.6562L16.8437 19.6328C16.9452 19.75 17.0312 19.9141 17.0312 20C17.0312 20.0859 16.9452 20.25 16.8437 20.375C16.6562 20.5859 16.6562 20.5859 14.2968 20.625V33.9062H38.8281V20.625H29.0468C22.8437 20.625 19.1718 20.6016 19.0234 20.5547C18.8671 20.5 18.7499 20.3828 18.6796 20.2188C18.5937 20 18.5937 19.9297 18.6796 19.7422C18.7421 19.625 18.8906 19.4922 19.0234 19.4453C19.1718 19.3984 21.9999 19.375 33.9062 19.375V9.375L34.1015 9.17969C34.2187 9.05469 34.3749 8.98438 34.5312 8.98438C34.664 8.98438 34.8359 9.05469 34.9218 9.14062C35.0781 9.29688 35.0781 9.39844 35.0781 19.375H37.2265C38.6015 19.375 39.4531 19.4062 39.5937 19.4609C39.7109 19.5078 39.8437 19.6016 39.8984 19.6719C39.9765 19.7734 39.9999 22.0469 39.9999 29.6875C40.0077 39.5078 40.0077 39.5703 39.6874 40L13.4765 40.0078L13.3046 39.8281C13.1327 39.6562 13.1327 39.6016 13.0859 35.2734L8.35931 35.2344L8.20306 35.0234C8.03899 34.8047 8.03899 34.7734 8.03118 0.414062L8.36712 0ZM14.2968 36.4062L38.789 36.3672L38.8281 35.0781H14.2968V36.4062ZM14.2968 38.8281H38.8281V37.5781H14.2968V38.8281ZM4.17962 1.89844C5.10931 1.91406 5.21868 1.92969 5.49212 2.10938C5.66399 2.21094 5.87493 2.42188 5.96087 2.57812C6.10149 2.8125 6.13274 3 6.15618 3.86719C6.18743 4.80469 6.20306 4.89844 6.56243 5.3125V10.0547C6.56243 14.7109 6.56243 14.8047 6.40618 15.0156C6.28899 15.1719 6.17962 15.2344 5.99212 15.2344C5.85149 15.2344 5.67181 15.1875 5.58587 15.125C5.43743 15.0156 5.42181 14.8984 5.35149 11.2891H2.77337L2.73431 30.1953L3.37493 31.2656C3.73431 31.8594 4.03899 32.3438 4.06243 32.3438C4.07806 32.3438 4.39056 31.8594 5.38274 30.1953L5.39056 23.6875C5.39056 17.2891 5.39056 17.1797 5.54681 17.0312C5.64056 16.9297 5.80462 16.875 5.97649 16.875C6.17962 16.875 6.28899 16.9219 6.40618 17.0859C6.56243 17.2969 6.56243 17.3594 6.52337 30.6641L5.49993 32.3438C4.71868 33.625 4.42962 34.0391 4.27337 34.1016C4.13274 34.1536 3.99212 34.1536 3.85149 34.1016C3.68743 34.0391 3.39837 33.625 1.60149 30.6641L1.52337 10.2812L1.36712 10.5078C1.21868 10.7266 1.20306 10.8906 1.18743 13.8672C1.16399 16.9688 1.16399 16.9922 0.992119 17.1641C0.890556 17.2656 0.726494 17.3438 0.601494 17.3438C0.476494 17.3438 0.304619 17.2578 -6.85375e-05 16.9531V13.8828C-0.00788104 11.4219 0.0155565 10.7422 0.109306 10.4297C0.171806 10.2109 0.359306 9.88281 0.523369 9.69531C0.687431 9.50781 0.984306 9.26562 1.56243 8.98438V5.3125L1.75774 5.07812C1.93743 4.85938 1.95306 4.78125 1.95306 4C1.95306 3.53906 1.98431 3.03125 2.03118 2.86719C2.07024 2.71094 2.22649 2.45312 2.38274 2.30469C2.53118 2.14844 2.76556 1.99219 2.90618 1.95312C3.04681 1.91406 3.61712 1.88281 4.17962 1.89844ZM3.12493 4.07031L3.16399 4.88281H4.96087C4.99212 3.49219 4.96868 3.21094 4.89837 3.14062C4.82806 3.07031 4.57024 3.03906 4.04681 3.03906C3.50774 3.04688 3.26556 3.07812 3.18743 3.15625C3.10931 3.23438 3.09368 3.46094 3.12493 4.07031ZM2.73431 7.73438H5.39056V6.09375H2.73431V7.73438ZM2.73431 10.0781H5.39056V8.90625H2.73431V10.0781ZM16.4921 4.45312H21.5624C26.5312 4.45312 26.6406 4.45312 26.7968 4.60938C26.8827 4.69531 26.9531 4.86719 26.9531 5.01562C26.9531 5.17969 26.8906 5.32812 26.789 5.42969C26.6249 5.57812 26.4999 5.58594 21.7265 5.60938C19.039 5.61719 16.7499 5.60938 16.6562 5.58594C16.5624 5.5625 16.414 5.47656 16.3281 5.39062C16.2421 5.30469 16.164 5.14844 16.164 5.04688C16.1562 4.94531 16.2265 4.77344 16.3202 4.65625L16.4921 4.45312ZM23.5156 8.35938L23.7109 8.55469C23.8202 8.66406 23.9062 8.82812 23.9062 8.92969C23.9062 9.02344 23.8359 9.19531 23.5937 9.53125H17.3593C12.2499 9.53125 11.1015 9.51562 10.9765 9.42969C10.8906 9.36719 10.7968 9.22656 10.7577 9.11719C10.7265 8.97656 10.7421 8.82812 10.8202 8.67969C10.8827 8.55469 10.9843 8.4375 11.0312 8.41406C11.0859 8.39062 13.9218 8.36719 23.5156 8.35938ZM32.0312 8.35938L32.2265 8.55469C32.3359 8.66406 32.4218 8.82812 32.4218 8.92969C32.4218 9.02344 32.3515 9.19531 32.1093 9.53125H29.4296C27.3124 9.53125 26.7265 9.50781 26.6015 9.42969C26.5156 9.36719 26.4218 9.22656 26.3827 9.11719C26.3515 8.97656 26.3671 8.82812 26.4452 8.67969C26.5077 8.55469 26.6093 8.4375 26.6562 8.41406C26.7109 8.39062 27.9452 8.36719 32.0312 8.35938ZM17.3202 11.7266C21.4765 11.7188 23.3437 11.7422 23.4921 11.8047C23.6171 11.8516 23.7499 11.9453 23.8046 12.0156C23.8593 12.0938 23.9062 12.2344 23.9062 12.3438C23.9062 12.4531 23.8359 12.6172 23.7499 12.7188C23.664 12.8125 23.5156 12.9062 23.414 12.9297C23.3202 12.9531 20.5077 12.9609 11.0937 12.9297L10.9218 12.75C10.8202 12.6484 10.7421 12.4766 10.7421 12.3516C10.7421 12.2266 10.8046 12.0547 10.8827 11.9688C10.9609 11.875 11.1015 11.7891 11.1952 11.7734C11.289 11.7578 14.0468 11.7344 17.3202 11.7266ZM29.3906 11.7266C31.3749 11.7188 31.8437 11.7422 32.0702 11.8359C32.2265 11.9062 32.3593 12.0234 32.3906 12.1328C32.414 12.2266 32.414 12.3984 32.3906 12.5234C32.3593 12.6562 32.2499 12.7812 32.1093 12.8516C31.914 12.9531 31.4609 12.9688 26.7031 12.9297L26.5156 12.7188C26.414 12.5938 26.3281 12.4375 26.3281 12.3672C26.3202 12.2891 26.3984 12.1328 26.4843 12.0156C26.5702 11.8984 26.7265 11.7891 26.8202 11.7734C26.914 11.7578 28.0702 11.7344 29.3906 11.7266ZM23.5156 15.1562L23.7109 15.3516C23.8202 15.4609 23.9062 15.6328 23.9062 15.7422C23.9062 15.8516 23.8202 16.0234 23.5234 16.3281H17.3437C13.9531 16.3281 11.1171 16.3047 11.0468 16.2734C10.9687 16.2344 10.8671 16.1172 10.8124 16C10.7421 15.8594 10.7265 15.7031 10.7577 15.5703C10.7968 15.4609 10.8906 15.3203 10.9765 15.2578C11.1015 15.1719 12.2499 15.1562 23.5156 15.1562ZM32.0312 15.1562L32.2265 15.3516C32.3359 15.4609 32.4218 15.6328 32.4218 15.7422C32.4218 15.8516 32.3359 16.0234 32.039 16.3281H29.3984C26.8906 16.3359 26.7499 16.3281 26.5624 16.1797C26.414 16.0703 26.3671 15.9531 26.3671 15.7422C26.3671 15.5312 26.414 15.4141 26.5546 15.3047C26.7265 15.1641 26.8984 15.1562 32.0312 15.1562ZM26.5156 21.9531C34.6718 21.9453 35.1249 21.9531 35.2968 22.0859C35.4218 22.1875 35.4921 22.3594 35.5468 22.6562C35.5781 22.8906 35.6796 23.1719 35.7577 23.2812C35.8437 23.3906 36.0624 23.5547 36.2577 23.6562C36.4452 23.75 36.6874 23.8281 36.7968 23.8281C36.9062 23.8203 37.0781 23.8906 37.3827 24.125L37.3984 27.1797C37.4218 29.7656 37.4062 30.2734 37.3046 30.4688C37.2421 30.6016 37.1093 30.7188 37.0077 30.7344C36.914 30.7578 36.7031 30.7891 36.539 30.8125C36.3827 30.8438 36.1327 30.9609 35.9921 31.0781C35.8593 31.2031 35.7031 31.4062 35.6484 31.5312C35.6015 31.6562 35.539 31.8906 35.5156 32.0547C35.4921 32.2109 35.3984 32.4141 35.3124 32.5C35.1562 32.6562 35.0546 32.6562 17.9687 32.6562L17.7734 32.4609C17.6484 32.3359 17.5781 32.1797 17.5781 32.0156C17.5781 31.875 17.4921 31.6172 17.3984 31.4453C17.2968 31.2734 17.0859 31.0547 16.914 30.9609C16.7421 30.8594 16.4843 30.7812 16.3437 30.7812C16.1796 30.7812 16.0234 30.7109 15.7031 30.3906V27.3281C15.6952 24.3594 15.7031 24.25 15.8593 24.0469C15.9687 23.8828 16.0859 23.8281 16.2656 23.8281C16.4062 23.8281 16.6796 23.75 16.8671 23.6484C17.0546 23.5547 17.2734 23.375 17.3515 23.2422C17.4296 23.1172 17.5312 22.8359 17.5702 22.6172C17.6171 22.4062 17.7109 22.1641 17.7812 22.0938C17.9062 21.9609 18.4296 21.9531 26.5156 21.9531ZM18.5546 23.5C18.4687 23.7031 18.2265 24.0469 18.0077 24.2656C17.789 24.4844 17.4531 24.7266 17.2421 24.8125L16.8671 24.9609L16.8749 29.6484C17.5859 29.9609 17.8827 30.1797 18.0781 30.3906C18.2577 30.5859 18.4687 30.9141 18.5546 31.1172L18.7109 31.4844H34.3749C34.6562 30.8516 34.8827 30.5234 35.0546 30.3516C35.2265 30.1797 35.5624 29.9453 35.8046 29.8281L36.2499 29.6094L36.2577 24.9609C35.6718 24.7266 35.3671 24.5312 35.2031 24.3828C35.0312 24.2266 34.7968 23.9453 34.6718 23.75C34.5468 23.5547 34.4531 23.3359 34.4531 23.2656C34.4531 23.1328 34.0234 23.125 26.5781 23.125H18.7031L18.5546 23.5ZM26.7577 24.3594C26.8827 24.375 27.1484 24.4219 27.3437 24.4688C27.539 24.5078 27.8359 24.625 28.0077 24.7266C28.1796 24.8281 28.5077 25.1094 28.7343 25.3672C28.9999 25.6563 29.2187 25.9922 29.3202 26.2734C29.4843 26.7109 29.4999 26.7266 29.7656 26.7266C29.914 26.7266 30.1093 26.7656 30.1952 26.8281C30.2812 26.8828 30.3749 27.0234 30.4062 27.1406C30.4452 27.2734 30.4296 27.4297 30.3593 27.5625C30.3046 27.6797 30.1952 27.8047 30.1249 27.8359C30.0546 27.8672 29.8827 27.8906 29.7421 27.8906C29.5156 27.8906 29.4765 27.9219 29.3437 28.2656C29.2577 28.4687 29.1015 28.7812 28.9843 28.9531C28.8671 29.125 28.6327 29.3828 28.4687 29.5312C28.2968 29.6797 27.9687 29.8906 27.7343 30C27.3671 30.1719 27.1952 30.2031 26.5624 30.2031C25.8906 30.2031 25.7734 30.1719 25.3124 29.9531C25.0312 29.8203 24.6484 29.5625 24.4609 29.3672C24.2734 29.1797 24.0234 28.8203 23.8984 28.5625C23.7734 28.3047 23.6718 28.0469 23.6718 27.9922C23.6718 27.9297 23.5624 27.8984 23.3749 27.8984C23.2031 27.8984 22.9999 27.8359 22.8671 27.7422C22.7109 27.625 22.6562 27.5156 22.6562 27.3281C22.6562 27.1719 22.7265 27.0078 22.8359 26.8984C22.9609 26.7656 23.0937 26.7188 23.3202 26.7266C23.6171 26.7266 23.6327 26.7109 23.7343 26.3906C23.7968 26.2109 23.9531 25.8828 24.0859 25.6719C24.2265 25.4609 24.4765 25.1797 24.6484 25.0391C24.8202 24.8984 25.1327 24.7031 25.3515 24.6094C25.5624 24.5156 25.914 24.4062 26.1327 24.3828C26.3437 24.3516 26.6249 24.3437 26.7577 24.3594ZM25.2577 26.1094C25.1171 26.25 24.9531 26.5312 24.8827 26.7266C24.8202 26.9141 24.7656 27.1953 24.7656 27.3516C24.7656 27.5 24.8515 27.7969 24.9452 28.0156C25.0468 28.2266 25.2499 28.5078 25.4062 28.6406C25.5624 28.7656 25.8202 28.9141 25.9843 28.9688C26.1562 29.0234 26.4218 29.0625 26.5781 29.0625C26.7421 29.0625 27.0077 29.0156 27.164 28.9453C27.3281 28.875 27.5624 28.7422 27.6952 28.6484C27.8202 28.5469 28.0077 28.3125 28.1093 28.125C28.2265 27.8984 28.289 27.6328 28.289 27.3516C28.2968 27.0859 28.2421 26.7812 28.1484 26.5703C28.0624 26.375 27.8749 26.1094 27.7265 25.9922C27.5781 25.8672 27.3437 25.7109 27.2031 25.6562C27.0702 25.6016 26.7656 25.5547 26.539 25.5547C26.3124 25.5547 25.9999 25.6172 25.8202 25.7031C25.6484 25.7812 25.3984 25.9609 25.2577 26.1094ZM20.2109 26.7266C21.3827 26.7266 21.4531 26.7344 21.6249 26.8984C21.7265 27 21.7968 27.1641 21.7968 27.2891C21.7968 27.4141 21.7109 27.5859 21.6015 27.7031C21.414 27.8906 21.3827 27.8984 20.2577 27.8984C19.2109 27.8984 19.0781 27.8828 18.8827 27.7422C18.7265 27.6172 18.6718 27.5156 18.6718 27.3125C18.6718 27.1406 18.7343 26.9766 18.8281 26.8828C18.9687 26.7344 19.0859 26.7266 20.2109 26.7266ZM34.1406 26.7266L34.2968 26.9375C34.3827 27.0547 34.4531 27.2344 34.4531 27.3281C34.4531 27.4219 34.3671 27.5938 34.2577 27.7031C34.0702 27.8906 34.039 27.8984 32.914 27.8984C31.8671 27.8984 31.7343 27.8828 31.539 27.7422C31.3827 27.6172 31.3281 27.5156 31.3281 27.3125C31.3281 27.1406 31.3906 26.9766 31.4843 26.8828C31.6249 26.7344 31.7421 26.7266 34.1406 26.7266Z" fill="#2551E8"/>
</g>
<defs>
<clipPath id="clip0_6_173">
<rect width="40" height="40" fill="white"/>
</clipPath>
</defs>
</svg>
