<svg width="50" height="16" viewBox="0 0 50 16" fill="none" xmlns="http://www.w3.org/2000/svg">
<g clip-path="url(#clip0_238_10163)">
<path d="M47.1488 5.89306H49.4163C49.1295 3.68615 47.5177 2.52612 45.2775 2.52612C43.0101 2.52612 41.4939 3.72861 41.4939 5.79404C41.4939 8.14239 43.4471 8.66578 44.4853 8.87806C45.8239 9.14683 47.1352 9.17514 47.1352 10.3634C47.1352 11.1698 46.4795 11.5659 45.5507 11.5659C44.4033 11.5659 43.6384 10.9717 43.4472 9.89664H41.207C41.3436 12.2167 42.9691 13.4616 45.3595 13.4616C47.5723 13.4616 49.3889 12.4147 49.3889 10.1513C49.3889 7.71797 47.2991 7.27945 45.8375 7.05309C44.8404 6.8975 43.7477 6.756 43.7477 5.6667C43.7477 4.90278 44.3077 4.43596 45.2502 4.43596C46.343 4.43596 46.9985 5.0726 47.1488 5.89306Z" fill="#403F41"/>
<path d="M39.9649 2.87976H37.8203V13.1361H39.9649V2.87976Z" fill="#403F41"/>
<path d="M31.3451 9.55702H34.1453C33.7082 10.6605 32.7247 11.1839 31.5909 11.1839C29.5967 11.1839 28.6679 9.58532 28.6679 8.00088C28.6679 6.40228 29.5421 4.77543 31.5773 4.77543C32.8203 4.77543 33.7491 5.36959 34.1043 6.43059L36.4127 6.4306C36.0166 4.03984 33.995 2.6676 31.6047 2.6676C28.6542 2.6676 26.4414 4.74712 26.4414 8.02919C26.4414 11.3537 28.8454 13.3201 31.5909 13.3201C34.2955 13.3201 36.4127 11.4952 36.4127 8.63752V7.80283H31.3451V9.55702Z" fill="#403F41"/>
<path d="M21.5352 2.6676C19.0766 2.6676 17.2598 4.26615 17.2735 6.92573H19.4863C19.459 5.76571 20.1693 4.70472 21.4259 4.70472C22.5187 4.70472 23.1607 5.49694 23.1607 6.40229C23.1607 7.30769 22.5187 7.81699 21.3303 8.36875C19.7049 9.1185 18.5439 9.59948 17.3555 10.0239V13.1362H25.633V11.0424H19.9504C19.9504 11.0424 19.9693 11.0363 19.9786 11.0334C20.9452 10.7301 21.6713 10.4005 22.5324 10.0097C24.3764 9.16096 25.4281 8.09991 25.4281 6.28916C25.4282 4.06808 23.8437 2.6676 21.5352 2.6676Z" fill="#403F41"/>
<path d="M11.4563 9.52875C8.66976 9.54292 8.21901 11.2829 8.06878 12.7542L8.0005 13.4049H7.44042L7.37213 12.7542C7.2219 11.2829 6.75749 9.54291 4.06657 9.52875C3.61582 8.56672 3.42459 7.78866 3.42459 6.91157C3.42459 4.71886 5.15934 2.66752 7.72725 2.66752C10.2952 2.66752 12.0026 4.70464 12.0026 6.92578C12.0026 7.78866 11.9207 8.56672 11.4563 9.52875ZM7.69998 0.00793457C3.46561 0.00793457 -0.00390625 3.60124 -0.00390625 8.00081C-0.00390625 12.4147 3.46561 16.0079 7.69998 16.0079C11.9753 16.0079 15.4312 12.4147 15.4312 8.00081C15.4312 3.60125 11.9753 0.00793457 7.69998 0.00793457Z" fill="#29B24A"/>
</g>
<defs>
<clipPath id="clip0_238_10163">
<rect width="49.4196" height="16" fill="white"/>
</clipPath>
</defs>
</svg>
