<svg xmlns="http://www.w3.org/2000/svg" xmlns:xlink="http://www.w3.org/1999/xlink" viewBox="0 0 493.04 67.95"><defs><style>.cls-1{fill:#020094;}.cls-2{fill:url(#linear-gradient);}.cls-3{fill:url(#linear-gradient-2);}.cls-4{fill:url(#linear-gradient-3);}.cls-5{fill:url(#linear-gradient-4);}.cls-6{fill:url(#linear-gradient-5);}.cls-7{fill:url(#linear-gradient-6);}</style><linearGradient id="linear-gradient" x1="107.91" y1="56.68" x2="8.07" y2="-11.74" gradientUnits="userSpaceOnUse"><stop offset="0.3" stop-color="#020094"/><stop offset="0.7" stop-color="#2551e8"/></linearGradient><linearGradient id="linear-gradient-2" x1="114.46" y1="47.11" x2="14.62" y2="-21.3" xlink:href="#linear-gradient"/><linearGradient id="linear-gradient-3" x1="101.15" y1="66.54" x2="1.31" y2="-1.88" xlink:href="#linear-gradient"/><linearGradient id="linear-gradient-4" x1="96.14" y1="73.86" x2="-3.71" y2="5.45" xlink:href="#linear-gradient"/><linearGradient id="linear-gradient-5" x1="271.48" y1="56.68" x2="171.64" y2="-11.74" gradientTransform="matrix(-1, 0, 0, 1, 217.13, 0)" xlink:href="#linear-gradient"/><linearGradient id="linear-gradient-6" x1="70.04" y1="70.88" x2="-10.66" y2="15.58" xlink:href="#linear-gradient"/></defs><g id="Слой_2" data-name="Слой 2"><g id="Слой_7" data-name="Слой 7"><path class="cls-1" d="M162.63,14.82v23.8a18.6,18.6,0,0,1-1.89,8.64,13.05,13.05,0,0,1-5.68,5.66,20.39,20.39,0,0,1-9.5,2q-8.16,0-12.47-4.19t-4.3-11.85v-24h10.74V38q0,4.2,1.57,6.09A5.68,5.68,0,0,0,145.73,46a6.89,6.89,0,0,0,3.57-.82,4.74,4.74,0,0,0,2-2.61A14,14,0,0,0,152,38V14.82Z"/><path class="cls-1" d="M208.59,54.36h-14L180.13,26.5h-.24q.13,1.28.24,3.06c.07,1.19.14,2.4.19,3.64s.08,2.34.08,3.34V54.36h-9.46V14.82h13.95L199.28,42.3h.17c-.06-.87-.11-1.87-.17-3s-.1-2.3-.15-3.47-.06-2.21-.06-3.11V14.82h9.52Z"/><path class="cls-1" d="M217.14,54.36V14.82h10.73V54.36Z"/><path class="cls-1" d="M273.42,34.53a29.61,29.61,0,0,1-1.09,8.32,17.07,17.07,0,0,1-3.42,6.45,15.05,15.05,0,0,1-6,4.16,23.81,23.81,0,0,1-8.74,1.44,23.31,23.31,0,0,1-8.61-1.44,15.32,15.32,0,0,1-6-4.14,17.19,17.19,0,0,1-3.49-6.45A28.91,28.91,0,0,1,235,34.48a26,26,0,0,1,2-10.72,15.12,15.12,0,0,1,6.32-7.06,21.38,21.38,0,0,1,10.93-2.51q6.75,0,11,2.52a15,15,0,0,1,6.21,7.09A26.8,26.8,0,0,1,273.42,34.53Zm-27.21,0a20.49,20.49,0,0,0,.81,6.14,7.9,7.9,0,0,0,2.57,3.95,7.26,7.26,0,0,0,4.6,1.38,7.38,7.38,0,0,0,4.7-1.38,7.63,7.63,0,0,0,2.51-3.95,21.25,21.25,0,0,0,.77-6.14,17,17,0,0,0-1.78-8.46Q258.61,23,254.25,23a7.34,7.34,0,0,0-4.67,1.4,7.93,7.93,0,0,0-2.57,4A21.12,21.12,0,0,0,246.21,34.53Z"/><path class="cls-1" d="M318.22,54.36h-14L289.76,26.5h-.24q.14,1.28.24,3.06c.07,1.19.14,2.4.19,3.64s.08,2.34.08,3.34V54.36h-9.46V14.82h13.95L308.91,42.3h.17c-.06-.87-.11-1.87-.17-3s-.1-2.3-.15-3.47-.06-2.21-.06-3.11V14.82h9.52Z"/><path class="cls-1" d="M365.42,54.36,363.47,47H350.62l-2,7.41H336.88l12.9-39.71H364L377.1,54.36Zm-4.17-16.17-1.7-6.5-.78-3c-.35-1.31-.69-2.66-1-4.06s-.59-2.55-.77-3.45c-.16.9-.39,2-.69,3.34s-.6,2.64-.92,3.94-.59,2.38-.82,3.24l-1.71,6.5Z"/><path class="cls-1" d="M415,14.82v23.8a18.6,18.6,0,0,1-1.89,8.64,13.1,13.1,0,0,1-5.68,5.66,20.39,20.39,0,0,1-9.5,2q-8.16,0-12.47-4.19t-4.3-11.85v-24H391.9V38q0,4.2,1.57,6.09A5.66,5.66,0,0,0,398.09,46a6.89,6.89,0,0,0,3.57-.82,4.75,4.75,0,0,0,2-2.61,14,14,0,0,0,.64-4.6V14.82Z"/><path class="cls-1" d="M440.75,54.36H430.07V23.55h-9.66V14.82h30v8.73h-9.63Z"/><path class="cls-1" d="M493,34.53a29.6,29.6,0,0,1-1.1,8.32,17.07,17.07,0,0,1-3.42,6.45,15,15,0,0,1-6,4.16,23.81,23.81,0,0,1-8.74,1.44,23.34,23.34,0,0,1-8.61-1.44,15.4,15.4,0,0,1-6-4.14,17.33,17.33,0,0,1-3.49-6.45,28.91,28.91,0,0,1-1.14-8.39,26,26,0,0,1,2-10.72,15.17,15.17,0,0,1,6.32-7.06,21.38,21.38,0,0,1,10.93-2.51q6.76,0,11,2.52a14.86,14.86,0,0,1,6.21,7.09A26.79,26.79,0,0,1,493,34.53Zm-27.22,0a20.47,20.47,0,0,0,.82,6.14,7.77,7.77,0,0,0,2.57,3.95A7.21,7.21,0,0,0,473.8,46a7.38,7.38,0,0,0,4.7-1.38A7.63,7.63,0,0,0,481,40.67a21.25,21.25,0,0,0,.77-6.14A17,17,0,0,0,480,26.07Q478.22,23,473.86,23a7.34,7.34,0,0,0-4.67,1.4,8,8,0,0,0-2.57,4A21.12,21.12,0,0,0,465.82,34.53Z"/><path class="cls-2" d="M49.93,27.44c1.22.11,2.43.24,3.63.4V0H36.79V27.37A82.44,82.44,0,0,1,49.93,27.44Z"/><path class="cls-3" d="M91.35,43.3,78.47,0H62.15L53.59,27.84A80,80,0,0,1,91.35,43.3Z"/><path class="cls-4" d="M93.07,67.9h5.6A80.33,80.33,0,0,0,36.79,27.45v.32A80.39,80.39,0,0,1,93.07,67.9Z"/><path class="cls-5" d="M75.07,67.9h6.57a80.54,80.54,0,0,0-44.85-40v.29C53.81,34.58,67.46,49.13,75.07,67.9Z"/><path class="cls-6" d="M3.64,27.44c-1.22.11-2.44.24-3.64.4V0H16.77V27.37A82.3,82.3,0,0,0,3.64,27.44Z"/><path class="cls-7" d="M27.6,67.89q12.52-.15,19.19-6.2a16.47,16.47,0,0,0,2.68-3.25,18.1,18.1,0,0,0-3.32-23.06,68.63,68.63,0,0,0-9.36-7V39.75c0,4-.88,6.8-2.65,8.43S30,50.61,26.8,50.61s-5.73-.8-7.47-2.39-2.56-4.45-2.56-8.47V0H0V40Q0,55.43,6.78,61.69T26.59,67.9c.36,0,.7,0,1,0Z"/></g></g></svg>