<svg width="56" height="56" viewBox="0 0 56 56" fill="none" xmlns="http://www.w3.org/2000/svg">
<path fill-rule="evenodd" clip-rule="evenodd" d="M33.817 9C35.0302 9 36.0182 9.08754 36.9562 9.25011C37.7192 9.38767 38.8073 9.63779 39.3951 9.80036C39.9829 9.97544 40.971 10.3256 41.5838 10.5882C42.2091 10.8633 43.0971 11.3135 43.5849 11.5887C44.0727 11.8638 44.9106 12.439 45.4609 12.8517C46.0112 13.2644 46.8492 13.9897 47.3245 14.4649C47.7997 14.9276 48.5251 15.7405 48.9379 16.2532C49.3506 16.766 49.9509 17.6539 50.2886 18.2291C50.6263 18.7919 51.1266 19.7798 51.4017 20.4051C51.6644 21.0429 52.0271 22.0183 52.1897 22.5686C52.3648 23.1188 52.5899 24.1068 52.7024 24.757C52.8025 25.4073 52.9276 26.4578 52.9776 27.0706C53.0276 27.6959 52.9901 28.8839 52.9026 29.7593C52.8275 30.6222 52.6024 31.9353 52.4148 32.6981C52.2147 33.4609 51.8144 34.6615 51.5018 35.3868C51.2016 36.1121 50.7263 37.0876 50.4387 37.5753C50.1635 38.063 49.5882 38.9009 49.1755 39.4511C48.7628 40.0014 48.0124 40.8642 47.5121 41.377C46.9993 41.8897 46.1613 42.615 45.6485 43.0027C45.1358 43.3904 44.4354 43.8906 44.0852 44.1032C43.7475 44.3283 42.872 44.7785 42.1466 45.1287C41.4212 45.4663 40.3831 45.8915 39.8328 46.0666C39.2825 46.2542 38.0694 46.5418 37.1439 46.7169C35.6555 47.0045 35.2303 47.0295 33.5794 46.9795C32.5538 46.942 31.2531 46.8294 30.7028 46.7294C30.1525 46.6168 29.2145 46.3792 28.6141 46.2041C28.0013 46.0291 26.9882 45.6664 26.3629 45.3913C25.725 45.1161 25.0997 44.766 24.9746 44.6159C24.8496 44.4534 24.7495 44.1782 24.762 43.9781C24.762 43.7906 24.8996 43.5029 25.0747 43.3278C25.2373 43.1528 25.4999 43.0152 25.6625 43.0152C25.8251 43.0152 26.3754 43.2028 26.8882 43.4404C27.401 43.678 28.2765 44.0031 28.8268 44.1782C29.3771 44.3533 30.2776 44.5784 30.8279 44.691C31.3782 44.791 32.0911 44.9036 33.0166 45.0161V43.8281C33.0166 42.7401 33.0416 42.615 33.3292 42.3274C33.5168 42.1273 33.767 42.0148 34.0171 42.0148C34.2548 42.0148 34.5049 42.1273 34.705 42.3274C34.9927 42.615 35.0177 42.7276 35.0177 44.9536L35.9932 44.866C36.5185 44.8035 37.5191 44.6159 38.2069 44.4408C38.8948 44.2658 39.9954 43.9031 40.6458 43.628C41.2961 43.3529 42.2717 42.8651 42.8095 42.54C43.3473 42.2149 44.1227 41.6896 45.2733 40.7642L44.4604 39.8888C43.835 39.2135 43.6474 38.9259 43.6474 38.6383C43.6474 38.4132 43.76 38.138 43.9601 37.9504C44.1477 37.7504 44.3979 37.6378 44.648 37.6378C44.9357 37.6378 45.1983 37.8129 46.7116 39.276L47.1369 38.8008C47.3745 38.5382 47.8623 37.8754 48.225 37.3252C48.5752 36.7749 49.0379 35.9871 49.2505 35.5744C49.4506 35.1617 49.7883 34.3488 50.0009 33.7611C50.2011 33.1733 50.4637 32.2729 50.5763 31.7602C50.6888 31.2474 50.8264 30.4096 50.964 29.0089H49.8133C48.7378 29.0089 48.6252 28.9839 48.3375 28.6963C48.1624 28.5212 48.0249 28.2336 48.0249 28.0335C48.0124 27.8459 48.1249 27.5583 48.2625 27.3832C48.4876 27.0956 48.6002 27.0706 50.9765 26.9455L50.8139 25.695C50.7263 25.0072 50.5262 23.9692 50.3511 23.3814C50.1886 22.7937 49.8259 21.8057 49.5632 21.193C49.3131 20.5802 48.7878 19.5797 48.4001 18.9795C48.0249 18.3792 47.4996 17.6289 46.7742 16.7535L45.8987 17.5663C45.2233 18.1916 44.9357 18.3792 44.648 18.3792C44.4104 18.3792 44.1602 18.2666 43.9601 18.0666C43.76 17.8665 43.6474 17.6164 43.6474 17.3787C43.6474 17.0911 43.8225 16.816 45.2858 15.3153L44.8106 14.8901C44.5479 14.6525 43.8851 14.1648 43.3348 13.8021C42.7845 13.452 41.9965 12.9893 41.5838 12.7767C41.1711 12.5766 40.3581 12.2389 39.7703 12.0264C39.1825 11.8263 38.282 11.5636 37.7692 11.4511C37.2564 11.3385 36.4184 11.201 35.0177 11.0634V12.2139C35.0177 13.2769 34.9927 13.402 34.705 13.6896C34.5174 13.8897 34.2673 14.0022 34.0171 14.0022C33.7795 14.0022 33.5294 13.8897 33.3292 13.6896C33.0416 13.402 33.0166 13.2894 33.0166 11.0634L32.1036 11.151C31.6158 11.201 30.7778 11.3385 30.2651 11.4511C29.7523 11.5636 28.8518 11.8263 28.2639 12.0264C27.6761 12.2389 26.9382 12.5391 26.613 12.7017C26.2754 12.8642 25.8751 13.0018 25.7 13.0018C25.5249 13.0018 25.2498 12.8642 25.0747 12.6891C24.8996 12.5141 24.762 12.2264 24.762 12.0264C24.7495 11.8388 24.8496 11.5636 24.9746 11.4011C25.0997 11.251 25.725 10.9008 26.3629 10.6257C26.9882 10.3506 28.0013 9.98794 28.6141 9.81286C29.2145 9.63779 30.215 9.40018 30.8279 9.30013C31.4532 9.18758 31.9785 9.07503 32.0035 9.05002C32.0285 9.02501 32.854 9 33.817 9ZM3.61284 27.0081H24.3868L24.6995 27.3207C24.8996 27.5208 25.0122 27.7709 25.0122 28.0085C25.0122 28.2336 24.8996 28.5087 24.3993 29.0089H3.62535L3.31267 28.6963C3.11256 28.4962 3 28.2461 3 28.0085C3.01251 27.7709 3.13758 27.4958 3.31267 27.3207L3.61284 27.0081ZM15.6195 15.0027H27.1383L27.451 15.3153C27.6386 15.5029 27.7637 15.7655 27.7637 16.0031C27.7637 16.2282 27.6386 16.4908 27.1508 17.0036H15.632L15.3193 16.6909C15.1192 16.4783 15.0066 16.2407 15.0066 15.9906C15.0191 15.7655 15.1317 15.4904 15.3193 15.3028L15.6195 15.0027ZM41.7464 19.2546C42.009 19.2546 42.2592 19.3671 42.4593 19.5672C42.6594 19.7798 42.772 20.0174 42.772 20.2925C42.7595 20.6427 42.4718 20.9929 37.5316 25.9451L37.7817 26.6954C37.9818 27.2832 38.0318 27.6333 37.9818 28.3211C37.9318 28.9464 37.8067 29.3966 37.5566 29.8843C37.3315 30.322 36.9813 30.7222 36.581 31.0349C36.2308 31.285 35.668 31.5851 35.3303 31.6976C34.9802 31.7977 34.3923 31.8977 34.0171 31.8977C33.6419 31.8977 33.0291 31.7977 32.0285 31.4475L31.4532 31.9853C31.028 32.3855 30.7903 32.5105 30.4777 32.5105C30.2275 32.5105 29.9649 32.398 29.7898 32.2229C29.6022 32.0478 29.5021 31.7977 29.5146 31.5476C29.5146 31.2474 29.6397 30.9973 30.4902 30.0719L30.24 29.3216C30.0524 28.7713 30.0024 28.3587 30.0399 27.7584C30.0775 27.2206 30.2025 26.6954 30.4276 26.2327C30.6653 25.7075 30.9529 25.3698 31.4157 24.9946C31.7784 24.7195 32.3537 24.4069 32.7039 24.3068C33.0416 24.2068 33.6419 24.1318 34.0171 24.1318C34.3923 24.1318 35.0052 24.2318 36.0182 24.5695L38.6822 21.9183C41.0335 19.5672 41.3962 19.2546 41.7464 19.2546ZM32.3412 26.9205C32.1411 27.1831 32.0786 27.4708 32.0786 28.0085C32.0786 28.5587 32.1411 28.8339 32.3412 29.0965C32.4788 29.2841 32.7914 29.5467 33.0291 29.6717C33.2542 29.7843 33.7045 29.8843 34.0171 29.8843C34.3298 29.8843 34.7675 29.7843 35.0052 29.6717C35.2428 29.5467 35.5555 29.2841 35.6931 29.0965C35.8807 28.8339 35.9557 28.5587 35.9557 28.0085C35.9557 27.4708 35.8807 27.1831 35.6931 26.9205C35.5555 26.7329 35.2428 26.4703 35.0052 26.3578C34.7675 26.2327 34.3298 26.1327 34.0171 26.1327C33.7045 26.1327 33.2542 26.2327 33.0291 26.3578C32.7914 26.4703 32.4788 26.7329 32.3412 26.9205ZM9.61615 21.0054H17.6581C25.5499 21.0054 25.7 21.0054 25.9752 21.2555C26.1378 21.393 26.2879 21.6306 26.3379 21.7932C26.3754 21.9433 26.3504 22.2059 26.2754 22.381C26.2003 22.5561 26.0002 22.7687 25.8251 22.8562C25.5875 22.9687 23.6739 23.0063 9.62866 23.0063L9.31599 22.6936C9.11588 22.4935 9.00331 22.2434 9.00331 22.0058C9.01582 21.7682 9.12838 21.4931 9.31599 21.318L9.61615 21.0054ZM9.61615 33.0107L17.6581 32.9982C25.5499 32.9982 25.7 33.0107 25.9752 33.2483C26.1378 33.3984 26.2879 33.636 26.3379 33.7861C26.3754 33.9487 26.3504 34.2113 26.2754 34.3863C26.2003 34.5489 26.0002 34.7615 25.8251 34.8491C25.5875 34.9741 23.6739 35.0116 9.62866 35.0116L9.31599 34.699C9.11588 34.4989 9.00331 34.2488 9.00331 33.9987C9.00331 33.7736 9.12838 33.4985 9.31599 33.3109L9.61615 33.0107ZM15.6195 39.0134H27.1383L27.451 39.3261C27.6386 39.5261 27.7637 39.7888 27.7637 40.0139C27.7637 40.2515 27.6386 40.5141 27.1508 41.0143H15.632L15.3193 40.7017C15.1192 40.5016 15.0066 40.2515 15.0066 40.0139C15.0066 39.7763 15.1317 39.5011 15.3193 39.3261L15.6195 39.0134Z" fill="#5685FF"/>
</svg>
