<svg width="40" height="40" viewBox="0 0 40 40" fill="none" xmlns="http://www.w3.org/2000/svg">
<path d="M5 17.0567L6.245 16.95C6.21631 16.6299 6.06539 16.3331 5.8236 16.1213C5.58181 15.9095 5.26773 15.799 4.9466 15.8127C4.62547 15.8265 4.32196 15.9634 4.09913 16.195C3.8763 16.4267 3.75126 16.7352 3.75 17.0567H5ZM33.7267 20.095L32.55 26.895L35.015 27.3217L36.19 20.5217L33.7267 20.095ZM22.075 35.4167H14.3267V37.9167H22.075V35.4167ZM12.8083 34.0217L11.455 18.3667L8.96333 18.5817L10.3183 34.2367L12.8083 34.0217ZM32.55 26.895C31.705 31.7783 27.3017 35.4167 22.075 35.4167V37.9167C28.4517 37.9167 33.9517 33.4683 35.015 27.3217L32.55 26.895ZM22.0917 8.5L20.9867 15.2417L23.4533 15.645L24.5583 8.905L22.0917 8.5ZM11.98 17.0767L14.3783 15.01L12.745 13.1167L10.35 15.1833L11.98 17.0767ZM18.74 8.28667L19.5333 5.23L17.1133 4.60334L16.32 7.65834L18.74 8.28667ZM20.73 4.63L20.9717 4.70834L21.7367 2.32834L21.495 2.25L20.73 4.63ZM17.5383 11.36C18.0586 10.3865 18.462 9.3549 18.74 8.28667L16.32 7.65834C16.0903 8.53548 15.7592 9.38287 15.3333 10.1833L17.5383 11.36ZM20.9717 4.70834C21.2091 4.7811 21.4245 4.91231 21.598 5.08994C21.7716 5.26757 21.8978 5.48594 21.965 5.725L24.385 5.09834C24.2135 4.4505 23.8807 3.85668 23.4175 3.37229C22.9544 2.88791 22.3761 2.52875 21.7367 2.32834L20.9717 4.70834ZM19.5333 5.23C19.5671 5.11019 19.6262 4.99905 19.7067 4.90415C19.7873 4.80924 19.8873 4.73279 20 4.68L18.915 2.42834C18.0283 2.855 17.3617 3.645 17.1133 4.60334L19.5333 5.23ZM20 4.68C20.2283 4.57171 20.4891 4.55385 20.73 4.63L21.495 2.25C20.6438 1.97789 19.7207 2.04169 18.915 2.42834L20 4.68ZM23.59 18.3067H32.2233V15.8067H23.59V18.3067ZM7.865 35.6767L6.245 16.95L3.755 17.165L5.37167 35.8917L7.865 35.6767ZM6.25 35.855V17.0567H3.75V35.855H6.25ZM5.37167 35.8917C5.36658 35.8311 5.37582 35.7701 5.39556 35.7126C5.4153 35.6552 5.44678 35.6024 5.488 35.5577C5.52922 35.5131 5.57928 35.4775 5.635 35.4532C5.69072 35.4289 5.75088 35.4165 5.81167 35.4167V37.9167C7.02167 37.9167 7.96833 36.88 7.865 35.6767L5.37167 35.8917ZM24.5583 8.905C24.7678 7.63798 24.7088 6.34107 24.385 5.09834L21.965 5.72667C22.2014 6.63198 22.2445 7.57691 22.0917 8.5L24.5583 8.905ZM14.3267 35.4167C13.945 35.416 13.5775 35.2724 13.2964 35.0142C13.0154 34.756 12.8412 34.4019 12.8083 34.0217L10.3183 34.2367C10.4051 35.2403 10.8648 36.1749 11.6068 36.8562C12.3489 37.5374 13.3193 37.9158 14.3267 37.9167V35.4167ZM14.3783 15.01C15.5117 14.0333 16.7317 12.8717 17.54 11.36L15.3333 10.1833C14.7567 11.265 13.8383 12.1767 12.745 13.1167L14.3783 15.01ZM36.19 20.5217C36.2903 19.9433 36.263 19.35 36.11 18.7833C35.9569 18.2166 35.6818 17.6903 35.3039 17.2411C34.926 16.7919 34.4545 16.4308 33.9223 16.183C33.3902 15.9352 32.8103 15.8068 32.2233 15.8067V18.3067C33.1683 18.3067 33.89 19.16 33.7267 20.095L36.19 20.5217ZM5.81167 35.4167C6.055 35.4167 6.25 35.6133 6.25 35.855H3.75C3.75 36.9917 4.67167 37.9167 5.81167 37.9167V35.4167ZM20.9867 15.2417C20.9245 15.6193 20.9453 16.0059 21.0475 16.3747C21.1498 16.7435 21.331 17.0857 21.5787 17.3774C21.8263 17.6692 22.1345 17.9036 22.4818 18.0643C22.8292 18.2251 23.2073 18.3067 23.59 18.3067V15.8067C23.5697 15.8068 23.5496 15.804 23.5311 15.7955C23.5127 15.7869 23.4963 15.7744 23.4833 15.7588C23.4702 15.7432 23.4608 15.7249 23.4556 15.7052C23.4504 15.6856 23.4497 15.665 23.4533 15.645L20.9867 15.2417ZM11.455 18.3667C11.4347 18.1253 11.4701 17.8826 11.5617 17.6584C11.6532 17.4342 11.7966 17.2348 11.98 17.0767L10.3467 15.1817C9.86357 15.5986 9.48629 16.1241 9.24581 16.7152C9.00533 17.3062 8.90852 17.9459 8.96333 18.5817L11.455 18.3667Z" fill="white"/>
</svg>
