<svg width="40" height="40" viewBox="0 0 40 40" fill="none" xmlns="http://www.w3.org/2000/svg">
<g clip-path="url(#clip0_186_3791)">
<path fill-rule="evenodd" clip-rule="evenodd" d="M25.8216 0.00781527C26.5404 2.77022e-06 26.7904 0.0312528 27.3451 0.203128C27.7123 0.312503 28.2357 0.52344 28.517 0.671878C28.7982 0.820315 29.2279 1.09375 29.4779 1.28907C29.7201 1.48438 30.1185 1.875 30.3529 2.17188C30.5951 2.46094 30.9076 2.9375 31.0482 3.24219C31.1966 3.54688 31.3763 4 31.4623 4.25782C31.5716 4.625 31.6029 4.97657 31.6029 5.85938C31.6029 6.9375 31.5873 7.02344 31.3529 7.69532C31.2123 8.08594 30.9779 8.59375 30.8451 8.82813C30.7045 9.0625 30.2904 9.5625 29.9232 9.92969C29.3451 10.5156 29.1498 10.6563 28.4388 11C27.931 11.2422 27.3841 11.4453 27.0091 11.5156C26.681 11.5859 26.3373 11.6406 26.2513 11.6406C26.142 11.6406 25.9935 11.8047 25.7513 12.2109C25.5638 12.5156 25.181 12.9922 24.9076 13.2656C24.642 13.5313 24.431 13.7656 24.4545 13.7813C24.4779 13.7891 24.8763 13.8984 25.3529 14.0156C25.8295 14.1406 26.6498 14.3906 27.1888 14.5859C27.7279 14.7813 28.6029 15.1484 29.142 15.4141C29.681 15.6797 30.5248 16.1641 31.017 16.4922C31.5091 16.8203 32.2123 17.3516 32.5795 17.6719C32.9466 17.9922 33.4857 18.5156 33.7748 18.8359C34.0716 19.1563 34.5091 19.7031 35.1966 20.7031L35.3607 20.4453C35.4545 20.3125 35.6185 20.0234 35.7357 19.8047C35.8451 19.5938 35.9388 19.3672 35.9388 19.3203C35.9388 19.2656 35.7357 19.1094 35.4935 18.9766C35.2435 18.8359 34.7748 18.4609 34.4545 18.1328C34.0795 17.75 33.7826 17.3672 33.642 17.0703C33.4701 16.7266 33.3998 16.4453 33.3763 16.0156C33.3451 15.5703 33.3685 15.3281 33.4857 15C33.5951 14.6875 33.7591 14.4453 34.1029 14.0938C34.4857 13.7109 34.6576 13.5938 35.0404 13.4844C35.3607 13.3828 35.6654 13.3516 36.017 13.3672C36.3451 13.3906 36.6654 13.4688 36.9154 13.5938C37.1341 13.6953 37.4388 13.9141 37.6029 14.0781C37.7591 14.2422 37.9623 14.5156 38.0482 14.6875C38.1341 14.8594 38.2435 15.2031 38.2904 15.4531C38.3451 15.7813 38.3451 16.1484 38.2748 16.8359C38.2201 17.3516 38.1732 17.875 38.1654 18.2422L38.8295 18.3281C39.1966 18.375 39.5482 18.4375 39.6107 18.4609C39.6732 18.4922 39.7904 18.625 39.8763 18.7656C39.9779 18.9453 40.0091 19.1016 39.9779 19.2969C39.9466 19.4453 39.8373 19.6563 39.7201 19.7656C39.5482 19.9375 39.4545 19.9609 38.9623 19.9609C38.6498 19.9609 38.2123 19.9375 37.5795 19.8438L37.2279 20.5313C37.0404 20.9063 36.6888 21.4688 36.017 22.3438L36.2123 22.9688C36.3216 23.3125 36.4623 23.8984 36.5248 24.2813C36.5873 24.6563 36.642 25.3438 36.642 25.8203C36.642 26.2969 36.5873 27 36.5248 27.3828C36.4545 27.7656 36.3138 28.3672 36.2045 28.7109C36.0951 29.0547 35.8216 29.7188 35.5873 30.1953C35.3529 30.6719 34.9232 31.3828 34.6263 31.7891C34.3373 32.1953 33.806 32.8281 33.4388 33.1953C33.0716 33.5703 32.517 34.0781 31.642 34.7656V37.0703C31.642 38.6875 31.6107 39.4297 31.5482 39.5547C31.5013 39.6484 31.3841 39.7891 31.2982 39.8594C31.1498 39.9766 30.9076 39.9922 29.1966 40C27.4857 40 27.2435 39.9844 27.0638 39.8672C26.9232 39.7734 26.6654 39.3516 26.3216 38.6563C26.0248 38.0625 25.7748 37.5781 25.7591 37.5781C25.7513 37.5781 25.4623 37.6484 25.1185 37.7266C24.7748 37.8125 24.056 37.9531 23.517 38.0391C22.9779 38.1328 21.9701 38.2344 21.267 38.2813C20.4154 38.3359 19.5873 38.3359 18.7279 38.2813C18.0326 38.2344 17.0248 38.1328 16.4857 38.0391C15.9466 37.9531 15.2357 37.8125 14.8998 37.7344C14.5716 37.6484 14.2826 37.5781 14.2591 37.5781C14.2357 37.5781 13.9779 38.0625 13.681 38.6563C13.3373 39.3516 13.0795 39.7734 12.9388 39.8672C12.7591 39.9844 12.5091 40 8.86852 40L8.65758 39.8047C8.53258 39.6953 8.43102 39.6016 8.42321 39.5938C8.41539 39.5781 8.38414 38.5 8.32164 34.8125L5.27477 32.9219C3.59508 31.875 2.01696 30.8359 1.75914 30.6016C1.50133 30.375 1.11852 29.9219 0.899768 29.6016C0.681018 29.2734 0.415393 28.7344 0.290393 28.3594C0.141955 27.9219 0.0482053 27.4688 0.0247678 27.0313C-0.00648218 26.5547 0.0169553 26.2266 0.110705 25.8594C0.181018 25.5781 0.337268 25.1953 0.446643 25C0.56383 24.8047 0.81383 24.4844 1.00914 24.2891C1.21227 24.0938 1.61071 23.8203 1.91539 23.6719C2.33727 23.4766 2.60289 23.3984 3.68102 23.3203L3.87633 22.7344C3.98571 22.4141 4.26696 21.7813 4.50133 21.3281C4.73571 20.875 5.12633 20.2344 5.37633 19.8906C5.61852 19.5547 5.85289 19.2344 5.89196 19.1875C5.93883 19.1328 5.85289 18.8672 5.64195 18.4375C5.47008 18.0703 5.25914 17.5469 5.18883 17.2656C5.11852 16.9844 5.04821 16.4688 5.04821 16.1172C5.04039 15.5313 5.05602 15.4531 5.23571 15.2734C5.37633 15.125 5.54039 15.0547 5.82164 15.0234C6.04039 15 6.49352 15.0391 6.83727 15.1016C7.18102 15.1641 7.65758 15.2891 7.89196 15.3828C8.12633 15.4688 8.57164 15.6875 8.86852 15.8672C9.35289 16.1563 9.43102 16.1797 9.57164 16.0938C9.65758 16.0391 10.0795 15.8047 10.5091 15.5781C10.9388 15.3516 11.6966 15 12.1888 14.8047C12.681 14.6094 13.4935 14.3281 13.9857 14.1875C14.4779 14.0469 15.306 13.8516 15.8216 13.75C16.3373 13.6563 16.8138 13.5625 16.8763 13.5469C16.9623 13.5234 16.8763 13.3984 16.5951 13.1016C16.3763 12.8828 16.0716 12.5 15.9232 12.2656C15.767 12.0313 15.556 11.625 15.4466 11.3672C15.3373 11.1094 15.1888 10.6016 15.1107 10.2344C15.017 9.74219 14.9935 9.375 15.0248 8.82813C15.0482 8.42188 15.1498 7.83594 15.2357 7.53907C15.3295 7.24219 15.5248 6.76563 15.6732 6.48438C15.8138 6.20313 16.1185 5.75 16.3529 5.46875C16.5795 5.1875 16.9935 4.78907 17.2748 4.57813C17.5482 4.375 17.9701 4.10157 18.2045 3.98438C18.4388 3.86719 18.8607 3.69532 19.142 3.60938C19.4232 3.52344 19.8607 3.42969 20.5873 3.35157L20.8216 2.91407C20.9466 2.67188 21.2982 2.21094 21.6029 1.89063C21.9076 1.57032 22.3607 1.16407 22.6185 0.99219C22.8763 0.812503 23.2435 0.601565 23.4388 0.515628C23.6341 0.42969 24.056 0.281253 24.3763 0.187503C24.8138 0.0625028 25.181 0.0156278 25.8216 0.00781527ZM24.3529 1.95313C24.1341 2.03125 23.7904 2.21094 23.5951 2.33594C23.3998 2.46875 23.0716 2.74219 22.8607 2.94532C22.6576 3.14844 22.392 3.47657 22.2826 3.67188C22.1654 3.86719 22.017 4.1875 21.9388 4.39844C21.8607 4.60157 21.7591 5 21.7201 5.28906C21.6576 5.65625 21.6576 6 21.7201 6.40625C21.7748 6.79688 21.8998 7.19532 22.1029 7.61719C22.267 7.96094 22.5404 8.39844 22.7123 8.59375C22.8841 8.78907 23.2279 9.08594 23.4857 9.25782C23.7357 9.42188 24.1732 9.64844 24.4545 9.75C24.7513 9.85157 25.2279 9.95313 25.5873 9.97657C26.0248 10.0078 26.3763 9.97657 26.7591 9.88282C27.0638 9.8125 27.517 9.64844 27.7748 9.50782C28.0326 9.375 28.4779 9.03125 28.7591 8.75C29.1263 8.39063 29.3529 8.07813 29.556 7.65625C29.7045 7.33594 29.8763 6.84375 29.931 6.5625C29.9857 6.25782 30.0013 5.83594 29.9779 5.48438C29.9466 5.17969 29.8451 4.70313 29.7435 4.42969C29.6498 4.16407 29.4232 3.73438 29.2591 3.48438C29.0873 3.22657 28.7904 2.88282 28.5951 2.71094C28.3998 2.53907 27.9623 2.26563 27.6185 2.10157C27.2201 1.90625 26.7982 1.77344 26.4466 1.71875C26.142 1.67969 25.8295 1.64844 25.7435 1.64844C25.6576 1.65625 25.3998 1.6875 25.181 1.72657C24.9545 1.76563 24.5795 1.86719 24.3607 1.95313H24.3529ZM18.8295 5.55469C18.5482 5.70313 18.1263 6.01563 17.8841 6.25C17.5873 6.54688 17.3451 6.88282 17.1185 7.34375C16.8841 7.8125 16.767 8.17969 16.7123 8.59375C16.6498 9 16.6498 9.34375 16.7123 9.70313C16.7513 10 16.8529 10.3984 16.931 10.6016C17.0091 10.8125 17.1576 11.1328 17.2748 11.3281C17.3841 11.5234 17.681 11.8828 17.931 12.1328C18.1888 12.3828 18.5873 12.6797 18.8216 12.8047C19.056 12.9297 19.4466 13.0859 19.681 13.1563C19.9154 13.2188 20.306 13.2969 20.5404 13.3203C20.8138 13.3516 21.181 13.3281 21.556 13.25C21.8763 13.1797 22.3841 13.0078 22.6888 12.8594C23.0795 12.6641 23.392 12.4375 23.7826 12.0234L24.3295 11.4609C23.6029 11.1953 23.2513 11.0469 23.0795 10.9609C22.9076 10.875 22.5326 10.6172 22.2435 10.3984C21.9466 10.1797 21.6966 10 21.6732 10C21.6498 10 21.6341 10.2656 21.6341 10.5859C21.6341 11.125 21.6185 11.1875 21.4076 11.4063C21.2357 11.5781 21.1029 11.6406 20.8998 11.6406C20.7435 11.6406 20.5326 11.5938 20.4232 11.5391C20.3138 11.4922 20.1732 11.3438 20.1029 11.2109C20.0013 11.0156 19.9935 10.6875 20.0248 9.0625C20.0404 8.00782 20.056 7.00782 20.0482 6.83594C20.0404 6.66407 20.0326 6.19531 20.0326 5.79688C20.0326 5.40625 20.017 5.07813 19.9935 5.08594C19.9701 5.08594 19.8138 5.13282 19.642 5.1875C19.4701 5.24219 19.1029 5.40625 18.8295 5.55469ZM17.4935 15.1641C17.0873 15.2109 16.3295 15.3359 15.8138 15.4453C15.2982 15.5469 14.3998 15.7969 13.8216 15.9844C13.2435 16.1797 12.3607 16.5313 11.8685 16.7656C11.3763 17 10.6498 17.3906 10.267 17.6172C9.78258 17.9141 9.47789 18.0469 9.29039 18.0469C9.07946 18.0469 8.90758 17.9688 8.54821 17.6875C8.29039 17.4844 7.82946 17.2031 7.53258 17.0625C7.23571 16.9141 6.93883 16.7969 6.89195 16.7969C6.83727 16.7969 6.79039 16.8438 6.79039 16.8906C6.79039 16.9453 6.89977 17.2188 7.03258 17.5C7.16539 17.7813 7.40758 18.1797 7.57164 18.3984C7.82164 18.7109 7.88414 18.8594 7.88414 19.1172C7.88414 19.4141 7.83727 19.5078 7.44664 19.9375C7.21227 20.2109 6.79039 20.7656 6.51696 21.1719C6.24352 21.5781 5.91539 22.1406 5.79039 22.4219C5.66539 22.7031 5.49352 23.1563 5.40758 23.4375C5.31383 23.7188 5.20446 24.0938 5.15758 24.2734C5.10289 24.4766 4.97789 24.6875 4.83727 24.8047C4.61852 24.9844 4.54039 25 3.80602 25C3.07164 24.9922 2.96227 25.0156 2.57164 25.2188C2.25133 25.3828 2.07946 25.5391 1.90758 25.8203C1.69664 26.1641 1.67321 26.2578 1.68883 26.7891C1.69664 27.1641 1.75914 27.5547 1.86071 27.8516C1.95446 28.1094 2.14977 28.5078 2.29821 28.7266C2.44664 28.9531 2.72008 29.2656 2.90758 29.4141C3.08727 29.5625 4.67321 30.5859 6.43883 31.6797C8.20446 32.7734 9.71227 33.7422 9.79821 33.8281C9.94664 33.9766 9.95446 34.1094 9.97789 36.1719L9.99352 38.3594H11.9466C12.7513 36.7578 13.0482 36.1953 13.1263 36.0703C13.2123 35.9531 13.392 35.8281 13.5326 35.7891C13.7279 35.7422 14.0404 35.7891 14.9545 36.0156C15.6029 36.1797 16.5482 36.375 17.0638 36.4531C17.7904 36.5703 18.4466 36.6016 19.9935 36.6016C21.5404 36.6016 22.1966 36.5703 22.9232 36.4531C23.4388 36.375 24.392 36.1797 25.0326 36.0156C25.9466 35.7891 26.2591 35.7422 26.4623 35.7891C26.5951 35.8281 26.7748 35.9531 26.8607 36.0703C26.9388 36.1953 27.2357 36.7578 27.5248 37.3203L28.0404 38.3594H29.9935C29.9935 34.4922 30.017 34.1016 30.1107 33.9219C30.181 33.8047 30.3998 33.5938 30.6029 33.4609C30.806 33.3203 31.2435 32.9688 31.5795 32.6797C31.9076 32.3828 32.3998 31.9063 32.6654 31.6016C32.9232 31.2969 33.3373 30.7578 33.5795 30.3906C33.8138 30.0234 34.142 29.4297 34.2982 29.0625C34.4545 28.6953 34.6576 28.1016 34.7513 27.7344C34.8451 27.3672 34.9388 26.7188 34.9701 26.2891C34.9935 25.8125 34.9779 25.2344 34.9154 24.8047C34.8607 24.4219 34.7279 23.8203 34.6263 23.4766C34.517 23.1328 34.2904 22.5703 34.1185 22.2266C33.9466 21.8828 33.6576 21.375 33.4701 21.0938C33.2826 20.8125 32.892 20.3203 32.6107 20C32.3216 19.6797 31.892 19.2422 31.642 19.0313C31.3998 18.8203 30.9232 18.4375 30.5795 18.1797C30.2357 17.9297 29.6185 17.5313 29.2123 17.2969C28.806 17.0703 28.1498 16.7422 27.767 16.5781C27.3841 16.4063 26.7279 16.1563 26.3216 16.0156C25.9154 15.8828 25.1576 15.6719 24.642 15.5469C24.1263 15.4219 23.2982 15.2656 22.806 15.1953C22.2982 15.1172 21.2357 15.0547 20.3451 15.0391C19.4857 15.0234 18.6576 15.0313 18.5091 15.0469C18.3607 15.0625 17.8998 15.1172 17.4935 15.1641ZM35.2435 15.2656C35.1498 15.3516 35.0482 15.5313 35.0248 15.6641C34.9935 15.7969 35.017 16.0234 35.0638 16.1719C35.1107 16.3203 35.2826 16.6016 35.4545 16.7969C35.6185 16.9922 35.8998 17.25 36.0795 17.3828C36.2982 17.5391 36.4336 17.5911 36.4857 17.5391C36.5248 17.4922 36.5795 17.0781 36.6107 16.6016C36.642 16.0156 36.6341 15.6719 36.5716 15.5078C36.517 15.375 36.3685 15.2109 36.2435 15.1328C36.1107 15.0625 35.931 15 35.8373 15.0078C35.7357 15.0078 35.6029 15.0313 35.5404 15.0547C35.4779 15.0781 35.3451 15.1719 35.2435 15.2656ZM25.8763 3.36719C26.0951 3.35938 26.2201 3.41407 26.6341 3.82813V5.79688C26.642 7.66406 26.6341 7.78906 26.4779 7.98438C26.392 8.10938 26.1966 8.23438 26.0482 8.28125C25.8373 8.34375 25.7123 8.32813 25.5013 8.24219C25.3451 8.17969 25.1732 8.02344 25.1107 7.89063C25.017 7.70313 24.9935 7.29688 24.9935 5.82032C24.9935 4.21094 25.0091 3.95313 25.1341 3.75C25.2045 3.625 25.3373 3.48438 25.4232 3.44532C25.5091 3.40625 25.7123 3.36719 25.8763 3.36719ZM20.306 16.75C21.9935 16.7734 22.6732 16.8125 23.4701 16.9375C24.0248 17.0313 24.8373 17.1953 25.267 17.3047C25.6966 17.4219 26.142 17.5703 26.2591 17.6406C26.3763 17.7109 26.5091 17.8516 26.556 17.9453C26.5951 18.0469 26.6341 18.25 26.6341 18.3984C26.6341 18.6016 26.5716 18.7344 26.3998 18.9063C26.1966 19.1094 26.1185 19.1406 25.7982 19.1094C25.5873 19.0938 25.0716 18.9922 24.642 18.8828C24.2123 18.7734 23.4545 18.6172 22.9623 18.5391C22.267 18.4297 21.5951 18.3984 19.9935 18.3984C18.3763 18.3984 17.7201 18.4375 16.9857 18.5469C16.4701 18.625 15.7123 18.7813 15.306 18.8906C14.8998 19 14.3998 19.0938 14.1966 19.1094C13.8685 19.1406 13.7904 19.1094 13.5873 18.9063C13.4154 18.7344 13.3529 18.6016 13.3529 18.3984C13.3529 18.25 13.392 18.0469 13.4466 17.9453C13.4935 17.8516 13.5873 17.7344 13.6576 17.6797C13.7279 17.625 14.0091 17.5156 14.2904 17.4297C14.5716 17.3438 15.1498 17.2031 15.5795 17.1172C16.0091 17.0234 16.767 16.8984 17.2591 16.8359C17.8998 16.7578 18.7748 16.7344 20.306 16.75ZM8.50914 21.6875C8.70446 21.7109 9.00914 21.8125 9.19664 21.9219C9.40758 22.0391 9.59508 22.2422 9.73571 22.4766C9.84508 22.6875 9.96227 22.9766 9.97789 23.125C10.0013 23.2734 9.97008 23.5703 9.90758 23.7891C9.83727 24.0547 9.70446 24.2813 9.48571 24.4922C9.31383 24.6641 9.03258 24.8516 8.86071 24.9063C8.68883 24.9531 8.42321 25 8.27477 25C8.12633 25 7.81383 24.9063 7.57946 24.7891C7.32164 24.6563 7.07945 24.4609 6.97008 24.2969C6.86852 24.1484 6.75133 23.8672 6.70446 23.6719C6.64977 23.4141 6.64977 23.2109 6.72008 22.9297C6.79039 22.6406 6.90758 22.4453 7.17321 22.1797C7.39196 21.9609 7.64977 21.7891 7.84508 21.7344C8.01696 21.6875 8.31383 21.6719 8.50914 21.6875Z" fill="white"/>
</g>
<defs>
<clipPath id="clip0_186_3791">
<rect width="40" height="40" fill="white"/>
</clipPath>
</defs>
</svg>
