<svg width="40" height="40" viewBox="0 0 40 40" fill="none" xmlns="http://www.w3.org/2000/svg">
<g clip-path="url(#clip0_186_3827)">
<path d="M37.1008 23.8003L36.641 19.1982C36.4034 16.8192 36.2837 15.6316 35.5826 14.7537C34.8814 13.8759 33.7471 13.4997 31.4821 12.7434C30.779 12.5097 30.304 12.2798 29.8556 11.6869C28.421 9.79061 26.3536 6.10245 24.8012 5.2892C23.8721 4.79897 22.77 4.79897 20.5659 4.79897H18.0995C16.3077 4.79897 15.4127 4.79897 14.856 5.3557C14.2992 5.91244 14.2992 6.8074 14.2992 8.59923V22.8502M14.2992 15.2497H2.89844V23.8003" stroke="white" stroke-width="2" stroke-linecap="round" stroke-linejoin="round"/>
<path d="M30.4481 12.3995H23.7977C22.0058 12.3995 21.1109 12.3995 20.5541 11.8427C19.9974 11.286 19.9974 10.391 19.9974 8.59923V4.79897M14.297 6.6991H12.3969M19.9974 17.1498H21.8975M22.8476 29.5007H17.1472M15.2471 23.8003H24.7477M5.74642 23.8003H3.84629C2.96083 23.8003 2.5181 23.8003 2.16847 23.9447C0.999894 24.4292 0.996094 25.5674 0.996094 26.6505C0.996094 27.7335 0.999894 28.8736 2.16847 29.3563C2.5181 29.5007 2.96083 29.5007 3.84629 29.5007M34.2484 23.8003H36.1485C37.034 23.8003 37.4767 23.8003 37.8263 23.9447C38.9949 24.4292 38.9987 25.5674 38.9987 26.6505C38.9987 27.7335 38.9949 28.8736 37.8263 29.3563C37.4767 29.5007 37.034 29.5007 36.1485 29.5007" stroke="white" stroke-width="2" stroke-linecap="round" stroke-linejoin="round"/>
<path d="M17.1486 28.5506C17.1486 30.3144 16.4479 32.006 15.2007 33.2532C13.9535 34.5004 12.2619 35.2011 10.4981 35.2011C8.7343 35.2011 7.04273 34.5004 5.79553 33.2532C4.54833 32.006 3.84766 30.3144 3.84766 28.5506C3.84766 26.7868 4.54833 25.0952 5.79553 23.848C7.04273 22.6008 8.7343 21.9001 10.4981 21.9001C12.2619 21.9001 13.9535 22.6008 15.2007 23.848C16.4479 25.0952 17.1486 26.7868 17.1486 28.5506ZM29.4994 35.2011C30.3728 35.2011 31.2376 35.029 32.0444 34.6948C32.8513 34.3606 33.5844 33.8707 34.202 33.2532C34.8196 32.6356 35.3094 31.9025 35.6436 31.0956C35.9779 30.2888 36.1499 29.424 36.1499 28.5506C36.1499 27.6773 35.9779 26.8125 35.6436 26.0056C35.3094 25.1987 34.8196 24.4656 34.202 23.848C33.5844 23.2305 32.8513 22.7406 32.0444 22.4064C31.2376 22.0722 30.3728 21.9001 29.4994 21.9001C27.7356 21.9001 26.044 22.6008 24.7968 23.848C23.5496 25.0952 22.849 26.7868 22.849 28.5506C22.849 30.3144 23.5496 32.006 24.7968 33.2532C26.044 34.5004 27.7356 35.2011 29.4994 35.2011Z" stroke="white" stroke-width="2" stroke-linecap="round" stroke-linejoin="round"/>
</g>
<defs>
<clipPath id="clip0_186_3827">
<rect width="40" height="40" fill="white"/>
</clipPath>
</defs>
</svg>
