<svg width="33" height="32" viewBox="0 0 33 32" fill="none" xmlns="http://www.w3.org/2000/svg">
<path d="M18.2533 5.99997C20.2916 6.21474 22.1955 7.11877 23.6502 8.56256C25.1049 10.0063 26.0232 11.9034 26.2533 13.94M18.2533 9.99997C19.2368 10.1939 20.1393 10.679 20.8437 11.3923C21.5481 12.1056 22.0218 13.0141 22.2033 14M26.2033 20.92V23.92C26.2044 24.1985 26.1474 24.4741 26.0358 24.7293C25.9242 24.9845 25.7606 25.2136 25.5554 25.4018C25.3502 25.5901 25.1079 25.7335 24.8441 25.8227C24.5802 25.9119 24.3007 25.945 24.0233 25.92C20.9461 25.5856 17.9903 24.5341 15.3933 22.85C12.9771 21.3146 10.9286 19.2661 9.3933 16.85C7.70328 14.2412 6.65155 11.271 6.3233 8.17997C6.29831 7.90344 6.33118 7.62474 6.4198 7.3616C6.50843 7.09846 6.65087 6.85666 6.83807 6.6516C7.02526 6.44653 7.25311 6.28268 7.50709 6.1705C7.76108 6.05831 8.03564 6.00024 8.3133 5.99997H11.3133C11.7986 5.9952 12.2691 6.16705 12.6371 6.48351C13.005 6.79996 13.2454 7.23942 13.3133 7.71997C13.4399 8.68004 13.6748 9.6227 14.0133 10.53C14.1478 10.8879 14.177 11.2769 14.0972 11.6509C14.0175 12.0248 13.8322 12.3681 13.5633 12.64L12.2933 13.91C13.7169 16.4135 15.7898 18.4864 18.2933 19.91L19.5633 18.64C19.8352 18.3711 20.1785 18.1858 20.5524 18.1061C20.9264 18.0263 21.3154 18.0554 21.6733 18.19C22.5806 18.5285 23.5232 18.7634 24.4833 18.89C24.9691 18.9585 25.4127 19.2032 25.7298 19.5775C26.047 19.9518 26.2155 20.4296 26.2033 20.92Z" stroke="#111111" stroke-width="1.5" stroke-linecap="round" stroke-linejoin="round"/>
</svg>
