<svg width="48" height="48" viewBox="0 0 48 48" fill="none" xmlns="http://www.w3.org/2000/svg">
<path d="M40.56 37.142L41.796 37.476C42.744 37.73 43.216 37.856 43.608 37.556C44 37.256 44 36.836 44 36C44.0003 34.5254 43.5931 33.0793 42.8232 31.8216C42.0533 30.5638 40.9507 29.5433 39.6373 28.8729C38.3239 28.2024 36.8507 27.908 35.3804 28.0222C33.9102 28.1364 32.5001 28.6548 31.306 29.52M31.428 34.858L30.204 34.526C29.258 34.272 28.784 34.144 28.394 34.442L28.39 34.446C28 34.746 28 35.164 28 36C27.9998 37.4607 28.3996 38.8935 29.1559 40.1431C29.9121 41.3927 30.9961 42.4114 32.2902 43.0887C33.5843 43.766 35.0391 44.0761 36.4969 43.9854C37.9547 43.8947 39.3599 43.4066 40.56 42.574" stroke="#666666" stroke-width="1.5" stroke-linecap="round" stroke-linejoin="round"/>
<path d="M44 24V18.434C44 14.554 44 12.616 42.828 11.41C41.656 10.206 39.772 10.206 36 10.206H31.842C30.008 10.206 29.992 10.202 28.342 9.37602L21.68 6.04202C18.898 4.65002 17.506 3.95402 16.024 4.00202C14.542 4.05002 13.2 4.83602 10.506 6.40802L8.052 7.84002C6.074 8.99402 5.086 9.57202 4.544 10.532C4 11.492 4 12.66 4 14.998V31.432C4 34.502 4 36.038 4.684 36.892C5.14 37.462 5.778 37.844 6.484 37.972C7.544 38.162 8.844 37.404 11.44 35.888C13.204 34.858 14.9 33.788 17.01 34.078C18.778 34.322 20.42 35.438 22 36.228M16 4.00002V34M30 10V23" stroke="#666666" stroke-width="1.5" stroke-linecap="round" stroke-linejoin="round"/>
</svg>
