<svg width="48" height="48" viewBox="0 0 48 48" fill="none" xmlns="http://www.w3.org/2000/svg">
<g clip-path="url(#clip0_153_3311)">
<path fill-rule="evenodd" clip-rule="evenodd" d="M1.26562 0H31.7344L32.1094 0.225C32.3156 0.346875 32.5875 0.609375 32.7188 0.80625C32.925 1.13438 32.9531 1.28438 33 3.28125H34.6594C36.2625 3.28125 36.3469 3.29063 36.7219 3.51562C36.9938 3.675 37.1813 3.88125 37.3125 4.15312C37.4906 4.5375 37.5 4.7625 37.5 13.6688C37.5 20.1656 37.5281 22.7719 37.6031 22.7625C37.6594 22.7437 38.1094 21.9844 38.6062 21.075C39.1969 19.9969 39.5906 19.3781 39.7219 19.3125C39.8438 19.2656 39.9938 19.2188 40.05 19.2188C40.1156 19.2094 40.2844 19.2938 40.425 19.4062C40.6219 19.5469 40.6875 19.6688 40.6875 19.9031C40.6875 20.1187 39.6094 22.1906 36.7781 27.4219C34.6312 31.3969 32.8031 34.8094 32.7094 35.0156C32.6156 35.2219 32.5312 35.5875 32.5312 35.8406C32.5312 36.0844 32.5687 36.6 32.7188 37.6875L33.5625 37.2656C34.0219 37.0312 34.5375 36.7031 34.6969 36.5344C34.8563 36.375 37.3219 31.9125 40.1813 26.625C44.8594 17.9719 45.375 16.9781 45.375 16.5938C45.375 16.3406 45.3 16.05 45.1875 15.8719C45.0844 15.7031 44.85 15.4969 44.6719 15.4219C44.4938 15.3469 44.2313 15.2812 44.0813 15.2812C43.9406 15.2812 43.6781 15.3562 43.5 15.4594C43.2375 15.6 43.0312 15.8813 42.4969 16.8375C42.0094 17.7188 41.7656 18.075 41.5875 18.1406C41.4188 18.2062 41.2594 18.2062 41.0813 18.1406C40.9406 18.0844 40.7719 17.9156 40.6969 17.7656C40.575 17.4937 40.5938 17.4375 41.1188 16.425C41.4281 15.8438 41.8219 15.1688 42 14.9344C42.1875 14.6906 42.5531 14.3719 42.8438 14.2125C43.3031 13.95 43.4437 13.9219 44.1094 13.9219C44.7281 13.9219 44.9344 13.9688 45.3281 14.1656C45.5812 14.3063 45.9375 14.5781 46.1156 14.775C46.2938 14.9813 46.5187 15.3281 46.6219 15.5625C46.7437 15.8438 46.8 16.1906 46.8 16.5938C46.8 16.9406 46.7344 17.3625 46.6406 17.5781C46.4906 17.9438 46.4906 17.9531 46.7063 18.0938C46.8188 18.1688 47.0438 18.3469 47.2031 18.4781C47.3531 18.6094 47.5969 18.9375 47.7375 19.2094C47.9438 19.575 48 19.8188 48 20.25C48 20.7 47.9344 20.9344 47.6813 21.45C47.5031 21.7969 46.6031 23.4937 45.6656 25.2188C44.7281 26.9438 43.875 28.4344 43.7531 28.5281C43.6406 28.6219 43.4344 28.6969 43.2844 28.6875C43.1156 28.6875 42.9656 28.6031 42.8438 28.4344C42.7313 28.2844 42.6562 28.0875 42.6562 27.9844C42.6562 27.8813 43.5281 26.1938 44.5875 24.2344C45.6562 22.275 46.5469 20.55 46.5656 20.3906C46.5938 20.2313 46.5563 19.9781 46.4625 19.8094C46.3781 19.6406 46.2 19.4344 45.7969 19.2281L37.5469 34.4531L37.4531 46.9219L37.2188 47.2406C37.0875 47.4188 36.825 47.6625 36.6281 47.7844C36.2812 48 36.2625 48 29.9062 48L29.6625 47.6906C29.4844 47.475 29.4375 47.325 29.4844 47.1562C29.5125 47.025 29.6063 46.8563 29.6813 46.7812C29.7938 46.6594 30.3281 46.6312 36.0469 46.5469L36.0938 37.125L35.6438 37.575C35.3156 37.9219 34.8844 38.1844 33.9094 38.6531C32.6719 39.2625 32.6156 39.3 32.4 39.7219C32.2875 39.975 32.1188 40.2 32.025 40.2375C31.9406 40.2844 31.7437 40.3125 31.5938 40.3125C31.3969 40.3125 31.2563 40.2375 31.125 40.05C31.0125 39.9094 30.9281 39.7406 30.9375 39.675C30.9375 39.6188 31.05 39.3375 31.4344 38.5781L31.275 37.4531C31.1906 36.8344 31.125 36.1125 31.125 35.8594C31.125 35.5969 31.1906 35.1562 31.275 34.875C31.3594 34.5938 32.475 32.4188 36.0938 25.7344L36.0469 4.73438H5.01562L4.96875 40.5L10.0031 40.5469L10.3594 40.8281C10.5562 40.9781 10.8 41.2781 10.8937 41.4844C11.0344 41.8125 11.0625 42.1594 11.0625 46.5938H19.4062C27.6281 46.5938 27.75 46.5938 27.9375 46.7812C28.05 46.8937 28.125 47.0906 28.125 47.2688C28.125 47.4563 28.0406 47.6625 27.7031 48.0094L10.0781 48L6.98438 44.9062H4.09688C1.8 44.9062 1.1625 44.8781 0.95625 44.775C0.815625 44.7 0.590625 44.5219 0.45 44.3719C0.309375 44.2312 0.15 43.9969 0.103125 43.8469C0.028125 43.6781 0 40.9781 0 35.4563C0 27.4313 0 27.3281 0.1875 27.1125C0.309375 26.9719 0.478125 26.9062 0.703125 26.9062C0.91875 26.9062 1.0875 26.9719 1.19062 27.0938C1.35 27.2719 1.35938 27.8438 1.45312 43.4531L5.57812 43.5094L3.57187 41.4844L3.5625 23.0344C3.5625 7.58437 3.58125 4.54688 3.69375 4.29375C3.75938 4.125 3.9375 3.87187 4.0875 3.73125C4.2375 3.59062 4.47188 3.43125 4.6125 3.38437C4.79063 3.30937 9.01875 3.28125 31.5938 3.28125V2.46562C31.5938 1.92187 31.5562 1.60313 31.4812 1.51875C31.3875 1.425 28.3687 1.40625 16.5187 1.40625C8.3625 1.40625 1.62188 1.425 1.54688 1.45312C1.425 1.49063 1.40625 2.8875 1.40625 13.2938C1.40625 24.9844 1.40625 25.0781 1.21875 25.2937C1.09687 25.4344 0.928125 25.5 0.703125 25.5C0.478125 25.5 0.309375 25.4344 0.1875 25.2937C0 25.0781 0 24.9844 0 13.2188C0 1.60312 0.009375 1.35 0.1875 0.965625C0.31875 0.69375 0.515625 0.46875 0.815625 0.28125L1.26562 0ZM7.74375 43.6875C8.71875 44.6625 9.55313 45.4313 9.59063 45.3938C9.62813 45.3563 9.64688 44.5687 9.6375 43.6406L9.61875 41.9531L5.9625 41.9062L7.74375 43.6875ZM10.3031 6.28125H30.7594L31.3219 6.84375V8.98125C31.3219 10.9781 31.3125 11.1281 31.1344 11.3719C31.0219 11.5125 30.7875 11.6625 30.5906 11.7188C30.3656 11.775 26.6719 11.8125 20.5406 11.8125C14.4 11.8125 10.7063 11.775 10.4813 11.7188C10.2844 11.6625 10.05 11.5125 9.9375 11.3719C9.75937 11.1281 9.75 10.9875 9.76875 6.825L10.3031 6.28125ZM11.1656 10.4062H29.9156V7.6875H11.1656V10.4062ZM8.0625 14.4375H11.3438C13.1531 14.4375 14.7 14.475 14.7844 14.5125C14.8687 14.55 15 14.7 15.0656 14.8406C15.1594 15.0281 15.1688 15.1688 15.1031 15.3563C15.0469 15.4969 14.9063 15.6656 14.775 15.7313C14.5969 15.8156 13.725 15.8438 11.4188 15.8438C9.70312 15.8438 8.20312 15.8156 8.08125 15.7781C7.95937 15.7406 7.8 15.5906 7.725 15.45C7.65938 15.3094 7.60312 15.1313 7.60312 15.0469C7.60312 14.9719 7.70625 14.8031 7.8375 14.6719L8.0625 14.4375ZM19.6781 17.8125C31.1906 17.8031 31.275 17.8031 31.5281 18C31.725 18.1406 31.7906 18.2625 31.7906 18.5156C31.7906 18.7687 31.725 18.8906 31.5281 19.0312C31.275 19.2281 31.1906 19.2281 19.6969 19.2281C8.34375 19.2281 8.10938 19.2188 7.88437 19.0406C7.70625 18.9094 7.65 18.7687 7.65 18.5156C7.65 18.2625 7.70625 18.1219 7.86563 17.9906C8.08125 17.8219 8.40937 17.8125 19.6781 17.8125ZM31.425 20.9531L31.6125 21.1875C31.7156 21.3188 31.7906 21.5344 31.7906 21.6844C31.7906 21.825 31.7063 22.0219 31.6031 22.125C31.4156 22.3125 31.2844 22.3125 7.97812 22.3125L7.78125 22.0594C7.67812 21.9094 7.59375 21.7313 7.59375 21.6562C7.59375 21.5812 7.66875 21.4219 7.74375 21.3C7.82812 21.1781 7.9875 21.0469 8.1 21C8.2125 20.9531 13.4625 20.925 31.425 20.9531ZM8.0625 24.0938H19.7156C31.275 24.0938 31.3687 24.0938 31.575 24.2812C31.7156 24.4031 31.7906 24.5719 31.7906 24.7969C31.7906 25.05 31.725 25.1719 31.5281 25.3125C31.275 25.5094 31.1906 25.5094 19.7625 25.5C10.7531 25.5 8.20312 25.4719 8.025 25.3875C7.89375 25.3219 7.74375 25.1719 7.69687 25.0594C7.64062 24.9375 7.60312 24.7781 7.60312 24.7031C7.60312 24.6187 7.70625 24.45 7.8375 24.3281L8.0625 24.0938ZM19.7344 27.1875C31.2 27.1781 31.275 27.1781 31.5281 27.3656C31.725 27.5156 31.7812 27.6375 31.7812 27.8906C31.7812 28.0875 31.7156 28.2844 31.5938 28.4062C31.4156 28.5844 31.2844 28.5938 8.0625 28.5938L7.82812 28.3594C7.70625 28.2281 7.59375 28.0594 7.59375 27.9844C7.59375 27.9 7.65 27.7313 7.71563 27.6094C7.78125 27.4781 7.9125 27.3281 8.01562 27.2812C8.12813 27.2344 12.825 27.1969 19.7344 27.1875ZM7.9875 30.375H19.6969C31.2844 30.375 31.4156 30.375 31.5938 30.5625C31.6969 30.6656 31.7906 30.8625 31.7906 31.0031C31.7906 31.1438 31.7063 31.3687 31.425 31.7344L8.15625 31.7812L7.875 31.5C7.725 31.3406 7.59375 31.1344 7.58438 31.0406C7.58438 30.9469 7.66875 30.75 7.78125 30.6188L7.9875 30.375ZM20.1375 36.4781C20.4094 36.4688 20.7469 36.5156 20.8875 36.5719C21.0281 36.6188 21.2437 36.7594 21.3656 36.8719C21.4875 36.9844 21.675 37.2469 21.7781 37.4531C21.8813 37.6594 22.05 38.2687 22.1437 38.8125C22.2375 39.3563 22.3406 39.8156 22.3688 39.8438C22.3969 39.8719 22.4719 39.825 22.5469 39.75C22.6219 39.675 22.7906 39.2719 22.9313 38.8594C23.0625 38.4469 23.2781 37.9688 23.4 37.8C23.5406 37.6219 23.775 37.4625 23.9813 37.3969C24.2344 37.3219 24.4406 37.3219 24.7125 37.3969C24.9188 37.4437 25.1812 37.5844 25.2937 37.7063C25.4062 37.8281 25.65 38.2781 25.8375 38.7188C26.0156 39.1594 26.2406 39.5906 26.3344 39.6844C26.4187 39.7875 26.6531 39.9469 26.8406 40.0406C27.0375 40.1344 27.4969 40.2656 27.8719 40.3125C28.2562 40.3688 28.9688 40.3781 30.4313 40.2844L30.6469 40.5563C30.7594 40.7062 30.8531 40.9125 30.8625 41.0156C30.8625 41.1188 30.7875 41.2969 30.6937 41.4187C30.5437 41.6062 30.3938 41.6531 29.6344 41.7375C28.9969 41.8031 28.4906 41.8031 27.8719 41.7281C27.3937 41.6719 26.7656 41.5312 26.4656 41.4187C26.0906 41.2781 25.7719 41.0625 25.4062 40.6969C25.0406 40.3219 24.825 40.0031 24.6562 39.5813C24.5344 39.2625 24.4031 39.0281 24.375 39.0656C24.3375 39.1031 24.2438 39.3469 24.1594 39.6094C24.075 39.8625 23.8969 40.2563 23.7656 40.4719C23.6156 40.7438 23.4094 40.9313 23.1375 41.0625C22.9219 41.1656 22.6125 41.25 22.4625 41.25C22.3031 41.25 21.9844 41.1562 21.7594 41.0437C21.4781 40.8937 21.2625 40.7062 21.1312 40.4531C21.0094 40.2375 20.8594 39.6656 20.7656 39.1406C20.6812 38.625 20.5781 38.1281 20.5312 38.0344C20.4844 37.9406 20.3344 37.875 20.1844 37.8656C20.0063 37.8656 19.8281 37.9781 19.575 38.2406C19.3875 38.4562 19.0687 38.9344 18.8812 39.3C18.6937 39.675 18.4031 40.3594 18.225 40.8281C18.0562 41.2875 17.8406 41.7281 17.7469 41.7937C17.6625 41.8594 17.5031 41.9062 17.4 41.9062C17.2969 41.9156 17.0906 41.8219 16.95 41.7188C16.7719 41.5875 16.6969 41.4469 16.6969 41.25C16.6969 41.0906 16.8281 40.6031 16.9875 40.1438C17.1469 39.6938 17.4094 39.075 17.5594 38.7656C17.7188 38.4562 18.0188 37.95 18.2438 37.6406C18.4594 37.3312 18.7969 36.9656 19.0031 36.8344C19.2 36.6937 19.425 36.5625 19.5094 36.5344C19.5844 36.5063 19.8656 36.4781 20.1375 36.4781Z" fill="#2551E8"/>
</g>
<defs>
<clipPath id="clip0_153_3311">
<rect width="48" height="48" fill="white"/>
</clipPath>
</defs>
</svg>
