<svg width="48" height="48" viewBox="0 0 48 48" fill="none" xmlns="http://www.w3.org/2000/svg">
<path fill-rule="evenodd" clip-rule="evenodd" d="M12.9844 0.00937527C13.8469 2.71946e-07 14.1469 0.0375003 14.8125 0.24375C15.2531 0.375 15.9469 0.65625 16.3594 0.871875C16.9031 1.15313 17.325 1.47188 17.8688 2.01563C18.3 2.44688 18.7875 3.04688 19.0125 3.42188C19.2188 3.7875 19.5094 4.41563 19.65 4.82812C19.8563 5.42813 19.9125 5.80313 19.95 6.70312C19.9875 7.6125 19.9594 7.96875 19.8094 8.57812C19.7063 8.99063 19.4625 9.64688 19.275 10.0312C19.0875 10.4156 18.9375 10.7812 18.9375 10.8281C18.9375 10.875 19.6594 10.2 20.55 9.30938C21.8531 8.01563 22.2844 7.65 22.7344 7.44375C23.2219 7.20938 23.4188 7.17188 24.1406 7.17188C24.8625 7.17188 25.0594 7.20938 25.5469 7.43438C26.0344 7.65 26.4938 8.08125 29.025 10.6219C31.5 13.1063 31.9687 13.6219 32.1375 14.0344C32.25 14.3063 32.3719 14.7938 32.4 15.1219C32.4469 15.5344 32.4188 15.8625 32.3063 16.2656C32.2125 16.575 32.0344 16.9969 31.9031 17.2031C31.7625 17.4094 31.3781 17.8688 30.4219 18.8531L33.3844 21.825C35.0156 23.4563 36.4031 24.8906 36.4594 25.0125C36.5156 25.125 36.5625 25.3219 36.5625 25.4531C36.5625 25.5844 36.5156 25.7812 36.4594 25.9031C36.3656 26.0906 36.5156 26.2688 38.475 28.2188C40.3594 30.1031 40.5938 30.3656 40.5938 30.6375C40.5938 30.8156 40.5187 31.0125 40.4062 31.125C40.2938 31.2375 40.0969 31.3125 39.9094 31.3125C39.6375 31.3125 39.3656 31.0688 37.3313 29.0344C35.9813 27.6844 35.025 26.6531 34.9594 26.4844C34.8937 26.2875 34.8937 26.0906 35.0625 25.4531L29.4375 19.8281L28.0312 21.2344C27.2531 22.0125 26.625 22.6781 26.625 22.7344C26.625 22.7906 26.9531 23.1469 28.0781 24.2625L29.0625 24.3094C29.8312 24.3469 30.0938 24.3938 30.2812 24.5344C30.4125 24.6375 30.5906 24.8625 30.675 25.0406C30.7969 25.275 30.8438 25.5844 30.8438 27.0469L32.8875 29.0906C34.9031 31.1063 34.9219 31.125 35.3156 31.125C35.5406 31.125 35.9438 31.2094 36.2063 31.3031C36.5344 31.425 36.8531 31.6406 37.1344 31.9406C37.3781 32.2031 37.6312 32.5875 37.725 32.8594C37.8187 33.1219 37.9125 33.3844 37.9313 33.45C37.9594 33.525 38.175 33.5625 38.5969 33.5625C39.0938 33.5531 39.2906 33.6 39.4875 33.75C39.6375 33.8531 39.8156 34.0688 39.8906 34.2188C39.9844 34.4062 40.0312 34.7812 40.0312 36.2344L40.425 36.6281C40.65 36.8531 40.8656 37.0312 40.9219 37.0312C40.9781 37.0312 41.5031 36.5438 43.1719 34.875L42.2812 33.9844C41.5594 33.2625 41.3906 33.0375 41.3906 32.8125C41.3906 32.6531 41.475 32.4469 41.5969 32.3344C41.7094 32.2125 41.925 32.1188 42.0844 32.1188C42.3281 32.1094 42.525 32.2594 43.3688 33.0938C43.9125 33.6375 44.4188 34.1906 44.4938 34.3406C44.5688 34.4813 44.625 34.725 44.625 34.875C44.625 35.025 44.5781 35.25 44.5219 35.3625C44.4656 35.4844 43.8188 36.1781 43.0875 36.9188C42.3656 37.6594 41.6531 38.325 41.5031 38.4C41.3625 38.475 41.0719 38.5312 40.8469 38.5312C40.4813 38.5219 40.3969 38.4656 39.675 37.7531C39.2438 37.3313 38.8312 36.8719 38.7562 36.7219C38.6719 36.5625 38.625 36.1688 38.625 34.875H38.0156C37.6594 34.875 37.2844 34.8188 37.125 34.7344C36.975 34.6594 36.7875 34.4813 36.7125 34.3313C36.6469 34.1906 36.5531 33.9094 36.5156 33.7031C36.4875 33.4969 36.375 33.1969 36.2812 33.0469C36.1875 32.8969 35.9906 32.7188 35.85 32.6531C35.7 32.5969 35.3156 32.5312 34.4062 32.4844L32.0625 30.1406C30.7687 28.8469 29.6437 27.6844 29.5687 27.5344C29.4844 27.375 29.4375 26.9906 29.4375 25.6875L27.5625 25.6406L25.5938 23.6719L24.9656 24.2906C24.6094 24.6281 24.1781 25.0125 24 25.1344C23.8219 25.2563 23.4375 25.425 22.6406 25.6688L22.5844 34.3688C22.5375 42.3469 22.5188 43.125 22.3688 43.6406C22.275 43.95 22.05 44.4938 21.8625 44.8594C21.6656 45.225 21.2437 45.8063 20.8875 46.1719C20.55 46.5375 20.025 46.9781 19.7156 47.1562C19.4156 47.3344 18.825 47.5969 17.625 48H12.9844C8.5125 48 8.325 47.9906 7.70625 47.8031C7.35937 47.6906 6.80625 47.4562 6.46875 47.2875C6.13125 47.1188 5.60625 46.7531 5.30625 46.4813C4.99687 46.2094 4.59375 45.75 4.40625 45.4688C4.21875 45.1875 3.96562 44.7375 3.85312 44.4844C3.74062 44.2219 3.58125 43.7625 3.51562 43.4531C3.4125 43.05 3.375 42.2625 3.375 38.5312L3.60938 38.2969C3.73125 38.1656 3.9 38.0625 3.98438 38.0625C4.05937 38.0625 4.22812 38.1188 4.35938 38.175C4.49063 38.2406 4.64062 38.4281 4.6875 38.5781C4.74375 38.7281 4.78125 39.7781 4.78125 40.8938C4.78125 42.5906 4.80937 43.0313 4.95 43.4719C5.04375 43.7719 5.25 44.2219 5.40938 44.4844C5.56875 44.7375 5.91563 45.15 6.17813 45.3938C6.44063 45.6469 6.98438 46.0031 8.10938 46.5469L12.6562 46.575C15.4969 46.5938 17.3813 46.5656 17.6719 46.5C17.925 46.4531 18.3938 46.2844 18.7031 46.1344C19.0219 45.975 19.5 45.6188 19.8094 45.3094C20.1656 44.9625 20.475 44.5219 20.6813 44.1094C20.8594 43.7438 21.0469 43.2188 21.0938 42.9375C21.15 42.6188 21.1875 39.2625 21.1875 25.5469L20.7375 25.3688C20.4187 25.2375 19.9594 24.8438 19.0125 23.9156C18.3 23.2125 17.7 22.6594 17.6813 22.6875C17.6531 22.7156 17.6813 22.9219 17.7281 23.1562C17.7938 23.4469 17.7938 23.7469 17.7281 24.0938C17.6719 24.3844 17.5031 24.7781 17.3438 25.0031C17.1938 25.2281 16.9219 25.5094 16.7531 25.6313C16.5938 25.7531 16.3031 25.8938 16.125 25.9594C15.9094 26.0344 14.8594 26.0625 12.9375 26.0625C10.35 26.0625 10.0406 26.0438 9.70312 25.8844C9.49687 25.7906 9.1875 25.5656 9.00937 25.3969C8.84062 25.2188 8.60625 24.9094 8.50312 24.7031C8.35312 24.4219 8.29688 24.1594 8.29688 23.625C8.29688 23.1188 8.35313 22.8281 8.475 22.5938C8.56875 22.4156 8.775 22.125 8.94375 21.9563C9.10313 21.7781 9.40312 21.5531 9.60938 21.4406C9.91875 21.2719 10.1719 21.2344 12.2812 21.1875V18.9844C12.2812 17.5781 12.2437 16.7812 12.1875 16.7812C12.1313 16.7812 11.9531 16.8469 11.7844 16.9406C11.625 17.025 10.4719 17.9156 9.23438 18.9188C7.99687 19.9219 6.75937 20.9625 6.47812 21.225C6.20625 21.4875 5.83125 21.9375 5.64375 22.2188C5.46563 22.5 5.20312 23.0063 4.82812 23.9531L4.73438 35.8313L4.5 36.0094C4.36875 36.1125 4.15313 36.1969 4.00313 36.1875C3.8625 36.1875 3.66563 36.1031 3.5625 36C3.375 35.8125 3.375 35.6906 3.375 30.1875C3.375 25.4062 3.39375 24.45 3.525 23.8313C3.60937 23.4375 3.77813 22.8563 3.90938 22.5469C4.03125 22.2375 4.32187 21.7125 4.54688 21.375C4.77188 21.0375 5.18438 20.55 5.45625 20.2875C5.72813 20.0156 7.03125 18.9281 8.34375 17.8594C9.65625 16.7906 10.9219 15.825 11.1562 15.7031C11.3906 15.5813 11.7375 15.4594 12.2812 15.375V13.9219L11.8406 13.8563C11.5875 13.8281 11.0719 13.6875 10.6875 13.5563C10.3031 13.4156 9.68437 13.125 9.32812 12.9C8.9625 12.675 8.35313 12.1594 7.96875 11.7469C7.51875 11.2781 7.125 10.7344 6.87188 10.2656C6.65625 9.85313 6.38438 9.17813 6.27188 8.76562C6.12188 8.20312 6.075 7.75313 6.075 6.98438C6.075 6.2625 6.13125 5.7375 6.2625 5.25C6.36563 4.86563 6.6 4.2375 6.7875 3.8625C6.975 3.49688 7.20937 3.10313 7.3125 3C7.425 2.8875 7.63125 2.8125 7.8 2.8125C7.97812 2.80313 8.18438 2.87813 8.27813 2.97188C8.37188 3.06563 8.45625 3.24375 8.45625 3.375C8.46562 3.50625 8.27813 3.975 8.05313 4.425C7.82812 4.875 7.65938 5.26875 7.6875 5.29688C7.71562 5.325 7.90313 5.1 8.1 4.80938C8.30625 4.50938 8.69062 4.05 8.9625 3.79688C9.225 3.53438 9.7125 3.16875 10.0406 2.97188C10.3687 2.775 10.9313 2.52188 11.2969 2.40938C11.8125 2.25 12.1781 2.20313 13.0312 2.20313C13.9125 2.20313 14.2312 2.24063 14.7656 2.41875C15.1219 2.54063 15.6562 2.775 15.9375 2.93438C16.2188 3.08438 16.7906 3.5625 17.2031 3.975C17.625 4.39688 18.0188 4.875 18.0938 5.04375C18.1687 5.2125 18.2625 5.35313 18.3 5.34375C18.3469 5.34375 18.3 5.14688 18.2062 4.89375C18.1125 4.65 17.8875 4.21875 17.7 3.9375C17.5125 3.65625 17.1188 3.1875 16.8094 2.90625C16.5094 2.625 15.9656 2.23125 15.6094 2.04375C15.2437 1.85625 14.6531 1.63125 14.2969 1.54688C13.8188 1.43438 13.3781 1.39688 12.7031 1.43438C11.9812 1.4625 11.6156 1.5375 11.1094 1.73438C10.7438 1.875 10.3031 2.00625 10.125 2.03438C9.87187 2.07188 9.75938 2.03438 9.60938 1.875C9.50625 1.7625 9.42188 1.54688 9.42188 1.40625C9.42188 1.26563 9.50625 1.05938 9.60938 0.946875C9.7125 0.834375 10.0031 0.665625 10.2656 0.5625C10.5188 0.459375 11.0062 0.290625 11.3438 0.196875C11.7563 0.0750003 12.2812 0.0187503 12.9844 0.00937527ZM10.7344 4.17188C10.4719 4.32188 10.125 4.575 9.94687 4.73438C9.76875 4.88438 9.45938 5.26875 9.2625 5.57812C9.05625 5.8875 8.8125 6.4125 8.70938 6.75C8.59688 7.125 8.53125 7.63125 8.53125 8.0625C8.53125 8.49375 8.59688 9 8.70938 9.375C8.8125 9.7125 9.075 10.2563 9.3 10.5844C9.525 10.9219 9.90938 11.3625 10.1719 11.5594C10.425 11.7656 10.7906 12 10.9688 12.0938C11.1469 12.1875 11.5219 12.3281 11.7844 12.4125L12.2812 12.5625C12.4594 12.1688 12.6281 11.9906 12.7687 11.9062C13.0031 11.7844 13.0594 11.7844 13.2844 11.9062C13.4344 11.9906 13.5844 12.15 13.6406 12.2719C13.7156 12.45 13.7906 12.4781 14.0625 12.4406C14.2406 12.4219 14.6438 12.2812 14.9531 12.1313C15.2625 11.9813 15.7594 11.6438 16.05 11.3719C16.5656 10.9031 16.5938 10.8562 16.5187 10.5469C16.4625 10.275 16.4906 10.1906 16.6875 9.98438C16.8188 9.85313 16.9969 9.75 17.0812 9.75C17.1937 9.75 17.2781 9.6375 17.3438 9.39375C17.4 9.20625 17.4656 8.775 17.5031 8.4375C17.5312 8.08125 17.5125 7.575 17.4469 7.21875C17.3813 6.88125 17.2031 6.35625 17.0531 6.04688C16.9031 5.72813 16.5469 5.24063 16.2469 4.94063C15.9469 4.63125 15.4875 4.26562 15.2344 4.125C14.9719 3.975 14.5125 3.7875 14.2031 3.7125C13.8938 3.62813 13.3219 3.5625 12.9375 3.5625C12.5437 3.57188 12.0094 3.64688 11.7188 3.73125C11.4375 3.825 10.9875 4.02188 10.7344 4.17188ZM21.3469 10.4625L19.7812 12.0469L20.3906 12.6563C21.0469 12.4313 21.4875 12.375 21.7969 12.375C22.1812 12.375 22.5 12.4406 22.8281 12.6C23.0812 12.7125 23.4375 12.9563 23.6063 13.1344C23.7844 13.3125 24.0094 13.6219 24.1125 13.8281C24.225 14.0344 24.3281 14.4563 24.3562 14.7656C24.3844 15.1594 24.3469 15.4781 24.2344 15.8438C24.1313 16.1531 23.9062 16.5188 23.6813 16.7719C23.4656 16.9969 23.1281 17.2688 22.9219 17.3813C22.6219 17.5312 22.3781 17.5781 21.75 17.5781C21.1031 17.5781 20.8781 17.5312 20.55 17.3625C20.3344 17.25 20.0156 17.0156 19.8469 16.8469C19.6875 16.6781 19.4625 16.3781 19.3594 16.1719C19.2656 15.9656 19.1625 15.525 19.1437 15.1875C19.1156 14.775 19.1531 14.4281 19.2562 14.1094L19.4062 13.6406L18.7969 13.0313C16.2656 15.5438 15.5625 16.3219 15.4594 16.5469C15.3562 16.7625 15.2812 17.1375 15.2812 17.4094C15.2812 17.6813 15.3562 18.0656 15.4406 18.2531C15.5344 18.4781 16.575 19.5938 18.1781 21.2156C20.0906 23.1469 20.8875 23.8781 21.2344 24.0469C21.5438 24.2063 21.8625 24.2812 22.1719 24.2812C22.4438 24.2812 22.8 24.1969 23.0156 24.0938C23.25 23.9813 24.7406 22.5563 27.0656 20.2313C29.5875 17.7 30.7875 16.4344 30.8906 16.1906C30.9656 16.0031 31.0312 15.6469 31.0312 15.3938C31.0312 15.15 30.9375 14.7656 30.8344 14.5313C30.7031 14.2219 29.9531 13.4156 28.1438 11.5969C26.6156 10.0594 25.4531 8.97188 25.1719 8.80313C24.8062 8.59688 24.5906 8.53125 24.1875 8.53125C23.8781 8.53125 23.5219 8.60625 23.2969 8.70938C23.0719 8.8125 22.2937 9.51562 21.3469 10.4625ZM15.4688 13.5094C15.1875 13.6125 14.6812 13.7531 14.3438 13.8188L13.7344 13.9313L13.6781 15.3281L14.3812 15.5156C16.275 13.575 16.8375 12.975 16.8375 12.9281C16.8469 12.8813 16.8281 12.8438 16.7906 12.8531C16.7625 12.8531 16.5656 12.9656 16.3594 13.0875C16.1531 13.2094 15.75 13.3969 15.4688 13.5094ZM21.5531 14.1375C21.5625 14.325 21.4875 14.5125 21.375 14.625C21.2437 14.7563 21.0844 14.8031 20.8312 14.7938C20.4844 14.775 20.4844 14.775 20.5031 15.1219C20.5219 15.3094 20.6062 15.5813 20.6906 15.7125C20.7844 15.8531 20.9719 16.0219 21.1125 16.0875C21.2625 16.1625 21.5719 16.2188 21.8063 16.2188C22.1813 16.2188 22.2938 16.1719 22.6031 15.8719C22.9125 15.5625 22.9594 15.4594 22.9688 15.075C22.9688 14.8219 22.9031 14.5031 22.8281 14.3438C22.7437 14.175 22.5281 13.9875 22.2844 13.875C22.0688 13.7719 21.8156 13.6875 21.7219 13.6875C21.6375 13.6875 21.5625 13.7156 21.5531 13.7625C21.5437 13.8 21.5437 13.9688 21.5531 14.1375ZM13.6875 21.1875C15.2906 21.1875 15.8531 21.225 15.9844 21.2812C16.1156 21.3375 16.2375 21.3469 16.2656 21.3C16.2844 21.2625 15.8813 20.8125 15.375 20.2969C14.6719 19.5938 14.3813 19.2188 14.1844 18.7969C14.0156 18.4125 13.9219 18.0281 13.9031 17.55C13.875 17.1844 13.8187 16.875 13.7719 16.875C13.725 16.875 13.6875 17.7656 13.6875 19.0312V21.1875ZM9.98438 22.9125C9.75 23.1562 9.675 23.3156 9.66562 23.5969C9.65625 23.8031 9.73125 24.0844 9.84375 24.2531C9.96875 24.4594 10.1469 24.5969 10.3781 24.6656C10.6031 24.7219 11.6531 24.75 13.2375 24.7313L15.7406 24.7031C16.2 24.2531 16.3406 24.0094 16.3688 23.8125C16.3969 23.625 16.3688 23.3719 16.2938 23.2125C16.2281 23.0625 16.0688 22.8563 15.9375 22.7625C15.7406 22.6125 15.5344 22.5844 14.6719 22.5844C13.7531 22.5844 13.6219 22.6125 13.4531 22.7812C13.35 22.8844 13.1531 22.9781 13.0031 22.9688C12.8625 22.9688 12.6656 22.8844 12.5625 22.7812C12.3938 22.6125 12.2531 22.5938 11.3344 22.5938H10.2938L9.98438 22.9125ZM13.0312 27.9469C14.5312 27.9375 15.9281 27.975 16.2188 28.0312C16.5 28.0875 16.9594 28.2375 17.2219 28.3594C17.4937 28.4906 17.9344 28.7906 18.1969 29.0344C18.4688 29.2969 18.7875 29.7281 18.9469 30.0469C19.0969 30.3563 19.2562 30.8625 19.3031 31.1719C19.3406 31.4813 19.3406 31.9875 19.2938 32.2969C19.2563 32.6063 19.1063 33.0938 18.9656 33.375C18.825 33.6562 18.5063 34.0875 18.2625 34.3313C18.0188 34.5844 17.5312 34.9219 16.5469 35.3906H9.69375L8.99063 35.0531C8.52188 34.8187 8.16562 34.5563 7.89375 34.2562C7.66875 34.0031 7.3875 33.5812 7.25625 33.3281C7.13438 33.0656 6.98438 32.5875 6.9375 32.25C6.8625 31.8188 6.87187 31.4813 6.94687 31.0781C7.00312 30.7688 7.1625 30.3 7.29375 30.0469C7.425 29.7844 7.70625 29.3906 7.92188 29.1562C8.14687 28.9219 8.55 28.6125 8.82187 28.4531C9.10312 28.3031 9.5625 28.125 9.84375 28.0688C10.1719 27.9937 11.3344 27.9469 13.0312 27.9469ZM9.21563 29.8406C9.04688 29.9531 8.80312 30.2156 8.67188 30.4219C8.54063 30.6281 8.39062 30.9656 8.33438 31.1719C8.27813 31.3781 8.25 31.7344 8.27813 31.9688C8.30625 32.2031 8.40938 32.5594 8.5125 32.7656C8.61563 32.9719 8.85 33.2813 9.0375 33.4406C9.225 33.6094 9.53437 33.8156 9.72187 33.8906C10.0219 34.0125 10.6125 34.0312 13.1437 34.0312C16.1812 34.0312 16.2281 34.0312 16.6594 33.8063C16.9125 33.6938 17.25 33.4219 17.4188 33.225C17.5875 33.0281 17.7937 32.625 17.8781 32.3438C17.9719 32.0156 18 31.6781 17.9625 31.425C17.9344 31.2094 17.8219 30.8719 17.7281 30.675C17.625 30.4875 17.4094 30.1969 17.2313 30.0375C17.0625 29.8687 16.7719 29.6625 16.5938 29.5688C16.2937 29.4094 15.9844 29.3906 13.2656 29.3719C10.8094 29.3531 10.2 29.3719 9.89062 29.4844C9.68437 29.5594 9.38438 29.7188 9.21563 29.8406ZM13.0312 36.675C14.3438 36.6656 15.7125 36.7031 16.0781 36.7594C16.4344 36.8063 16.9594 36.9562 17.2219 37.0781C17.4937 37.2094 17.9344 37.5094 18.1969 37.7531C18.4688 38.0156 18.7875 38.4469 18.9469 38.7656C19.0969 39.075 19.2656 39.5812 19.3031 39.8906C19.35 40.2188 19.35 40.6875 19.2938 41.0156C19.2469 41.325 19.0969 41.8125 18.9656 42.0938C18.825 42.375 18.4969 42.825 18.2438 43.0875C17.9813 43.3406 17.5125 43.6781 16.6406 44.1094H9.60938L9.04688 43.8375C8.7375 43.6781 8.25937 43.3312 7.9875 43.0594C7.725 42.7875 7.39687 42.3375 7.26562 42.0656C7.13438 41.8031 6.99375 41.3063 6.9375 40.9688C6.8625 40.5469 6.87188 40.2 6.9375 39.8438C6.99375 39.5625 7.14375 39.1031 7.26562 38.8313C7.39687 38.5688 7.69687 38.1281 7.94062 37.8656C8.19375 37.5938 8.63438 37.2656 8.95312 37.1156C9.2625 36.9562 9.76875 36.7969 10.0781 36.7594C10.3875 36.7125 11.7188 36.675 13.0312 36.675ZM9.51562 38.3625C9.35625 38.4469 9.10313 38.6531 8.94375 38.8313C8.775 39 8.56875 39.2906 8.475 39.4688C8.35313 39.6938 8.30625 39.9938 8.30625 40.4531C8.30625 40.9406 8.35312 41.2125 8.50312 41.4844C8.60625 41.6906 8.85938 42 9.05625 42.1781C9.2625 42.3563 9.57188 42.5625 9.75 42.6469C10.0312 42.7781 10.5469 42.7969 13.125 42.7969C16.0594 42.7969 16.1906 42.7875 16.5938 42.5906C16.8281 42.4781 17.175 42.2156 17.3625 42.0094C17.5969 41.7563 17.7656 41.4375 17.8688 41.0813C17.9719 40.725 18 40.4062 17.9531 40.125C17.9156 39.8906 17.8125 39.5531 17.7188 39.375C17.625 39.1969 17.4094 38.9156 17.2313 38.7562C17.0625 38.5875 16.7719 38.3812 16.5938 38.2875C16.2937 38.1281 15.9937 38.1094 13.3125 38.0906C11.6906 38.0812 10.2281 38.1094 10.0781 38.1469C9.91875 38.1844 9.66563 38.2875 9.51562 38.3625ZM14.5219 30C14.6906 30 14.8969 30.0844 15 30.1875C15.1125 30.3 15.1875 30.4969 15.1875 30.675C15.1875 30.9469 15.0375 31.1344 14.0812 32.0813C13.0219 33.1406 12.9562 33.1875 12.5812 33.1875C12.2437 33.1875 12.1219 33.1313 11.7094 32.7375C11.4375 32.4938 11.1656 32.1844 11.1 32.0344C11.0156 31.875 10.9969 31.6875 11.0344 31.5281C11.0812 31.3969 11.1937 31.2281 11.2969 31.1531C11.4 31.0875 11.5781 31.0312 11.6906 31.0312C11.8125 31.0312 12.0563 31.1719 12.5719 31.6406L13.3969 30.8156C14.0812 30.1406 14.2781 30 14.5219 30ZM12.1125 38.8125C12.3375 38.8125 12.5063 38.8969 13.0781 39.4594L13.425 39.1406C13.6781 38.9062 13.875 38.8125 14.0812 38.8125C14.2781 38.8031 14.4563 38.8781 14.5781 39.0094C14.6812 39.1125 14.7656 39.3281 14.7656 39.4781C14.7656 39.6656 14.6531 39.8531 14.0625 40.4531L14.4188 40.8094C14.6531 41.0531 14.7656 41.25 14.7656 41.4281C14.7656 41.5781 14.6812 41.7938 14.5781 41.8969C14.4563 42.0281 14.2781 42.1031 14.0812 42.0938C13.875 42.0938 13.6781 42 13.0781 41.4563L12.7219 41.775C12.4875 41.9906 12.2812 42.0938 12.0938 42.0938C11.9344 42.0938 11.7281 42.0094 11.625 41.9062C11.5219 41.8031 11.4375 41.5969 11.4375 41.4375C11.4375 41.25 11.5406 41.0438 12.075 40.4531L11.7563 40.0969C11.5406 39.8625 11.4375 39.6562 11.4375 39.4688C11.4375 39.3094 11.5219 39.1031 11.625 39C11.7375 38.8875 11.9437 38.8125 12.1125 38.8125Z" fill="#2551E8"/>
</svg>
