<svg width="48" height="48" viewBox="0 0 48 48" fill="none" xmlns="http://www.w3.org/2000/svg">
<path fill-rule="evenodd" clip-rule="evenodd" d="M23.8586 2.16563C24.5805 2.15626 25.3773 2.21251 25.8273 2.29688C26.2398 2.37188 26.8492 2.52188 27.1867 2.62501C27.5242 2.73751 28.1336 3.00001 28.5461 3.20626C28.9586 3.41251 29.568 3.77813 29.9055 4.01251C30.243 4.24688 30.8148 4.73438 31.1711 5.10001C31.5367 5.46563 32.0242 6.03751 32.268 6.37501C32.5023 6.71251 32.8586 7.30313 33.0555 7.68751C33.243 8.07188 33.5055 8.69063 33.6273 9.04688C33.7492 9.40313 33.9086 10.0406 33.9836 10.4531C34.068 10.8656 34.1242 11.3531 34.1242 11.5313C34.1242 11.85 34.1336 11.8594 34.6117 11.9813C34.8836 12.0563 35.5117 12.3094 35.9992 12.5438C36.6742 12.8813 37.068 13.1531 37.6398 13.6969C38.118 14.1563 38.5398 14.6625 38.793 15.1031C39.018 15.4875 39.7211 16.9406 40.3492 18.3281C40.9867 19.7156 41.5586 20.8688 41.6148 20.8875C41.6711 20.8969 41.718 20.85 41.718 20.7844C41.718 20.7281 41.8586 20.5125 42.018 20.3063C42.1867 20.1094 42.5617 19.8375 42.843 19.6969C43.3305 19.4719 43.443 19.4531 44.718 19.4531C46.0117 19.4531 46.1055 19.4625 46.6117 19.7063C46.9961 19.8938 47.2492 20.1 47.4742 20.4094C47.6523 20.6625 47.8492 21.0469 47.9148 21.2813C47.9805 21.5156 48.0086 21.8906 47.9805 22.125C47.9523 22.3594 47.8398 22.7156 47.7367 22.9219C47.643 23.1281 47.3711 23.4656 47.1367 23.6719C46.9023 23.8781 46.5555 24.0938 46.3492 24.1594C46.1523 24.225 45.4305 24.3375 44.7648 24.4219C44.0992 24.5063 43.5273 24.5906 43.4992 24.6188C43.4711 24.6375 44.1086 25.3219 44.9148 26.1375C46.1898 27.4219 46.4242 27.7031 46.7148 28.3125C46.893 28.6969 47.0898 29.2406 47.1461 29.5125C47.2023 29.775 47.2492 30.2438 47.2492 30.5344C47.2492 30.8344 47.0617 32.4281 46.818 34.0781C46.5836 35.7281 46.3305 37.3313 46.2555 37.6406C46.1711 37.95 45.9555 38.4938 45.768 38.85C45.5711 39.2063 45.1867 39.7594 44.3617 40.6406L44.3242 42.2812C44.2961 43.8094 44.2773 43.95 44.0617 44.3813C43.9305 44.6344 43.6398 45 43.4055 45.2063C43.1711 45.4031 42.7961 45.6375 42.5617 45.7219C42.2336 45.8438 41.643 45.8812 39.7961 45.9188C38.3336 45.9375 37.1992 45.9188 36.768 45.8531C36.4023 45.7969 35.9336 45.6656 35.7367 45.5719C35.5492 45.4688 35.2305 45.225 35.043 45.0281C34.8555 44.8312 34.6023 44.4656 34.4898 44.2031C34.3492 43.8844 34.2648 43.4531 34.1711 41.9062H13.8273L13.7711 42.8156C13.7336 43.4531 13.6492 43.8844 13.5086 44.2031C13.3961 44.4656 13.143 44.8312 12.9555 45.0281C12.768 45.225 12.4492 45.4688 12.2523 45.5719C12.0648 45.6656 11.5961 45.7969 11.2211 45.8531C10.7992 45.9188 9.66485 45.9375 8.20235 45.9188C6.35547 45.8812 5.76485 45.8438 5.43672 45.7219C5.20235 45.6375 4.82735 45.4031 4.59297 45.2063C4.3586 45 4.06797 44.6344 3.93672 44.3813C3.7211 43.95 3.70235 43.8094 3.63672 40.6406L3.11172 40.0688C2.81172 39.7594 2.4461 39.2531 2.27735 38.9438C2.11797 38.6438 1.91172 38.2031 1.82735 37.9688C1.74297 37.7344 1.4711 36.1031 1.21797 34.3313C0.955472 32.5688 0.749222 30.8719 0.749222 30.5625C0.749222 30.2531 0.796097 29.775 0.852347 29.5031C0.908597 29.2406 1.10547 28.6969 1.2836 28.3125C1.57422 27.7031 1.8086 27.4219 3.0836 26.1375C3.88985 25.3219 4.52735 24.6375 4.49922 24.6188C4.4711 24.5906 3.9086 24.5063 3.2336 24.4219C2.5586 24.3375 1.8461 24.225 1.64922 24.1594C1.44297 24.0938 1.08672 23.8781 0.861722 23.6719C0.627347 23.4656 0.336722 23.0813 0.214847 22.8281C0.074222 22.5281 -0.000778005 22.1906 0.008597 21.8906C0.008597 21.6281 0.064847 21.2906 0.121097 21.1219C0.186722 20.9625 0.374222 20.6344 0.542972 20.4094C0.739847 20.1375 1.03985 19.8938 1.38672 19.725C1.90235 19.4625 1.96797 19.4531 3.28985 19.4531C4.6211 19.4531 4.66797 19.4625 5.21172 19.7344C5.57735 19.9313 5.87735 20.1656 6.09297 20.4656C6.2711 20.7 6.44922 20.8688 6.47735 20.8313C6.51485 20.7938 7.0586 19.6219 7.6961 18.2344C8.32422 16.8469 9.01797 15.4125 9.22422 15.0563C9.44922 14.6813 9.91797 14.1188 10.3586 13.6969C10.9398 13.1531 11.3242 12.8813 11.9992 12.5438C12.4867 12.3094 13.1055 12.0563 13.8273 11.8875L13.9492 10.9313C14.0148 10.4156 14.193 9.61875 14.343 9.15938C14.5023 8.70938 14.7836 8.01563 14.9898 7.6125C15.1867 7.21875 15.5992 6.55313 15.9086 6.14063C16.218 5.72813 16.7242 5.16563 17.0242 4.89376C17.3242 4.61251 17.8305 4.20938 18.1398 3.98438C18.4492 3.75938 19.0398 3.41251 19.4523 3.20626C19.8648 3.00001 20.4086 2.75626 20.6711 2.67188C20.9242 2.58751 21.4773 2.43751 21.8898 2.34376C22.3898 2.23126 23.0461 2.17188 23.8586 2.16563ZM22.0773 4.18126C21.7211 4.26563 21.1211 4.45313 20.7648 4.60313C20.4086 4.76251 19.7711 5.10938 19.3586 5.39063C18.9461 5.66251 18.3367 6.17813 17.9992 6.525C17.6617 6.88126 17.1648 7.52813 16.893 7.96876C16.6305 8.40938 16.2836 9.14063 16.1336 9.60938C15.9742 10.0688 15.8055 10.8281 15.7492 11.2969C15.6836 11.775 15.6742 12.4594 15.7023 12.8906C15.7398 13.3031 15.843 13.9313 15.9367 14.2969C16.0305 14.6531 16.2461 15.2719 16.4242 15.6563C16.6023 16.0406 16.9305 16.6313 17.1555 16.9688C17.3805 17.3063 17.8211 17.8313 18.1305 18.15C18.4492 18.4594 18.9742 18.9 19.3117 19.125C19.6492 19.35 20.2211 19.6688 20.5773 19.8375C20.9336 19.9969 21.5898 20.2219 22.0305 20.3344C22.6305 20.4844 23.118 20.5313 23.9992 20.5313C24.8805 20.5313 25.368 20.4844 25.968 20.3344C26.4086 20.2219 27.0555 19.9969 27.4211 19.8375C27.7867 19.6688 28.3492 19.35 28.6867 19.125C29.0242 18.8906 29.5492 18.45 29.868 18.1406C30.1773 17.8313 30.618 17.3063 30.843 16.9688C31.068 16.6313 31.3867 16.0594 31.5555 15.7031C31.7242 15.3375 31.9492 14.6906 32.0523 14.25C32.1555 13.8094 32.2586 13.1531 32.2961 12.7969C32.3242 12.4313 32.3148 11.7844 32.2586 11.3438C32.2023 10.9031 32.0711 10.2469 31.9586 9.89063C31.8555 9.525 31.6117 8.93438 31.4336 8.57813C31.2461 8.2125 30.9648 7.73438 30.8055 7.50001C30.6461 7.26563 30.2805 6.82501 29.9898 6.51563C29.6992 6.20625 29.1555 5.73751 28.7711 5.46563C28.3867 5.20313 27.7867 4.85626 27.4211 4.68751C27.0555 4.52813 26.4461 4.31251 26.0617 4.20938C25.6305 4.09688 24.9461 4.01251 24.2805 3.98438C23.6898 3.96563 23.0992 3.96563 22.968 3.99375C22.8367 4.02188 22.4336 4.10626 22.0773 4.18126ZM12.7961 14.1844C12.5336 14.3156 12.243 14.4844 12.1398 14.5688C11.9523 14.7094 11.9523 14.7094 12.1867 14.7188C12.318 14.7188 12.7773 14.6719 13.218 14.625C13.6586 14.5688 14.0242 14.5219 14.043 14.5031C14.0523 14.4938 14.0523 14.325 14.0336 14.1281C14.0148 13.8969 13.9586 13.7844 13.8648 13.7906C13.7898 13.7906 13.6305 13.8281 13.4992 13.8656C13.368 13.9125 13.0492 14.0531 12.7961 14.1844ZM33.9555 14.5031C33.9742 14.5219 34.3398 14.5688 34.7805 14.625C35.2211 14.6719 35.6805 14.7188 35.8117 14.7188C36.0461 14.7094 36.0461 14.7094 35.8586 14.5688C35.7555 14.4844 35.4367 14.3063 35.1555 14.1563C34.8742 14.0156 34.5086 13.8656 34.3492 13.8375C34.068 13.7719 34.0492 13.7813 33.993 14.1281C33.9555 14.325 33.9367 14.4938 33.9555 14.5031ZM13.0305 16.5094C12.543 16.5656 11.9055 16.6688 11.6242 16.7344C11.343 16.8094 10.8836 16.9594 10.6117 17.0813C10.1898 17.2688 10.0961 17.3625 9.93672 17.7188C9.84297 17.9531 9.20547 19.3313 8.53985 20.7844L7.31172 23.4375L30.7023 23.4469C29.9148 22.6031 29.4555 22.1156 29.1836 21.8156L28.6867 21.2813C27.8523 21.6469 27.2898 21.8531 26.9055 21.975C26.5211 22.0969 25.7992 22.2563 25.3117 22.3125C24.7586 22.3875 24.0461 22.4156 23.4367 22.3781C22.893 22.3406 22.1805 22.2563 21.843 22.1813C21.5055 22.1156 20.8492 21.9094 20.3898 21.7406C19.9211 21.5625 19.1898 21.2063 18.7586 20.9531C18.2992 20.6813 17.5867 20.1188 17.0336 19.5938C16.4805 19.0594 15.8992 18.4031 15.6086 17.9531C15.3367 17.5406 15.0086 17.0063 14.8867 16.7531C14.7742 16.5094 14.6336 16.3125 14.5773 16.3219C14.5211 16.3313 14.3523 16.3594 14.2023 16.3688C14.043 16.3875 13.518 16.4531 13.0305 16.5094ZM32.5492 17.7656L37.6867 23.4375H40.6867L37.8273 17.25C36.9555 16.9031 36.4961 16.7625 36.2336 16.6969C35.9805 16.6406 35.3805 16.5563 34.9211 16.5C34.4617 16.4438 33.9086 16.3875 33.693 16.3594L33.318 16.3219L32.5492 17.7656ZM30.2711 20.2969C30.618 20.6625 32.2492 22.4438 34.1148 24.4969C37.3586 28.0594 37.518 28.2188 37.8367 28.2188C38.0617 28.2188 38.2398 28.1438 38.3992 27.9844C38.5305 27.8531 38.6242 27.6375 38.6336 27.4969C38.6336 27.3094 38.4742 27.0469 38.0898 26.6156C37.7898 26.2688 36.1773 24.4875 34.4992 22.65C32.8305 20.8125 31.4148 19.3125 31.3586 19.3125C31.3117 19.3125 31.0398 19.5375 30.768 19.8094L30.2711 20.2969ZM1.86485 21.825C1.87422 21.9656 1.93047 22.1531 1.9961 22.2469C2.08985 22.3875 2.3711 22.4531 3.37422 22.5844L4.63985 22.7344C4.6961 21.675 4.67735 21.5906 4.48047 21.4406C4.31172 21.3 4.08672 21.2719 3.28047 21.2719C2.54922 21.2813 2.23985 21.3188 2.08047 21.4219C1.93047 21.525 1.85547 21.6563 1.86485 21.825ZM43.3211 22.1719L43.3586 22.7344C45.6367 22.4531 45.918 22.3875 46.0117 22.2469C46.0773 22.1531 46.1336 21.9563 46.1336 21.8156C46.1242 21.6563 46.0492 21.5063 45.918 21.4219C45.7586 21.3188 45.4398 21.2813 44.7086 21.2813C43.9117 21.2813 43.668 21.3094 43.4992 21.4406C43.293 21.5906 43.2836 21.6656 43.3211 22.1719ZM4.81797 26.925C3.71172 28.0406 3.13985 28.6969 2.9711 29.0344C2.83047 29.3063 2.68985 29.7 2.65235 29.9063L2.57735 30.2813H45.4211C45.318 29.7 45.168 29.3063 45.0367 29.0344C44.868 28.6969 44.2961 28.05 43.1805 26.925L41.5773 25.3031L39.468 25.3125C39.8992 25.8563 40.1148 26.2219 40.2273 26.4844C40.368 26.7938 40.4336 27.1406 40.443 27.5156C40.443 27.8719 40.3773 28.2281 40.2555 28.5C40.1523 28.7344 39.9086 29.0906 39.7023 29.2969C39.468 29.5406 39.1211 29.7656 38.7648 29.8969C38.3242 30.0656 38.0992 30.1031 37.6867 30.0563C37.4055 30.0281 36.9648 29.8969 36.7023 29.775C36.3367 29.5875 35.8492 29.1094 34.3117 27.4313L32.3898 25.3125H6.41172L4.81797 26.925ZM2.8211 32.2688C2.8211 32.3813 2.87735 32.9625 2.96172 33.5531C3.03672 34.1531 3.1211 34.725 3.14922 34.8469L3.1961 35.0531L10.3492 35.0063C11.0523 32.7563 11.2586 32.0906 11.2586 32.0813C11.2586 32.0625 9.35547 32.0531 7.03985 32.0531H2.8211V32.2688ZM12.7211 33.5813C12.4773 34.3406 12.2898 34.9875 12.2898 35.0156C12.2898 35.0438 12.5711 35.0531 12.918 35.0344L13.5461 35.0156C14.2398 32.8313 14.4367 32.1656 14.4367 32.1281C14.4461 32.0906 14.1742 32.0625 13.8367 32.0625C13.5086 32.0625 13.218 32.0906 13.1898 32.1281C13.1711 32.1656 12.9555 32.8219 12.7211 33.5813ZM15.8992 33.6563C15.6648 34.4063 15.4773 35.025 15.4773 35.0344C15.4773 35.0531 19.3117 35.0625 24.0086 35.0625C28.6961 35.0625 32.5398 35.0531 32.5398 35.0344C32.5398 35.025 32.3336 34.3594 32.0805 33.5625L31.6305 32.1094C17.9805 32.0625 16.3961 32.0813 16.3586 32.175C16.3398 32.2406 16.1242 32.9063 15.8992 33.6563ZM34.0211 33.6094L34.4711 35.0156C35.4367 35.0531 35.718 35.025 35.718 34.9875C35.718 34.95 35.5211 34.2844 35.268 33.5156L34.818 32.1094C33.8523 32.0625 33.5711 32.0906 33.5711 32.1281C33.5711 32.1656 33.768 32.8313 34.0211 33.6094ZM37.2086 33.5625L37.6586 35.0156L44.8211 35.0625C44.8867 34.7344 44.9711 34.1531 45.0461 33.5625C45.1305 32.9719 45.1961 32.3906 45.1961 32.2688V32.0625C38.6523 32.0625 36.7586 32.0719 36.7586 32.0813C36.7586 32.1 36.9555 32.7656 37.2086 33.5625ZM3.5336 37.1906C3.56172 37.3313 3.7211 37.6969 3.88047 38.0063C4.04922 38.3063 4.37735 38.7375 4.6211 38.9625C4.86485 39.1875 5.35235 39.5063 5.69922 39.675L6.33672 39.9844H41.6805C42.6555 39.5063 43.143 39.1875 43.3867 38.9625C43.6305 38.7375 43.968 38.3063 44.1273 38.0063C44.2867 37.6969 44.4461 37.3313 44.4742 37.1906L44.5398 36.9375H3.46797L3.5336 37.1906ZM5.47422 42.5438C5.49297 43.4437 5.50235 43.5 5.75547 43.7531L6.0086 44.0063C10.6023 44.0531 11.1273 44.0344 11.3805 43.9219C11.5398 43.8469 11.7367 43.6781 11.8023 43.5469C11.8586 43.4156 11.9148 42.9938 11.9148 42.6V41.8969C8.31485 41.8969 7.00235 41.8594 6.66485 41.8125C6.32735 41.7656 5.92422 41.7 5.75547 41.6625L5.45547 41.5875L5.47422 42.5438ZM38.8961 41.8688L36.1023 41.9062C36.1023 42.9938 36.1586 43.425 36.2242 43.5469C36.2898 43.6781 36.4773 43.8469 36.6461 43.9219C36.8898 44.0344 37.4242 44.0625 39.4773 44.0438L42.0086 44.0156C42.5148 43.5094 42.5242 43.4438 42.5523 42.5625C42.5711 41.7188 42.5617 41.625 42.4117 41.6344C42.318 41.6344 42.1211 41.6813 41.9617 41.7375C41.8023 41.7938 40.4711 41.85 38.8961 41.8688ZM24.243 4.82813C24.8148 4.84688 25.5461 4.93125 25.8836 5.025C26.2211 5.10938 26.7461 5.29688 27.0555 5.43751C27.3648 5.56876 27.8898 5.86876 28.2273 6.09376C28.5648 6.32813 29.0898 6.76875 29.3898 7.07813C29.6898 7.38751 30.1211 7.94063 30.3461 8.29688C30.5711 8.66251 30.8617 9.23438 30.993 9.59063C31.1242 9.93751 31.293 10.6125 31.3773 11.0906C31.4805 11.6813 31.5086 12.1875 31.4711 12.7031C31.4336 13.1156 31.3398 13.725 31.2648 14.0625C31.1805 14.4 30.9648 14.9906 30.7867 15.375C30.6086 15.7594 30.2805 16.3313 30.0648 16.6406C29.8398 16.95 29.4273 17.4188 29.1555 17.6813C28.8742 17.9344 28.4617 18.2813 28.2273 18.4406C27.993 18.6 27.5898 18.8344 27.318 18.975C27.0461 19.1063 26.4742 19.3219 26.0523 19.4438C25.6211 19.5656 24.9836 19.6969 24.618 19.725C24.2617 19.7625 23.6055 19.7438 23.1648 19.6875C22.7242 19.6313 22.0961 19.5 21.7586 19.3969C21.4211 19.2844 20.943 19.0969 20.6805 18.9656C20.4273 18.8344 19.9586 18.5531 19.6492 18.3281C19.3398 18.1125 18.8711 17.7 18.618 17.4281C18.3555 17.1469 17.9992 16.7156 17.8211 16.4531C17.643 16.2 17.3711 15.6938 17.2023 15.3281C17.043 14.9719 16.8367 14.4 16.7617 14.0625C16.6773 13.725 16.5836 13.1156 16.5461 12.7031C16.5086 12.1875 16.5367 11.6813 16.6398 11.0906C16.7242 10.6125 16.9023 9.93751 17.0336 9.59063C17.1648 9.23438 17.4555 8.66251 17.6711 8.29688C17.8961 7.94063 18.3273 7.38751 18.6273 7.07813C18.9367 6.76875 19.4523 6.32813 19.7898 6.09376C20.1273 5.86876 20.6523 5.56876 20.9617 5.42813C21.2711 5.29688 21.8242 5.10938 22.1805 5.03438C22.5461 4.95001 22.9211 4.85626 23.0242 4.8375C23.1273 4.80938 23.6805 4.80938 24.243 4.82813ZM21.2898 7.31251C20.9242 7.50938 20.418 7.90313 20.0242 8.29688C19.5742 8.75626 19.2555 9.17813 19.0211 9.65625C18.8242 10.0406 18.6086 10.6125 18.5242 10.9219C18.4492 11.2313 18.3836 11.8219 18.3836 12.2344C18.3836 12.6469 18.4492 13.2563 18.5336 13.5938C18.6086 13.9313 18.8148 14.475 18.9742 14.8125C19.1617 15.1969 19.5367 15.6938 19.9773 16.1531C20.5023 16.6969 20.8586 16.9781 21.3836 17.2406C21.768 17.4375 22.3023 17.6531 22.5555 17.7281C22.818 17.8031 23.4555 17.8594 24.0086 17.8594C24.5617 17.8594 25.1992 17.8031 25.4617 17.7281C25.7242 17.6531 26.2492 17.4375 26.6336 17.2406C27.1586 16.9781 27.5148 16.6969 28.0398 16.1531C28.4805 15.6938 28.8555 15.1969 29.043 14.8125C29.2117 14.475 29.4086 13.9313 29.4836 13.5938C29.568 13.2563 29.6336 12.6469 29.6336 12.2344C29.6336 11.8219 29.568 11.2313 29.493 10.9219C29.418 10.6125 29.2023 10.05 29.0242 9.68438C28.7898 9.19688 28.4992 8.80313 28.0211 8.31563C27.5242 7.81875 27.1398 7.52813 26.6336 7.28438C26.2492 7.0875 25.6961 6.87188 25.4148 6.79688C25.1148 6.72188 24.5055 6.66563 23.9617 6.66563C23.3711 6.66563 22.818 6.73126 22.4617 6.83438C22.1523 6.91876 21.6273 7.14375 21.2898 7.31251ZM26.9148 8.72813C27.0461 8.71875 27.2523 8.79375 27.3836 8.87813C27.5148 8.97188 27.693 9.13126 27.7773 9.23438C27.8711 9.3375 28.0867 9.69375 28.2648 10.0313C28.443 10.3781 28.6586 10.9688 28.743 11.3906C28.8367 11.8781 28.8742 12.3281 28.8367 12.6563C28.7992 12.9375 28.7148 13.3875 28.6305 13.6406C28.5555 13.9031 28.3492 14.3625 28.1805 14.6719C28.0117 14.9813 27.6836 15.4125 27.4398 15.6375C27.2055 15.8531 26.9336 16.0406 26.8492 16.0406C26.7555 16.05 26.5961 16.0406 26.493 16.0313C26.3898 16.0219 26.2117 15.9375 26.0898 15.8531C25.968 15.7688 25.8461 15.6188 25.818 15.5156C25.7898 15.4125 25.7711 15.2156 25.7805 15.075C25.7898 14.925 25.9492 14.625 26.1555 14.3719C26.3617 14.1188 26.6148 13.7156 26.7367 13.4531C26.8492 13.2 26.9617 12.7781 26.9898 12.5156C27.018 12.2625 26.9805 11.8125 26.9148 11.5313C26.8398 11.25 26.643 10.8094 26.4648 10.5469C26.2867 10.2938 26.0992 9.975 26.0523 9.84375C25.9867 9.675 26.0055 9.525 26.1367 9.27188C26.2305 9.08438 26.3898 8.8875 26.493 8.83125C26.5961 8.775 26.7836 8.72813 26.9148 8.72813Z" fill="#2551E8"/>
</svg>
