<svg width="48" height="48" viewBox="0 0 48 48" fill="none" xmlns="http://www.w3.org/2000/svg">
<g clip-path="url(#clip0_180_6425)">
<path fill-rule="evenodd" clip-rule="evenodd" d="M21.8905 12.3844L22.9686 12.375C23.9249 12.375 24.0749 12.3938 24.2624 12.5625C24.403 12.6844 24.4686 12.8531 24.4686 13.0781C24.4686 13.3031 24.403 13.4719 24.253 13.5938C24.0749 13.7625 23.9249 13.7813 23.1561 13.7813C22.3874 13.7813 22.2374 13.8 22.0499 13.9688C21.9374 14.0719 21.8155 14.2969 21.7874 14.4656C21.7592 14.625 21.7499 15.7687 21.7967 19.2375L22.3124 19.6875H31.5186L32.0624 19.125V16.7813C32.0624 14.9906 32.0342 14.3719 31.9311 14.1844C31.8655 14.0344 31.7342 13.8938 31.6499 13.8563C31.5655 13.8094 30.4592 13.7813 29.1749 13.7813C26.9811 13.7813 26.8499 13.7719 26.6436 13.5938C26.503 13.4719 26.4374 13.3031 26.4374 13.0781C26.4374 12.8531 26.503 12.6844 26.6436 12.5625C26.8499 12.3844 26.9811 12.375 29.3624 12.375C31.7717 12.375 31.8936 12.3844 32.2217 12.5812C32.4186 12.6937 32.6811 12.8719 32.7936 12.975C32.9155 13.0875 33.1124 13.3406 33.2155 13.5469C33.4124 13.9031 33.4217 14.0344 33.4217 19.6875H35.503C37.1811 19.6875 37.6592 19.7156 37.9405 19.8281C38.1374 19.9125 38.4561 20.1375 38.653 20.325C38.878 20.55 39.0561 20.8406 39.1405 21.1406C39.2249 21.4125 39.2811 21.9938 39.2811 23.4375L40.003 23.3813C40.6311 23.325 40.7624 23.3438 40.9592 23.4938C41.0999 23.6156 41.1842 23.775 41.1936 23.9719C41.203 24.1781 41.128 24.3469 40.9874 24.4875C40.7905 24.6844 40.528 24.7313 34.5467 25.4063L33.328 26.6062C32.5499 27.375 31.9405 27.8906 31.1717 28.2656L19.0311 28.2937C7.79048 28.3125 6.85298 28.3031 6.42173 28.1531C6.11236 28.05 5.76548 27.8156 4.82798 26.9156L1.78111 26.9063L1.59361 27.1687C1.41549 27.4031 1.39673 27.5531 1.40611 31.3125H2.85924C3.65611 31.3125 4.38736 31.3406 4.47174 31.3875C4.55611 31.425 4.67798 31.5844 4.74361 31.7344C4.80923 31.9125 4.82798 32.1 4.77174 32.25C4.72486 32.3813 4.58423 32.5406 4.45298 32.6063C4.29361 32.6812 3.74986 32.7188 1.40611 32.7188L1.46236 32.9813C1.49049 33.1219 1.62173 33.375 1.76236 33.5531C1.90298 33.7219 2.16548 33.9469 2.34361 34.0406C2.66236 34.2094 3.27173 34.2188 41.8124 34.2188L41.0624 32.7188H24.1592C7.31236 32.7281 7.26549 32.7281 7.01236 32.5313C6.81549 32.3906 6.74986 32.2688 6.74986 32.0156C6.74986 31.7906 6.81549 31.6219 6.96549 31.5C7.17174 31.3125 7.24673 31.3125 40.9217 31.3219L41.2874 30.3563C41.4842 29.8219 41.8217 29.0531 42.0186 28.6406C42.2249 28.2281 42.6749 27.4688 43.0217 26.9625C43.3592 26.4469 44.0061 25.6406 44.4655 25.1531C44.9155 24.675 45.253 24.2625 45.2155 24.2438C45.1686 24.225 44.8217 24.2531 44.4374 24.2906C43.8655 24.3563 43.6967 24.3469 43.528 24.2344C43.4061 24.1594 43.2749 23.9906 43.2186 23.8594C43.1561 23.7031 43.1561 23.5469 43.2186 23.3906C43.2749 23.2594 43.3967 23.1188 43.4999 23.0625C43.603 23.0063 44.428 22.8844 45.328 22.7813C46.228 22.6781 47.1186 22.5938 47.2967 22.5938C47.5499 22.5938 47.6717 22.6594 47.8124 22.8563C47.9249 22.9969 48.0092 23.2031 47.9999 23.325C47.9999 23.4656 47.4842 24.0562 46.378 25.2C45.2905 26.3156 44.5686 27.15 44.1655 27.75C43.8374 28.2375 43.3967 29.025 43.1717 29.4844C42.9467 29.9438 42.6467 30.6938 42.2342 31.9688L42.9186 33.3281C43.2842 34.0781 43.5936 34.8 43.5936 34.95C43.5936 35.0906 43.4999 35.2969 43.1717 35.6344L2.43736 35.625L1.85611 35.3531C1.51861 35.2031 1.09674 34.9031 0.871735 34.6781C0.65611 34.4531 0.384235 34.0594 0.26236 33.7969C0.05611 33.3469 0.046735 33.225 0.01861 30.375C-0.000140019 28.4719 0.01861 27.2812 0.084235 27.0281C0.140485 26.8031 0.33736 26.4563 0.54361 26.2312C0.73111 26.025 1.05923 25.7719 1.26549 25.6781C1.50924 25.5656 1.86548 25.5 2.90611 25.5V18.6563L3.14048 18.4219C3.32798 18.225 3.45923 18.1875 4.40611 18.1875V16.2469C4.40611 14.6625 4.43423 14.2594 4.54673 14.0906C4.64986 13.9313 4.78111 13.875 5.04361 13.875C5.27798 13.8656 5.44673 13.9313 5.57798 14.0719C5.74673 14.25 5.76548 14.4188 5.81236 18.1875H7.31236V15.6563L7.57486 15.4688C7.71549 15.3563 7.90299 15.2719 7.99674 15.2813C8.08111 15.2813 8.22174 15.3094 8.30611 15.3563C8.39048 15.3938 8.52173 15.5344 8.58736 15.6844C8.68111 15.8531 8.71861 16.3031 8.71861 18.1875H12.5624L12.7967 18.4219C12.928 18.5531 13.0311 18.7594 13.0311 18.8906C13.0311 19.0219 12.7124 19.7625 11.6249 21.9375V26.9063H14.578V24.075C14.578 21.3469 14.5874 21.2156 14.7842 20.8594C14.8874 20.6531 15.103 20.3719 15.253 20.2313C15.3936 20.0906 15.6749 19.9125 15.8717 19.8375C16.153 19.7156 16.6311 19.6875 20.3905 19.6875V14.0156L20.6249 13.5469C20.7936 13.2188 21.0186 12.975 21.3749 12.7313L21.8905 12.3844ZM4.31236 25.5C5.33423 25.5 5.36236 25.5188 5.98111 26.1C6.32798 26.4281 6.71236 26.7469 6.82486 26.8031C6.95611 26.8688 7.63111 26.9063 8.62486 26.9063H10.2186V22.5H6.28111C5.92486 22.1344 5.81236 21.9375 5.81236 21.825C5.81236 21.7031 5.88736 21.5063 5.99049 21.375L6.17799 21.1406L10.453 21.0938C11.0061 20.0063 11.1561 19.6688 11.1561 19.6406C11.1561 19.6125 9.61861 19.5938 7.73423 19.5938H4.31236V25.5ZM15.9842 24C15.9842 26.3813 15.9936 26.5219 16.1717 26.7094C16.3592 26.9156 16.3874 26.9156 21.0467 26.9156C25.5561 26.9156 25.7436 26.9063 25.9686 26.7375L26.203 26.55V21.45C25.7436 21.0938 25.5655 21.0844 21.0374 21.0938C16.3874 21.0938 16.3405 21.0938 16.1624 21.2906C16.003 21.4781 15.9842 21.6656 15.9842 24ZM27.6561 24C27.6561 26.4094 27.6655 26.5406 27.8436 26.7188C28.0217 26.8875 28.1624 26.9063 29.3905 26.9063C30.3842 26.9063 30.8249 26.8688 31.0124 26.775C31.153 26.7 31.5374 26.3719 31.8655 26.0437L32.4655 25.4531C32.0905 25.0594 32.0624 24.9188 32.0624 24C32.0624 23.1 32.0905 22.95 32.2499 22.7813C32.3624 22.6781 32.5686 22.5938 32.728 22.5938C32.8874 22.5938 33.103 22.6781 33.2155 22.7719C33.3936 22.9219 33.4311 23.0813 33.4592 23.6906L33.4967 24.4219C34.0967 24.1031 34.3686 24 34.4811 24C34.5936 24 34.753 23.9813 34.828 23.9531C34.9311 23.925 34.9686 23.775 34.9686 23.4375C34.9686 23.1 35.0249 22.9219 35.1561 22.7813C35.2686 22.6781 35.4749 22.5938 35.6249 22.5938C35.803 22.5938 35.9999 22.6875 36.1405 22.8281C36.3092 22.9969 36.3749 23.1656 36.3749 23.4188L36.3842 23.7656C37.2186 23.6719 37.5561 23.6438 37.6686 23.6344C37.8749 23.625 37.8749 23.5969 37.8842 22.6219C37.8842 21.75 37.8561 21.5719 37.6967 21.3563L37.4999 21.0938C28.1624 21.0938 28.0311 21.1031 27.8436 21.2813C27.6655 21.4594 27.6561 21.6 27.6561 24ZM24.0092 15.2813C24.1124 15.2813 24.3092 15.3844 24.4499 15.5062C24.703 15.7312 24.703 15.7594 24.703 16.725C24.703 17.6156 24.6842 17.7375 24.4967 17.925C24.3842 18.0375 24.1686 18.1312 24.0092 18.1312C23.8311 18.1406 23.653 18.0656 23.5124 17.925C23.3155 17.7375 23.2967 17.6344 23.2967 16.725C23.2967 15.7594 23.3061 15.7312 23.5686 15.5062C23.7092 15.3844 23.9061 15.2813 24.0092 15.2813ZM26.878 15.2813C26.9436 15.2813 27.1124 15.3375 27.2436 15.4031C27.3936 15.4688 27.5249 15.6469 27.5811 15.8438C27.6374 16.0219 27.6655 16.5188 27.6467 16.9406C27.6186 17.5875 27.5811 17.7469 27.403 17.925C27.2905 18.0375 27.0749 18.1312 26.9249 18.1312C26.7655 18.1406 26.5592 18.0563 26.4467 17.9531C26.2686 17.7844 26.2499 17.6625 26.2405 16.7156C26.2405 15.6844 26.2405 15.6656 26.4936 15.4781C26.6342 15.375 26.8124 15.2813 26.878 15.2813ZM29.8499 15.2813C29.9624 15.2813 30.1499 15.3656 30.2624 15.4688C30.3749 15.5719 30.4967 15.75 30.5249 15.8719C30.553 15.9844 30.5717 16.4437 30.553 16.8938C30.5249 17.5875 30.4874 17.7469 30.3092 17.925C30.1967 18.0375 29.9811 18.1312 29.8311 18.1312C29.6717 18.1406 29.4655 18.0563 29.353 17.9531C29.1749 17.7844 29.1561 17.6625 29.1467 16.7156C29.1467 15.6844 29.1467 15.6656 29.3999 15.4781C29.5405 15.375 29.7467 15.2813 29.8499 15.2813ZM18.2061 22.5938C18.3467 22.5938 18.553 22.6781 18.6561 22.7813C18.8249 22.95 18.8436 23.1 18.8436 24C18.8436 24.9094 18.8249 25.0594 18.6561 25.2188C18.553 25.3219 18.3561 25.4063 18.2155 25.4156C18.0749 25.4156 17.8499 25.3313 17.7186 25.2375C17.4936 25.0594 17.4842 25.0125 17.4842 24C17.4842 23.0156 17.503 22.9406 17.7092 22.7719C17.8311 22.6781 18.0561 22.5938 18.2061 22.5938ZM21.1124 22.5938C21.253 22.5938 21.4592 22.6781 21.5624 22.7813C21.7311 22.95 21.7499 23.1 21.7499 24C21.7499 24.9094 21.7311 25.0594 21.5624 25.2188C21.4592 25.3219 21.2624 25.4063 21.1217 25.4156C20.9811 25.4156 20.7561 25.3313 20.6249 25.2375C20.3999 25.0594 20.3905 25.0125 20.3905 24C20.3905 23.0156 20.4092 22.9406 20.6155 22.7719C20.7374 22.6781 20.9624 22.5938 21.1124 22.5938ZM23.9811 22.5938C24.0936 22.5938 24.2717 22.6406 24.3749 22.6875C24.478 22.7438 24.6092 22.9406 24.6561 23.1375C24.7124 23.325 24.7499 23.7375 24.7499 24.0469C24.7499 24.3563 24.6936 24.7594 24.628 24.9375C24.553 25.1531 24.4311 25.2938 24.2624 25.3594C24.0842 25.425 23.9249 25.425 23.7467 25.3594C23.578 25.2938 23.4467 25.1531 23.3717 24.9375C23.3155 24.7594 23.2592 24.3563 23.2592 24.0469C23.2592 23.7375 23.3061 23.325 23.3624 23.1375C23.428 22.9406 23.5405 22.7438 23.6249 22.6969C23.6999 22.6406 23.8686 22.6031 23.9811 22.5938ZM29.7936 22.5938C29.9342 22.5938 30.1592 22.6687 30.2811 22.7719C30.5061 22.95 30.5155 22.9969 30.5155 24C30.5155 25.0125 30.5061 25.0594 30.2811 25.2375C30.1592 25.3313 29.9342 25.4156 29.7936 25.4156C29.653 25.4063 29.4467 25.3219 29.3436 25.2188C29.1842 25.0594 29.1561 24.9094 29.1561 24C29.1561 23.1 29.1842 22.95 29.3436 22.7813C29.4467 22.6781 29.653 22.5938 29.7936 22.5938ZM7.29361 24.0094C8.13736 24 8.16548 24.0094 8.43736 24.2813C8.66236 24.5063 8.70924 24.6187 8.67173 24.825C8.64361 24.9656 8.53111 25.1531 8.40924 25.2469C8.24048 25.3969 8.06236 25.4156 7.18111 25.3875C6.22486 25.3594 6.14986 25.35 5.98111 25.125C5.84986 24.9563 5.81236 24.8062 5.85923 24.5906C5.89048 24.3844 5.99361 24.2375 6.16861 24.15C6.33736 24.0563 6.72174 24.0094 7.29361 24.0094Z" fill="#2551E8"/>
</g>
<defs>
<clipPath id="clip0_180_6425">
<rect width="48" height="48" fill="white"/>
</clipPath>
</defs>
</svg>
