<svg width="48" height="48" viewBox="0 0 48 48" fill="none" xmlns="http://www.w3.org/2000/svg">
<g clip-path="url(#clip0_166_2791)">
<path fill-rule="evenodd" clip-rule="evenodd" d="M8.20312 -0.0093689L8.46563 0.234381C8.60625 0.365631 8.74687 0.581256 8.775 0.731256C8.80312 0.871881 8.80312 1.07813 8.775 1.20001C8.74687 1.31251 8.64375 1.48126 8.55 1.57501C8.45625 1.65938 8.29688 1.77188 8.2125 1.82813C8.0625 1.91251 8.0625 1.95001 8.2875 2.34376C8.41875 2.57813 8.5875 3.01876 8.67188 3.32813C8.79375 3.82501 8.8125 5.91563 8.8125 22.1719C8.8125 37.875 8.83125 40.5188 8.94375 40.9219C9.01875 41.1844 9.24375 41.5781 9.45 41.8125C9.64688 42.0469 10.0219 42.3375 10.275 42.4688C10.6219 42.6375 10.8844 42.6938 11.3438 42.6938C11.7656 42.6938 12.0844 42.6375 12.375 42.4969C12.6094 42.3938 12.9375 42.1594 13.1156 41.9906C13.2937 41.8125 13.5375 41.4656 13.65 41.2031C13.8656 40.7531 13.875 40.6406 13.875 38.6438C13.875 36.9844 13.9031 36.5063 14.0156 36.2813C14.0906 36.1313 14.2406 35.9625 14.3438 35.9063C14.4656 35.85 16.8937 35.8125 27.5625 35.8125L27.6188 35.4656C27.6562 35.2688 27.8062 34.7531 27.9656 34.3125C28.1156 33.8719 28.35 33.3094 28.4812 33.0469C28.6031 32.7938 28.9219 32.2594 29.1844 31.875C29.4469 31.4906 30 30.8344 30.4125 30.4125C30.8344 30 31.4906 29.4469 31.875 29.1844C32.2594 28.9219 32.7938 28.6031 33.0469 28.4813C33.3 28.35 33.8719 28.1156 34.3125 27.9656C34.7531 27.8063 35.2687 27.6563 35.8125 27.5625L35.7844 15.675C35.7656 4.58438 35.7563 3.77813 35.5969 3.45001C35.5125 3.25313 35.2594 2.89688 35.0344 2.66251C34.7812 2.39063 34.4719 2.17501 34.1438 2.05313C33.675 1.88438 33.3281 1.87501 15.0938 1.87501L14.7656 1.54688C14.5406 1.32188 14.4375 1.13438 14.4375 0.937506C14.4375 0.759381 14.5406 0.534381 15 6.10389e-06H33.9844L34.5938 0.225006C34.9313 0.346881 35.3531 0.534381 35.5312 0.637506C35.7094 0.750006 36.0844 1.05938 36.3562 1.33126C36.6656 1.63126 36.9844 2.08126 37.1719 2.48438C37.35 2.85001 37.5375 3.41251 37.5938 3.75001C37.65 4.13438 37.6875 8.55001 37.6875 27.3281L38.6906 27.4406C39.2531 27.5063 39.975 27.6281 40.3125 27.7125C40.65 27.7969 41.2781 28.0219 41.7188 28.2094C42.1594 28.3969 42.8906 28.8 43.3594 29.1C43.8656 29.4375 44.5406 29.9906 45.0469 30.5156C45.5438 31.0219 46.1063 31.725 46.4062 32.2125C46.6875 32.6719 47.0531 33.3844 47.2219 33.7969C47.3906 34.2094 47.5875 34.8 47.6625 35.1094C47.7469 35.4188 47.85 35.9625 47.9062 36.3281C47.9531 36.6938 48 37.3031 48 37.6875C48 38.0719 47.9531 38.6813 47.9062 39.0469C47.85 39.4125 47.7469 39.9563 47.6625 40.2656C47.5875 40.575 47.3906 41.1656 47.2219 41.5781C47.0531 41.9906 46.6875 42.7031 46.4062 43.1625C46.1063 43.6406 45.5344 44.3531 45.0469 44.8594C44.5781 45.3375 43.8844 45.9375 43.5 46.1906C43.1156 46.4531 42.5812 46.7719 42.3281 46.8938C42.0656 47.025 41.5406 47.25 41.1562 47.3813C40.7719 47.5219 40.0687 47.7188 39.6094 47.8219C39.0375 47.9438 38.4094 48 37.6406 48C36.7219 48 36.3187 47.9531 35.4375 47.7281C34.8469 47.5875 34.0406 47.3344 33.6562 47.175C33.2719 47.0063 32.5687 46.6313 32.1094 46.3313C31.6406 46.0219 30.9844 45.5156 30 44.625H20.55C12.9562 44.625 10.9875 44.5969 10.5 44.4938C10.1625 44.4281 9.65625 44.25 9.375 44.1094C9.09375 43.9594 8.65312 43.65 8.4 43.4156C8.14687 43.1813 7.82812 42.8156 7.6875 42.6094C7.54688 42.4031 7.33125 41.9813 6.98438 41.1094L6.9375 8.81251H3.84375C1.75313 8.81251 0.684375 8.77501 0.534375 8.70938C0.421875 8.65313 0.253125 8.51251 0.16875 8.40001C0.01875 8.22188 0 7.94063 0 5.90626C0 3.65626 0 3.60001 0.234375 3.00001C0.365625 2.66251 0.571875 2.24063 0.684375 2.06251C0.796875 1.88438 1.03125 1.57501 1.21875 1.37813C1.39688 1.17188 1.75312 0.881256 2.01562 0.721881C2.26875 0.553131 2.7375 0.328131 3.04688 0.215631C3.57188 0.0281311 3.77812 0.0093811 8.20312 -0.0093689ZM2.9625 2.36251C2.65625 2.56876 2.40625 2.84376 2.2125 3.18751C1.92188 3.70313 1.92188 3.70313 1.89375 5.32501L1.875 6.93751H6.9375V3.89063C6.46875 2.95313 6.19688 2.58751 6.04688 2.47501C5.8875 2.36251 5.61562 2.19376 5.4375 2.10938C5.25938 2.01563 4.85625 1.93126 4.54688 1.91251C4.2375 1.89376 3.85313 1.92188 3.70312 1.96876C3.54375 2.01563 3.21563 2.19376 2.9625 2.36251ZM35.0156 29.6813C34.7531 29.7656 34.2938 29.9625 33.9844 30.1219C33.675 30.2719 33.1688 30.5719 32.8594 30.7875C32.55 30.9938 32.0438 31.4156 31.7344 31.7344C31.4156 32.0438 30.9844 32.5688 30.75 32.9063C30.525 33.2438 30.1969 33.8063 30.0281 34.1719C29.8594 34.5375 29.625 35.1656 29.5125 35.5781C29.3531 36.1875 29.3063 36.5813 29.3063 37.6875C29.3063 38.7938 29.3531 39.1875 29.5125 39.7969C29.625 40.2094 29.8594 40.8375 30.0281 41.2031C30.1969 41.5688 30.525 42.1313 30.75 42.4688C30.9844 42.8063 31.4344 43.3406 31.7531 43.6688C32.0813 43.9875 32.6531 44.4563 33.0188 44.7C33.3938 44.9438 34.0219 45.2813 34.4062 45.4406C34.7906 45.6094 35.4 45.8156 35.7656 45.9C36.2438 46.0219 36.7781 46.0688 37.7344 46.0688C38.775 46.0594 39.2062 46.0219 39.7969 45.8531C40.2094 45.7406 40.8375 45.5156 41.2031 45.3469C41.5687 45.1781 42.1312 44.85 42.4688 44.625C42.8063 44.3906 43.3406 43.9406 43.6594 43.6219C43.9875 43.2938 44.4562 42.7219 44.7 42.3563C44.9437 41.9813 45.2812 41.3531 45.4406 40.9688C45.6094 40.5844 45.8156 39.975 45.9 39.6094C46.0219 39.1313 46.0687 38.5969 46.0687 37.6406C46.0594 36.6 46.0219 36.1688 45.8531 35.5781C45.7406 35.1656 45.5156 34.5375 45.3469 34.1719C45.1781 33.8063 44.85 33.2438 44.625 32.9063C44.3906 32.5688 43.9594 32.0438 43.6406 31.7344C43.3312 31.4156 42.8063 30.9844 42.4688 30.75C42.1312 30.525 41.5687 30.1969 41.2031 30.0281C40.8375 29.8594 40.2094 29.6344 39.7969 29.5219C39.3 29.3906 38.6625 29.3156 37.9219 29.2875C37.1719 29.2688 36.5812 29.2969 36.1406 29.3906C35.775 29.4656 35.2687 29.5969 35.0156 29.6813ZM15.75 39.2625C15.75 40.5656 15.7219 40.9313 15.5625 41.4375C15.4594 41.775 15.2906 42.1875 15.1875 42.3563C15.0844 42.5156 15.0281 42.675 15.0656 42.7031C15.1125 42.7313 18.1687 42.75 21.8625 42.75C28.2281 42.75 28.5938 42.7406 28.5563 42.5906C28.5281 42.4969 28.3594 42.0656 28.1813 41.625C28.0031 41.1844 27.7875 40.575 27.7031 40.2656C27.6187 39.9563 27.5063 39.2531 27.4406 38.6906L27.3281 37.6875H15.75V39.2625ZM11.6063 0.0093811C11.7938 0.0093811 12.0375 0.0843811 12.15 0.168756C12.2625 0.262506 12.3937 0.431256 12.4594 0.543756C12.5156 0.656256 12.5625 0.834381 12.5625 0.937506C12.5625 1.04063 12.5062 1.23751 12.4406 1.37813C12.375 1.50938 12.2062 1.67813 12.0656 1.75313C11.925 1.81876 11.7094 1.87501 11.5781 1.87501C11.4375 1.87501 11.2125 1.75313 11.0156 1.54688C10.8 1.34063 10.6781 1.12501 10.6781 0.946881C10.6687 0.750006 10.7531 0.562506 10.9594 0.337506C11.2031 0.0750061 11.3344 0.0093811 11.6063 0.0093811ZM45.1875 0.0093811C47.1375 0.0093811 47.4094 0.0281311 47.5875 0.168756C47.7 0.262506 47.8312 0.431256 47.8969 0.543756C47.9719 0.693756 48 3.61876 47.9906 21.0469L47.0062 23.5313C46.35 25.1906 45.9469 26.0906 45.7875 26.2313C45.6281 26.3719 45.4406 26.4375 45.1875 26.4375C44.925 26.4375 44.7375 26.3719 44.5781 26.2313C44.4281 26.0906 44.0156 25.1719 42.375 21.0469V10.9031C42.375 3.61876 42.4031 0.693756 42.4781 0.543756C42.5344 0.431256 42.675 0.262506 42.7781 0.168756C42.9562 0.0281311 43.2375 0.0093811 45.1875 0.0093811ZM44.25 19.0313H46.125V1.87501H44.25V19.0313ZM44.5406 21.4031C44.6531 21.675 44.8312 22.1156 44.9344 22.3875C45.0469 22.6594 45.1594 22.8844 45.1875 22.8844C45.2156 22.8844 45.3188 22.6594 45.4313 22.3875C45.5438 22.1156 45.7219 21.675 45.8344 21.4031L46.0312 20.9063H44.3438L44.5406 21.4031ZM18.4594 6.93751L26.2406 6.99376L26.5031 7.25626C26.7 7.45313 26.7656 7.60313 26.7656 7.89376C26.7656 8.20313 26.7094 8.32501 26.1562 8.82188H22.3594C19.5187 8.82188 18.4969 8.79376 18.3187 8.70938C18.1781 8.64376 18.0094 8.47501 17.9437 8.33438C17.8687 8.18438 17.8125 7.95938 17.8219 7.82813C17.8313 7.68751 17.9625 7.44376 18.1406 7.26563L18.4594 6.93751ZM13.2094 14.4375H22.2188C28.0031 14.4375 31.3125 14.475 31.4625 14.5313C31.5844 14.5875 31.7625 14.7469 31.8562 14.8875C31.9406 15.0281 32.0156 15.2906 32.0062 15.4688C31.9969 15.7125 31.9125 15.8719 31.4156 16.3125H22.3688C15.3188 16.3125 13.2656 16.2938 13.0687 16.2C12.9375 16.1344 12.7687 15.9656 12.6937 15.825C12.6281 15.6844 12.5719 15.4594 12.5812 15.3188C12.5812 15.1781 12.7219 14.9438 12.9 14.7563L13.2094 14.4375ZM13.2094 18.1875H22.2188C28.0031 18.1875 31.3125 18.225 31.4625 18.2813C31.5844 18.3375 31.7625 18.4969 31.8562 18.6375C31.9406 18.7781 32.0156 19.0406 32.0062 19.2188C31.9969 19.4625 31.9125 19.6219 31.4156 20.0625H22.3688C15.3188 20.0625 13.2656 20.0438 13.0687 19.95C12.9375 19.8844 12.7687 19.7156 12.6937 19.575C12.6281 19.4344 12.5719 19.2094 12.5812 19.0688C12.5812 18.9281 12.7219 18.6938 12.9 18.5063L13.2094 18.1875ZM13.2094 21.9375H22.2188C28.0031 21.9375 31.3125 21.975 31.4625 22.0313C31.5844 22.0875 31.7625 22.2469 31.8562 22.3875C31.9406 22.5281 32.0156 22.7906 32.0062 22.9688C31.9969 23.2125 31.9125 23.3719 31.4156 23.8125H22.3688C15.3188 23.8125 13.2656 23.7938 13.0687 23.7C12.9375 23.6344 12.7687 23.4656 12.6937 23.325C12.6281 23.1844 12.5719 22.9594 12.5812 22.8188C12.5812 22.6781 12.7219 22.4438 12.9 22.2563L13.2094 21.9375ZM13.2094 25.6875H17.5312C20.1938 25.6875 21.9375 25.725 22.0875 25.7813C22.2094 25.8375 22.3875 25.9969 22.4813 26.1375C22.5656 26.2781 22.6406 26.5406 22.6312 26.7188C22.6219 26.9625 22.5375 27.1219 22.0406 27.5625H17.6813C14.3813 27.5625 13.2562 27.5344 13.0687 27.45C12.9375 27.3844 12.7687 27.2156 12.6937 27.075C12.6281 26.9344 12.5719 26.7094 12.5812 26.5688C12.5812 26.4281 12.7219 26.1938 12.9 26.0063L13.2094 25.6875ZM25.6031 25.7344C25.7812 25.7625 25.9875 25.8375 26.0625 25.9031C26.1281 25.9688 26.2406 26.1469 26.3063 26.2969C26.3719 26.4563 26.4 26.7 26.3625 26.85C26.3344 27 26.1844 27.225 26.0437 27.3469C25.8844 27.4875 25.6688 27.5625 25.4625 27.5625C25.2188 27.5625 25.0594 27.4875 24.8531 27.2813C24.6469 27.075 24.5719 26.9156 24.5719 26.6719C24.5719 26.4938 24.6094 26.2594 24.6656 26.1563C24.7125 26.0531 24.8719 25.9125 25.0125 25.8281C25.1719 25.7438 25.3969 25.7063 25.6031 25.7344ZM30.1219 25.6969C30.7312 25.6969 31.3313 25.7344 31.4625 25.7813C31.5844 25.8375 31.7625 25.9969 31.8562 26.1375C31.9406 26.2781 32.0156 26.5406 32.0062 26.7188C31.9969 26.9625 31.9125 27.1219 31.6969 27.3094C31.4156 27.5625 31.3969 27.5625 28.8844 27.5625L28.6031 27.2813C28.3969 27.075 28.3219 26.9156 28.3219 26.6719C28.3219 26.4938 28.3594 26.2594 28.4156 26.1563C28.4625 26.0531 28.6219 25.9125 28.7625 25.8375C28.95 25.7344 29.3437 25.6969 30.1219 25.6969ZM13.2094 29.4375H22.6031L22.8844 29.6719C23.0438 29.8125 23.1844 30.0375 23.2219 30.2156C23.2594 30.4313 23.2219 30.6094 23.1 30.825C23.0062 30.9844 22.8281 31.1625 22.7156 31.2188C22.5844 31.2844 20.8406 31.3125 17.9156 31.3125C14.4281 31.3125 13.2562 31.2844 13.0687 31.2C12.9375 31.1344 12.7687 30.9656 12.6937 30.825C12.6281 30.6844 12.5719 30.4594 12.5812 30.3188C12.5812 30.1781 12.7219 29.9438 12.9 29.7563L13.2094 29.4375ZM37.6687 32.0719C37.7812 32.0625 37.9969 32.1281 38.1375 32.1938C38.2781 32.2688 38.4469 32.4375 38.5125 32.5688C38.5781 32.7094 38.6344 32.925 38.6344 33.0469C38.6344 33.2344 38.7281 33.3375 39.1219 33.5531C39.3937 33.6938 39.6844 33.9281 39.7781 34.0688C39.8719 34.2 39.9469 34.4531 39.9469 34.6219C39.9469 34.7906 39.8625 35.0438 39.7594 35.1844C39.6375 35.3531 39.45 35.4656 39.2156 35.5031C38.9344 35.55 38.775 35.5125 38.4187 35.3156C38.175 35.175 37.8937 35.0906 37.7906 35.1094C37.6875 35.1375 37.5375 35.2219 37.4625 35.2969C37.3781 35.3813 37.3219 35.5594 37.3219 35.7C37.3219 35.8969 37.5656 36.2063 38.4281 37.0781C39.0375 37.6969 39.6094 38.3719 39.7125 38.5781C39.8438 38.85 39.9 39.15 39.9 39.6656C39.9 40.2375 39.8531 40.4531 39.6562 40.8375C39.5156 41.1 39.2531 41.4188 39.0281 41.5781C38.7 41.8219 38.6437 41.9156 38.6344 42.2156C38.6344 42.4031 38.5781 42.675 38.5125 42.8156C38.4469 42.9469 38.2781 43.1156 38.1375 43.1906C37.9969 43.2563 37.8 43.3125 37.6969 43.3125C37.5938 43.3125 37.3875 43.2563 37.2469 43.1906C37.1062 43.1156 36.9375 42.9469 36.8719 42.8156C36.8062 42.675 36.7594 42.4594 36.7594 42.3281C36.7594 42.1406 36.6562 42.0375 36.2625 41.8313C35.9906 41.6813 35.7 41.4469 35.6062 41.3156C35.5125 41.175 35.4469 40.9219 35.4469 40.7344C35.4469 40.5 35.5219 40.3313 35.7188 40.125C35.9062 39.9375 36.0844 39.8438 36.2812 39.8438C36.4406 39.8438 36.7594 39.9563 36.9938 40.0781C37.2188 40.2094 37.5 40.2938 37.6031 40.2656C37.7062 40.2469 37.8469 40.1625 37.9313 40.0781C38.0063 40.0031 38.0625 39.825 38.0625 39.6844C38.0625 39.4781 37.8188 39.1781 36.9563 38.2969C36.3563 37.6781 35.775 37.0031 35.6813 36.7969C35.5781 36.5906 35.4844 36.1969 35.4656 35.9063C35.4375 35.625 35.4656 35.2219 35.5219 35.0156C35.5781 34.8094 35.7563 34.4625 35.925 34.2375C36.0844 34.0125 36.3375 33.7594 36.4875 33.675C36.7125 33.5438 36.7594 33.45 36.7594 33.1406C36.7594 32.9344 36.825 32.6719 36.9094 32.5406C36.9844 32.4188 37.1437 32.2688 37.2562 32.1938C37.3687 32.1281 37.5562 32.0719 37.6687 32.0719Z" fill="#2551E8"/>
</g>
<defs>
<clipPath id="clip0_166_2791">
<rect width="48" height="48" fill="white"/>
</clipPath>
</defs>
</svg>
