<svg width="48" height="48" viewBox="0 0 48 48" fill="none" xmlns="http://www.w3.org/2000/svg">
<g clip-path="url(#clip0_274_12514)">
<path fill-rule="evenodd" clip-rule="evenodd" d="M37.8109 9.09375C38.0922 9.09375 38.4109 9.16875 38.6922 9.31875C38.9453 9.43125 39.2734 9.68437 39.4234 9.8625C39.5734 10.05 39.7609 10.3594 39.8172 10.5562C39.8828 10.7625 39.9391 11.2875 39.9391 12.5625H40.6609C41.0641 12.5625 41.5984 12.6281 41.8609 12.7031C42.1141 12.7781 42.4703 12.9469 42.6297 13.0781C42.7984 13.2094 43.0703 13.5 43.2203 13.7344C43.3797 13.9688 43.5016 14.2781 43.5016 14.4375C43.5016 14.6344 43.4266 14.775 43.2391 14.9062C43.0984 15.0188 42.9016 15.0938 42.7984 15.0938C42.6953 15.0938 42.3859 14.85 41.5797 13.9688H37.5953V16.95C37.5859 19.6688 37.6047 19.9406 37.9234 20.3438L45.9391 20.2969L44.9078 18.75C44.3453 17.8969 43.8766 17.1187 43.8766 17.0156C43.8672 16.9125 43.9516 16.7156 44.0641 16.5656C44.1766 16.4062 44.3359 16.3125 44.4859 16.3125C44.6172 16.3125 44.7953 16.3406 44.8797 16.3781C44.9734 16.425 45.6109 17.3156 46.3141 18.375C47.1672 19.6594 47.6547 20.5031 47.7953 20.9062C48.0016 21.5063 48.0016 21.5812 48.0109 33.1406L47.7391 33.6562C47.5703 33.9844 47.3266 34.275 46.6703 34.7344L41.7672 34.7906L41.7109 35.5594C41.6734 36.1031 41.5891 36.4781 41.4203 36.8438C41.2703 37.1531 40.9609 37.5656 40.6234 37.875C40.2297 38.25 39.8922 38.4656 39.4234 38.6531C38.9734 38.8312 38.5891 38.9062 38.2047 38.9062C37.8109 38.9062 37.4359 38.8312 36.9859 38.6531C36.5359 38.475 36.1703 38.2406 35.8328 37.9219C35.5141 37.6219 35.2234 37.2281 35.0359 36.8438C34.8109 36.3844 34.7266 36.0562 34.6422 34.7812H33.8641C33.1328 34.7812 33.0859 34.7719 32.9078 34.5188C32.7953 34.3781 32.7109 34.2 32.7109 34.125C32.7109 34.05 32.7953 33.8719 32.9078 33.7219C33.0953 33.4688 33.1141 33.4688 35.1391 33.4688L35.7391 32.8781C36.1703 32.4375 36.4797 32.2219 36.8922 32.0625C37.3141 31.8937 37.6422 31.8469 38.2047 31.8469C38.7672 31.8469 39.0953 31.8937 39.5172 32.0625C39.9203 32.2219 40.2578 32.4562 41.2984 33.4688H43.6891C45.9484 33.4781 46.0984 33.4688 46.5953 33.0938V29.25L24.1984 29.2688C1.95156 29.2969 1.80156 29.2969 1.60469 29.4844C1.40781 29.6625 1.39844 29.7563 1.40781 33.0938L1.66094 33.2812C1.88594 33.45 2.06406 33.4781 3.84531 33.4688L4.30469 32.9719C4.55781 32.7094 4.97031 32.3719 5.21406 32.2312C5.46719 32.0906 5.94531 31.9312 6.28281 31.8656C6.75156 31.7812 7.02344 31.7719 7.45469 31.8656C7.76406 31.9219 8.24219 32.0906 8.52344 32.2312C8.80469 32.3719 9.23594 32.7094 9.93906 33.4688H11.7016L12.3016 32.8781C12.7328 32.4375 13.0422 32.2219 13.4547 32.0625C13.8766 31.8937 14.2047 31.8469 14.7672 31.8469C15.3297 31.8469 15.6578 31.8937 16.0797 32.0625C16.4922 32.2219 16.7922 32.4375 17.8141 33.4688H24.1422C30.3484 33.4688 30.4703 33.4688 30.6578 33.6562C30.7609 33.7594 30.8453 33.9656 30.8453 34.125C30.8453 34.2844 30.7609 34.4906 30.6578 34.5938C30.4703 34.7812 30.3484 34.7812 18.3297 34.7812L18.2734 35.5031C18.2453 35.9063 18.1609 36.3563 18.0859 36.5156C18.0109 36.6656 17.8422 36.8531 17.6922 36.9375C17.4672 37.0594 17.4109 37.0594 17.1859 36.9375C17.0547 36.8625 16.8953 36.7219 16.8391 36.6375C16.7641 36.5156 16.7641 36.3281 16.8578 35.9344C16.9422 35.5406 16.9516 35.2594 16.8766 34.9219C16.8297 34.6594 16.6703 34.2844 16.5203 34.0781C16.3609 33.8438 16.0703 33.6094 15.7516 33.4406C15.3953 33.2625 15.0953 33.1875 14.7672 33.1875C14.4391 33.1875 14.1391 33.2625 13.7828 33.4406C13.4641 33.6094 13.1734 33.8438 13.0141 34.0781C12.8641 34.2844 12.7047 34.6406 12.6484 34.875C12.5734 35.1844 12.5734 35.4281 12.6484 35.7656C12.7047 36.0187 12.8641 36.4031 13.0141 36.6094C13.1734 36.8438 13.4641 37.0781 13.7828 37.2469C14.1672 37.4344 14.4297 37.5 14.8328 37.5C15.2922 37.5 15.4141 37.5375 15.6109 37.7344C15.7422 37.8656 15.8453 38.0625 15.8453 38.175C15.8547 38.2969 15.7422 38.5031 15.6016 38.6438C15.3859 38.8781 15.2828 38.9062 14.7766 38.9062C14.3734 38.9062 14.0078 38.8312 13.5484 38.6531C13.1078 38.475 12.7328 38.2406 12.3859 37.9219C12.0953 37.65 11.7578 37.2094 11.5984 36.8906C11.3734 36.45 11.2984 36.1594 11.2047 34.7812H10.4547L10.3984 35.5031C10.3609 35.9719 10.2578 36.4219 10.1078 36.75C9.98594 37.0312 9.71406 37.4531 9.50781 37.6781C9.31094 37.9031 8.98281 38.1938 8.78594 38.3063C8.59844 38.4281 8.21406 38.6156 7.94219 38.7188C7.65156 38.8312 7.22969 38.9062 6.89219 38.9062C6.50781 38.9062 6.13281 38.8312 5.72031 38.6719C5.38281 38.5406 4.93281 38.2969 4.72656 38.1281C4.51094 37.9594 4.19219 37.6406 4.02344 37.4156C3.84531 37.1813 3.62969 36.7781 3.54531 36.525C3.45156 36.2625 3.38594 35.7656 3.37656 34.7812H2.48594C1.95156 34.7812 1.47344 34.7344 1.28594 34.6594C1.12656 34.5844 0.854688 34.425 0.704687 34.2937C0.545312 34.1625 0.329687 33.8625 0.207812 33.6281C0.0203125 33.2156 0.0015625 33.0562 -0.0078125 29.4844L0.254687 29.025C0.395312 28.7719 0.639063 28.4719 0.798438 28.3594C0.948438 28.2469 1.22969 28.1063 1.40781 28.0406C1.61406 27.975 2.42969 27.9375 3.57344 27.9375C4.58594 27.9375 5.43906 27.9188 5.46719 27.8906C5.50469 27.8625 5.42031 27.6844 5.01719 27.1219L4.03281 27.075C3.30156 27.0375 2.95469 26.9813 2.67344 26.8313C2.46719 26.7281 1.89531 26.2875 1.40781 25.8562C0.807813 25.3219 0.442187 24.9094 0.0484375 24.1406L0.0765625 21.6562C0.0953125 19.8938 0.142188 19.0875 0.226562 18.8906C0.292188 18.7312 0.470312 18.4875 0.620312 18.3375C0.770312 18.1875 1.03281 18.0094 1.19219 17.9437C1.41719 17.85 1.98906 17.8125 4.97031 17.8125L6.14219 16.8469C6.78906 16.3219 7.55781 15.7406 7.85781 15.5625C8.14844 15.3844 8.74844 15.1031 9.98594 14.6719L13.3609 14.6437C16.1453 14.6156 16.8578 14.6437 17.4391 14.7562C17.8234 14.8406 18.4609 15.0563 18.8453 15.2438C19.2297 15.4219 19.7547 15.7313 20.0172 15.9188C20.2703 16.0969 20.9266 16.6219 21.4703 17.0625C22.2016 17.6625 22.5484 17.8969 22.8297 17.9437C23.0359 17.9812 24.0672 18.225 25.1266 18.4781C26.1859 18.7406 27.4516 19.0781 27.9391 19.2375C28.4266 19.3969 29.0172 19.6219 29.2516 19.7344C29.4859 19.8469 29.8609 20.1563 30.0859 20.4C30.3203 20.6531 30.5922 21.0469 30.6953 21.2812C30.8547 21.6375 30.8922 21.9656 30.9859 25.2656L31.1828 24.9375C31.2953 24.7594 31.6141 24.3938 31.8859 24.1406C32.1672 23.8781 32.5984 23.5875 33.2922 23.2969L33.2734 14.2031L33.5453 13.6875C33.7328 13.3219 33.9297 13.0969 34.2297 12.9094C34.4828 12.75 34.8484 12.6281 35.7203 12.5156V11.7188C35.7203 11.2781 35.7578 10.7719 35.8141 10.5938C35.8609 10.4156 36.0391 10.0969 36.2078 9.9C36.3766 9.70312 36.7047 9.44063 36.9391 9.31875C37.2016 9.1875 37.5297 9.10313 37.8016 9.09375H37.8109ZM37.0609 11.775L37.0422 12.5625H38.5422C38.5422 11.0062 38.5234 10.9031 38.3359 10.7156C38.2047 10.5938 37.9984 10.5 37.8297 10.5C37.6422 10.5 37.4641 10.5844 37.3141 10.7437C37.1172 10.95 37.0891 11.0812 37.0609 11.775ZM34.6703 14.2594L34.6984 27.9375H46.6047V27.1875C44.6453 27.1406 44.5422 27.1219 44.1109 26.85C43.8297 26.6719 43.5484 26.4 43.3703 26.1094C43.1734 25.7812 43.0797 25.5 43.0516 25.1344C43.0328 24.8438 43.0609 24.4594 43.1172 24.2812C43.1828 24.1031 43.3797 23.7656 43.5766 23.5406C43.7734 23.3063 44.1016 23.0438 44.3078 22.95C44.5891 22.8281 44.9266 22.7812 45.6391 22.7812H46.6047V21.75C39.7703 21.75 37.8859 21.7125 37.6703 21.6562C37.4828 21.6 37.1453 21.4031 36.9297 21.2062C36.7234 21.0187 36.4891 20.7188 36.4141 20.55C36.3203 20.3156 36.2922 19.5281 36.2922 17.1094V13.9688C35.3359 13.9688 35.0359 14.0156 34.8953 14.1094L34.6703 14.2594ZM9.05781 16.4906C8.74844 16.6406 8.23281 16.95 7.90469 17.1937C7.58594 17.4281 7.32344 17.6719 7.32344 17.7188C7.32344 17.7844 8.28906 17.8125 10.0422 17.8125H12.7609V15.9375C11.2703 15.9563 10.5672 16.0125 10.2297 16.0875C9.89219 16.1625 9.36719 16.3406 9.05781 16.4906ZM14.1203 17.7656C17.4859 17.8125 17.7672 17.7938 17.9828 17.6531C18.1422 17.5594 18.5266 17.475 18.9953 17.4469L19.7359 17.3906C19.0891 16.9125 18.6484 16.65 18.3391 16.5C18.0297 16.35 17.4484 16.1625 17.0453 16.0875C16.6422 16.0031 15.8266 15.9375 15.1891 15.9375H14.0641L14.1203 17.7656ZM18.9016 19.9219C20.5422 19.9688 20.5422 19.9688 20.5422 19.7344C20.5422 19.6125 20.4297 19.3687 20.2891 19.2094C20.0641 18.9562 19.9516 18.9094 19.4453 18.8719L18.8734 18.825L18.9016 19.9219ZM1.41719 19.9688V20.4375L3.48906 20.4844C3.92969 20.9719 4.04219 21.1969 4.04219 21.3469C4.03281 21.4875 3.94844 21.9 3.83594 22.2656C3.73281 22.6219 3.56406 23.0812 3.47031 23.2687C3.36719 23.4656 3.13281 23.7281 2.93594 23.8594C2.74844 23.9906 2.40156 24.1312 2.18594 24.1687C1.97031 24.2062 1.78281 24.2531 1.78281 24.2812C1.78281 24.3094 2.11094 24.6187 2.50469 24.9844L3.22656 25.6406L4.74531 25.7063C5.06406 24.6188 5.18594 24.4219 5.61719 23.9906C6.01094 23.6062 6.28281 23.4187 6.66719 23.2969C7.03281 23.175 7.35156 23.1375 7.79219 23.175C8.14844 23.2031 8.56094 23.3063 8.79531 23.4188C9.02031 23.5312 9.34844 23.7844 9.53594 23.9719C9.73281 24.1687 9.98594 24.5344 10.0984 24.7969C10.2203 25.05 10.3234 25.3594 10.3234 25.4719V25.6875H19.5578C19.7359 24.9563 19.9141 24.5625 20.0734 24.3281C20.2234 24.0938 20.5516 23.775 20.7953 23.625C21.0391 23.4656 21.3859 23.2969 21.5734 23.25C21.7516 23.1938 22.1078 23.1562 22.3703 23.1562C22.6234 23.1562 23.0266 23.2125 23.2609 23.2875C23.4859 23.3719 23.8891 23.6156 24.1422 23.8312C24.3859 24.0562 24.6672 24.3844 24.7609 24.5625C24.8547 24.7406 24.9766 25.0688 25.0328 25.2844L25.1359 25.6875H29.5422V24.1875C28.4453 24.1406 28.2672 24.0938 27.9391 23.8594C27.7141 23.7 27.2828 23.2219 26.9734 22.7812C26.5797 22.2188 26.3922 21.8625 26.3547 21.5906C26.3078 21.2344 26.3359 21.1781 26.7016 20.7938C26.9266 20.5688 27.0953 20.3813 27.0766 20.3719C27.0672 20.3625 26.1016 20.1281 24.9484 19.8375C23.7859 19.5469 22.6141 19.275 22.3422 19.2375L21.8547 19.1719C21.9484 20.2594 21.9203 20.4563 21.7891 20.7188C21.6953 20.8969 21.5078 21.0938 21.3859 21.1594C21.2266 21.2344 20.6641 21.2812 19.6703 21.2812H18.1984C17.5516 20.6344 17.5422 20.6062 17.5422 19.875V19.125C1.91406 19.125 1.78281 19.125 1.60469 19.3125C1.46406 19.4531 1.41719 19.6219 1.41719 19.9688ZM1.41719 22.3125C1.41719 22.6687 1.45469 22.7906 1.57656 22.8375C1.67031 22.875 1.84844 22.8656 1.97969 22.8187C2.10156 22.7719 2.26094 22.6219 2.31719 22.5C2.37344 22.3687 2.44844 22.1719 2.48594 22.05C2.53281 21.8531 2.51406 21.8438 1.97969 21.8438H1.41719V22.3125ZM28.3891 22.3875C28.6703 22.7063 28.8297 22.8094 29.1484 22.8563L29.5516 22.9219L29.4953 21.8906C28.3703 21.8438 28.0422 21.8719 28.0422 21.9094C28.0328 21.9469 28.1922 22.1625 28.3891 22.3875ZM44.4391 24.675C44.3734 24.8906 44.3734 25.0594 44.4391 25.2375C44.4953 25.3781 44.6359 25.5656 44.7484 25.6406C44.8984 25.7437 45.2078 25.7812 45.7797 25.7812H46.6047V24.0938C45.3391 24.1031 44.9641 24.15 44.7953 24.2344C44.6453 24.3188 44.4953 24.5063 44.4391 24.675ZM6.49844 24.975C6.38594 25.1062 6.24531 25.3781 6.19844 25.5656C6.13281 25.8 6.13281 26.0344 6.19844 26.25C6.25469 26.4281 6.35781 26.6719 6.43281 26.7844C6.50781 26.9063 6.77031 27.0844 7.01406 27.1969C7.34219 27.3375 7.54844 27.375 7.79219 27.3281C7.97031 27.2906 8.26094 27.15 8.43906 27.0188C8.61719 26.8781 8.82344 26.6156 8.89844 26.4375C8.96406 26.2594 9.01094 25.9594 8.99219 25.7812C8.96406 25.6031 8.84219 25.3031 8.72031 25.125C8.59844 24.9563 8.32656 24.7312 8.12031 24.6375C7.91406 24.5437 7.67969 24.4688 7.60469 24.4781C7.52031 24.4781 7.29531 24.5344 7.08906 24.6094C6.88281 24.6844 6.62031 24.8437 6.49844 24.975ZM21.3953 24.8625C21.2734 24.9844 21.1141 25.2094 21.0391 25.3781C20.9734 25.5469 20.9172 25.8094 20.9172 25.9688C20.9172 26.1187 20.9734 26.3625 21.0391 26.5031C21.1141 26.6438 21.2922 26.8688 21.4422 27.0094C21.5922 27.1406 21.8922 27.2719 22.1359 27.3187C22.4828 27.375 22.6234 27.3469 22.9609 27.1687C23.1953 27.0469 23.4578 26.8125 23.5703 26.625C23.7109 26.3719 23.7484 26.1844 23.7109 25.8281C23.6922 25.5656 23.5891 25.2469 23.4859 25.1062C23.3828 24.975 23.1953 24.7969 23.0734 24.7219C22.9422 24.6375 22.6891 24.5531 22.5109 24.525C22.3234 24.4969 22.0516 24.5156 21.9016 24.5719C21.7422 24.6188 21.5172 24.75 21.3953 24.8625ZM32.1016 26.25C31.9328 26.6344 31.7172 27.1688 31.6047 27.4406L31.4172 27.9375H33.2922C33.2922 25.425 33.2547 24.8438 33.1984 24.8438C33.1422 24.8438 32.9453 25.0031 32.7484 25.1906C32.5328 25.4063 32.2797 25.8281 32.1016 26.25ZM27.1984 27.0844H24.9016C24.4984 27.675 24.4141 27.8625 24.4516 27.8906C24.4891 27.9188 25.7359 27.9375 27.2172 27.9375C28.6984 27.9375 29.9359 27.9 29.9547 27.8625C29.9734 27.825 30.0766 27.5719 30.1891 27.3C30.3203 26.9531 30.3484 26.8125 30.2641 26.8219C30.1984 26.8313 30.0016 26.8875 29.8234 26.9625C29.5797 27.0469 28.8672 27.0844 27.1984 27.0844ZM9.87344 27.4688C9.76094 27.675 9.66719 27.8625 9.66719 27.8906C9.66719 27.9188 12.0484 27.9375 14.9641 27.9375C17.8703 27.9375 20.2609 27.9188 20.2609 27.8906C20.2609 27.8625 20.1391 27.675 19.9984 27.4594L19.7453 27.0844L10.0797 27.0938L9.87344 27.4688ZM5.15781 34.05C4.99844 34.2656 4.82969 34.6219 4.77344 34.8281C4.72656 35.0344 4.70781 35.3813 4.73594 35.5969C4.76406 35.8219 4.86719 36.1594 4.96094 36.3469C5.06406 36.5438 5.28906 36.825 5.46719 36.9844C5.65469 37.1344 5.96406 37.3125 6.16094 37.3781C6.36719 37.4438 6.71406 37.5 6.94844 37.5C7.22969 37.5 7.53906 37.4156 7.88594 37.2375C8.28906 37.0313 8.46719 36.8625 8.71094 36.4594C8.96406 36.0281 9.01094 35.8594 9.01094 35.3625C9.01094 34.95 8.95469 34.6594 8.80469 34.3781C8.69219 34.1625 8.49531 33.8813 8.36406 33.7594C8.22344 33.6375 7.95156 33.4594 7.74531 33.3656C7.53906 33.2719 7.15469 33.1875 6.90156 33.1875C6.60156 33.1875 6.24531 33.2719 5.93594 33.4125C5.57969 33.5719 5.34531 33.7594 5.15781 34.05ZM36.4609 34.0594C36.3203 34.275 36.1516 34.6594 36.1047 34.9219C36.0297 35.2687 36.0391 35.5125 36.1328 35.8594C36.1984 36.1125 36.3766 36.4875 36.5266 36.6844C36.6859 36.8812 37.0141 37.1438 37.2766 37.275C37.5766 37.425 37.9047 37.5 38.2141 37.5C38.5422 37.5 38.8422 37.425 39.1984 37.2469C39.5453 37.0687 39.8078 36.8531 40.0047 36.5625C40.1641 36.3281 40.3234 35.9531 40.3609 35.7188C40.3984 35.4844 40.3984 35.1281 40.3609 34.9219C40.3234 34.7156 40.1641 34.3594 40.0047 34.125C39.8078 33.8344 39.5453 33.6188 39.1984 33.4406C38.8422 33.2625 38.5422 33.1875 38.2141 33.1875C37.9047 33.1875 37.5766 33.2625 37.2391 33.4219C36.8922 33.5906 36.6484 33.7969 36.4609 34.0594ZM21.6109 30.8438C23.1391 30.8438 23.2234 30.8531 23.4297 31.0594C23.5422 31.1719 23.6359 31.3687 23.6453 31.5C23.6453 31.6313 23.5609 31.8375 23.4578 31.9688C23.2797 32.2031 23.2703 32.2031 21.6297 32.2031C20.0453 32.2031 19.9797 32.1938 19.7734 31.9875C19.6422 31.8563 19.5578 31.6594 19.5578 31.4812C19.5578 31.2844 19.6328 31.1344 19.7828 31.0125C19.9797 30.8625 20.1859 30.8438 21.6109 30.8438ZM27.5641 30.8438C28.9797 30.8344 29.1391 30.8531 29.3734 31.0312C29.5422 31.1531 29.6359 31.3031 29.6359 31.4719C29.6453 31.6125 29.5609 31.8375 29.4578 31.9688C29.2797 32.2031 29.2797 32.2031 25.9609 32.2031L25.7266 31.9219C25.5578 31.7156 25.5109 31.575 25.5484 31.4062C25.5859 31.275 25.6984 31.0969 25.8109 31.0031C25.9797 30.8625 26.2141 30.8438 27.5641 30.8438ZM14.1391 20.625C15.0859 20.625 15.1047 20.625 15.2922 20.8781C15.3953 21.0187 15.4891 21.2063 15.4891 21.2812C15.4891 21.3562 15.3953 21.5344 15.2922 21.675C15.1047 21.9281 15.0859 21.9375 14.1203 21.9375C13.2578 21.9375 13.1078 21.9094 12.9484 21.75C12.8453 21.6469 12.7516 21.45 12.7422 21.3094C12.7328 21.15 12.8078 20.9813 12.9484 20.8406C13.1453 20.6438 13.2484 20.625 14.1391 20.625ZM37.8297 24.2812C38.8609 24.2812 38.9266 24.2906 39.1516 24.5156C39.2828 24.6469 39.3859 24.8156 39.3859 24.8906C39.3859 24.9656 39.3297 25.1344 39.2641 25.2656C39.2078 25.3969 39.0203 25.5469 38.8703 25.5938C38.7109 25.65 38.2516 25.6875 37.8391 25.6875C37.4266 25.6875 36.9484 25.65 36.7797 25.5938C36.6203 25.5375 36.4328 25.4156 36.3859 25.3125C36.3297 25.2094 36.2922 25.0406 36.2922 24.9281C36.3016 24.825 36.4047 24.6375 36.5266 24.5062C36.7422 24.2906 36.8078 24.2812 37.8297 24.2812Z" fill="#2551E8"/>
</g>
<defs>
<clipPath id="clip0_274_12514">
<rect width="48" height="48" fill="white"/>
</clipPath>
</defs>
</svg>
