<svg width="48" height="48" viewBox="0 0 48 48" fill="none" xmlns="http://www.w3.org/2000/svg">
<path fill-rule="evenodd" clip-rule="evenodd" d="M41.3234 9.00935C41.6328 8.99998 41.8766 9.09373 42.4391 9.43123C42.8422 9.6656 43.3109 9.99373 43.4891 10.1531C43.6578 10.3219 43.8641 10.5937 43.9297 10.7625C44.0047 10.9219 44.0609 11.2219 44.0609 11.4187C44.0609 11.6062 44.0141 11.9156 43.9484 12.0937C43.8547 12.4031 43.8734 12.4687 44.2766 13.1719C44.5109 13.5844 44.8203 14.175 44.9609 14.4844C45.1109 14.8125 45.2328 15.2812 45.2609 15.6094C45.2984 16.0406 45.2609 16.275 45.1203 16.5937C45.0172 16.8281 44.7359 17.2406 44.5016 17.5125C44.2578 17.775 44.0609 18.0281 44.0609 18.075C44.0609 18.1125 44.2859 18.4125 44.5578 18.75C44.8297 19.0875 45.4672 19.7156 45.9734 20.1562C46.4797 20.5969 47.0328 21.1406 47.2016 21.375C47.3703 21.6094 47.6047 21.9844 47.7266 22.2187C47.9047 22.5562 47.9516 22.7906 47.9516 23.3906C47.9516 24.0562 47.9234 24.1969 47.6609 24.6562C47.4547 25.0219 47.2578 25.2281 47.0047 25.35C46.7609 25.4719 46.4609 25.5281 46.1234 25.5187C45.8422 25.5094 45.3734 25.4344 45.0922 25.35C44.8109 25.2656 44.2578 25.0406 43.8734 24.8437C43.4891 24.6469 42.9547 24.3375 42.7016 24.15C42.4109 23.9437 42.1297 23.8125 41.9516 23.8125C41.7266 23.8125 41.5484 23.9437 41.0984 24.4031C40.7891 24.7219 40.4141 25.2187 40.2641 25.5C40.1234 25.7812 39.9828 26.2312 39.9453 26.4937C39.9078 26.8594 39.9266 27.0187 40.0297 27.1312C40.1609 27.2719 40.1984 27.2531 40.5453 26.9719C40.7516 26.7937 41.0703 26.5781 41.2484 26.4844C41.4266 26.3906 41.8297 26.2969 42.1391 26.2687C42.5047 26.2406 42.8891 26.2781 43.2359 26.3812C43.6109 26.4844 43.9109 26.6531 44.2203 26.9344C44.4547 27.15 44.7547 27.5437 44.8672 27.7969C45.0453 28.1625 45.0922 28.425 45.0922 28.9969C45.0922 29.5312 45.0266 29.9062 44.5953 31.1719L44.9328 31.9219C45.1109 32.3344 45.3078 32.8406 45.3641 33.0469C45.4203 33.2531 45.4672 33.5906 45.4672 33.7969C45.4672 34.0031 45.3922 34.4437 45.2891 34.7812C45.1859 35.1187 44.9422 35.6437 44.7359 35.9531C44.5391 36.2625 44.1453 36.7219 43.8641 36.9656C43.5078 37.2844 43.2078 37.4625 42.8422 37.5656C42.5234 37.65 42.1953 37.6781 41.9984 37.6406C41.8203 37.6125 41.5016 37.4812 41.2953 37.3594C41.0703 37.2375 40.8266 36.975 40.6953 36.7406C40.5359 36.4594 40.4703 36.1969 40.4797 35.9062C40.4797 35.6719 40.4891 35.25 40.4984 34.9687C40.4984 34.6875 40.4703 34.4156 40.4328 34.3781C40.3859 34.3312 40.1234 34.4156 39.8422 34.5562C39.4109 34.7625 39.2328 34.8 38.7641 34.7625C38.4547 34.7437 38.0328 34.6406 37.8266 34.5469C37.6203 34.4437 37.2922 34.1906 37.0953 33.9844C36.8984 33.7781 36.7203 33.5156 36.6922 33.4031C36.6734 33.2812 36.6172 33.1875 36.5609 33.1875C36.5047 33.1875 36.4203 33.3281 36.3734 33.4969C36.3172 33.6562 36.2797 34.2187 36.2797 34.7344C36.2797 35.475 36.2422 35.7281 36.1109 35.9531C36.0172 36.1031 35.7734 36.3187 35.5672 36.4125C35.3703 36.5062 34.9391 36.6187 34.6109 36.6469C34.2078 36.6844 34.0109 36.75 33.9828 36.8437C33.9641 36.9187 33.8234 37.0969 33.6828 37.2469C33.5422 37.3875 33.2703 37.5375 33.0922 37.5844C32.9141 37.6312 32.5766 37.6312 32.3422 37.5844C32.0609 37.5375 31.6016 37.5656 30.9828 37.6594C30.4672 37.7437 29.8953 37.7812 29.7172 37.7531C29.5391 37.725 29.2766 37.6125 29.1266 37.5C28.9766 37.3875 28.7891 37.0969 28.6578 36.7406C28.5453 36.4219 28.3953 36.1125 28.3297 36.0562C28.2453 35.9906 28.1516 35.9812 28.0578 36.0469C27.9734 36.1031 27.8328 36.4312 27.7297 36.7969C27.6172 37.2187 27.4484 37.5844 27.2516 37.8187C27.0922 38.0156 26.7922 38.2594 26.5953 38.3531C26.3891 38.4656 26.0516 38.5312 25.7516 38.5312C25.4703 38.5312 25.1047 38.4469 24.8609 38.3437C24.4953 38.175 24.4484 38.1656 24.2047 38.2969C24.0641 38.3812 23.7641 38.5687 23.5297 38.7187C23.2016 38.925 22.9953 38.9906 22.5922 38.9906C22.2641 39 21.8422 38.9156 21.4203 38.7656C21.0547 38.6344 20.4922 38.3437 20.1547 38.1187C19.8172 37.8937 19.4891 37.5937 19.4234 37.4625C19.3672 37.3312 19.3109 37.0875 19.3109 36.9375C19.3109 36.75 19.4047 36.5625 19.5828 36.375C19.7797 36.1781 19.9484 36.0937 20.1734 36.0937C20.3797 36.0937 20.6797 36.225 21.0922 36.4969C21.4297 36.7125 21.8891 36.9469 22.1234 37.0219C22.5359 37.1344 22.5547 37.1344 23.0609 36.7969C23.3422 36.6094 23.7266 36.4219 23.9047 36.375C24.0828 36.3187 24.3359 36.2812 24.4672 36.2812C24.5984 36.2906 24.9359 36.3656 25.2172 36.4687C25.4984 36.5719 25.7609 36.6469 25.7984 36.6562C25.8453 36.6562 25.9016 36.4969 25.9297 36.3094C25.9578 36.1125 26.0328 35.8031 26.0891 35.625C26.1453 35.4469 26.3422 35.1375 26.5203 34.9312C26.7078 34.7344 27.0266 34.4812 27.2328 34.3781C27.4953 34.2375 27.7859 34.1812 28.1703 34.1812C28.5547 34.1812 28.8547 34.2375 29.1078 34.3781C29.3141 34.4812 29.6234 34.7344 29.8016 34.9312C29.9797 35.1375 30.1766 35.4281 30.3641 35.8594L31.0484 35.7375C31.4234 35.6719 31.8828 35.6344 32.0609 35.6531C32.3328 35.6812 32.4547 35.6344 32.7828 35.3344C33.0078 35.1281 33.3453 34.9312 33.5328 34.875C33.7297 34.8281 34.0016 34.7812 34.1422 34.7812C34.4047 34.7812 34.4047 34.7719 34.4047 34.2C34.4047 33.8719 34.4703 33.375 34.5453 33.0937C34.6203 32.8125 34.7891 32.4 34.9203 32.1844C35.0703 31.9312 35.3234 31.6875 35.5953 31.5281C35.9516 31.3219 36.1672 31.2656 36.6078 31.2656C37.0297 31.2656 37.2641 31.3219 37.5453 31.4906C37.7516 31.6125 37.9859 31.8 38.0609 31.9031C38.1359 32.0062 38.2859 32.2687 38.3891 32.475C38.5016 32.7 38.6516 32.8687 38.7641 32.8875C38.8672 32.9062 39.1391 32.8219 39.3734 32.7094C39.6078 32.5969 40.0578 32.4562 40.3766 32.4C40.8828 32.3062 41.0047 32.3156 41.3984 32.4844C41.6703 32.5969 41.9141 32.7844 42.0172 32.9531C42.1109 33.1031 42.2516 33.6562 42.3266 34.1719C42.4109 34.6875 42.4484 35.25 42.4203 35.4187C42.3922 35.5875 42.4109 35.7187 42.4672 35.7187C42.5234 35.7187 42.6922 35.5594 42.8609 35.3719C43.0203 35.175 43.2547 34.8094 43.3766 34.5469C43.4891 34.2937 43.5922 33.9469 43.5922 33.7969C43.5922 33.6469 43.4141 33.1312 43.2078 32.6719C42.9641 32.1469 42.8047 31.6312 42.7766 31.3125C42.7484 30.9187 42.7953 30.6375 42.9734 30.0937C43.1141 29.7094 43.2172 29.1937 43.2172 28.95C43.2172 28.5656 43.1797 28.4719 42.9547 28.3125C42.8047 28.2 42.5703 28.125 42.3734 28.125C42.1484 28.1344 41.9516 28.2187 41.7359 28.4062C41.5766 28.5656 41.2672 28.7719 41.0609 28.875C40.8547 28.9781 40.5266 29.0906 40.3297 29.1187C40.1422 29.1562 39.8141 29.1281 39.6078 29.0625C39.4016 28.9969 39.0922 28.8469 38.9234 28.725C38.7641 28.6031 38.5109 28.275 38.3703 28.0125C38.2016 27.6656 38.1078 27.3187 38.0797 26.8594C38.0422 26.3625 38.0797 26.0437 38.2297 25.5469C38.3422 25.1812 38.5859 24.6187 38.7828 24.2906C38.9797 23.9625 39.4109 23.4094 39.7484 23.0719C40.0859 22.7344 40.5641 22.35 40.8266 22.2187C41.1078 22.0781 41.5203 21.975 41.8578 21.9562C42.1859 21.9281 42.5797 21.9656 42.7953 22.0406C43.0016 22.1062 43.3766 22.3219 43.6391 22.5281C43.8922 22.725 44.3984 23.0344 44.7641 23.2031C45.1297 23.3812 45.5797 23.5594 45.7766 23.5969C46.0953 23.6625 46.1234 23.6531 46.1234 23.4656C46.1234 23.3437 46.0766 23.1469 46.0297 23.0156C45.9734 22.8844 45.7766 22.6031 45.5797 22.3875C45.3922 22.1812 44.9422 21.75 44.5766 21.45C44.2109 21.1406 43.6766 20.6062 43.3766 20.2687C43.0672 19.9219 42.7016 19.4344 42.5516 19.1719C42.4109 18.9187 42.2609 18.5531 42.2234 18.375C42.1953 18.1781 42.2328 17.8312 42.3172 17.5312C42.4109 17.175 42.6078 16.8375 42.9359 16.4531C43.3672 15.9469 43.4141 15.8531 43.3672 15.5625C43.3391 15.3844 43.0578 14.8125 42.7578 14.2969C42.4578 13.7812 42.1297 13.125 42.0453 12.8437C41.9141 12.4406 41.9047 12.2531 41.9703 12C42.0266 11.8219 42.0828 11.6156 42.1016 11.55C42.1203 11.4844 41.9797 11.3437 41.4266 11.0156L41.0797 11.4281C40.8922 11.6625 40.4703 12.0656 40.1422 12.3469C39.6641 12.7594 39.4953 12.8437 39.2047 12.8437C39.0172 12.8437 38.7641 12.7687 38.6609 12.675C38.5484 12.5906 38.4078 12.4125 38.3422 12.2812C38.2766 12.15 38.2484 11.9156 38.2859 11.7469C38.3234 11.5312 38.5016 11.2969 38.8766 10.9594C39.1766 10.6969 39.6172 10.2375 39.8609 9.94685C40.1047 9.65623 40.4422 9.32811 40.6109 9.21561C40.7984 9.09373 41.0703 9.00935 41.3141 9.00935H41.3234ZM8.91406 11.625C9.52344 11.625 10.0391 11.6812 10.5547 11.8125C10.9672 11.925 11.5766 12.15 11.9141 12.3281C12.2516 12.5062 12.7672 12.8437 13.0578 13.0781C13.3578 13.3125 13.7891 13.7437 14.0234 14.0437C14.2578 14.3344 14.5953 14.85 14.7734 15.1875C14.9516 15.525 15.1766 16.1344 15.2891 16.5469C15.4141 17.0469 15.4766 17.5937 15.4766 18.1875C15.4766 18.7687 15.4109 19.3406 15.2891 19.8281C15.1859 20.2406 15.1016 20.6062 15.1016 20.6531C15.1016 20.6906 15.2422 20.7187 15.4016 20.7187C15.5703 20.7187 15.8141 20.7937 15.9453 20.8781C16.0766 20.9625 16.2172 21.0937 16.2734 21.1594C16.3391 21.2531 16.4609 21.2625 16.6859 21.2156C16.8984 21.1656 17.1172 21.0031 17.3422 20.7281C17.5297 20.5031 17.7922 20.2594 17.9328 20.1937C18.0828 20.1187 18.3453 20.0625 18.5234 20.0625C18.7016 20.0625 19.1609 20.1937 19.5266 20.3531C20.0328 20.5687 20.3609 20.6531 20.7734 20.6531C21.1766 20.6625 21.4484 20.6062 21.7109 20.4656C21.9172 20.3625 22.4609 19.9312 22.9297 19.5094C23.3891 19.0969 24.0266 18.6094 24.3359 18.45C24.8516 18.1687 24.9641 18.1406 25.6953 18.15C26.3422 18.15 26.5859 18.1969 27.0078 18.3937C27.2891 18.525 27.6172 18.7312 27.9453 19.0781L28.6016 18.8719C28.9672 18.75 29.4359 18.6469 29.6516 18.6375C29.8953 18.6281 30.1578 18.6844 30.3078 18.7781C30.4578 18.8625 30.7391 18.9375 30.9453 18.9375C31.3109 18.9375 31.3297 18.9187 31.5359 18.45C31.6578 18.1781 31.8641 17.8312 31.9953 17.6719C32.1172 17.5125 32.4078 17.2969 32.6422 17.1844C32.8672 17.0625 33.1672 16.9687 33.3078 16.9687C33.4672 16.9687 33.6922 17.0812 33.8703 17.2406C34.1234 17.4656 34.1797 17.5875 34.1797 17.8875C34.1797 18.1594 34.1141 18.3375 33.9453 18.5156C33.8141 18.6469 33.6453 18.7781 33.5703 18.7969C33.4953 18.8156 33.3359 19.0594 33.2234 19.3312C33.1109 19.6031 32.8672 19.9875 32.6797 20.1844C32.4547 20.4187 32.1922 20.5781 31.8547 20.6719C31.5922 20.7469 31.1797 20.8125 30.9453 20.8125C30.7109 20.8125 30.2891 20.7562 30.0078 20.6812C29.5109 20.55 29.4641 20.5594 28.7609 20.8219C28.3672 20.9719 27.8609 21.0937 27.6359 21.0937C27.3828 21.1031 27.1484 21.0375 26.9797 20.9062C26.8391 20.8031 26.6609 20.5969 26.5859 20.4375C26.4922 20.25 26.3328 20.1187 26.0891 20.0531C25.9016 19.9969 25.6109 19.9687 25.4609 19.9969C25.2922 20.0344 24.7859 20.4 24.1484 20.9531C23.5766 21.45 22.8641 21.975 22.5547 22.125C22.2453 22.2844 21.7297 22.4531 21.4016 22.5C21.0172 22.5656 20.6141 22.5656 20.2109 22.5C19.8734 22.4437 19.4047 22.3219 18.7109 22.0406L18.3359 22.4062C18.0734 22.6687 17.7547 22.8469 17.2766 23.0156C16.9109 23.1469 16.4516 23.25 16.2734 23.25C16.0484 23.25 15.7859 23.1375 14.9609 22.5844L14.4922 22.725C14.0609 22.8562 13.9859 22.9312 13.5547 23.5969C13.3016 24 12.7859 24.6844 12.4297 25.125C12.0641 25.5656 11.4922 26.1656 11.1547 26.4656C10.8266 26.7656 10.2547 27.15 9.89844 27.3375C9.53281 27.5156 9.13906 27.6562 9.00781 27.6562C8.87656 27.6562 8.58594 27.5906 8.35156 27.5156C8.11719 27.4312 7.67656 27.1781 7.36719 26.9531C7.05781 26.7375 6.53281 26.2594 6.19531 25.9125C5.85781 25.5562 5.40781 25.0594 5.21094 24.8156C5.00469 24.5719 4.80781 24.3656 4.76094 24.375C4.72344 24.375 4.69531 24.6187 4.69531 24.9187C4.69531 25.2094 4.63906 25.6406 4.55469 25.875C4.47969 26.1094 4.25469 26.4844 4.05781 26.7187C3.76719 27.0562 3.71094 27.1875 3.76719 27.375C3.80469 27.5062 3.83281 27.8531 3.84219 28.1531C3.85156 28.4437 3.91719 29.0156 3.99219 29.4187C4.06719 29.8125 4.13281 30.3656 4.13281 30.6375C4.13281 30.9 4.07656 31.2656 4.00156 31.4344C3.93594 31.5937 3.75781 31.8562 3.60781 32.0062C3.45781 32.1562 3.12031 32.3719 2.86719 32.4937C2.60469 32.6156 2.30469 32.7187 2.18281 32.7187C2.03281 32.7187 1.97656 32.775 1.97656 32.9344C1.97656 33.0469 2.02344 33.4031 2.07031 33.7312C2.14531 34.2094 2.20156 34.3219 2.37031 34.3781C2.49219 34.4156 2.72656 34.575 2.90469 34.725C3.07344 34.8844 3.31719 35.2031 3.42969 35.4375C3.55156 35.6719 3.67344 36.0187 3.70156 36.2156C3.74844 36.4781 3.80469 36.5625 3.94531 36.5625C4.09531 36.5625 4.14219 36.4875 4.17969 36.1219C4.20781 35.8687 4.25469 35.5406 4.27344 35.3906C4.29219 35.2406 4.39531 34.9969 4.50781 34.8562C4.61094 34.7062 4.86406 34.5094 5.07031 34.4062C5.27656 34.3031 5.51094 34.2187 5.58594 34.2187C5.69844 34.2187 5.72656 34.0687 5.72656 33.45C5.72656 33.0094 5.78281 32.4844 5.86719 32.25C5.94219 32.0156 6.16719 31.6406 6.35469 31.4156C6.55156 31.1906 6.87969 30.9187 7.08594 30.8156C7.32969 30.6937 7.64844 30.6281 7.97656 30.6281C8.30469 30.6281 8.62344 30.6937 8.86719 30.8156C9.07344 30.9187 9.38281 31.1719 9.55156 31.3687C9.73906 31.5937 9.93594 32.0062 10.0672 32.4375C10.1891 32.8219 10.3766 33.2812 10.4891 33.45C10.6016 33.6094 10.7609 33.75 10.8359 33.75C10.9109 33.75 11.1359 33.4875 11.3234 33.1687C11.5391 32.8312 11.8297 32.4937 12.0453 32.3531C12.2797 32.1937 12.5516 32.1094 12.7859 32.1094C13.0766 32.1094 13.1984 32.1656 13.4234 32.4187C13.5828 32.5969 13.6953 32.8219 13.6953 32.9812C13.6859 33.1219 13.6391 33.3187 13.5734 33.4312C13.5078 33.5344 13.3203 33.7687 13.1516 33.9469C12.9828 34.125 12.7109 34.4531 12.5422 34.6875C12.3734 34.9219 12.0453 35.2312 11.8109 35.3719C11.4922 35.5781 11.2766 35.6437 10.8828 35.6437C10.5359 35.6531 10.2453 35.5875 9.99219 35.4562C9.78594 35.3531 9.46719 35.1 9.27969 34.9031C9.08281 34.7062 8.82969 34.3406 8.69844 34.0781C8.56719 33.825 8.39844 33.3656 8.31406 33.075C8.19219 32.6437 8.12656 32.5312 7.97656 32.5312C7.87344 32.5312 7.74219 32.6156 7.69531 32.7187C7.63906 32.8219 7.60156 33.2531 7.60156 33.6844C7.60156 34.1062 7.55469 34.6125 7.50781 34.8C7.45156 34.9969 7.27344 35.3062 7.10469 35.4937C6.94531 35.6719 6.64531 35.8781 6.44844 35.9344C6.14844 36.0281 6.09219 36.0937 6.04531 36.375C6.01719 36.5531 5.92344 36.8906 5.83906 37.125C5.75469 37.3594 5.57656 37.6687 5.44531 37.8187C5.31406 37.9687 5.05156 38.1656 4.85469 38.2594C4.62969 38.3812 4.31094 38.4375 3.91719 38.4375C3.46719 38.4281 3.23281 38.3719 2.87656 38.175C2.58594 38.0156 2.34219 37.7906 2.21094 37.5469C2.08906 37.3406 1.96719 37.0031 1.92969 36.7969C1.89219 36.5906 1.83594 36.3562 1.78906 36.2812C1.75156 36.2062 1.47969 36.0281 1.18906 35.8781C0.860937 35.7187 0.598437 35.5125 0.476562 35.3156C0.373437 35.1562 0.289062 34.8656 0.289062 34.6875C0.289062 34.5094 0.223438 34.0031 0.148438 33.5625C0.0734375 33.1219 0.0078125 32.6156 0.0078125 32.4375C0.0078125 32.2594 0.0921875 31.9406 0.195312 31.7344C0.298437 31.5094 0.495313 31.2937 0.682813 31.2C0.851562 31.1062 1.22656 30.9937 1.50781 30.9375C1.78906 30.8812 2.08906 30.7969 2.16406 30.75C2.28594 30.675 2.28594 30.5531 2.13594 29.6531C2.05156 29.1 1.97656 28.4719 1.97656 28.2656C1.97656 28.0594 1.89219 27.7219 1.77969 27.5156C1.63906 27.225 1.60156 27.0375 1.64844 26.7187C1.67656 26.4844 1.76094 26.2031 1.83594 26.0812C1.91094 25.9687 2.14531 25.7812 2.36094 25.6594C2.56719 25.5469 2.75469 25.3687 2.77344 25.2656C2.79219 25.1625 2.82969 24.7687 2.85781 24.3937C2.88594 24.0281 2.97031 23.5781 3.03594 23.4094C3.11094 23.25 3.28906 23.0062 3.72969 22.6406L3.42031 22.0031C3.24219 21.6562 2.97969 21.0094 2.82969 20.55C2.67969 20.1 2.50156 19.3781 2.44531 18.9375C2.38906 18.4969 2.37031 17.9531 2.39844 17.7187C2.43594 17.4844 2.50156 17.0625 2.55781 16.7812C2.60469 16.5 2.75469 16.0125 2.88594 15.7031C3.01719 15.3937 3.29844 14.8687 3.52344 14.5312C3.73906 14.1937 4.20781 13.6594 4.56406 13.3312C4.92031 13.0031 5.52969 12.5719 5.91406 12.375C6.29844 12.1687 6.93594 11.925 7.32031 11.8219C7.77031 11.7 8.34219 11.6344 8.91406 11.625ZM6.85156 14.0062C6.57031 14.1469 6.14844 14.4187 5.91406 14.6156C5.67969 14.8031 5.31406 15.2344 5.08906 15.5719C4.86406 15.9 4.60156 16.4437 4.49844 16.7812C4.37656 17.1656 4.30156 17.6719 4.30156 18.1406C4.29219 18.5625 4.35781 19.1531 4.45156 19.5C4.53594 19.8375 4.83594 20.5687 5.11719 21.1406C5.38906 21.7125 5.88594 22.5469 6.21406 23.0156C6.53281 23.475 7.16094 24.2156 7.60156 24.6656C8.04219 25.1062 8.53906 25.5375 8.69844 25.6219C9.00781 25.7812 9.01719 25.7812 9.40156 25.4812C9.62656 25.3219 10.0578 24.9281 10.3672 24.6094C10.6766 24.2906 11.1078 23.8031 11.3234 23.5219C11.5391 23.2406 11.9516 22.6312 12.2422 22.1719C12.5234 21.7125 12.8891 21.0281 13.0391 20.6719C13.1891 20.3156 13.3766 19.7625 13.4516 19.4531C13.5359 19.1437 13.6016 18.5719 13.6016 18.1875C13.6016 17.8031 13.5453 17.2687 13.4797 17.0156C13.4047 16.7531 13.2078 16.275 13.0297 15.9469C12.8516 15.6187 12.4953 15.1312 12.2328 14.8687C11.9703 14.6062 11.5109 14.2594 11.2016 14.0906C10.9016 13.9312 10.4141 13.7344 10.1328 13.65C9.84219 13.5656 9.30781 13.5 8.91406 13.5094C8.52969 13.5094 8.02344 13.5656 7.78906 13.6312C7.55469 13.6969 7.13281 13.8656 6.85156 14.0062ZM37.1609 14.9156C37.1984 14.9062 37.3766 14.9719 37.5547 15.0469C37.7734 15.1406 37.9297 15.2969 38.0234 15.5156C38.1172 15.7219 38.1359 15.9375 38.0891 16.0969C38.0516 16.2281 37.9109 16.4437 37.7609 16.5656C37.6016 16.6969 37.3859 16.7812 37.1797 16.7812C36.9359 16.7812 36.7766 16.7062 36.5703 16.5C36.3547 16.2844 36.2891 16.1344 36.2891 15.8719C36.2891 15.675 36.3641 15.4219 36.4578 15.3094C36.5422 15.1969 36.7203 15.0562 36.8516 15.0094C36.9828 14.9625 37.1141 14.9156 37.1516 14.9156H37.1609ZM17.2203 33.2344C17.3703 33.2625 17.6141 33.4031 17.7547 33.5625C17.9047 33.7125 18.0172 33.9469 18.0172 34.0781C18.0172 34.2094 17.9516 34.4437 17.8766 34.5937C17.8016 34.7437 17.6516 34.9125 17.5484 34.9687C17.4453 35.025 17.2297 35.0625 17.0797 35.0625C16.9203 35.0625 16.7141 35.025 16.6109 34.9687C16.5078 34.9125 16.3578 34.7437 16.2828 34.5937C16.2078 34.4437 16.1422 34.2187 16.1422 34.0969C16.1328 33.9844 16.2266 33.7687 16.3297 33.6281C16.4422 33.4781 16.6203 33.3187 16.7328 33.2719C16.8453 33.2344 17.0609 33.2156 17.2203 33.2344ZM9.15781 15.4219C9.46719 15.45 9.92656 15.5719 10.1891 15.6937C10.4422 15.8156 10.8359 16.125 11.0609 16.3781C11.2859 16.6312 11.5297 17.0344 11.6141 17.2969C11.7172 17.625 11.7453 17.9719 11.7172 18.4219C11.6891 18.8156 11.5953 19.2281 11.4828 19.4531C11.3797 19.6594 11.0609 20.0344 10.7891 20.2781C10.5078 20.5219 10.0953 20.7844 9.86094 20.8687C9.62656 20.9437 9.21406 21 8.94219 21C8.67969 21 8.25781 20.925 8.00469 20.8312C7.76094 20.7469 7.37656 20.5219 7.15156 20.3437C6.87969 20.1187 6.65469 19.8187 6.45781 19.4062C6.22344 18.9094 6.16719 18.6844 6.17656 18.1875C6.17656 17.775 6.24219 17.4281 6.38281 17.1094C6.49531 16.8469 6.74844 16.4812 6.93594 16.2844C7.12344 16.0875 7.40469 15.8531 7.56406 15.7687C7.71406 15.6937 8.01406 15.5719 8.22031 15.4969C8.44531 15.4219 8.81094 15.3937 9.15781 15.4219ZM8.11719 17.8594C8.05156 18.0187 8.03281 18.2625 8.07031 18.4125C8.09844 18.5625 8.23906 18.7875 8.37969 18.9094C8.54844 19.05 8.76406 19.125 8.97969 19.125C9.22344 19.125 9.38281 19.05 9.58906 18.8437C9.78594 18.6375 9.86094 18.4687 9.86094 18.2344C9.86094 18.0562 9.81406 17.8219 9.76719 17.7187C9.71094 17.6156 9.54219 17.4656 9.39219 17.3906C9.23281 17.3156 9.03594 17.25 8.94219 17.25C8.85781 17.25 8.65156 17.325 8.50156 17.4187C8.34219 17.5125 8.17344 17.7094 8.11719 17.8594Z" fill="#666666"/>
</svg>
