<svg width="56" height="56" viewBox="0 0 56 56" fill="none" xmlns="http://www.w3.org/2000/svg">
<g clip-path="url(#clip0_166_2499)">
<path fill-rule="evenodd" clip-rule="evenodd" d="M9.1875 0.218701C10.0844 0.218701 10.2594 0.240576 10.4781 0.437451C10.6422 0.590576 10.7188 0.776514 10.7188 1.07183C10.7188 1.30151 10.6312 1.56401 10.5219 1.67339C10.3797 1.82651 10.1609 1.87026 9.48281 1.85933C8.925 1.85933 8.4875 1.92495 8.18125 2.04526C7.94063 2.15464 7.64531 2.36245 7.53594 2.51558C7.4375 2.6687 6.97813 3.94839 5.72031 7.92964L11.2547 7.96245C14.2953 7.97339 19.3047 7.97339 27.9672 7.92964L27.1578 5.35933C26.7094 3.94839 26.25 2.6687 26.1516 2.51558C26.0422 2.36245 25.7469 2.15464 25.5063 2.04526C25.0906 1.8812 24.5547 1.85933 20.0375 1.85933C15.4547 1.85933 15.0281 1.83745 14.8422 1.66245C14.7219 1.55308 14.6562 1.32339 14.6562 1.0937C14.6562 0.853076 14.7547 0.623389 15.1484 0.207764L25.4844 0.218701L26.0531 0.470264C26.3703 0.612451 26.8187 0.896826 27.0594 1.10464C27.2891 1.31245 27.5953 1.69526 27.7266 1.9687C27.8578 2.24214 28.2078 3.22651 28.5031 4.1562C28.7875 5.08589 29.0281 5.86245 29.0281 5.87339C29.0391 5.89526 29.2359 5.80776 29.4766 5.68745C29.8266 5.51245 30.1328 5.4687 31.0297 5.4687C31.6531 5.4687 32.2875 5.52339 32.4516 5.58901C32.6266 5.65464 32.8781 5.80776 33.0203 5.93901C33.1625 6.07026 33.3703 6.37651 33.4797 6.61714C33.5891 6.85776 33.6875 7.26245 33.6875 7.52495C33.6875 7.77651 33.6109 8.17026 33.5125 8.38901C33.425 8.6187 33.2609 8.89214 33.1625 9.01245C33.0641 9.12183 32.8234 9.28589 32.6484 9.38433C32.4734 9.48276 31.9484 9.5812 30.6469 9.67964L31.0844 10.3906C31.325 10.7843 31.7406 11.539 32.0031 12.0859C32.2656 12.6328 32.5938 13.475 32.9766 14.864L47.8516 14.9296L48.3984 15.1812C48.6937 15.3234 49.1094 15.5859 49.3062 15.7828C49.5141 15.9796 49.7875 16.3296 49.9297 16.5703C50.0609 16.8109 50.4109 17.7515 50.6844 18.6484C50.9688 19.5562 51.2203 20.3546 51.2422 20.4312C51.2859 20.5296 51.4172 20.5078 51.7563 20.3437C52.1172 20.1796 52.4672 20.125 53.2328 20.125C53.9109 20.125 54.3922 20.1796 54.6547 20.3C54.8844 20.3875 55.1906 20.5734 55.3328 20.7046C55.475 20.8359 55.6828 21.1421 55.7922 21.3828C55.9016 21.6234 56 21.9953 56 22.2031C56 22.4109 55.9016 22.7828 55.7922 23.0234C55.6828 23.264 55.4531 23.5921 55.2781 23.7562C55.1031 23.9203 54.8297 24.1062 54.6547 24.1609C54.4906 24.2265 54.0422 24.2812 53.6484 24.2812C53.2547 24.2812 52.9375 24.3031 52.9375 24.3359C52.9375 24.3687 53.2109 24.839 53.5391 25.375C53.8672 25.9109 54.2719 26.6437 54.425 26.9828C54.5781 27.3328 54.8297 28.0656 54.9937 28.6015C55.2781 29.5859 55.2781 29.5859 55.3219 34.5078C55.3656 39.3312 55.3656 39.4406 55.1359 39.9546C54.9828 40.3046 54.7641 40.5671 54.4469 40.775C54.0203 41.0593 53.9219 41.0703 52.7297 41.0703C51.6797 41.0703 51.3844 41.0375 51.0344 40.8515C50.7938 40.7312 50.4766 40.4359 50.3234 40.2062C50.05 39.7906 50.0391 39.6921 49.9844 36.4218H39.2109L39.2 36.8812C39.1891 37.1437 39.0797 37.5484 38.9594 37.789C38.8391 38.0296 38.6531 38.314 38.5438 38.4125C38.4234 38.5109 38.15 38.6749 37.9203 38.7625C37.7016 38.8609 37.2203 38.9375 36.8594 38.9375C36.4984 38.9375 36.2031 38.9812 36.2031 39.0468C36.2031 39.1125 36.5203 39.6812 36.9141 40.3375C37.4062 41.1468 37.625 41.6171 37.625 41.8687C37.625 42.0765 37.5375 42.3062 37.4062 42.4375C37.275 42.5687 37.0344 42.6562 36.8375 42.6562C36.6297 42.6671 36.4 42.5796 36.3016 42.4703C36.2031 42.3609 36.0062 42.0546 35.875 41.7812C35.7438 41.5078 35.2953 40.764 34.125 38.9375H10.5L9.84375 39.9546C9.47188 40.5015 8.93594 41.4531 8.65156 42.0546C8.35625 42.6562 8.02812 43.4656 7.92969 43.8593C7.7875 44.3953 7.73281 45.1718 7.65625 49.4375H8.36719L8.43281 48.3218C8.4875 47.4359 8.56406 47.075 8.77187 46.6484C8.925 46.3421 9.24219 45.9375 9.47188 45.7406C9.70156 45.5437 10.1719 45.3031 10.5 45.2046C10.9375 45.0843 11.3094 45.0515 11.8672 45.1062C12.2828 45.15 12.9719 45.3031 13.3984 45.4453C13.8141 45.5984 14.5031 45.9484 14.9187 46.2328C15.3344 46.5281 15.8703 46.9765 16.1 47.25C16.3297 47.5234 16.7125 48.125 17.3906 49.4375L27.1797 49.4484L27.6172 48.5953C27.9125 48.0156 28.2953 47.5015 28.8203 46.9765C29.3563 46.4296 29.8266 46.0796 30.4062 45.7953C30.8547 45.5765 31.5984 45.314 32.0469 45.2156C32.5062 45.1171 33.1297 45.0625 33.4688 45.0953C33.7969 45.1171 34.2672 45.2375 34.5078 45.3468C34.7484 45.4562 35.1203 45.7296 35.3281 45.9375C35.5469 46.1453 35.7984 46.539 35.8969 46.8125C35.9953 47.0859 36.1047 47.7859 36.2031 49.4375H36.9688L37.0234 45.6859L37.3188 45.4562C37.5813 45.2593 37.6797 45.2484 37.975 45.3359C38.1719 45.4015 38.4016 45.5765 38.4672 45.7187C38.5656 45.9265 38.6094 47.0203 38.6094 49.9296C38.6094 52.1937 38.5656 54.0421 38.5 54.2828C38.4344 54.5015 38.2266 54.8625 38.0297 55.0812C37.8438 55.3 37.5266 55.5406 37.3516 55.6281C37.1219 55.7375 36.6516 55.7812 35.8203 55.7812C34.6937 55.7703 34.5953 55.7593 34.1906 55.475C33.95 55.3109 33.6547 55.0375 33.5344 54.8734C33.3266 54.589 33.3047 54.3921 33.25 51.0781H11.375V52.6421C11.375 54.0312 11.3422 54.25 11.1234 54.6875C10.9703 55.0046 10.7188 55.2781 10.3906 55.475C9.93125 55.7703 9.82187 55.7812 8.69531 55.7812C7.54688 55.7812 7.47031 55.7703 6.96719 55.4531C6.59531 55.2125 6.3875 54.9828 6.22344 54.6109C5.99375 54.0968 5.99375 53.9875 6.0375 49.2734C6.08125 44.5265 6.09219 44.45 6.36562 43.4218C6.51875 42.8531 6.81406 42.0109 7.02187 41.5625C7.22969 41.114 7.62344 40.3812 7.90781 39.9546C8.19219 39.5171 8.42188 39.1125 8.42188 39.0468C8.42188 38.9812 8.11563 38.9375 7.71094 38.9375C7.23698 38.9375 6.86146 38.8682 6.58437 38.7296C6.36562 38.6203 6.04844 38.3796 5.87344 38.1828C5.70937 37.9968 5.53438 37.6578 5.46875 37.439C5.41406 37.2093 5.35938 36.9468 5.35938 36.8593C5.35938 36.7718 5.41406 36.5093 5.46875 36.2906C5.53438 36.0609 5.74219 35.7 5.92812 35.4812C6.125 35.2734 6.48594 35.0218 6.72656 34.9343C7.04375 34.814 7.47031 34.7703 8.25781 34.8031C9.03438 34.825 9.45 34.8906 9.70156 35.0328C10.0516 35.2187 10.0625 35.2187 10.1609 34.9781C10.2156 34.8359 10.4672 34.0593 10.7188 33.25C10.9703 32.4406 11.2875 31.5546 11.4297 31.2812C11.5609 31.0078 11.8891 30.6031 12.1516 30.3734C12.4141 30.1546 12.8516 29.8812 13.125 29.7828C13.5516 29.6187 14.2188 29.5859 22.9688 29.5312L23.0344 29.2359C23.0672 29.0609 23.1984 28.6125 23.3188 28.2187C23.45 27.825 23.7672 27.0593 24.0406 26.5234C24.3031 25.9875 24.6969 25.2765 24.8938 24.9703C25.1016 24.6531 25.2328 24.3687 25.1781 24.3359C25.1344 24.3031 24.8062 24.2812 24.4453 24.2812C23.9859 24.2812 23.6469 24.2046 23.2969 24.0296C22.9797 23.8765 22.7063 23.625 22.5094 23.2968C22.2797 22.9359 22.2031 22.6625 22.2031 21.7656H5.90625L5.87344 23.439C5.85156 25.0359 5.84063 25.1453 5.56719 25.55C5.41406 25.7796 5.09688 26.075 4.85625 26.1953C4.50625 26.3703 4.21094 26.414 3.22656 26.414C2.14375 26.414 1.97969 26.3921 1.55313 26.1406C1.29062 25.9875 0.973437 25.6921 0.842187 25.4843C0.601562 25.1015 0.601562 25.0359 0.601562 20.2343C0.601562 15.4546 0.601562 15.3453 0.864062 14.3828C1.00625 13.8359 1.30156 12.9828 1.53125 12.4687C1.75 11.9546 2.1875 11.1234 3.04062 9.67964L2.20938 9.61401C1.73906 9.5812 1.21406 9.48276 1.03906 9.38433C0.853125 9.28589 0.623438 9.12183 0.525 9.01245C0.426563 8.89214 0.2625 8.6187 0.175 8.39995C0.0765625 8.17026 0 7.77651 0 7.52495C0 7.26245 0.0984375 6.85776 0.207813 6.61714C0.317187 6.37651 0.525 6.07026 0.667188 5.93901C0.809375 5.80776 1.06094 5.65464 1.225 5.58901C1.4 5.52339 2.03438 5.4687 2.64688 5.4687C3.55469 5.4687 3.86094 5.51245 4.21094 5.68745C4.45156 5.80776 4.64844 5.89526 4.65937 5.87339C4.65937 5.86245 4.9 5.08589 5.18438 4.1562C5.47969 3.22651 5.82969 2.24214 5.96094 1.9687C6.09219 1.69526 6.39844 1.31245 6.62812 1.10464C6.86875 0.896826 7.29531 0.612451 7.60156 0.481201C8.03906 0.284326 8.35625 0.229639 9.1875 0.218701ZM1.64062 7.76558C1.73906 7.96245 1.85938 7.98433 2.73438 7.98433H3.71875C3.71875 7.36089 3.66406 7.19683 3.55469 7.16401C3.46719 7.1312 3.01875 7.10933 2.57031 7.10933C1.87031 7.10933 1.73906 7.14214 1.64062 7.32808C1.56771 7.47391 1.56771 7.61974 1.64062 7.76558ZM29.9469 7.67808L29.9688 7.98433L31.9922 7.92964V7.16401C30.5375 7.10933 30.1875 7.14214 30.0781 7.24058C29.9906 7.3062 29.9359 7.51401 29.9469 7.67808ZM4.83437 9.9312C4.725 10.0953 4.375 10.6421 4.06875 11.1562C3.7625 11.6703 3.34687 12.4578 3.12812 12.9062C2.92031 13.3546 2.64687 14.0984 2.51562 14.5468C2.30781 15.2468 2.26406 15.6953 2.23125 17.7515L2.1875 20.125H2.89844C3.04063 18.0906 3.10625 17.7734 3.35781 17.2812C3.54375 16.9203 3.85 16.5375 4.12344 16.3296C4.38594 16.1328 4.80156 15.914 5.05312 15.8484C5.32656 15.7718 5.87344 15.75 6.34375 15.7828C6.79219 15.8156 7.48125 15.9578 7.875 16.1C8.26875 16.2421 8.82656 16.4937 9.13281 16.6687C9.42813 16.8437 9.99687 17.314 10.3906 17.7078C10.85 18.1781 11.2547 18.725 11.5391 19.2828L11.9766 20.1359H21.7109C22.4328 18.725 22.8375 18.1781 23.2969 17.7078C23.6906 17.314 24.2484 16.8437 24.5547 16.6687C24.85 16.4937 25.4188 16.2421 25.8125 16.089C26.3703 15.8812 26.7859 15.8156 27.7266 15.7937C28.6016 15.7718 28.9734 15.7171 29.0938 15.5968C29.1812 15.5093 29.4766 15.3343 29.75 15.214C30.0234 15.1046 30.4719 14.9734 30.7563 14.9406C31.2594 14.875 31.2812 14.864 31.2156 14.5796C31.1719 14.4046 31.0187 13.9562 30.8766 13.5625C30.7344 13.1687 30.4391 12.5343 30.2203 12.1406C30.0016 11.7468 29.5531 11.025 29.2359 10.5328L28.6562 9.62495H5.04219L4.83437 9.9312ZM29.8922 17.0406C29.7281 17.2265 29.3344 18.2984 28.8203 19.9171C28.3609 21.3281 28 22.5203 28 22.564C28 22.6078 32.9984 22.6515 39.1016 22.6515C45.2047 22.6515 50.2031 22.6296 50.2031 22.6187C50.2031 22.6078 49.8531 21.4593 49.4156 20.0703C48.9781 18.6921 48.5297 17.4234 48.4203 17.2593C48.3219 17.0953 48.0703 16.8765 47.8734 16.7671C47.5453 16.5921 46.9 16.5703 39.2109 16.5593C34.5953 16.5484 30.7344 16.5812 30.5266 16.6359C30.3188 16.6906 30.0344 16.8656 29.8922 17.0406ZM4.79063 17.9703C4.725 18.1015 4.6375 18.6484 4.60469 19.1734L4.53906 20.1359C8.81563 20.1359 10.0625 20.0921 10.0625 20.0484C10.0625 20.0046 9.90938 19.7203 9.7125 19.425C9.51562 19.1296 9.15469 18.725 8.91406 18.539C8.67344 18.3421 8.225 18.0578 7.92969 17.9046C7.62344 17.7515 7.16406 17.5765 6.89062 17.5109C6.61719 17.4562 6.20156 17.4015 5.96094 17.4015C5.72031 17.4015 5.39219 17.4781 5.21719 17.5656C5.05312 17.6531 4.86719 17.839 4.79063 17.9703ZM25.7578 17.9046C25.4516 18.0578 25.0141 18.3421 24.7734 18.539C24.5328 18.725 24.1719 19.1296 23.975 19.425C23.7781 19.7203 23.625 20.0046 23.625 20.0484C23.625 20.0921 24.3906 20.1359 25.3203 20.1359H27.0156C27.6172 18.2218 27.8141 17.6093 27.8359 17.5328C27.8687 17.4453 27.7812 17.4015 27.5297 17.4125C27.3438 17.4125 26.9828 17.4671 26.7422 17.5218C26.5016 17.5765 26.0531 17.7515 25.7578 17.9046ZM2.1875 23.1984C2.1875 24.5109 2.19844 24.6203 2.40625 24.7296C2.52656 24.7843 2.93125 24.839 3.31406 24.839C3.71875 24.839 4.05781 24.7734 4.13438 24.6968C4.22187 24.5984 4.26562 24.1171 4.26562 23.1656V21.7765H2.1875V23.1984ZM23.8219 22.2031C23.8328 22.3015 23.8984 22.4328 23.975 22.5093C24.0734 22.5968 24.4453 22.6515 25.0688 22.6515C25.9547 22.6515 26.0312 22.6296 26.0312 22.4328C26.0312 22.3125 25.9766 22.1156 25.9219 21.9953C25.8234 21.7984 25.7031 21.7765 24.9594 21.7765C24.4562 21.7765 24.0406 21.8203 23.9531 21.8968C23.8656 21.9734 23.8109 22.1046 23.8219 22.2031ZM52.15 22.3343L52.1719 22.6515C53.9875 22.5968 54.1953 22.5531 54.2938 22.4C54.3812 22.2578 54.3812 22.1593 54.2938 22.0171C54.1953 21.864 53.9875 21.8203 53.3094 21.7984C52.7406 21.7765 52.3906 21.8093 52.2812 21.8968C52.1937 21.9734 52.1391 22.1703 52.15 22.3343ZM26.6547 25.2437C26.3266 25.7687 25.8672 26.5453 25.6375 26.9718C25.4078 27.3875 25.0797 28.1312 24.9156 28.6125L24.6094 29.4875C30.0891 29.5859 31.1172 29.6515 31.3906 29.75C31.5984 29.8375 31.9813 30.0343 32.2328 30.2093C32.4953 30.3843 32.8453 30.7562 33.0312 31.0406C33.2062 31.325 33.5453 32.1781 33.7859 32.9328C34.0156 33.6765 34.2453 34.4093 34.2781 34.5406L34.3438 34.7921L44.0234 34.7812C44.45 33.8187 44.7781 33.2609 45.0406 32.9328C45.3031 32.5937 45.7625 32.1124 46.0797 31.8609C46.3969 31.6093 46.9437 31.2484 47.3047 31.0734C47.6656 30.8875 48.3328 30.6687 48.7812 30.5703C49.2625 30.4609 49.875 30.4171 50.2578 30.439C50.6188 30.4718 51.1109 30.5921 51.3516 30.7125C51.5922 30.8328 51.975 31.139 52.1938 31.3796C52.4453 31.6531 52.675 32.0578 52.7734 32.4078C52.8609 32.7249 52.9375 33.3921 52.9375 33.8843V34.7921H53.7031C53.7031 31.5218 53.6484 30.2859 53.5828 29.925C53.5281 29.5531 53.375 28.9406 53.2437 28.5578C53.1234 28.164 52.9156 27.639 52.7953 27.4093C52.6859 27.1687 52.2047 26.3593 51.7453 25.6265L50.9141 24.2921H27.2563L26.6547 25.2437ZM13.5188 31.4125C13.3438 31.4781 13.1141 31.6531 13.0047 31.8171C12.8953 31.9703 12.4578 33.2062 12.0312 34.5625C11.6047 35.9187 11.2328 37.089 11.2109 37.1656C11.1672 37.264 13.4312 37.2968 22.2797 37.2968L33.4141 37.2859C31.9375 32.5062 31.7516 32.0468 31.4672 31.7406C31.2594 31.5328 30.9312 31.3468 30.6797 31.2812C30.4172 31.2156 26.9609 31.1828 22.2578 31.1828C17.8609 31.1937 14.175 31.2156 14.0547 31.2484C13.9344 31.2703 13.6937 31.3468 13.5188 31.4125ZM47.8734 32.6156C47.6219 32.7359 47.1625 33.0859 46.8672 33.3703C46.5609 33.6546 46.2109 34.0812 46.0688 34.3328L45.8281 34.7812H51.2969C51.2969 33.3484 51.2422 32.9109 51.1328 32.7031C51.0453 32.5281 50.8156 32.2984 50.6406 32.2109C50.4547 32.1234 50.1266 32.0468 49.8969 32.0578C49.6781 32.0578 49.2297 32.1343 48.9125 32.2218C48.6063 32.3093 48.1359 32.4843 47.8734 32.6156ZM7.10938 37.0781C7.20781 37.275 7.32812 37.2968 8.20312 37.2968H9.1875C9.1875 36.8265 9.13281 36.6296 9.05625 36.5531C8.96875 36.4656 8.60781 36.4218 8.07188 36.4218C7.33906 36.4218 7.20781 36.4546 7.10938 36.6406C7.03646 36.7864 7.03646 36.9322 7.10938 37.0781ZM35.3172 37.1C35.3281 37.275 35.4484 37.2968 36.3672 37.2968C37.2531 37.2968 37.4172 37.264 37.5047 37.1109C37.5484 37.0015 37.5703 36.8375 37.5375 36.75C37.5047 36.6625 37.4281 36.5531 37.3625 36.5093C37.2969 36.4656 36.8922 36.4218 36.4547 36.4218C35.7656 36.4218 35.6453 36.4546 35.4922 36.6625C35.3828 36.7937 35.3062 36.9906 35.3172 37.1ZM51.625 37.8218C51.625 38.7953 51.6578 39.2546 51.7563 39.3531C51.8438 39.4296 52.1828 39.4843 52.6313 39.4843C53.0469 39.4843 53.4516 39.4625 53.5391 39.4296C53.6703 39.3859 53.7031 39.1125 53.7031 37.8984V36.4218H51.625V37.8218ZM10.1719 47.5562C10.1172 47.7859 10.0625 48.2999 10.0625 48.7046V49.4484C14.3062 49.4484 15.5312 49.4046 15.5312 49.3609C15.5312 49.3171 15.4328 49.1312 15.3125 48.9562C15.1922 48.7703 14.8859 48.3984 14.6125 48.1359C14.35 47.8625 13.9016 47.5015 13.6062 47.3484C13.3109 47.1843 12.775 46.9765 12.4141 46.8781C12.0531 46.7796 11.5828 46.7031 11.375 46.7031C11.1672 46.714 10.8391 46.8125 10.6422 46.9328C10.4016 47.075 10.2484 47.2718 10.1719 47.5562ZM31.15 47.2718C30.8875 47.3921 30.4828 47.6546 30.2422 47.8515C30.0016 48.0484 29.6406 48.4421 29.4438 48.7375C29.2469 49.0328 29.0938 49.3171 29.0938 49.3609C29.0938 49.4046 30.3297 49.4484 31.8281 49.4484H34.5625C34.4531 47.8296 34.3766 47.4468 34.2453 47.2609C34.1359 47.1078 33.9281 46.9218 33.7859 46.8453C33.6437 46.7687 33.3484 46.714 33.1406 46.714C32.9328 46.725 32.5062 46.7906 32.1891 46.8781C31.8719 46.9656 31.4016 47.1406 31.15 47.2718ZM7.65625 52.4781C7.65625 53.4625 7.7 53.9109 7.7875 54.0093C7.875 54.0968 8.225 54.1515 8.70625 54.1515C9.17656 54.1515 9.52656 54.0968 9.60313 54.0093C9.70156 53.9109 9.73438 53.4296 9.73438 52.4781V51.089H7.65625V52.4781ZM34.8906 52.5546C34.8906 53.7687 34.9234 54.0421 35.0547 54.0859C35.1531 54.1187 35.5687 54.1406 35.9844 54.1406C36.6406 54.1406 36.7719 54.1078 36.8594 53.9218C36.925 53.8015 36.9688 53.1125 36.9688 52.3906V51.0781H34.8906V52.5546Z" fill="#2551E8"/>
</g>
<defs>
<clipPath id="clip0_166_2499">
<rect width="56" height="56" fill="white"/>
</clipPath>
</defs>
</svg>
