<svg width="56" height="56" viewBox="0 0 56 56" fill="none" xmlns="http://www.w3.org/2000/svg">
<g clip-path="url(#clip0_166_2497)">
<path fill-rule="evenodd" clip-rule="evenodd" d="M27.9891 0C28.1531 0 28.3828 0.0984375 28.5141 0.21875C28.6781 0.360937 28.7875 0.6125 28.8313 0.9625C28.8641 1.24688 28.9625 1.69531 29.0391 1.96875C29.1266 2.24219 29.3562 2.67969 29.5641 2.95312C29.7609 3.22656 30.1766 3.59844 30.4719 3.77344C30.7672 3.95938 31.2047 4.16719 31.4453 4.24375C31.6859 4.30937 32.0141 4.375 32.1781 4.375C32.3531 4.375 32.6047 4.44062 32.7578 4.51719C32.9109 4.58281 33.075 4.76875 33.1297 4.92188C33.1953 5.10417 33.1771 5.31562 33.075 5.55625C32.9875 5.74219 32.8344 5.92813 32.725 5.95C32.6266 5.97188 32.2875 6.02656 31.9922 6.07031C31.6859 6.10313 31.1938 6.24531 30.8984 6.3875C30.5922 6.51875 30.1438 6.84687 29.8813 7.10938C29.6188 7.38281 29.3125 7.79844 29.1922 8.03906C29.0828 8.27969 28.9406 8.77188 28.8859 9.13281C28.8422 9.49375 28.7438 9.89844 28.6672 10.0406C28.6016 10.1719 28.4375 10.3141 28.2953 10.3469C28.1641 10.3797 27.9234 10.3797 27.7484 10.3469C27.5844 10.3141 27.3984 10.1719 27.3328 10.0406C27.2562 9.89844 27.1578 9.49375 27.1141 9.13281C27.0594 8.77188 26.9172 8.27969 26.8078 8.03906C26.6875 7.79844 26.3813 7.38281 26.1188 7.10938C25.8563 6.84687 25.3969 6.51875 25.1016 6.3875C24.7953 6.24531 24.3031 6.10313 24.0078 6.07031C23.7016 6.02656 23.3734 5.97188 23.2641 5.95C23.1656 5.92813 23.0125 5.74219 22.925 5.55625C22.8229 5.31562 22.8047 5.10417 22.8703 4.92188C22.925 4.76875 23.0891 4.58281 23.2422 4.51719C23.3953 4.44062 23.6469 4.375 23.8109 4.375C23.9859 4.375 24.3141 4.30937 24.5547 4.24375C24.7953 4.16719 25.2328 3.95938 25.5281 3.77344C25.8234 3.59844 26.2391 3.22656 26.4359 2.95312C26.6437 2.67969 26.8734 2.24219 26.9609 1.96875C27.0375 1.69531 27.1359 1.24687 27.1687 0.951562C27.2125 0.623437 27.3219 0.360937 27.475 0.21875C27.6062 0.0984375 27.8359 0 27.9891 0ZM26.5234 5.19531L28 6.67188L29.4766 5.19531C28.3719 4.04688 28.0328 3.72969 28 3.72969C27.9672 3.74062 27.6281 4.06875 27.2344 4.47344L26.5234 5.19531ZM4.48438 11.4406C4.6375 11.4625 4.83437 11.5719 4.92188 11.6813C5.02031 11.7797 5.11875 12.1078 5.1625 12.4141C5.19531 12.7094 5.32656 13.1578 5.44687 13.3984C5.56719 13.6391 5.80781 13.9672 5.98281 14.1203C6.14688 14.2844 6.46406 14.4922 6.67188 14.6016C6.87969 14.7 7.32812 14.8313 7.65625 14.8859C8.07187 14.9516 8.3125 15.05 8.45469 15.225C8.56406 15.3672 8.65156 15.5969 8.65156 15.75C8.65156 15.9031 8.53125 16.1219 8.4 16.2531C8.24688 16.3953 7.91875 16.5156 7.60156 16.5703C7.29531 16.6031 6.81406 16.7781 6.51875 16.9313C6.22344 17.0953 5.85156 17.4234 5.6875 17.6641C5.52344 17.9047 5.32656 18.2984 5.26094 18.5391C5.19531 18.7797 5.14062 19.0969 5.14062 19.25C5.14062 19.4031 5.03125 19.6328 4.88906 19.775C4.74688 19.9172 4.51719 20.0156 4.32031 20.0156C4.12344 20.0156 3.90469 19.9281 3.77344 19.7859C3.65312 19.6547 3.52187 19.3047 3.47812 18.9875C3.43437 18.6813 3.28125 18.2109 3.13906 17.9375C2.99688 17.6641 2.66875 17.2813 2.39531 17.0953C2.06719 16.8438 1.69531 16.7016 1.20312 16.6141C0.710938 16.5266 0.415625 16.4063 0.240625 16.2203C0.109375 16.0781 0 15.8703 0 15.75C0 15.6297 0.0328125 15.4438 0.0765625 15.3453C0.13125 15.2469 0.295312 15.1047 0.459375 15.0172C0.634375 14.9406 0.875 14.875 1.00625 14.875C1.14844 14.875 1.43281 14.8203 1.64062 14.7656C1.84844 14.7109 2.24219 14.4813 2.50469 14.2516C2.77812 14.0219 3.10625 13.5953 3.24844 13.2891C3.37969 12.9828 3.5 12.6 3.5 12.4359C3.5 12.2719 3.56563 12.0203 3.63125 11.8672C3.70781 11.7141 3.87187 11.55 3.99219 11.4844C4.1125 11.4297 4.33125 11.4078 4.48438 11.4406ZM3.40156 15.6953L4.32031 16.6359L5.26094 15.6953L4.32031 14.7766L3.40156 15.6953ZM51.6469 11.3859C51.6906 11.3859 51.8328 11.4297 51.975 11.4953C52.1063 11.55 52.2813 11.725 52.3578 11.8781C52.4344 12.0203 52.4891 12.2828 52.4891 12.4469C52.4891 12.6109 52.6094 12.9937 52.7516 13.2891C52.8937 13.5953 53.2109 14.0219 53.4844 14.2516C53.7469 14.4813 54.1406 14.7219 54.3484 14.7766C54.5672 14.8313 54.8406 14.875 54.9828 14.875C55.1141 14.875 55.3656 14.9516 55.5297 15.0281C55.6938 15.1156 55.8688 15.2578 55.9125 15.3562C55.9563 15.4547 55.9891 15.6297 55.9891 15.75C55.9891 15.8703 55.8797 16.0891 55.7484 16.2312C55.5734 16.4062 55.2781 16.5266 54.7859 16.6141C54.3047 16.7016 53.9219 16.8547 53.5938 17.0953C53.3203 17.2922 52.9922 17.675 52.85 17.9375C52.7188 18.2109 52.5656 18.6922 52.5219 18.9984C52.4781 19.3047 52.3469 19.6547 52.2156 19.7859C52.0844 19.9281 51.8656 20.0266 51.6687 20.0266C51.4719 20.0266 51.2531 19.9281 51.1109 19.775C50.9797 19.6328 50.8484 19.3047 50.8047 18.9766C50.7719 18.6812 50.6516 18.2656 50.5422 18.0578C50.4438 17.85 50.2141 17.5328 50.0281 17.3578C49.8531 17.1828 49.5359 16.9531 49.3172 16.8438C49.1094 16.7344 48.6937 16.6141 48.3875 16.5703C48.0703 16.5266 47.7422 16.3953 47.6 16.2641C47.4578 16.1328 47.3484 15.9031 47.3484 15.75C47.3484 15.6078 47.4469 15.3672 47.5891 15.2359C47.7313 15.0828 48.0484 14.9516 48.3875 14.8969C48.6937 14.8422 49.1094 14.7109 49.3172 14.6125C49.5359 14.5031 49.8422 14.2844 50.0172 14.1312C50.1812 13.9672 50.4219 13.6609 50.5312 13.4313C50.6516 13.2016 50.7719 12.7859 50.8156 12.5016C50.8484 12.2172 50.9359 11.8891 51.0016 11.7797C51.0672 11.6703 51.2203 11.5391 51.3406 11.4953C51.4609 11.4406 51.6031 11.3859 51.6469 11.3859ZM50.7281 15.6953L51.6687 16.6469L52.5875 15.6953L51.6359 14.7875L50.7281 15.6953ZM27.7703 14.8859C36.1266 14.875 40.5234 14.9188 41.0047 14.9953C41.3984 15.0609 41.9891 15.2578 42.3609 15.4547C42.7109 15.6516 43.2031 16.0234 43.4547 16.2969C43.6953 16.5703 43.9906 16.9969 44.1109 17.2266C44.2312 17.4672 45.2266 20.2016 46.3203 23.2969C47.4141 26.3922 48.3547 28.9406 48.3984 28.9625C48.4531 28.9734 48.5844 28.6016 48.7047 28.1422C48.8141 27.6719 48.9453 27.125 49 26.9281C49.0656 26.6766 49.1969 26.5344 49.4812 26.4141C49.7766 26.2828 50.3453 26.25 51.9641 26.25C53.1234 26.25 54.2172 26.2937 54.4031 26.3484C54.5781 26.4141 54.7859 26.5891 54.8625 26.7422C54.9609 26.9281 55.0047 27.6062 55.0047 28.875C55.0047 30.1438 54.9609 30.8219 54.8625 31.0078C54.7859 31.1609 54.5781 31.3359 54.4031 31.3906C54.2172 31.4563 53.1016 31.5 51.9094 31.5C50.7281 31.5 49.7547 31.5219 49.7547 31.5547C49.7547 31.5875 50.3781 32.4844 51.1328 33.5453C51.8984 34.6172 52.6313 35.7109 52.7734 35.9844C52.9047 36.2578 53.0687 36.6953 53.1344 36.9688C53.2 37.275 53.2437 39.5609 53.2437 43.0391C53.2437 46.2766 53.2 48.8141 53.1344 49.0766C53.0797 49.3391 52.9266 49.7766 52.7844 50.0609C52.6531 50.3453 52.3031 50.8375 51.5047 51.7344V53.1562C51.5047 54.0859 51.45 54.6984 51.3516 54.9281C51.275 55.125 51.0234 55.4531 50.3562 56H47.2063C44.1328 56 44.0562 55.9891 43.6844 55.7484C43.4766 55.6172 43.2141 55.3328 43.0828 55.125C42.9078 54.8078 42.8641 54.5344 42.8641 52.5H12.8953L12.8844 53.6156C12.8844 54.5344 12.8406 54.8078 12.6656 55.125C12.5453 55.3328 12.2719 55.6172 12.0641 55.7484C11.6922 55.9891 11.6156 56 5.40313 56L4.96563 55.6391C4.73594 55.4531 4.47344 55.125 4.39688 54.9281C4.29844 54.6984 4.25469 54.0859 4.25469 51.7344L3.72969 51.1547C3.44531 50.8375 3.10625 50.3453 2.96406 50.0609C2.83281 49.7766 2.66875 49.3391 2.61406 49.0766C2.54844 48.8141 2.50469 46.2547 2.50469 43.0391C2.50469 38.3141 2.52656 37.3625 2.66875 36.8047C2.76719 36.4438 2.95313 35.9734 3.07344 35.7656C3.20469 35.5578 3.91562 34.5297 4.65937 33.4906C5.39219 32.4625 6.00469 31.5875 6.00469 31.5547C6.00469 31.5219 5.02031 31.5 3.81719 31.5C2.48281 31.5 1.50938 31.4562 1.32344 31.3797C1.15938 31.3141 0.9625 31.1828 0.896875 31.0734C0.798437 30.9531 0.754688 30.3078 0.754688 28.9516C0.754688 27.6172 0.798438 26.9281 0.885938 26.7422C0.9625 26.5891 1.17031 26.4141 1.35625 26.3484C1.53125 26.2937 2.625 26.25 3.78437 26.25C5.41406 26.25 5.98281 26.2828 6.27813 26.4141C6.55156 26.5344 6.68281 26.6766 6.74844 26.9281C6.80313 27.125 6.93437 27.6719 7.05469 28.1422C7.16406 28.6016 7.29531 28.9734 7.35 28.9625C7.40469 28.9406 8.33438 26.3922 9.43906 23.2969C10.5328 20.2016 11.5172 17.4672 11.6375 17.2266C11.7578 16.9969 12.0531 16.5703 12.3047 16.2969C12.5453 16.0234 13.0375 15.6406 13.3984 15.4547C13.7484 15.2578 14.3062 15.0609 14.6453 15.0062C14.9844 14.9406 20.5953 14.8969 27.7703 14.8859ZM13.8688 17.0734C13.6609 17.2266 13.3875 17.5219 13.2562 17.7297C13.125 17.9266 12.0969 20.6828 10.9813 23.8438C9.86563 27.0047 8.95781 29.6516 8.95781 29.7172C8.95781 29.8266 12.0094 29.8594 23.8547 29.8594L38.7625 29.8484C39.1016 30.2094 39.2 30.4609 39.2 30.6359C39.2 30.8109 39.0906 31.0516 38.9484 31.1938L38.6969 31.4453L8.08281 31.5C5.34844 35.3609 4.47344 36.6187 4.375 36.8047C4.22188 37.0891 4.18906 37.7672 4.16719 42.2406L4.14531 47.3594H19.1297C19.1297 42.6562 19.1734 40.9937 19.2172 40.6328C19.2719 40.2719 19.4359 39.7031 19.5781 39.375C19.7312 39.0469 20.0484 38.5547 20.2781 38.2922C20.5187 38.0406 20.9344 37.6797 21.2078 37.5047C21.4703 37.3406 21.9406 37.1219 22.2469 37.0234C22.7062 36.8922 23.625 36.8594 27.8797 36.8594C32.1234 36.8594 33.0531 36.8922 33.5125 37.0234C33.8078 37.1219 34.2781 37.3406 34.5516 37.5047C34.8141 37.6797 35.2297 38.0406 35.4703 38.2922C35.7109 38.5547 36.0281 39.0469 36.1703 39.375C36.3234 39.7031 36.4766 40.2719 36.5312 40.6328C36.5859 40.9937 36.6187 42.6563 36.6187 44.3188L36.6297 47.3594H51.6141C51.5594 37.7672 51.5375 37.0891 51.3734 36.8047C51.2859 36.6187 50.4109 35.3609 49.4375 33.9828L47.6766 31.5C43.2469 31.5 41.8906 31.4563 41.6828 31.3906C41.4859 31.325 41.2781 31.1828 41.2234 31.0625C41.1578 30.9422 41.1141 30.7234 41.1141 30.5703C41.1141 30.4172 41.2125 30.1984 41.3328 30.0781C41.5406 29.8703 41.6937 29.8594 44.1766 29.8594C46.2 29.8594 46.8016 29.8266 46.8016 29.7172C46.8016 29.6516 45.8828 27.0047 44.7672 23.8438C43.6516 20.6828 42.6234 17.9156 42.4703 17.6859C42.3281 17.4672 42.0219 17.1609 41.7922 17.0078C41.5734 16.8656 41.1578 16.6906 40.8953 16.6359C40.5672 16.5594 36.0281 16.5266 27.825 16.5266C18.5062 16.5266 15.1156 16.5594 14.7438 16.6578C14.4703 16.7344 14.0766 16.9094 13.8688 17.0734ZM2.39531 29.8594C4.91094 29.8594 5.65469 29.8375 5.6875 29.8047C5.70938 29.7719 5.63281 29.3563 5.5125 28.875L5.29375 27.9891L2.39531 28V29.8594ZM50.2031 28.875C50.0281 29.5422 50.0063 29.7609 50.1047 29.8047C50.1813 29.8375 50.9359 29.8484 51.7781 29.8375L53.3094 29.8047L53.3203 28H50.4328L50.2031 28.875ZM22.3016 38.7953C21.9406 38.9813 21.5578 39.2875 21.3391 39.5609C21.1422 39.8234 20.9891 40.1078 20.9891 40.1953C20.9891 40.3375 21.8203 40.3594 27.8797 40.3594C33.9281 40.3594 34.7703 40.3375 34.7703 40.1953C34.7703 40.1078 34.6063 39.8234 34.4094 39.5609C34.2016 39.2875 33.8187 38.9813 33.4578 38.7953L32.8562 38.5H22.9031L22.3016 38.7953ZM20.825 43.7937H34.9344L34.9891 41.9891H20.7594L20.825 43.7937ZM20.7703 47.3484H34.9891V45.4891H20.7703V47.3484ZM4.71406 49.7766C4.91094 50.0281 5.31563 50.3672 5.62188 50.5203L6.15781 50.7937H49.5906C50.4328 50.3672 50.8375 50.0281 51.0344 49.7766C51.2313 49.525 51.3953 49.2406 51.3953 49.1531C51.3953 49.0109 48.7047 48.9891 27.8797 48.9891C7.04375 48.9891 4.36406 49.0109 4.36406 49.1531C4.36406 49.2406 4.51719 49.525 4.71406 49.7766ZM5.89531 54.3484H11.2547V52.4891H5.89531V54.3484ZM44.5047 54.3484H49.8641V52.4891H44.5047V54.3484ZM27.825 17.5C35.7547 17.4891 40.4359 17.5328 40.6984 17.5984C40.9281 17.6641 41.2672 17.85 41.4422 18.0141C41.7375 18.2656 42.0219 18.9875 43.4656 23.1C44.3953 25.725 45.1609 27.9562 45.1609 28.0437C45.1609 28.1312 45.0406 28.35 44.6359 28.8094H11.1234L10.8609 28.5141C10.7188 28.35 10.5984 28.1312 10.5984 28.0437C10.5984 27.9562 11.3531 25.725 12.2938 23.1C13.4313 19.8516 14.0656 18.2328 14.2297 18.0687C14.3719 17.9266 14.6781 17.7406 14.9187 17.6641C15.2906 17.5219 17.2375 17.5 27.825 17.5ZM14.0437 23.0672C13.2891 25.2 12.6766 26.9937 12.6766 27.0375C12.6766 27.0812 19.5125 27.1141 27.8797 27.1141C36.2359 27.1141 43.0828 27.0812 43.0828 27.0375C43.0828 26.9937 42.4703 25.2 41.7156 23.0672C40.9609 20.9344 40.3484 19.1734 40.3484 19.1625C40.3484 19.1406 34.7375 19.1297 27.8797 19.1297C21.0219 19.1297 15.4109 19.1406 15.4109 19.1625C15.4109 19.1734 14.7984 20.9344 14.0437 23.0672ZM9.07812 35.9734H12.075C14.9297 35.9734 15.0937 35.9844 15.3016 36.1922C15.4219 36.3125 15.5203 36.5531 15.5203 36.7172C15.5203 36.8813 15.4328 37.1328 15.1047 37.5594L12.3812 37.5922C10.7734 37.6141 9.51563 37.5813 9.28594 37.5156C9.04531 37.45 8.84844 37.3078 8.76094 37.1328C8.68437 36.9797 8.61875 36.7828 8.61875 36.7063C8.60781 36.6188 8.70625 36.4219 8.8375 36.2688L9.07812 35.9734ZM46.6922 35.9734L46.9109 36.2688C47.0422 36.4328 47.1406 36.6297 47.1297 36.7063C47.1297 36.7828 47.075 36.9687 46.9984 37.1219C46.9109 37.2969 46.7141 37.45 46.4734 37.5156C46.2437 37.5813 44.9859 37.6141 40.6547 37.5594L40.4469 37.2859C40.3266 37.1328 40.2281 36.8703 40.2391 36.7063C40.2391 36.5422 40.3375 36.3125 40.4578 36.1922C40.6656 35.9844 40.8187 35.9734 46.6922 35.9734ZM12.0203 38.5984C12.6984 38.5984 13.3438 38.6641 13.8797 38.7953C14.3281 38.9156 14.9625 39.1344 15.2797 39.2875C15.5969 39.4516 16.0563 39.7578 16.3078 39.9875C16.5594 40.2172 16.8766 40.6437 17.0188 40.95C17.1719 41.2891 17.2703 41.6937 17.2703 42.0437C17.2703 42.35 17.1719 42.7875 17.0516 43.05C16.9312 43.3016 16.625 43.7172 16.3734 43.9688C16.1109 44.2094 15.6187 44.5594 15.2797 44.7344C14.9297 44.9094 14.3391 45.1281 13.9672 45.2266C13.5297 45.3469 12.8625 45.4125 12.1297 45.4125C11.3969 45.4125 10.7297 45.3469 10.2703 45.2266C9.87656 45.1172 9.31875 44.9312 9.0125 44.7891C8.71719 44.6578 8.225 44.3297 7.92969 44.0562C7.64531 43.7937 7.30625 43.3781 7.175 43.1375C7.02187 42.8312 6.95625 42.4812 6.95625 42.0437C6.95625 41.5844 7.02187 41.2453 7.18594 40.9172C7.31719 40.6656 7.6125 40.2719 7.85313 40.0422C8.08281 39.8125 8.50937 39.4953 8.80469 39.3422C9.1 39.1781 9.7125 38.9375 10.1609 38.8281C10.6859 38.6859 11.3531 38.5984 12.0203 38.5984ZM9.64687 40.775C9.41719 40.8844 9.1 41.125 8.93594 41.2891C8.78281 41.4641 8.61875 41.7266 8.575 41.8797C8.53125 42.0656 8.58594 42.2625 8.76094 42.5359C8.925 42.7875 9.25313 43.0391 9.72344 43.2688C10.1609 43.4875 10.7516 43.6734 11.2547 43.7391C11.7031 43.8156 12.3484 43.8375 12.6766 43.7937C13.0047 43.75 13.5953 43.6188 13.9891 43.4875C14.4703 43.3234 14.8531 43.1156 15.1594 42.8094C15.5313 42.4594 15.6297 42.2953 15.6297 41.9891C15.6187 41.6828 15.5313 41.5187 15.2141 41.2125C14.9953 41.0047 14.5141 40.7094 14.1531 40.5672C13.65 40.3703 13.2234 40.3047 12.3484 40.2719C11.55 40.25 11.025 40.2828 10.6312 40.4031C10.3141 40.4906 9.86562 40.6547 9.64687 40.775ZM43.6297 38.5984C44.3406 38.5984 44.9422 38.6641 45.5437 38.8172C46.025 38.9375 46.6594 39.1781 46.9547 39.3422C47.25 39.4953 47.6766 39.8125 47.9172 40.0422C48.1469 40.2719 48.4422 40.6656 48.5734 40.9172C48.7375 41.2453 48.8141 41.5844 48.8141 42.0437C48.8141 42.4812 48.7375 42.8312 48.5844 43.1375C48.4641 43.3781 48.125 43.7937 47.8297 44.0562C47.5344 44.3297 47.0531 44.6578 46.7469 44.7891C46.4516 44.9312 45.8828 45.1172 45.4891 45.2266C45.0406 45.3469 44.3625 45.4125 43.6297 45.4125C42.9078 45.4125 42.2297 45.3469 41.8031 45.2266C41.4203 45.1281 40.8297 44.9094 40.4906 44.7344C40.1406 44.5594 39.6484 44.2094 39.3969 43.9688C39.1344 43.7172 38.8281 43.3016 38.7078 43.05C38.5875 42.7875 38.5 42.35 38.4891 42.0437C38.4891 41.6937 38.5875 41.2891 38.7516 40.95C38.8828 40.6437 39.2109 40.2172 39.4625 39.9875C39.7031 39.7578 40.1734 39.4516 40.4906 39.2875C40.8078 39.1344 41.4094 38.9156 41.825 38.8062C42.2844 38.6859 43.0062 38.5984 43.6297 38.5984ZM41.0594 40.8297C40.8187 40.9609 40.5125 41.2234 40.3703 41.3984C40.2281 41.5734 40.1297 41.8578 40.1297 42.0437C40.1297 42.2734 40.2609 42.4922 40.6 42.8094C40.9172 43.1156 41.2891 43.3234 41.7703 43.4875C42.1641 43.6188 42.7547 43.75 43.0828 43.7937C43.4109 43.8375 44.0562 43.8156 44.5047 43.7391C45.0078 43.6734 45.5984 43.4875 46.0359 43.2688C46.5062 43.0391 46.8344 42.7875 46.9984 42.5359C47.1734 42.2734 47.2281 42.0547 47.1844 41.8797C47.1516 41.7266 46.9438 41.4203 46.7141 41.2125C46.4953 40.9937 46.0141 40.7094 45.6531 40.5672C45.1609 40.3812 44.7125 40.3047 43.8484 40.2719C43.0391 40.25 42.525 40.2828 42.0984 40.4031C41.7703 40.5016 41.3 40.6875 41.0594 40.8297Z" fill="#2551E8"/>
</g>
<defs>
<clipPath id="clip0_166_2497">
<rect width="56" height="56" fill="white"/>
</clipPath>
</defs>
</svg>
