<svg width="40" height="40" viewBox="0 0 40 40" fill="none" xmlns="http://www.w3.org/2000/svg">
<path d="M40 26.875C40 30.6719 37.8919 33.75 33.75 33.75H6.25C2.10813 33.75 0 30.6719 0 26.875V13.125C0 9.32812 2.10813 6.25 6.25 6.25H33.75C37.8919 6.25 40 9.32812 40 13.125V26.875Z" fill="#E6E7E8"/>
<path d="M21.578 17.9038C22.2674 17.6006 22.9749 17.5856 23.7024 17.8575C24.4655 18.1444 24.9893 18.5981 25.2724 19.2213C25.5568 19.8456 25.5905 20.6169 25.3755 21.5363C25.8799 19.9256 25.8218 18.4375 25.1999 17.0731C24.5799 15.7106 23.5249 14.7481 22.0343 14.1913C20.5811 13.645 19.133 13.6956 17.6911 14.3356C16.2486 14.9769 15.2593 16.0156 14.7218 17.4475C14.4318 18.2256 14.4418 18.975 14.758 19.6956C15.073 20.4169 15.6068 20.9175 16.3586 21.1994C17.0868 21.4713 17.7949 21.4569 18.4861 21.1588C19.178 20.8588 19.6793 20.3488 19.9918 19.6231L20.0686 19.4413C20.3855 18.7194 20.8893 18.2063 21.578 17.9038Z" fill="#EC1C24"/>
<path d="M18.5194 21.0806C17.8294 21.3844 17.1213 21.3994 16.3963 21.1281C15.6326 20.8419 15.1082 20.3869 14.8251 19.7631C14.5419 19.14 14.5076 18.3688 14.7207 17.45C14.2176 19.0594 14.2769 20.5469 14.8976 21.9106C15.5188 23.2756 16.5732 24.2356 18.0626 24.7938C19.5163 25.3381 20.9644 25.2881 22.4076 24.65C23.8482 24.0081 24.8388 22.9706 25.3744 21.5381C25.6669 20.76 25.6569 20.01 25.3407 19.2906C25.0244 18.5694 24.4907 18.0681 23.7376 17.7863C23.0119 17.5138 22.3038 17.5281 21.6126 17.8269C20.9213 18.1263 20.4194 18.6381 20.1069 19.3613L20.0294 19.5438C19.7132 20.2638 19.2082 20.7775 18.5194 21.0806Z" fill="#1B75BB"/>
<path d="M15.0249 9.65686C15.0649 9.69754 15.0873 9.7523 15.0873 9.80936C15.0873 9.86641 15.0649 9.92118 15.0249 9.96186L11.2137 13.7719C11.1937 13.7918 11.1701 13.8077 11.1441 13.8186C11.118 13.8294 11.0901 13.835 11.0619 13.8351C11.0337 13.8351 11.0058 13.8296 10.9797 13.8189C10.9536 13.8082 10.9299 13.7924 10.9099 13.7725C10.8899 13.7526 10.874 13.7289 10.8632 13.7029C10.8524 13.6769 10.8467 13.6489 10.8467 13.6207C10.8466 13.5925 10.8521 13.5646 10.8629 13.5385C10.8736 13.5124 10.8894 13.4887 10.9093 13.4687L14.7199 9.65748C14.7398 9.63733 14.7636 9.62133 14.7897 9.61039C14.8159 9.59944 14.8439 9.59378 14.8723 9.59372C14.9006 9.59367 14.9287 9.59921 14.9549 9.61005C14.9811 9.62088 15.0049 9.63679 15.0249 9.65686ZM15.7124 10.3437C15.7325 10.3637 15.7484 10.3874 15.7593 10.4135C15.7702 10.4396 15.7758 10.4676 15.7758 10.4959C15.7758 10.5242 15.7702 10.5522 15.7593 10.5784C15.7484 10.6045 15.7325 10.6282 15.7124 10.6481L11.9037 14.4587C11.8631 14.499 11.8083 14.5217 11.7512 14.5217C11.694 14.5217 11.6392 14.499 11.5987 14.4587C11.5783 14.4389 11.5622 14.4152 11.5511 14.389C11.5401 14.3628 11.5344 14.3346 11.5344 14.3062C11.5344 14.2778 11.5401 14.2497 11.5511 14.2235C11.5622 14.1973 11.5783 14.1736 11.5987 14.1537L15.4093 10.3437C15.4495 10.3035 15.504 10.281 15.5608 10.281C15.6177 10.281 15.6722 10.3035 15.7124 10.3437ZM16.4249 11.0569C16.4452 11.0767 16.4614 11.1004 16.4724 11.1266C16.4835 11.1528 16.4891 11.1809 16.4891 11.2094C16.4891 11.2378 16.4835 11.2659 16.4724 11.2921C16.4614 11.3183 16.4452 11.342 16.4249 11.3619L12.6137 15.1731C12.5938 15.1932 12.5702 15.2091 12.5442 15.2199C12.5182 15.2308 12.4903 15.2364 12.4621 15.2364C12.4339 15.2364 12.406 15.2308 12.38 15.2199C12.3539 15.2091 12.3303 15.1932 12.3105 15.1731C12.27 15.1326 12.2473 15.0776 12.2473 15.0203C12.2473 14.963 12.27 14.908 12.3105 14.8675L16.1205 11.0569C16.1405 11.0368 16.1642 11.0208 16.1903 11.0099C16.2164 10.9991 16.2444 10.9935 16.2727 10.9935C16.301 10.9935 16.329 10.9991 16.3551 11.0099C16.3813 11.0208 16.405 11.0368 16.4249 11.0569ZM26.8812 11.6537C26.9712 11.5831 27.0562 11.5062 27.1424 11.43L25.3699 9.65686C25.3295 9.61641 25.2746 9.59369 25.2174 9.59369C25.1602 9.59369 25.1053 9.61641 25.0649 9.65686C25.0245 9.6973 25.0017 9.75216 25.0017 9.80936C25.0017 9.86656 25.0245 9.92141 25.0649 9.96186L26.8243 11.7206C26.8386 11.6948 26.858 11.6721 26.8812 11.6537ZM29.1812 13.4681L27.4605 11.7469C27.3537 11.8425 27.2449 11.9381 27.1318 12.0269L28.8762 13.7712C28.9173 13.8068 28.9703 13.8255 29.0246 13.8236C29.079 13.8217 29.1306 13.7993 29.1691 13.761C29.2077 13.7227 29.2304 13.6712 29.2326 13.6169C29.2348 13.5626 29.2164 13.5095 29.1812 13.4681ZM28.4943 14.4562C28.4539 14.4965 28.3991 14.5191 28.3421 14.5191C28.285 14.5191 28.2303 14.4965 28.1899 14.4562L24.3787 10.6456C24.3573 10.6259 24.3402 10.6021 24.3283 10.5756C24.3164 10.5491 24.3099 10.5204 24.3094 10.4914C24.3088 10.4623 24.3141 10.4335 24.325 10.4065C24.3359 10.3796 24.3521 10.3551 24.3726 10.3346C24.3932 10.3141 24.4177 10.2979 24.4447 10.2871C24.4716 10.2763 24.5005 10.271 24.5296 10.2716C24.5586 10.2723 24.5872 10.2787 24.6137 10.2907C24.6402 10.3027 24.664 10.3198 24.6837 10.3412L28.4943 14.1512C28.5143 14.1713 28.5302 14.195 28.541 14.2212C28.5519 14.2474 28.5575 14.2754 28.5575 14.3037C28.5575 14.3321 28.5519 14.3601 28.541 14.3863C28.5302 14.4124 28.5143 14.4362 28.4943 14.4562ZM25.4005 13.0775C25.5118 12.9912 25.6049 12.8875 25.6912 12.7756L23.9718 11.0569C23.9521 11.0355 23.9282 11.0184 23.9017 11.0065C23.8752 10.9946 23.8466 10.9881 23.8175 10.9876C23.7885 10.987 23.7596 10.9923 23.7327 11.0032C23.7057 11.0141 23.6813 11.0303 23.6608 11.0509C23.6402 11.0714 23.6241 11.0959 23.6133 11.1229C23.6024 11.1498 23.5972 11.1787 23.5978 11.2078C23.5984 11.2368 23.6049 11.2654 23.6169 11.2919C23.6288 11.3184 23.646 11.3422 23.6674 11.3619L25.3943 13.0875C25.3937 13.0869 25.3968 13.0825 25.4005 13.0775ZM27.7812 14.8675L26.0099 13.0962C25.9187 13.2087 25.8168 13.3106 25.708 13.4025L27.4768 15.1725C27.4966 15.1928 27.5202 15.2089 27.5464 15.22C27.5725 15.231 27.6006 15.2367 27.629 15.2367C27.6573 15.2367 27.6854 15.231 27.7116 15.22C27.7377 15.2089 27.7614 15.1928 27.7812 15.1725C27.8012 15.1525 27.8171 15.1287 27.8279 15.1025C27.8388 15.0764 27.8443 15.0483 27.8443 15.02C27.8443 14.9917 27.8388 14.9636 27.8279 14.9374C27.8171 14.9113 27.8012 14.8875 27.7812 14.8675ZM26.8487 27.2987L25.1387 29.01C25.0984 29.0504 25.0758 29.1051 25.0758 29.1622C25.0758 29.2192 25.0984 29.2739 25.1387 29.3144C25.1586 29.3344 25.1823 29.3504 25.2084 29.3613C25.2345 29.3721 25.2625 29.3778 25.2908 29.3778C25.3191 29.3778 25.3471 29.3721 25.3733 29.3613C25.3994 29.3504 25.4231 29.3344 25.443 29.3144L27.1412 27.615C27.0443 27.5087 26.9474 27.4037 26.8487 27.2987ZM29.2543 25.2C29.2134 25.1599 29.1583 25.1376 29.1011 25.1379C29.0438 25.1383 28.989 25.1613 28.9487 25.2019L27.168 26.9812C27.2662 27.0881 27.3637 27.1925 27.4612 27.2975L29.2543 25.5056C29.294 25.4647 29.3163 25.4099 29.3163 25.3528C29.3163 25.2957 29.294 25.2409 29.2543 25.2ZM26.1805 26.5956L24.4512 28.3231C24.4111 28.3638 24.3887 28.4186 24.3887 28.4756C24.3887 28.5327 24.4111 28.5874 24.4512 28.6281C24.4918 28.6686 24.5469 28.6914 24.6043 28.6914C24.6617 28.6914 24.7167 28.6686 24.7574 28.6281L26.4774 26.9069C26.3774 26.8019 26.2805 26.6969 26.1805 26.5956ZM28.5662 24.5125C28.5464 24.4925 28.5228 24.4765 28.4969 24.4657C28.4709 24.4548 28.443 24.4492 28.4149 24.4492C28.3868 24.4492 28.3589 24.4548 28.3329 24.4657C28.307 24.4765 28.2834 24.4925 28.2637 24.5125L26.4999 26.275C26.6012 26.3775 26.6974 26.4819 26.798 26.5862L28.5668 24.8169C28.5871 24.797 28.6032 24.7733 28.6141 24.7472C28.6251 24.721 28.6307 24.6929 28.6307 24.6645C28.6306 24.6362 28.6249 24.6081 28.6138 24.582C28.6027 24.5559 28.5865 24.5322 28.5662 24.5125ZM25.4374 25.9119L23.7374 27.61C23.6977 27.6508 23.6755 27.7055 23.6755 27.7625C23.6755 27.8194 23.6977 27.8741 23.7374 27.915C23.7781 27.9555 23.8331 27.9783 23.8905 27.9783C23.9479 27.9783 24.003 27.9555 24.0437 27.915L25.7549 26.2012C25.6499 26.105 25.5487 26.0025 25.4374 25.9119ZM26.0774 25.8812L27.853 24.1031C27.8734 24.0833 27.8897 24.0596 27.9007 24.0334C27.9118 24.0072 27.9175 23.979 27.9175 23.9506C27.9175 23.9222 27.9118 23.894 27.9007 23.8678C27.8897 23.8416 27.8734 23.8179 27.853 23.7981C27.8332 23.7781 27.8096 23.7621 27.7836 23.7513C27.7576 23.7404 27.7297 23.7348 27.7015 23.7348C27.6733 23.7348 27.6454 23.7404 27.6193 23.7513C27.5933 23.7621 27.5697 23.7781 27.5499 23.7981L25.758 25.59C25.8699 25.6831 25.9712 25.7837 26.0774 25.8812ZM13.2799 27.3175C13.1899 27.3875 13.1055 27.465 13.018 27.5412L14.7918 29.3144C14.8117 29.3344 14.8353 29.3504 14.8614 29.3612C14.8874 29.3721 14.9154 29.3777 14.9437 29.3777C14.9719 29.3777 14.9999 29.3721 15.0259 29.3612C15.052 29.3504 15.0757 29.3344 15.0955 29.3144C15.1157 29.2945 15.1317 29.2708 15.1426 29.2446C15.1536 29.2185 15.1592 29.1905 15.1592 29.1622C15.1592 29.1339 15.1536 29.1058 15.1426 29.0797C15.1317 29.0536 15.1157 29.0299 15.0955 29.01L13.3374 27.25C13.3224 27.2757 13.3029 27.2985 13.2799 27.3175ZM10.9818 25.5031L12.7018 27.2244C12.8093 27.1294 12.9162 27.0331 13.0299 26.945L11.2855 25.2C11.2445 25.1638 11.1913 25.1447 11.1367 25.1463C11.0821 25.148 11.0301 25.1705 10.9915 25.2091C10.9528 25.2477 10.9302 25.2995 10.9284 25.3542C10.9266 25.4088 10.9457 25.462 10.9818 25.5031ZM15.7812 28.325L14.0443 26.5881C13.9487 26.6762 13.8543 26.7669 13.7543 26.8494C13.7412 26.8606 13.728 26.865 13.7162 26.8719L15.4755 28.63C15.4956 28.65 15.5193 28.666 15.5455 28.6769C15.5717 28.6877 15.5998 28.6933 15.6281 28.6934C15.6565 28.6934 15.6845 28.6878 15.7108 28.677C15.737 28.6662 15.7608 28.6503 15.7808 28.6303C15.8009 28.6103 15.8168 28.5865 15.8277 28.5603C15.8386 28.5341 15.8442 28.5061 15.8442 28.4777C15.8443 28.4494 15.8387 28.4213 15.8279 28.3951C15.8171 28.3689 15.8012 28.345 15.7812 28.325ZM13.4255 26.5394C13.5293 26.4512 13.6268 26.3587 13.7268 26.2662L11.9718 24.5125C11.9521 24.4911 11.9283 24.4739 11.9018 24.462C11.8754 24.45 11.8467 24.4435 11.8177 24.4429C11.7886 24.4423 11.7598 24.4475 11.7328 24.4583C11.7058 24.4692 11.6813 24.4853 11.6608 24.5058C11.6402 24.5264 11.624 24.5508 11.6131 24.5778C11.6023 24.6047 11.5969 24.6336 11.5975 24.6626C11.5981 24.6917 11.6045 24.7203 11.6164 24.7468C11.6283 24.7733 11.6454 24.7971 11.6668 24.8169L13.4093 26.5594C13.4168 26.5525 13.4187 26.5469 13.4255 26.5394ZM12.3824 23.8C12.4021 23.7797 12.4258 23.7635 12.4518 23.7525C12.4779 23.7415 12.506 23.7358 12.5343 23.7358C12.5626 23.7358 12.5906 23.7415 12.6167 23.7525C12.6428 23.7635 12.6664 23.7797 12.6862 23.8L16.4974 27.61C16.5377 27.6505 16.5603 27.7053 16.5603 27.7625C16.5603 27.8196 16.5377 27.8745 16.4974 27.915C16.4775 27.9352 16.4537 27.9512 16.4275 27.9621C16.4014 27.9731 16.3733 27.9787 16.3449 27.9787C16.3165 27.9787 16.2884 27.9731 16.2623 27.9621C16.2361 27.9512 16.2123 27.9352 16.1924 27.915L12.3824 24.1037C12.3621 24.084 12.346 24.0604 12.335 24.0343C12.3239 24.0082 12.3183 23.9802 12.3183 23.9519C12.3183 23.9235 12.3239 23.8955 12.335 23.8694C12.346 23.8433 12.3621 23.8197 12.3824 23.8Z" fill="#231F20"/>
<path d="M10.9724 25.1937C10.9924 25.1737 11.0162 25.1578 11.0424 25.147C11.0685 25.1361 11.0966 25.1305 11.1249 25.1305C11.1532 25.1305 11.1813 25.1361 11.2074 25.147C11.2336 25.1578 11.2574 25.1737 11.2774 25.1937L15.0868 29.0037C15.1068 29.0238 15.1227 29.0475 15.1335 29.0737C15.1444 29.0999 15.1499 29.1279 15.1499 29.1562C15.1499 29.1846 15.1444 29.2126 15.1335 29.2388C15.1227 29.2649 15.1068 29.2887 15.0868 29.3087C15.0667 29.3288 15.043 29.3446 15.0168 29.3555C14.9906 29.3663 14.9626 29.3719 14.9343 29.3719C14.906 29.3719 14.8779 29.3663 14.8517 29.3555C14.8256 29.3446 14.8018 29.3288 14.7818 29.3087L10.9724 25.4987C10.9522 25.4788 10.9362 25.455 10.9253 25.4289C10.9143 25.4027 10.9087 25.3746 10.9087 25.3462C10.9087 25.3179 10.9143 25.2898 10.9253 25.2636C10.9362 25.2374 10.9522 25.2137 10.9724 25.1937ZM14.7624 25.8937C14.6527 25.9814 14.555 26.0831 14.4718 26.1962L16.1905 27.915C16.231 27.9554 16.2858 27.9782 16.343 27.9782C16.4002 27.9782 16.4551 27.9554 16.4955 27.915C16.536 27.8745 16.5587 27.8197 16.5587 27.7625C16.5587 27.7053 16.536 27.6504 16.4955 27.61L14.7686 25.8844L14.7624 25.8937ZM12.3824 24.1037L14.1518 25.875C14.2436 25.7625 14.3443 25.6612 14.4549 25.5687L12.6861 23.8C12.6664 23.7797 12.6428 23.7636 12.6167 23.7525C12.5906 23.7415 12.5626 23.7358 12.5343 23.7358C12.506 23.7358 12.4779 23.7415 12.4518 23.7525C12.4258 23.7636 12.4021 23.7797 12.3824 23.8C12.3621 23.8197 12.346 23.8433 12.335 23.8694C12.3239 23.8955 12.3183 23.9235 12.3183 23.9519C12.3183 23.9802 12.3239 24.0082 12.335 24.0343C12.346 24.0604 12.3621 24.084 12.3824 24.1037Z" fill="#231F20"/>
</svg>
