<svg width="41" height="40" viewBox="0 0 41 40" fill="none" xmlns="http://www.w3.org/2000/svg">
<g clip-path="url(#clip0_6_181)">
<path fill-rule="evenodd" clip-rule="evenodd" d="M7.22913 0.15625C7.86975 0.15625 7.99475 0.171875 8.151 0.3125C8.26819 0.421875 8.32288 0.554688 8.32288 0.765625C8.32288 0.929688 8.26038 1.11719 8.18225 1.19531C8.08069 1.30469 7.92444 1.33594 7.44006 1.32812C7.04163 1.32812 6.72913 1.375 6.51038 1.46094C6.3385 1.53906 6.12756 1.6875 6.04944 1.79688C5.97913 1.90625 5.651 2.82031 4.75256 5.66406L8.70569 5.6875C10.8776 5.69531 14.4557 5.69531 20.6432 5.66406L20.0651 3.82812C19.7448 2.82031 19.4166 1.90625 19.3463 1.79688C19.2682 1.6875 19.0573 1.53906 18.8854 1.46094C18.5885 1.34375 18.2057 1.32812 14.9791 1.32812C11.7057 1.32812 11.401 1.3125 11.2682 1.1875C11.1823 1.10938 11.1354 0.945312 11.1354 0.78125C11.1354 0.609375 11.2057 0.445312 11.4869 0.148438L18.8698 0.15625L19.276 0.335938C19.5026 0.4375 19.8229 0.640625 19.9948 0.789063C20.1588 0.9375 20.3776 1.21094 20.4713 1.40625C20.5651 1.60156 20.8151 2.30469 21.026 2.96875C21.2291 3.63281 21.401 4.1875 21.401 4.19531C21.4088 4.21094 21.5494 4.14844 21.7213 4.0625C21.9713 3.9375 22.1901 3.90625 22.8307 3.90625C23.276 3.90625 23.7291 3.94531 23.8463 3.99219C23.9713 4.03906 24.151 4.14844 24.2526 4.24219C24.3541 4.33594 24.5026 4.55469 24.5807 4.72656C24.6588 4.89844 24.7291 5.1875 24.7291 5.375C24.7291 5.55469 24.6744 5.83594 24.6041 5.99219C24.5416 6.15625 24.4244 6.35156 24.3541 6.4375C24.2838 6.51562 24.1119 6.63281 23.9869 6.70312C23.8619 6.77344 23.4869 6.84375 22.5573 6.91406L22.8698 7.42188C23.0416 7.70312 23.3385 8.24219 23.526 8.63281C23.7135 9.02344 23.9479 9.625 24.2213 10.6172L34.8463 10.6641L35.2369 10.8438C35.4479 10.9453 35.7448 11.1328 35.8854 11.2734C36.0338 11.4141 36.2291 11.6641 36.3307 11.8359C36.4244 12.0078 36.6744 12.6797 36.8698 13.3203C37.0729 13.9688 37.2526 14.5391 37.2682 14.5938C37.2994 14.6641 37.3932 14.6484 37.6354 14.5312C37.8932 14.4141 38.1432 14.375 38.6901 14.375C39.1744 14.375 39.5182 14.4141 39.7057 14.5C39.8698 14.5625 40.0885 14.6953 40.1901 14.7891C40.2916 14.8828 40.4401 15.1016 40.5182 15.2734C40.5963 15.4453 40.6666 15.7109 40.6666 15.8594C40.6666 16.0078 40.5963 16.2734 40.5182 16.4453C40.4401 16.6172 40.276 16.8516 40.151 16.9688C40.026 17.0859 39.8307 17.2188 39.7057 17.2578C39.5885 17.3047 39.2682 17.3438 38.9869 17.3438C38.7057 17.3438 38.4791 17.3594 38.4791 17.3828C38.4791 17.4062 38.6744 17.7422 38.9088 18.125C39.1432 18.5078 39.4323 19.0312 39.5416 19.2734C39.651 19.5234 39.8307 20.0469 39.9479 20.4297C40.151 21.1328 40.151 21.1328 40.1823 24.6484C40.2135 28.0938 40.2135 28.1719 40.0494 28.5391C39.9401 28.7891 39.7838 28.9766 39.5573 29.125C39.2526 29.3281 39.1823 29.3359 38.3307 29.3359C37.5807 29.3359 37.3698 29.3125 37.1198 29.1797C36.9479 29.0938 36.7213 28.8828 36.6119 28.7188C36.4166 28.4219 36.4088 28.3516 36.3698 26.0156H28.6744L28.6666 26.3438C28.6588 26.5313 28.5807 26.8203 28.4948 26.9922C28.4088 27.1641 28.276 27.3672 28.1979 27.4375C28.1119 27.5078 27.9166 27.625 27.7526 27.6875C27.5963 27.7578 27.2526 27.8125 26.9948 27.8125C26.7369 27.8125 26.526 27.8438 26.526 27.8906C26.526 27.9375 26.7526 28.3438 27.0338 28.8125C27.3854 29.3906 27.5416 29.7266 27.5416 29.9062C27.5416 30.0547 27.4791 30.2188 27.3854 30.3125C27.2916 30.4062 27.1197 30.4688 26.9791 30.4688C26.8307 30.4766 26.6666 30.4141 26.5963 30.3359C26.526 30.2578 26.3854 30.0391 26.2916 29.8438C26.1979 29.6484 25.8776 29.1172 25.0416 27.8125H8.16663L7.69788 28.5391C7.43225 28.9297 7.04944 29.6094 6.84631 30.0391C6.63538 30.4688 6.401 31.0469 6.33069 31.3281C6.22913 31.7109 6.19006 32.2656 6.13538 35.3125H6.64319L6.69006 34.5156C6.72913 33.8828 6.78381 33.625 6.93225 33.3203C7.04163 33.1016 7.26819 32.8125 7.43225 32.6719C7.59631 32.5312 7.93225 32.3594 8.16663 32.2891C8.47913 32.2031 8.74475 32.1797 9.14319 32.2188C9.44006 32.25 9.93225 32.3594 10.2369 32.4609C10.5338 32.5703 11.026 32.8203 11.3229 33.0234C11.6198 33.2344 12.0026 33.5547 12.1666 33.75C12.3307 33.9453 12.6041 34.375 13.0885 35.3125L20.0807 35.3203L20.3932 34.7109C20.6041 34.2969 20.8776 33.9297 21.2526 33.5547C21.6354 33.1641 21.9713 32.9141 22.3854 32.7109C22.7057 32.5547 23.2369 32.3672 23.5573 32.2969C23.8854 32.2266 24.3307 32.1875 24.5729 32.2109C24.8073 32.2266 25.1432 32.3125 25.3151 32.3906C25.4869 32.4688 25.7526 32.6641 25.901 32.8125C26.0573 32.9609 26.2369 33.2422 26.3073 33.4375C26.3776 33.6328 26.4557 34.1328 26.526 35.3125H27.0729L27.1119 32.6328L27.3229 32.4688C27.5104 32.3281 27.5807 32.3203 27.7916 32.3828C27.9323 32.4297 28.0963 32.5547 28.1432 32.6562C28.2135 32.8047 28.2448 33.5859 28.2448 35.6641C28.2448 37.2812 28.2135 38.6016 28.1666 38.7734C28.1198 38.9297 27.9713 39.1875 27.8307 39.3438C27.6979 39.5 27.4713 39.6719 27.3463 39.7344C27.1823 39.8125 26.8463 39.8438 26.2526 39.8438C25.4479 39.8359 25.3776 39.8281 25.0885 39.625C24.9166 39.5078 24.7057 39.3125 24.6198 39.1953C24.4713 38.9922 24.4557 38.8516 24.4166 36.4844H8.79163V37.6016C8.79163 38.5938 8.76819 38.75 8.61194 39.0625C8.50256 39.2891 8.32288 39.4844 8.0885 39.625C7.76038 39.8359 7.68225 39.8438 6.87756 39.8438C6.05725 39.8438 6.00256 39.8359 5.64319 39.6094C5.37756 39.4375 5.22913 39.2734 5.11194 39.0078C4.94788 38.6406 4.94788 38.5625 4.97913 35.1953C5.01038 31.8047 5.01819 31.75 5.2135 31.0156C5.32288 30.6094 5.53381 30.0078 5.68225 29.6875C5.83069 29.3672 6.11194 28.8438 6.31506 28.5391C6.51819 28.2266 6.68225 27.9375 6.68225 27.8906C6.68225 27.8438 6.4635 27.8125 6.17444 27.8125C5.8359 27.8125 5.56767 27.763 5.36975 27.6641C5.2135 27.5859 4.98694 27.4141 4.86194 27.2734C4.74475 27.1406 4.61975 26.8984 4.57288 26.7422C4.53381 26.5781 4.49475 26.3906 4.49475 26.3281C4.49475 26.2656 4.53381 26.0781 4.57288 25.9219C4.61975 25.7578 4.76819 25.5 4.901 25.3438C5.04163 25.1953 5.29944 25.0156 5.47131 24.9531C5.69788 24.8672 6.00256 24.8359 6.56506 24.8594C7.11975 24.875 7.41663 24.9219 7.59631 25.0234C7.84631 25.1562 7.85413 25.1562 7.92444 24.9844C7.9635 24.8828 8.14319 24.3281 8.32288 23.75C8.50256 23.1719 8.72913 22.5391 8.83069 22.3438C8.92444 22.1484 9.15881 21.8594 9.34631 21.6953C9.53381 21.5391 9.84631 21.3438 10.0416 21.2734C10.3463 21.1562 10.8229 21.1328 17.0729 21.0938L17.1198 20.8828C17.1432 20.7578 17.2369 20.4375 17.3229 20.1562C17.4166 19.875 17.6432 19.3281 17.8385 18.9453C18.026 18.5625 18.3073 18.0547 18.4479 17.8359C18.5963 17.6094 18.6901 17.4062 18.651 17.3828C18.6198 17.3594 18.3854 17.3438 18.1276 17.3438C17.7994 17.3438 17.5573 17.2891 17.3073 17.1641C17.0807 17.0547 16.8854 16.875 16.7448 16.6406C16.5807 16.3828 16.526 16.1875 16.526 15.5469H4.88538L4.86194 16.7422C4.84631 17.8828 4.8385 17.9609 4.64319 18.25C4.53381 18.4141 4.30725 18.625 4.13538 18.7109C3.88538 18.8359 3.67444 18.8672 2.97131 18.8672C2.19788 18.8672 2.08069 18.8516 1.776 18.6719C1.5885 18.5625 1.36194 18.3516 1.26819 18.2031C1.09631 17.9297 1.09631 17.8828 1.09631 14.4531C1.09631 11.0391 1.09631 10.9609 1.28381 10.2734C1.38538 9.88281 1.59631 9.27344 1.76038 8.90625C1.91663 8.53906 2.22913 7.94531 2.8385 6.91406L2.24475 6.86719C1.90881 6.84375 1.53381 6.77344 1.40881 6.70312C1.276 6.63281 1.11194 6.51562 1.04163 6.4375C0.971314 6.35156 0.854126 6.15625 0.791626 6C0.721313 5.83594 0.666626 5.55469 0.666626 5.375C0.666626 5.1875 0.736938 4.89844 0.815063 4.72656C0.893188 4.55469 1.04163 4.33594 1.14319 4.24219C1.24475 4.14844 1.42444 4.03906 1.54163 3.99219C1.66663 3.94531 2.11975 3.90625 2.55725 3.90625C3.20569 3.90625 3.42444 3.9375 3.67444 4.0625C3.84631 4.14844 3.98694 4.21094 3.99475 4.19531C3.99475 4.1875 4.16663 3.63281 4.36975 2.96875C4.58069 2.30469 4.83069 1.60156 4.92444 1.40625C5.01819 1.21094 5.23694 0.9375 5.401 0.789063C5.57288 0.640625 5.87756 0.4375 6.09631 0.34375C6.40881 0.203125 6.63538 0.164063 7.22913 0.15625ZM1.8385 5.54688C1.90881 5.6875 1.99475 5.70312 2.61975 5.70312H3.32288C3.32288 5.25781 3.28381 5.14062 3.20569 5.11719C3.14319 5.09375 2.82288 5.07812 2.50256 5.07812C2.00256 5.07812 1.90881 5.10156 1.8385 5.23438C1.78642 5.33854 1.78642 5.44271 1.8385 5.54688ZM22.0573 5.48437L22.0729 5.70312L23.5182 5.66406V5.11719C22.4791 5.07812 22.2291 5.10156 22.151 5.17187C22.0885 5.21875 22.0494 5.36719 22.0573 5.48437ZM4.11975 7.09375C4.04163 7.21094 3.79163 7.60156 3.57288 7.96875C3.35413 8.33594 3.05725 8.89844 2.901 9.21875C2.75256 9.53906 2.55725 10.0703 2.4635 10.3906C2.31506 10.8906 2.28381 11.2109 2.26038 12.6797L2.22913 14.375H2.73694C2.8385 12.9219 2.88538 12.6953 3.06506 12.3438C3.19788 12.0859 3.41663 11.8125 3.61194 11.6641C3.79944 11.5234 4.09631 11.3672 4.276 11.3203C4.47131 11.2656 4.86194 11.25 5.19788 11.2734C5.51819 11.2969 6.01038 11.3984 6.29163 11.5C6.57288 11.6016 6.97131 11.7812 7.19006 11.9062C7.401 12.0312 7.80725 12.3672 8.0885 12.6484C8.41663 12.9844 8.70569 13.375 8.90881 13.7734L9.22131 14.3828H16.1744C16.6901 13.375 16.9791 12.9844 17.3073 12.6484C17.5885 12.3672 17.9869 12.0312 18.2057 11.9062C18.4166 11.7812 18.8229 11.6016 19.1041 11.4922C19.5026 11.3438 19.7994 11.2969 20.4713 11.2812C21.0963 11.2656 21.3619 11.2266 21.4479 11.1406C21.5104 11.0781 21.7213 10.9531 21.9166 10.8672C22.1119 10.7891 22.4323 10.6953 22.6354 10.6719C22.9948 10.625 23.0104 10.6172 22.9635 10.4141C22.9323 10.2891 22.8229 9.96875 22.7213 9.6875C22.6198 9.40625 22.4088 8.95312 22.2526 8.67188C22.0963 8.39062 21.776 7.875 21.5494 7.52344L21.1354 6.875H4.26819L4.11975 7.09375ZM22.0182 12.1719C21.901 12.3047 21.6198 13.0703 21.2526 14.2266C20.9244 15.2344 20.6666 16.0859 20.6666 16.1172C20.6666 16.1484 24.2369 16.1797 28.5963 16.1797C32.9557 16.1797 36.526 16.1641 36.526 16.1562C36.526 16.1484 36.276 15.3281 35.9635 14.3359C35.651 13.3516 35.3307 12.4453 35.2526 12.3281C35.1823 12.2109 35.0026 12.0547 34.8619 11.9766C34.6276 11.8516 34.1666 11.8359 28.6744 11.8281C25.3776 11.8203 22.6198 11.8438 22.4713 11.8828C22.3229 11.9219 22.1197 12.0469 22.0182 12.1719ZM4.0885 12.8359C4.04163 12.9297 3.97913 13.3203 3.95569 13.6953L3.90881 14.3828C6.9635 14.3828 7.85413 14.3516 7.85413 14.3203C7.85413 14.2891 7.74475 14.0859 7.60413 13.875C7.4635 13.6641 7.20569 13.375 7.03381 13.2422C6.86194 13.1016 6.54163 12.8984 6.33069 12.7891C6.11194 12.6797 5.78381 12.5547 5.5885 12.5078C5.39319 12.4688 5.09631 12.4297 4.92444 12.4297C4.75256 12.4297 4.51819 12.4844 4.39319 12.5469C4.276 12.6094 4.14319 12.7422 4.0885 12.8359ZM19.0651 12.7891C18.8463 12.8984 18.5338 13.1016 18.3619 13.2422C18.1901 13.375 17.9323 13.6641 17.7916 13.875C17.651 14.0859 17.5416 14.2891 17.5416 14.3203C17.5416 14.3516 18.0885 14.3828 18.7526 14.3828H19.9635C20.3932 13.0156 20.5338 12.5781 20.5494 12.5234C20.5729 12.4609 20.5104 12.4297 20.3307 12.4375C20.1979 12.4375 19.9401 12.4766 19.7682 12.5156C19.5963 12.5547 19.276 12.6797 19.0651 12.7891ZM2.22913 16.5703C2.22913 17.5078 2.23694 17.5859 2.38538 17.6641C2.47131 17.7031 2.76038 17.7422 3.03381 17.7422C3.32288 17.7422 3.56506 17.6953 3.61975 17.6406C3.68225 17.5703 3.7135 17.2266 3.7135 16.5469V15.5547H2.22913V16.5703ZM17.6823 15.8594C17.6901 15.9297 17.7369 16.0234 17.7916 16.0781C17.8619 16.1406 18.1276 16.1797 18.5729 16.1797C19.2057 16.1797 19.2604 16.1641 19.2604 16.0234C19.2604 15.9375 19.2213 15.7969 19.1823 15.7109C19.1119 15.5703 19.026 15.5547 18.4948 15.5547C18.1354 15.5547 17.8385 15.5859 17.776 15.6406C17.7135 15.6953 17.6744 15.7891 17.6823 15.8594ZM37.9166 15.9531L37.9323 16.1797C39.2291 16.1406 39.3776 16.1094 39.4479 16C39.5104 15.8984 39.5104 15.8281 39.4479 15.7266C39.3776 15.6172 39.2291 15.5859 38.7448 15.5703C38.3385 15.5547 38.0885 15.5781 38.0104 15.6406C37.9479 15.6953 37.9088 15.8359 37.9166 15.9531ZM19.7057 18.0312C19.4713 18.4062 19.1432 18.9609 18.9791 19.2656C18.8151 19.5625 18.5807 20.0938 18.4635 20.4375L18.2448 21.0625C22.1588 21.1328 22.8932 21.1797 23.0885 21.25C23.2369 21.3125 23.5104 21.4531 23.6901 21.5781C23.8776 21.7031 24.1276 21.9688 24.2604 22.1719C24.3854 22.375 24.6276 22.9844 24.7994 23.5234C24.9635 24.0547 25.1276 24.5781 25.151 24.6719L25.1979 24.8516L32.1119 24.8438C32.4166 24.1562 32.651 23.7578 32.8385 23.5234C33.026 23.2813 33.3541 22.9375 33.5807 22.7578C33.8073 22.5781 34.1979 22.3203 34.4557 22.1953C34.7135 22.0625 35.1901 21.9062 35.5104 21.8359C35.8541 21.7578 36.2916 21.7266 36.5651 21.7422C36.8229 21.7656 37.1744 21.8516 37.3463 21.9375C37.5182 22.0234 37.7916 22.2422 37.9479 22.4141C38.1276 22.6094 38.2916 22.8984 38.3619 23.1484C38.4244 23.375 38.4791 23.8516 38.4791 24.2031V24.8516H39.026C39.026 22.5156 38.9869 21.6328 38.9401 21.375C38.901 21.1094 38.7916 20.6719 38.6979 20.3984C38.6119 20.1172 38.4635 19.7422 38.3776 19.5781C38.2994 19.4062 37.9557 18.8281 37.6276 18.3047L37.0338 17.3516H20.1354L19.7057 18.0312ZM10.3229 22.4375C10.1979 22.4844 10.0338 22.6094 9.95569 22.7266C9.87756 22.8359 9.56506 23.7188 9.26038 24.6875C8.95569 25.6562 8.69006 26.4922 8.67444 26.5469C8.64319 26.6172 10.2604 26.6406 16.5807 26.6406L24.5338 26.6328C23.4791 23.2188 23.3463 22.8906 23.1432 22.6719C22.9948 22.5234 22.7604 22.3906 22.5807 22.3438C22.3932 22.2969 19.9244 22.2734 16.5651 22.2734C13.4244 22.2813 10.7916 22.2969 10.7057 22.3203C10.6198 22.3359 10.4479 22.3906 10.3229 22.4375ZM34.8619 23.2969C34.6823 23.3828 34.3541 23.6328 34.1432 23.8359C33.9244 24.0391 33.6744 24.3438 33.5729 24.5234L33.401 24.8438H37.3073C37.3073 23.8203 37.2682 23.5078 37.1901 23.3594C37.1276 23.2344 36.9635 23.0703 36.8385 23.0078C36.7057 22.9453 36.4713 22.8906 36.3073 22.8984C36.151 22.8984 35.8307 22.9531 35.6041 23.0156C35.3854 23.0781 35.0494 23.2031 34.8619 23.2969ZM5.74475 26.4844C5.81506 26.625 5.901 26.6406 6.526 26.6406H7.22913C7.22913 26.3047 7.19006 26.1641 7.13538 26.1094C7.07288 26.0469 6.81506 26.0156 6.43225 26.0156C5.90881 26.0156 5.81506 26.0391 5.74475 26.1719C5.69267 26.276 5.69267 26.3802 5.74475 26.4844ZM25.8932 26.5C25.901 26.625 25.9869 26.6406 26.6432 26.6406C27.276 26.6406 27.3932 26.6172 27.4557 26.5078C27.4869 26.4297 27.5026 26.3125 27.4791 26.25C27.4557 26.1875 27.401 26.1094 27.3541 26.0781C27.3073 26.0469 27.0182 26.0156 26.7057 26.0156C26.2135 26.0156 26.1276 26.0391 26.0182 26.1875C25.9401 26.2813 25.8854 26.4219 25.8932 26.5ZM37.5416 27.0156C37.5416 27.7109 37.5651 28.0391 37.6354 28.1094C37.6979 28.1641 37.9401 28.2031 38.2604 28.2031C38.5573 28.2031 38.8463 28.1875 38.9088 28.1641C39.0026 28.1328 39.026 27.9375 39.026 27.0703V26.0156H37.5416V27.0156ZM7.93225 33.9688C7.89319 34.1328 7.85413 34.5 7.85413 34.7891V35.3203C10.8854 35.3203 11.7604 35.2891 11.7604 35.2578C11.7604 35.2266 11.6901 35.0938 11.6041 34.9688C11.5182 34.8359 11.2994 34.5703 11.1041 34.3828C10.9166 34.1875 10.5963 33.9297 10.3854 33.8203C10.1744 33.7031 9.79163 33.5547 9.53381 33.4844C9.276 33.4141 8.94006 33.3594 8.79163 33.3594C8.64319 33.3672 8.40881 33.4375 8.26819 33.5234C8.09631 33.625 7.98694 33.7656 7.93225 33.9688ZM22.9166 33.7656C22.7291 33.8516 22.4401 34.0391 22.2682 34.1797C22.0963 34.3203 21.8385 34.6016 21.6979 34.8125C21.5573 35.0234 21.4479 35.2266 21.4479 35.2578C21.4479 35.2891 22.3307 35.3203 23.401 35.3203H25.3541C25.276 34.1641 25.2213 33.8906 25.1276 33.7578C25.0494 33.6484 24.901 33.5156 24.7994 33.4609C24.6979 33.4062 24.4869 33.3672 24.3385 33.3672C24.1901 33.375 23.8854 33.4219 23.6588 33.4844C23.4322 33.5469 23.0963 33.6719 22.9166 33.7656ZM6.13538 37.4844C6.13538 38.1875 6.16663 38.5078 6.22913 38.5781C6.29163 38.6406 6.54163 38.6797 6.88538 38.6797C7.22131 38.6797 7.47131 38.6406 7.526 38.5781C7.59631 38.5078 7.61975 38.1641 7.61975 37.4844V36.4922H6.13538V37.4844ZM25.5885 37.5391C25.5885 38.4062 25.6119 38.6016 25.7057 38.6328C25.776 38.6562 26.0729 38.6719 26.3698 38.6719C26.8385 38.6719 26.9323 38.6484 26.9948 38.5156C27.0416 38.4297 27.0729 37.9375 27.0729 37.4219V36.4844H25.5885V37.5391Z" fill="#2551E8"/>
</g>
<defs>
<clipPath id="clip0_6_181">
<rect width="40" height="40" fill="white" transform="translate(0.666626)"/>
</clipPath>
</defs>
</svg>
