<svg width="41" height="40" viewBox="0 0 41 40" fill="none" xmlns="http://www.w3.org/2000/svg">
<g clip-path="url(#clip0_6_177)">
<path fill-rule="evenodd" clip-rule="evenodd" d="M15.4427 0.15625H34.8646L35.5834 0.84375C35.9818 1.21875 37.1537 2.32812 38.1849 3.30469C39.2162 4.28906 40.1224 5.17969 40.1927 5.29688C40.3256 5.49219 40.3334 6.27344 40.3334 18.4766C40.3334 30.6641 40.3256 31.4609 40.1927 31.7188C40.1146 31.875 39.9427 32.0469 39.7865 32.125C39.5443 32.25 39.2162 32.2656 36.5443 32.2656C33.6146 32.2656 33.5599 32.2734 32.2474 32.5C30.9896 32.7109 30.7552 32.7891 27.6381 33.9062C25.8334 34.5547 23.0052 35.5781 21.349 36.1719C19.6927 36.7656 17.0052 37.7344 15.3724 38.3203C13.7396 38.9062 12.1927 39.4609 11.9349 39.5469C11.6771 39.6406 11.4349 39.7422 11.3881 39.7812C11.349 39.8125 11.2162 39.8438 11.099 39.8438C10.9818 39.8438 10.7474 39.7656 10.5912 39.6641C10.4037 39.5469 10.2474 39.3672 10.1693 39.1719C10.099 39.0078 9.04431 36.1094 7.83337 32.7344C6.61462 29.3594 5.599 26.5156 5.56775 26.4062C5.5365 26.2969 5.54431 26.125 5.57556 26.0156C5.61462 25.8984 5.74744 25.7734 5.89587 25.7109C6.09119 25.625 6.19275 25.625 6.33337 25.6953C6.42712 25.7422 6.54431 25.8438 6.59119 25.9219C6.63806 25.9922 7.68494 28.8672 8.92712 32.3047C10.5287 36.75 11.2084 38.5469 11.2787 38.5312C11.3412 38.5156 14.1302 37.5156 17.4818 36.3125C20.8334 35.1094 23.6302 34.0938 23.6927 34.0547C23.7943 34 23.7865 33.9922 23.6693 33.9844C23.599 33.9844 21.3802 34.3516 18.7474 34.8047C16.1224 35.25 13.7396 35.6641 13.4584 35.7109C13.0052 35.7969 12.9193 35.7891 12.6381 35.6562C12.4662 35.5781 12.2709 35.3984 12.2006 35.2734C12.1068 35.1172 11.3256 30.7188 9.89587 22.3828C8.70837 15.4219 7.73181 9.71875 7.724 9.71094C7.71619 9.70312 6.5365 10.1016 5.099 10.6016C3.6615 11.0938 2.27869 11.5703 2.02869 11.6641C1.70056 11.7891 1.57556 11.8672 1.60681 11.9531C1.62244 12.0156 2.57556 14.6719 3.724 17.8516C4.86462 21.0312 5.80212 23.6953 5.80212 23.7656C5.80212 23.8438 5.71619 23.9922 5.60681 24.1016C5.50525 24.2109 5.34119 24.2969 5.23962 24.2969C5.13806 24.3047 4.98181 24.2422 4.88025 24.1641C4.73962 24.0547 4.20837 22.6406 2.599 18.1641C1.44275 14.9375 0.458374 12.2422 0.411499 12.1641C0.372437 12.0938 0.333374 11.8828 0.333374 11.6953C0.333374 11.4453 0.388062 11.3047 0.544312 11.1094C0.723999 10.9062 0.981812 10.7812 2.05212 10.4062C2.76306 10.1484 4.25525 9.64062 5.37244 9.25781C6.48962 8.88281 7.42712 8.54688 7.45837 8.52344C7.49744 8.5 7.45056 8.08594 7.36462 7.61719C7.27869 7.14062 7.20837 6.59375 7.20837 6.38281C7.20837 6.10938 7.25525 5.96094 7.38806 5.79688C7.48962 5.67969 7.67712 5.54688 7.80212 5.49219C7.92712 5.4375 9.48962 5.14844 11.2709 4.85156C13.0521 4.54688 14.5365 4.29688 14.5756 4.29688C14.6068 4.29688 14.6302 3.57031 14.6302 2.67188C14.6302 1.28906 14.6537 1.01562 14.7709 0.78125C14.8412 0.632812 15.0209 0.429688 15.1693 0.335938L15.4427 0.15625ZM15.7943 9.30469C15.8099 17.0859 15.8021 17.1875 15.6537 17.3438C15.5521 17.4375 15.3881 17.5 15.224 17.5C15.0131 17.5 14.9115 17.4453 14.7865 17.2812C14.6302 17.0703 14.6302 16.9844 14.6302 11.2656L14.6381 5.46875C14.2396 5.53125 12.8412 5.77344 11.2787 6.03906L8.42712 6.53125C8.45837 6.94531 9.52869 13.2344 10.8177 20.7812C12.1068 28.3203 13.1849 34.5078 13.2006 34.5312C13.224 34.5469 16.0756 34.0781 19.5443 33.4844C23.0131 32.8906 25.9349 32.375 26.0443 32.3438C26.1537 32.3047 23.9115 32.2734 20.8646 32.2656C15.9193 32.2656 15.474 32.25 15.2162 32.125C15.0365 32.0391 14.8802 31.8828 14.7865 31.6797C14.6459 31.375 14.6381 31.1094 14.6381 25.4844C14.6381 21.7109 14.6615 19.5469 14.7162 19.4297C14.7552 19.3359 14.8802 19.2109 14.9896 19.1562C15.0912 19.1016 15.224 19.0625 15.2787 19.0547C15.3334 19.0547 15.474 19.125 15.5912 19.2109L15.8099 19.375V31.0938H39.1693V6.32812C34.7943 6.32812 34.7474 6.32812 34.4037 6.14844C34.2006 6.03906 33.9818 5.84375 33.8959 5.69531C33.7474 5.45312 33.7318 5.24219 33.7006 3.39844L33.6615 1.36719C19.9037 1.33594 15.8802 1.35156 15.849 1.375C15.8099 1.40625 15.7865 4.97656 15.7943 9.30469ZM34.9115 5.11719L38.4271 5.14844C37.2474 4.03125 36.4584 3.27344 35.9037 2.74219L34.9037 1.77344L34.9115 5.11719ZM36.2162 8.71094L36.4037 8.92969C36.5052 9.04688 36.5912 9.20312 36.5912 9.28125C36.5912 9.35156 36.5209 9.50781 36.2787 9.84375L18.974 9.85156L18.8177 9.67969C18.7318 9.59375 18.6615 9.42188 18.6615 9.30469C18.6615 9.17969 18.7084 9.02344 18.7631 8.94531C18.8177 8.875 18.9427 8.78125 19.0365 8.74219C19.1302 8.71094 23.0365 8.6875 36.2162 8.71094ZM36.2787 12.8906L36.4349 13.1094C36.5209 13.2266 36.5912 13.3672 36.5912 13.4219C36.5912 13.4688 36.5521 13.5938 36.5131 13.6953C36.4662 13.7891 36.3412 13.9141 36.2396 13.9688C36.0834 14.0391 34.1927 14.0625 19.0912 14.0625L18.8802 13.8906C18.7396 13.7656 18.6771 13.6328 18.6693 13.4453C18.6615 13.25 18.7084 13.1406 18.849 13.0312C19.0209 12.8984 19.3959 12.8906 36.2787 12.8906ZM36.2006 17.0312L36.3959 17.2266C36.5052 17.3359 36.5912 17.5078 36.5912 17.6172C36.5912 17.7266 36.5052 17.8984 36.2084 18.2031H27.6459C22.9427 18.2031 19.0287 18.1797 18.9584 18.1484C18.8881 18.1094 18.7865 17.9844 18.7318 17.8516C18.6693 17.6953 18.6615 17.5547 18.7084 17.4219C18.7474 17.3125 18.8412 17.1797 18.9115 17.1328C19.0209 17.0547 20.8802 17.0312 36.2006 17.0312ZM19.099 21.1719H27.5677C34.1927 21.1719 36.0834 21.1953 36.2396 21.2734C36.3412 21.3203 36.4662 21.4453 36.5131 21.5469C36.5521 21.6406 36.5912 21.7656 36.5912 21.8203C36.5912 21.8672 36.5209 22.0078 36.2787 22.3438H27.6615C19.4974 22.3516 19.0443 22.3438 18.8646 22.2109C18.7318 22.1172 18.6771 21.9922 18.6693 21.8047C18.6693 21.6016 18.724 21.4922 18.8802 21.3516L19.099 21.1719ZM18.9584 25.3906H36.2787L36.4349 25.6094C36.5287 25.7266 36.599 25.8828 36.5912 25.9609C36.5912 26.0391 36.5052 26.1953 36.2162 26.5234H19.0209L18.8412 26.3516C18.7396 26.25 18.6615 26.0781 18.6615 25.9453C18.6615 25.8203 18.7318 25.6484 18.8099 25.5625L18.9584 25.3906Z" fill="#2551E8"/>
</g>
<defs>
<clipPath id="clip0_6_177">
<rect width="40" height="40" fill="white" transform="translate(0.333374)"/>
</clipPath>
</defs>
</svg>
