<svg width="40" height="40" viewBox="0 0 40 40" fill="none" xmlns="http://www.w3.org/2000/svg">
<path fill-rule="evenodd" clip-rule="evenodd" d="M6.33306 7C6.68145 7 7.02984 7.06532 7.51613 7.21774C7.89355 7.33387 8.41613 7.55161 8.67742 7.70403C8.93871 7.85645 9.41048 8.24113 9.72984 8.56048C10.0492 8.87984 10.4339 9.35161 10.5863 9.6129C10.7387 9.87419 10.9492 10.346 11.0508 10.6653C11.2468 11.246 11.2468 11.2532 11.2903 16.2903H13.6129V13.9677H13.2137C12.8726 13.9677 12.7855 13.9387 12.6185 13.7645C12.4298 13.5758 12.4298 13.5468 12.4661 12.879C12.4879 12.3492 12.5387 12.1024 12.6694 11.8266C12.771 11.6234 12.9815 11.3331 13.1411 11.1734C13.3008 11.0137 13.5911 10.796 14.1573 10.5202H29.3266L29.6532 10.6798C29.8347 10.7742 30.096 10.9411 30.2339 11.05C30.3718 11.1661 30.5968 11.471 30.7347 11.725C30.9597 12.1315 30.9887 12.2694 31.025 12.879C31.054 13.5468 31.054 13.5758 30.8653 13.7645C30.7056 13.9387 30.6185 13.9677 29.871 13.9677V14.6935C29.871 15.0927 29.8202 15.804 29.7621 16.2758C29.6968 16.7403 29.5734 17.4371 29.4718 17.8145C29.3774 18.1919 29.2105 18.7508 29.1089 19.0484C29 19.346 28.7532 19.9194 28.5645 20.3185C28.3685 20.7177 28.1145 21.204 27.7806 21.7702L32.4476 26.7419H33.8411C34.6323 26.7419 35.3073 26.771 35.3871 26.8145C35.4814 26.8581 35.9895 27.8089 36.7661 29.3548C37.4484 30.7121 38 31.9024 38 32.004C38 32.1056 37.9202 32.2653 37.6444 32.5484H33.0863C29.2976 32.5484 28.5065 32.5339 28.3831 32.4468C28.3032 32.3887 28.0564 31.9823 27.4395 30.7411L27.0766 31.0895C26.8734 31.2782 26.5177 31.5685 26.2782 31.721C26.0387 31.8806 25.596 32.0911 25.2984 32.2C25.0008 32.3016 24.6379 32.425 24.5 32.4685C24.3621 32.5121 23.9048 32.5484 23.4839 32.5484C23.0629 32.5484 22.6202 32.5121 22.504 32.4758C22.3879 32.4395 22.0758 32.3379 21.8145 32.2581C21.5532 32.1782 21.1323 31.9895 20.8782 31.8444C20.6169 31.6919 20.196 31.3726 19.9419 31.1331C19.6806 30.8935 19.3395 30.5016 19.1798 30.2621C19.0202 30.0226 18.8097 29.6524 18.5484 29.0645H11.2177L11.1815 29.304C11.1669 29.4274 11.0363 29.7613 10.8984 30.0444C10.7315 30.3782 10.4992 30.6903 10.2234 30.9589C9.99113 31.1839 9.62823 31.4524 9.41774 31.554C9.21452 31.6629 8.85161 31.8008 8.61935 31.8589C8.39435 31.9169 8.02419 31.9677 7.80645 31.9677C7.58871 31.9677 7.21855 31.9169 6.98629 31.8589C6.76129 31.8008 6.39839 31.6629 6.1879 31.554C5.98468 31.4524 5.62903 31.1911 5.41129 30.9879C5.19355 30.7774 4.91048 30.4145 4.77984 30.1823C4.65645 29.9427 4.49677 29.5581 4.43871 29.3185C4.37339 29.079 4.32258 28.7016 4.32258 28.4839C4.32258 28.2661 4.37339 27.896 4.43145 27.671C4.48952 27.4387 4.62016 27.0903 4.72177 26.8871C4.82339 26.6911 5.03387 26.3863 5.47661 25.9073L5.48387 25.0218C5.48387 24.5282 5.47661 24.129 5.4621 24.129C5.45484 24.129 4.80887 24.0637 4.03226 23.9839C3.25565 23.904 2.55887 23.8387 2.48629 23.8387C2.42097 23.8387 2.28306 23.7589 2 23.4758V18.9758L2.35565 18.6129H6.06452V17.6331C6.06452 16.6895 6.07177 16.646 6.24597 16.4718C6.40564 16.3048 6.47097 16.2903 7.80645 16.2903V14.1274C7.80645 12.6685 7.77742 11.8774 7.71936 11.6815C7.66129 11.5073 7.4871 11.246 7.2621 11.0282C7.04435 10.8032 6.78306 10.629 6.60887 10.571C6.44919 10.5274 6.20968 10.4839 6.07903 10.4839C5.92661 10.4839 5.78145 10.4185 5.66532 10.3024C5.48387 10.121 5.48387 10.121 5.48387 8.74194C5.49113 7.37742 5.49113 7.35565 5.66532 7.18145C5.81774 7.02177 5.90484 7 6.33306 7ZM6.73226 9.39516C6.78306 9.39516 7.05161 9.50403 7.33468 9.64194C7.65403 9.79435 7.96613 10.0266 8.16935 10.2444C8.34355 10.4331 8.59032 10.8032 8.71371 11.0645L8.93145 11.5363L8.96774 16.2903H10.129C10.0855 11.4274 10.0855 11.3839 9.90403 10.9194C9.80968 10.6581 9.63548 10.2952 9.52661 10.1065C9.41774 9.91048 9.14919 9.57661 8.93145 9.35887C8.71371 9.14113 8.37984 8.87258 8.18387 8.76371C7.99516 8.65484 7.63952 8.4879 7.38548 8.40081C7.13871 8.30645 6.87016 8.23387 6.79032 8.23387C6.65968 8.23387 6.64516 8.28468 6.64516 8.81452C6.64516 9.22823 6.67419 9.39516 6.73226 9.39516ZM13.896 12.0081C13.8234 12.1097 13.7363 12.2766 13.6927 12.3927C13.6492 12.5016 13.6129 12.6395 13.6129 12.6976C13.6129 12.7919 14.5637 12.8065 21.7565 12.8065H29.9073C29.8202 12.4435 29.7331 12.2548 29.6605 12.1532C29.5879 12.0516 29.4355 11.9065 29.3339 11.8266C29.1379 11.6815 29.0073 11.6815 21.829 11.6669C16.0734 11.6524 14.4694 11.6669 14.2661 11.7395C14.1282 11.7903 13.9613 11.9137 13.896 12.0081ZM14.7742 16.2903C23.9556 16.2831 24.2532 16.2903 24.4129 16.4137C24.5581 16.5226 24.6306 16.7403 24.8411 17.7056C25.0371 18.6202 25.1315 18.9105 25.2766 19.0847C25.3782 19.2081 25.7992 19.6581 26.2056 20.1008L26.9532 20.8992C27.2363 20.3911 27.454 19.9702 27.6137 19.629C27.7734 19.2879 27.9984 18.7145 28.1145 18.3589C28.2379 18.0032 28.4048 17.35 28.4919 16.9073C28.579 16.4645 28.6661 15.6298 28.6952 15.0347L28.746 13.9677H14.7742V16.2903ZM7.22581 18.6129C22.1484 18.6129 23.8395 18.5911 23.8177 18.5258C23.8032 18.475 23.7524 18.2137 23.6944 17.9379L23.5927 17.4516H7.22581V18.6129ZM3.16129 21.2621C3.16129 22.5395 3.17581 22.75 3.27016 22.75C3.32823 22.75 6.93548 23.0911 11.2903 23.5121L19.2016 24.2742C20.1887 23.2798 20.5806 22.9605 20.9073 22.779C21.1903 22.6266 21.6621 22.4234 21.9597 22.329C22.2718 22.2347 22.7871 22.1476 23.1573 22.1185C23.5129 22.0968 23.9847 22.1113 24.1879 22.1403C24.5073 22.1984 24.5726 22.1911 24.5726 22.0968C24.5653 22.0387 24.4637 21.5016 24.3331 20.8992L24.1008 19.8105L3.16129 19.7742V21.2621ZM25.7629 22.0097L25.9153 22.6774C26.5903 23.1129 26.9968 23.4685 27.2581 23.7371C27.5194 24.0129 27.8605 24.4629 28.0202 24.746C28.1726 25.0218 28.3831 25.5008 28.4774 25.7984C28.5718 26.096 28.6661 26.604 28.6879 26.9234C28.7169 27.2645 28.6952 27.7435 28.6371 28.0847C28.5863 28.404 28.4702 28.8758 28.3685 29.1371L28.1944 29.6089L29.0726 31.3871H36.4758L34.7339 27.9032H31.9758C31.6492 27.5911 30.2919 26.1468 28.746 24.4919C27.2 22.8371 25.879 21.4218 25.8137 21.3419C25.7484 21.2694 25.6758 21.2403 25.654 21.2694C25.6323 21.3056 25.6758 21.6395 25.7629 22.0097ZM22.0685 23.5266C21.8726 23.5992 21.546 23.7589 21.3427 23.875C21.1468 23.9911 20.7984 24.2669 20.5806 24.4919C20.3629 24.7169 20.0798 25.0944 19.9565 25.3339C19.8331 25.5661 19.6661 25.9435 19.5935 26.1613C19.4919 26.4516 19.4556 26.771 19.4556 27.3226C19.4556 27.8742 19.4919 28.1935 19.5935 28.4839C19.6661 28.7016 19.8331 29.079 19.9565 29.3113C20.0798 29.5508 20.3847 29.95 20.6387 30.204C20.9653 30.5379 21.2484 30.7411 21.6911 30.9444C22.025 31.1113 22.504 31.271 22.7944 31.3218C23.0774 31.3653 23.5274 31.3871 23.8105 31.3653C24.0935 31.3363 24.5145 31.2492 24.754 31.1694C24.9935 31.0823 25.3565 30.9226 25.5524 30.8065C25.7556 30.6976 26.104 30.4145 26.3435 30.175C26.5758 29.9427 26.8589 29.5871 26.975 29.3911C27.0839 29.1879 27.2435 28.8323 27.3306 28.5927C27.4105 28.3532 27.4976 27.925 27.5266 27.6492C27.5484 27.3661 27.5266 26.9161 27.4831 26.6331C27.4323 26.35 27.2726 25.871 27.1202 25.5444C26.9315 25.1524 26.6992 24.8185 26.4161 24.5282C26.1766 24.2815 25.8282 23.9911 25.625 23.875C25.429 23.7589 25.0516 23.5847 24.7903 23.4903C24.4637 23.3742 24.1153 23.3089 23.6653 23.2944C23.3097 23.2726 22.8815 23.2944 22.7218 23.3234C22.5621 23.3597 22.2718 23.454 22.0685 23.5266ZM6.65242 25.1815C7.24032 25.0435 7.58871 25 7.80645 25C8.02419 25 8.40161 25.0508 8.64113 25.1161C8.88064 25.1742 9.26532 25.3339 9.50484 25.4573C9.7371 25.5879 10.1 25.871 10.3105 26.0887C10.5137 26.3065 10.775 26.6621 10.8839 26.8653C10.9855 27.0758 11.1089 27.3952 11.1452 27.5766L11.2177 27.9032H18.2218C18.3016 26.6839 18.3887 26.1395 18.4685 25.871C18.5484 25.6097 18.6065 25.3992 18.5992 25.3919C18.5919 25.3919 15.9718 25.1379 12.7782 24.8258C9.58468 24.521 6.89919 24.2742 6.8121 24.2742C6.65968 24.2742 6.64516 24.3032 6.64516 24.7242L6.65242 25.1815ZM6.44919 26.6113C6.28226 26.7274 6.05 26.9597 5.93387 27.1266C5.81774 27.2935 5.66532 27.6129 5.59274 27.8306C5.50565 28.1137 5.47661 28.3605 5.50565 28.6653C5.52742 28.9048 5.62177 29.2677 5.71613 29.4637C5.81048 29.6669 6.01371 29.9645 6.18064 30.1242C6.34032 30.2839 6.63064 30.4944 6.83387 30.596C7.13145 30.7411 7.29839 30.7702 7.81371 30.7702C8.32903 30.7702 8.48871 30.7339 8.79355 30.5815C8.98952 30.4798 9.25081 30.3129 9.37419 30.2113C9.49032 30.1169 9.70081 29.8266 9.84597 29.5653C10.071 29.1444 10.0927 29.05 10.0927 28.4839C10.0927 27.9758 10.0637 27.8089 9.91855 27.504C9.81694 27.3081 9.60645 27.0105 9.44677 26.8508C9.2871 26.6911 8.98952 26.4806 8.79355 26.3863C8.54677 26.2702 8.26371 26.2048 7.92258 26.1903C7.57419 26.1685 7.3129 26.1976 7.0879 26.2847C6.90645 26.35 6.62339 26.4952 6.44919 26.6113ZM23.6363 24.4484C24.05 24.4702 24.2895 24.521 24.6524 24.6879C24.9137 24.804 25.2839 25.0435 25.4726 25.225C25.6976 25.4355 25.9226 25.7403 26.0895 26.0887C26.3435 26.5968 26.3581 26.6694 26.3581 27.3226C26.3581 27.9831 26.3435 28.0556 26.0895 28.5637C25.9226 28.9121 25.6976 29.2169 25.4726 29.4274C25.2839 29.6016 24.9137 29.8484 24.6524 29.9718C24.2315 30.1677 24.1081 30.1895 23.4911 30.1895C22.8742 30.1895 22.7508 30.1677 22.3298 29.9718C22.0685 29.8484 21.6984 29.6016 21.5024 29.4274C21.2774 29.2169 21.0597 28.9121 20.8855 28.5637C20.6387 28.0556 20.6242 27.9831 20.6242 27.3298C20.6242 26.7056 20.646 26.5895 20.8419 26.1613C20.9653 25.9073 21.1976 25.5444 21.3573 25.3629C21.5242 25.1887 21.8508 24.9347 22.0831 24.8113C22.3153 24.6806 22.6419 24.5427 22.8016 24.4992C22.9613 24.4629 23.3387 24.4411 23.6363 24.4484ZM22.2863 26.125C22.0685 26.35 21.8871 26.604 21.8363 26.7782C21.7927 26.9379 21.7492 27.1847 21.7492 27.3226C21.7492 27.4677 21.7927 27.7073 21.8363 27.8669C21.8871 28.0484 22.0685 28.3024 22.2863 28.5274C22.5113 28.7524 22.7653 28.9266 22.9468 28.9774C23.1065 29.0282 23.3532 29.0645 23.4911 29.0645C23.629 29.0645 23.8758 29.0282 24.0355 28.9774C24.2097 28.9266 24.4637 28.7524 24.6887 28.5274C24.9137 28.3024 25.0879 28.0484 25.1387 27.8669C25.1895 27.7073 25.2258 27.4677 25.2258 27.3226C25.2258 27.1847 25.1895 26.9379 25.1387 26.7782C25.0879 26.604 24.9137 26.35 24.6887 26.125C24.4637 25.9 24.2097 25.7258 24.0355 25.675C23.8758 25.6242 23.6145 25.5879 23.4548 25.5952C23.2952 25.5952 23.0484 25.6315 22.9105 25.6823C22.7726 25.7258 22.4895 25.9218 22.2863 26.125ZM7.79194 27.3298C7.92258 27.3298 8.13306 27.3661 8.26371 27.4242C8.39435 27.475 8.59032 27.6202 8.69919 27.7508C8.80806 27.8742 8.92419 28.0992 8.94597 28.2516C8.96774 28.404 8.96774 28.6363 8.93871 28.7742C8.90968 28.9266 8.77177 29.1444 8.61935 29.2968C8.44516 29.471 8.26129 29.5774 8.06774 29.6161C7.90806 29.6379 7.66129 29.6379 7.52339 29.6161C7.37823 29.5798 7.15323 29.4492 7.00081 29.2968C6.82661 29.1177 6.72258 28.9315 6.68871 28.7379C6.65968 28.5782 6.65242 28.346 6.68145 28.2153C6.70323 28.0847 6.79758 27.8742 6.89194 27.7508C6.98629 27.6274 7.175 27.4823 7.3129 27.4315C7.44355 27.3734 7.66129 27.3298 7.79194 27.3298Z" fill="#111111"/>
</svg>
