<svg width="40" height="40" viewBox="0 0 40 40" fill="none" xmlns="http://www.w3.org/2000/svg">
<path fill-rule="evenodd" clip-rule="evenodd" d="M27.0267 9.00128C27.8788 8.99258 28.2614 9.02737 28.4962 9.13171C28.6788 9.20127 28.957 9.38387 29.1135 9.54039C29.27 9.6969 29.4352 9.95776 29.4787 10.123C29.5309 10.2882 29.5657 10.7229 29.5657 11.0794C29.5657 11.5751 29.5222 11.7664 29.4092 11.8881C29.3048 12.0011 29.1309 12.0446 28.3483 12.0359V14.3837H30.5656C32.4177 14.3837 32.8003 14.401 32.9134 14.5141C33.0177 14.6184 33.0438 14.8967 33.0438 17.1661H34.1307C35.1046 17.1661 35.235 17.1835 35.3915 17.34C35.5567 17.5053 35.5654 17.6357 35.5741 21.3833L36.0263 21.6442C36.3306 21.8181 36.5567 22.0442 36.7393 22.3311C36.9393 22.6702 37.0088 22.8876 37.0349 23.3311C37.0523 23.6441 37.0262 24.0441 36.974 24.2093C36.9132 24.3745 36.7306 24.6875 36.548 24.8962C36.3654 25.1136 36.0263 25.3745 35.7828 25.4875C35.4263 25.6527 35.2002 25.6875 34.4959 25.6875C34.035 25.6875 33.6351 25.7136 33.6177 25.7571C33.5916 25.7918 34.5394 26.3744 37.8697 28.2961H38.8001C39.6783 28.2961 39.7478 28.3048 39.8696 28.4961C39.9739 28.6439 40 28.9569 40 29.8612C40 30.9568 39.9826 31.0525 39.6087 31.4351L0.393053 31.4264L0.193062 31.2264C0.0104616 31.0438 -0.00692905 30.9655 0.00176622 29.8612C0.00176622 28.9656 0.027852 28.6439 0.132195 28.4961C0.253929 28.3135 0.323491 28.2961 2.00168 28.2961V27.1657H1.67126C1.49735 27.1657 1.26258 27.1048 0.958246 26.9048V19.9921C0.958246 13.8185 0.975636 13.062 1.09737 12.9489C1.16693 12.8794 1.27128 12.8185 1.31475 12.8185C1.35823 12.8185 1.39301 12.3663 1.39301 11.8012C1.39301 10.949 1.41909 10.749 1.54952 10.6186C1.67995 10.4882 1.86255 10.4621 3.00163 10.4708C4.11463 10.4708 4.33201 10.4969 4.46244 10.6273C4.59287 10.749 4.61895 10.9316 4.61026 12.8185H6.34931C7.91446 12.8185 8.12315 12.8359 8.43618 12.9924C8.62747 13.0881 8.87963 13.2967 9.00137 13.4533C9.1231 13.6011 9.27962 13.9315 9.34918 14.1663C9.45352 14.5054 9.47961 15.0445 9.47961 16.5401C9.47961 18.2965 9.497 18.5052 9.65351 18.8182C9.74916 19.0095 9.84481 19.166 9.8709 19.166C9.89698 19.166 9.97524 19.1834 10.0448 19.2095C10.1578 19.2443 10.1752 19.0965 10.1752 18.1661C10.1752 17.1922 10.1926 17.0618 10.3491 16.9053C10.523 16.7314 10.6361 16.7314 17.1054 16.7314C22.8355 16.7314 23.7225 16.7488 23.8877 16.8618C24.0877 16.9922 24.0877 17.027 24.0877 20.2964H28.5222V17.427L28.2353 17.6357C28.0875 17.7487 27.8005 17.8878 27.6092 17.9487C27.4006 18.0183 27.0962 18.0357 26.8267 18.0009C26.5832 17.9748 26.2267 17.8531 26.018 17.7313C25.8093 17.6096 25.5398 17.34 25.3919 17.1053C25.2441 16.8705 25.1311 16.6009 25.1311 16.2966H21.6704C18.5401 16.2966 18.1836 16.2792 17.8705 16.1401C17.6792 16.0531 17.4358 15.8618 17.3227 15.7227C17.2184 15.5836 17.088 15.3575 17.0358 15.2097C16.9749 15.0358 16.9749 14.8358 17.0358 14.601C17.088 14.4097 17.2532 14.1315 17.4097 13.975C17.5662 13.8272 17.801 13.6532 17.9314 13.6098C18.0879 13.5489 19.5139 13.5141 25.8267 13.5141L25.7832 12.0794L25.305 12.0533C25.0441 12.0359 24.7746 11.9751 24.7137 11.9229C24.6355 11.8533 24.6007 11.5577 24.6094 10.9751C24.6094 10.4186 24.6529 10.036 24.7311 9.8882C24.8007 9.74907 24.9485 9.55778 25.0615 9.45343C25.1659 9.34909 25.4006 9.20997 25.5659 9.1404C25.7832 9.04476 26.2006 9.00128 27.018 9.00128H27.0267ZM25.4876 10.7751V11.1664H28.6179C28.6179 10.523 28.5831 10.2969 28.5483 10.2447C28.5135 10.1925 28.4005 10.1056 28.2875 10.0447C28.1744 9.99254 27.6527 9.94906 27.0093 9.94906C25.9658 9.94906 25.905 9.95776 25.705 10.1664C25.5485 10.323 25.4963 10.4708 25.4876 10.7751ZM2.27123 12.8185H3.66247V11.4273H2.27123V12.8185ZM26.6875 13.0968L26.7049 14.0358H27.4006V12.0359C26.9484 12.0359 26.7919 12.062 26.7484 12.0968C26.7049 12.1229 26.6788 12.575 26.6875 13.0968ZM1.81908 20.0008L1.83647 26.2092H6.44496L6.40148 13.7315C3.02772 13.7141 1.99298 13.7228 1.92342 13.7489C1.81908 13.7837 1.80169 14.6445 1.81908 20.0008ZM7.2971 20.4008C7.31449 26.9135 7.31449 26.9918 7.14058 27.0787C7.04493 27.1309 6.81016 27.1657 6.61886 27.1657H6.27105V28.2961H11.1404V27.1657C10.4448 27.1657 10.3404 27.1309 10.2709 26.9918C10.2187 26.8874 10.1839 25.5397 10.1839 23.5137V20.2095C9.74916 20.1225 9.46222 19.9573 9.27962 19.7834C9.08832 19.6095 8.85355 19.2965 8.7579 19.0791C8.59269 18.7226 8.5753 18.4791 8.53182 16.514C8.49704 14.6358 8.47096 14.2967 8.33183 14.0967C8.25358 13.9663 8.08836 13.8272 7.96663 13.775C7.8449 13.7228 7.67969 13.688 7.59274 13.688C7.50578 13.688 7.40144 13.7141 7.35796 13.7489C7.31449 13.775 7.2884 16.7749 7.2971 20.4008ZM17.9749 14.801C17.9227 14.9749 17.9488 15.0706 18.0705 15.1923C18.2184 15.3314 18.4792 15.3488 21.7052 15.3401L25.1833 15.3314C25.5832 14.6967 25.7137 14.488 25.7224 14.4445C25.7398 14.4097 24.1137 14.3837 22.1225 14.3923C19.9052 14.3923 18.401 14.4358 18.2705 14.488C18.1488 14.5315 18.0184 14.6793 17.9749 14.801ZM26.1397 15.514C26.0702 15.6619 26.0093 15.8879 26.0093 16.0358C26.0093 16.1836 26.0615 16.401 26.131 16.5314C26.1919 16.6705 26.3484 16.8444 26.4789 16.9227C26.6093 17.0183 26.8701 17.0792 27.0962 17.0792C27.3832 17.0792 27.5571 17.027 27.7484 16.8618C27.8962 16.7401 28.044 16.5053 28.0875 16.314C28.1397 16.1227 28.1397 15.8792 28.0875 15.7053C28.044 15.5575 27.8788 15.3314 27.7223 15.2097C27.531 15.0619 27.331 15.001 27.0962 15.001C26.9049 15.001 26.6441 15.0532 26.5049 15.1227C26.3745 15.1923 26.2093 15.3662 26.1397 15.514ZM29.0092 15.9749C29.0092 16.514 28.9744 16.7575 28.8527 16.9314C28.7744 17.0618 28.7222 17.1748 28.7396 17.1835C28.757 17.2009 29.5222 17.2009 30.4352 17.1835L32.096 17.1661V15.2532H29.0092V15.9749ZM11.1404 19.253C12.1838 19.253 12.2795 19.2269 12.3577 19.0791C12.4012 18.9834 12.5664 18.8269 12.7229 18.7313C13.0012 18.5661 13.1664 18.5574 17.1141 18.5574C20.5922 18.5574 21.2617 18.5748 21.4878 18.6878C21.6269 18.7574 21.8269 18.9226 21.9225 19.0617C22.0182 19.1921 22.1225 19.4182 22.1573 19.5573C22.1834 19.7312 22.1399 19.9486 22.0269 20.2095C21.9225 20.4356 21.7312 20.6703 21.5747 20.7573C21.3313 20.8964 20.9574 20.9051 17.0706 20.9051L12.836 20.8964C12.1578 20.2269 12.1056 20.2008 11.636 20.2095H11.1404V26.2962H23.1399C23.2094 25.9571 23.2268 24.0267 23.2268 21.7746V17.6879H11.1404V19.253ZM29.4874 20.2964C29.9917 20.3747 30.27 20.4877 30.4352 20.5834C30.6004 20.6877 30.8004 20.879 30.8874 21.0181L31.0526 21.2529H34.6176V18.1226H29.4874V20.2964ZM13.1055 19.8356C13.1925 19.9834 13.4446 19.9921 17.0184 20.0182C19.114 20.0269 20.9226 20.0182 21.0269 19.9921C21.1487 19.966 21.2269 19.8878 21.2269 19.7747C21.2269 19.6791 21.1487 19.566 21.053 19.5139C20.94 19.4617 19.4531 19.4269 17.1141 19.4269C13.9751 19.4269 13.3229 19.4443 13.1838 19.5486C13.0447 19.653 13.0273 19.7052 13.1055 19.8356ZM24.0964 25.7745L29.8526 25.731C30.27 25.2527 30.27 25.2267 30.27 23.4702V21.6877L29.8352 21.2529H24.0964V25.7745ZM31.2265 24.818C35.148 24.7745 35.3219 24.7658 35.5306 24.6006C35.6611 24.5049 35.8524 24.3136 35.9567 24.1832C36.0871 24.0093 36.1393 23.8093 36.1393 23.4876C36.1393 23.1398 36.0871 22.9659 35.9219 22.7398C35.8002 22.5746 35.5741 22.3833 35.4176 22.3224C35.2176 22.2442 34.6002 22.2094 33.1829 22.2094H31.2265V24.818ZM30.2004 26.5309C30.0439 26.5918 29.6874 26.644 29.4005 26.644H28.8788V28.2961H32.009V25.6875C31.1221 25.6875 31.0787 25.7136 30.7917 26.0527C30.6265 26.2527 30.3569 26.4701 30.2004 26.5309ZM32.8786 28.2961C35.235 28.2961 35.9219 28.2874 35.9219 28.2787C35.9306 28.2613 35.2698 27.87 34.4698 27.4092C33.6611 26.9396 32.9742 26.557 32.9394 26.557C32.9047 26.557 32.8786 26.9483 32.8786 27.4266V28.2961ZM23.992 27.0527C23.9051 27.1309 23.1747 27.1657 21.3573 27.1831L18.8357 27.2092L18.7922 28.2961H24.4442C24.4442 26.7048 24.4268 26.644 24.2703 26.644C24.1572 26.644 24.0964 26.7048 24.0964 26.8005C24.1051 26.8787 24.0529 27.0005 23.992 27.0527ZM25.4006 28.2961H27.9223V26.644H25.4006V28.2961ZM2.96685 28.2961H5.40153V27.1657H2.96685V28.2961ZM12.0969 28.2961H17.9227L17.8792 27.2092L12.0969 27.1657V28.2961ZM0.966941 30.4699H39.0522V29.2526H0.966941V30.4699ZM14.9055 22.6442C16.3663 22.6442 16.5923 22.6615 16.7315 22.8007C16.8619 22.9224 16.888 23.105 16.888 24.0354C16.888 24.8354 16.8532 25.1658 16.7575 25.2962C16.6445 25.4527 16.5228 25.4701 14.9924 25.4875C13.6446 25.5136 13.3229 25.4875 13.1664 25.3832C12.9751 25.2614 12.9664 25.1919 12.9577 24.0876C12.9577 23.105 12.9751 22.8963 13.0968 22.7833C13.2186 22.6615 13.5055 22.6442 14.9055 22.6442ZM13.8359 24.5571H15.9228V23.6006H13.8359V24.5571ZM19.6009 22.8181C20.6878 22.8181 21.053 22.8441 21.1834 22.9398C21.34 23.0528 21.3573 23.1659 21.3573 24.2093C21.3573 25.2527 21.34 25.3658 21.1834 25.4788C21.053 25.5745 20.6791 25.6005 19.5574 25.6005C18.1401 25.6005 18.0966 25.5919 17.9662 25.4006C17.8705 25.2527 17.8358 24.9571 17.8358 24.1832C17.8358 23.2789 17.8532 23.1485 18.0097 22.992C18.1662 22.8268 18.3053 22.8181 19.6009 22.8181ZM18.7922 24.6441H20.4443V23.7745H18.7922V24.6441Z" fill="#111111"/>
</svg>
