<svg width="40" height="40" viewBox="0 0 40 40" fill="none" xmlns="http://www.w3.org/2000/svg">
<path d="M17.75 5.5C17.75 5.16848 17.8817 4.85054 18.1161 4.61612C18.3505 4.3817 18.6685 4.25 19 4.25H38.75C39.0815 4.25 39.3995 4.3817 39.6339 4.61612C39.8683 4.85054 40 5.16848 40 5.5C40 5.83152 39.8683 6.14946 39.6339 6.38388C39.3995 6.6183 39.0815 6.75 38.75 6.75H19C18.6685 6.75 18.3505 6.6183 18.1161 6.38388C17.8817 6.14946 17.75 5.83152 17.75 5.5ZM38.75 11.75H28C27.6685 11.75 27.3505 11.8817 27.1161 12.1161C26.8817 12.3505 26.75 12.6685 26.75 13C26.75 13.3315 26.8817 13.6495 27.1161 13.8839C27.3505 14.1183 27.6685 14.25 28 14.25H38.75C39.0815 14.25 39.3995 14.1183 39.6339 13.8839C39.8683 13.6495 40 13.3315 40 13C40 12.6685 39.8683 12.3505 39.6339 12.1161C39.3995 11.8817 39.0815 11.75 38.75 11.75ZM38.75 19.25H28.75C28.4185 19.25 28.1005 19.3817 27.8661 19.6161C27.6317 19.8505 27.5 20.1685 27.5 20.5C27.5 20.8315 27.6317 21.1495 27.8661 21.3839C28.1005 21.6183 28.4185 21.75 28.75 21.75H38.75C39.0815 21.75 39.3995 21.6183 39.6339 21.3839C39.8683 21.1495 40 20.8315 40 20.5C40 20.1685 39.8683 19.8505 39.6339 19.6161C39.3995 19.3817 39.0815 19.25 38.75 19.25Z" fill="white"/>
<path d="M1.11612 27.6161C0.881695 27.8505 0.75 28.1685 0.75 28.5C0.75 28.8315 0.881695 29.1495 1.11612 29.3839C1.35054 29.6183 1.66848 29.75 2 29.75H38.75C39.0815 29.75 39.3995 29.6183 39.6339 29.3839C39.8683 29.1495 40 28.8315 40 28.5C40 28.1685 39.8683 27.8505 39.6339 27.6161C39.3995 27.3817 39.0815 27.25 38.75 27.25H2C1.66848 27.25 1.35054 27.3817 1.11612 27.6161Z" fill="white"/>
<path d="M1.11612 34.6161C0.881695 34.8505 0.75 35.1685 0.75 35.5C0.75 35.8315 0.881695 36.1495 1.11612 36.3839C1.35054 36.6183 1.66848 36.75 2 36.75H38.75C39.0815 36.75 39.3995 36.6183 39.6339 36.3839C39.8683 36.1495 40 35.8315 40 35.5C40 35.1685 39.8683 34.8505 39.6339 34.6161C39.3995 34.3817 39.0815 34.25 38.75 34.25H2C1.66848 34.25 1.35054 34.3817 1.11612 34.6161Z" fill="white"/>
<path d="M22.8906 20.0008H22.1405C22.0411 20.0008 21.9457 19.9613 21.8753 19.891C21.805 19.8206 21.7655 19.7253 21.7655 19.6258V16.6256C21.7655 16.5262 21.805 16.4308 21.8753 16.3605C21.9457 16.2901 22.0411 16.2506 22.1405 16.2506H22.8906C23.1889 16.2506 23.4751 16.1321 23.6861 15.9211C23.8971 15.7101 24.0156 15.4239 24.0156 15.1255C24.0156 14.8272 23.8971 14.541 23.6861 14.33C23.4751 14.119 23.1889 14.0005 22.8906 14.0005H22.1405C21.4443 14.0005 20.7766 14.2771 20.2843 14.7694C19.792 15.2617 19.5154 15.9294 19.5154 16.6256V17.0007H18.6078C18.3982 16.2664 17.9894 15.6045 17.4268 15.0882C16.8642 14.5719 16.1697 14.2214 15.4202 14.0755L12.12 6.15413C11.9777 5.81254 11.7375 5.52069 11.4297 5.31531C11.1219 5.10994 10.7602 5.00023 10.3902 5H2.26445C2.01821 5 1.77437 5.0485 1.54688 5.14273C1.31938 5.23697 1.11267 5.37509 0.93855 5.5492C0.5869 5.90085 0.389346 6.37779 0.389346 6.8751V16.41C0.101978 17.0383 -0.022962 17.7288 0.0259939 18.418C0.0749498 19.1072 0.296233 19.7731 0.669533 20.3545C1.04283 20.9359 1.55619 21.4142 2.16249 21.7456C2.76879 22.077 3.44861 22.2507 4.13955 22.2509H14.6401C15.5376 22.2498 16.4103 21.9563 17.1262 21.415C17.8421 20.8737 18.3622 20.114 18.6078 19.2508H19.5154V19.6258C19.5154 20.322 19.792 20.9897 20.2843 21.482C20.7766 21.9744 21.4443 22.2509 22.1405 22.2509H22.8906C23.1889 22.2509 23.4751 22.1324 23.6861 21.9214C23.8971 21.7104 24.0156 21.4243 24.0156 21.1259C24.0156 20.8275 23.8971 20.5413 23.6861 20.3303C23.4751 20.1193 23.1889 20.0008 22.8906 20.0008ZM12.9525 14.0005H6.38967V7.25012H10.1399L12.9525 14.0005ZM4.13955 7.25012V14.0005C3.62636 13.9999 3.11759 14.0953 2.63947 14.2818V7.25012H4.13955ZM14.6401 20.0008H4.13955C3.64224 20.0008 3.1653 19.8033 2.81365 19.4516C2.462 19.1 2.26445 18.623 2.26445 18.1257C2.26445 17.6284 2.462 17.1515 2.81365 16.7998C3.1653 16.4482 3.64224 16.2506 4.13955 16.2506H14.6401C15.1374 16.2506 15.6144 16.4482 15.966 16.7998C16.3177 17.1515 16.5152 17.6284 16.5152 18.1257C16.5152 18.623 16.3177 19.1 15.966 19.4516C15.6144 19.8033 15.1374 20.0008 14.6401 20.0008Z" fill="white"/>
</svg>
