<?xml version="1.0" encoding="utf-8"?><svg viewBox="0 0 40 40" xmlns="http://www.w3.org/2000/svg" xmlns:xlink="http://www.w3.org/1999/xlink"><style>:root>svg{display:none}:root>svg:target{display:block}</style><svg viewBox="0 0 24 24" id="arrow-next" xmlns="http://www.w3.org/2000/svg"><path d="M5 12h14m0 0l-7-7m7 7l-7 7"/></svg><svg viewBox="0 0 24 24" id="arrow-prev" xmlns="http://www.w3.org/2000/svg"><path d="M12 19l-7-7m0 0l7-7m-7 7h14"/></svg><svg viewBox="0 0 24 24" id="insta" xmlns="http://www.w3.org/2000/svg"><path d="M12.925 3c1.013.003 1.527.008 1.97.02l.175.007c.202.007.4.016.64.027.959.045 1.612.196 2.185.418A4.388 4.388 0 0119.49 4.51c.458.45.812.994 1.038 1.595.222.573.373 1.227.418 2.185.01.24.02.438.027.64l.006.175c.013.443.018.957.02 1.97l.001.671v1.179a71.02 71.02 0 01-.02 1.97l-.006.174c-.007.202-.016.401-.027.64-.045.959-.198 1.611-.42 2.186a4.41 4.41 0 01-1.037 1.594 4.41 4.41 0 01-1.595 1.038c-.573.222-1.226.374-2.184.419l-.64.027-.175.005c-.444.013-.958.019-1.97.02l-.672.002h-1.178a70.318 70.318 0 01-1.97-.021l-.175-.005a57.078 57.078 0 01-.64-.028c-.958-.045-1.611-.197-2.186-.419a4.41 4.41 0 01-1.593-1.038 4.41 4.41 0 01-1.039-1.594c-.222-.574-.373-1.227-.418-2.185l-.027-.641-.005-.175a71.1 71.1 0 01-.022-1.969v-1.85c-.003-.657.004-1.313.02-1.97l.006-.174c.007-.203.016-.402.027-.64.045-.96.196-1.612.418-2.186a4.41 4.41 0 011.04-1.595 4.41 4.41 0 011.593-1.038c.575-.222 1.227-.373 2.186-.418.239-.01.439-.02.64-.027l.175-.005A71.104 71.104 0 0111.076 3L12.925 3zM12 7.5a4.5 4.5 0 100 9 4.5 4.5 0 000-9zm0 1.8a2.7 2.7 0 110 5.398A2.7 2.7 0 0112 9.3m4.725-3.15a1.125 1.125 0 100 2.25 1.125 1.125 0 000-2.25z"/></svg><svg viewBox="0 0 25 24" id="navbar-1" xmlns="http://www.w3.org/2000/svg"><path d="M21.333 6h-18m12 6h-12m14 6h-14"/></svg><svg viewBox="0 0 24 24" id="navbar-2" xmlns="http://www.w3.org/2000/svg"><path d="M8.277 19.211a8.05 8.05 0 10-3.488-3.488L3 21l5.277-1.789z"/></svg><svg viewBox="0 0 25 24" id="navbar-3" xmlns="http://www.w3.org/2000/svg"><path d="M20.666 15.98v2.408a1.604 1.604 0 01-1.093 1.527 1.613 1.613 0 01-.66.079 15.942 15.942 0 01-6.943-2.465 15.672 15.672 0 01-4.827-4.818 15.868 15.868 0 01-2.47-6.96 1.603 1.603 0 01.952-1.614c.205-.09.426-.137.65-.137h2.412a1.61 1.61 0 011.61 1.381c.101.77.29 1.528.563 2.256a1.604 1.604 0 01-.362 1.694l-1.022 1.02a12.86 12.86 0 004.827 4.817l1.021-1.02a1.61 1.61 0 011.698-.36c.73.271 1.488.46 2.26.561a1.61 1.61 0 011.384 1.63z"/></svg><svg viewBox="0 0 21 20" id="pag-next" xmlns="http://www.w3.org/2000/svg"><path d="M8 15l5-5-5-5"/></svg><svg viewBox="0 0 21 20" id="pag-prev" xmlns="http://www.w3.org/2000/svg"><path d="M13 15l-5-5 5-5"/></svg><svg viewBox="0 0 24 24" id="sort" xmlns="http://www.w3.org/2000/svg"><path d="M3 6h18M7 12h10m-7 6h4"/></svg><svg viewBox="0 0 24 24" id="telegram-call" xmlns="http://www.w3.org/2000/svg"><path d="M12 2C6.48 2 2 6.48 2 12s4.48 10 10 10 10-4.48 10-10S17.52 2 12 2zm4.64 6.8c-.15 1.58-.8 5.42-1.13 7.19-.14.75-.42 1-.68 1.03-.58.05-1.02-.38-1.58-.75-.88-.58-1.38-.94-2.23-1.5-.99-.65-.35-1.01.22-1.59.15-.15 2.71-2.48 2.76-2.69a.2.2 0 00-.05-.18c-.06-.05-.14-.03-.21-.02-.09.02-1.49.95-4.22 2.79-.4.27-.76.41-1.08.4-.36-.01-1.04-.2-1.55-.37-.63-.2-1.12-.31-1.08-.66.02-.18.27-.36.74-.55 2.92-1.27 4.86-2.11 5.83-2.51 2.78-1.16 3.35-1.36 3.73-1.36.08 0 .27.02.39.12.1.08.13.19.14.27-.01.06.01.24 0 .38z"/></svg><svg viewBox="0 0 40 40" id="telegram-round" xmlns="http://www.w3.org/2000/svg"><path d="M20 3.333C10.8 3.333 3.333 10.8 3.333 20c0 9.2 7.467 16.667 16.667 16.667 9.2 0 16.667-7.467 16.667-16.667C36.667 10.8 29.2 3.333 20 3.333zm7.733 11.334C27.483 17.3 26.4 23.7 25.85 26.65c-.233 1.25-.7 1.667-1.133 1.717-.967.083-1.7-.634-2.634-1.25-1.466-.967-2.3-1.567-3.716-2.5-1.65-1.084-.584-1.684.366-2.65.25-.25 4.517-4.134 4.6-4.484a.334.334 0 00-.083-.3c-.1-.083-.233-.05-.35-.033-.15.033-2.483 1.583-7.033 4.65-.667.45-1.267.683-1.8.667-.6-.017-1.734-.334-2.584-.617-1.05-.333-1.866-.517-1.8-1.1.034-.3.45-.6 1.234-.917 4.866-2.116 8.1-3.516 9.716-4.183 4.634-1.933 5.584-2.267 6.217-2.267.133 0 .45.034.65.2a.662.662 0 01.233.45c-.016.1.017.4 0 .634z"/></svg><svg viewBox="0 0 24 24" id="vk" xmlns="http://www.w3.org/2000/svg"><path d="M4.26 4.26C3 5.532 3 7.566 3 11.64v.72c0 4.068 0 6.102 1.26 7.38C5.532 21 7.566 21 11.64 21h.72c4.068 0 6.102 0 7.38-1.26C21 18.468 21 16.434 21 12.36v-.72c0-4.068 0-6.102-1.26-7.38C18.468 3 16.434 3 12.36 3h-.72C7.572 3 5.538 3 4.26 4.26zm1.776 4.218H8.1c.066 3.432 1.578 4.884 2.778 5.184V8.478h1.938v2.958c1.182-.126 2.43-1.476 2.85-2.964h1.932a5.72 5.72 0 01-2.628 3.738 5.92 5.92 0 013.078 3.756h-2.13c-.456-1.422-1.596-2.526-3.102-2.676v2.676h-.24c-4.104 0-6.444-2.808-6.54-7.488z"/></svg><svg viewBox="0 0 24 24" id="vk-call" xmlns="http://www.w3.org/2000/svg"><path fill-rule="evenodd" clip-rule="evenodd" d="M12.5 22C18.299 22 23 17.299 23 11.5S18.299 1 12.5 1 2 5.701 2 11.5 6.701 22 12.5 22zM8.1 8.478H6.036c.096 4.68 2.436 7.488 6.54 7.488h.24V13.29c1.506.15 2.646 1.254 3.102 2.676h2.13a5.921 5.921 0 00-3.078-3.756 5.72 5.72 0 002.628-3.738h-1.932c-.42 1.488-1.668 2.838-2.85 2.964V8.478h-1.938v5.184c-1.2-.3-2.712-1.752-2.778-5.184z"/></svg><svg viewBox="0 0 40 40" id="vk-round" xmlns="http://www.w3.org/2000/svg"><path fill-rule="evenodd" clip-rule="evenodd" d="M20.833 36.667c9.665 0 17.5-7.835 17.5-17.5s-7.835-17.5-17.5-17.5-17.5 7.835-17.5 17.5 7.835 17.5 17.5 17.5zM13.5 14.13h-3.44c.16 7.8 4.06 12.48 10.9 12.48h.4v-4.46c2.51.25 4.41 2.09 5.17 4.46h3.55a9.867 9.867 0 00-5.13-6.26 9.534 9.534 0 004.38-6.23h-3.22c-.7 2.48-2.78 4.73-4.75 4.94v-4.93h-3.23v8.64c-2-.5-4.52-2.92-4.63-8.64z"/></svg><svg viewBox="0 0 24 24" id="whatsapp-call" xmlns="http://www.w3.org/2000/svg"><path d="M12.001 2c5.523 0 10 4.477 10 10s-4.477 10-10 10a9.95 9.95 0 01-5.03-1.355L2.005 22l1.352-4.968A9.95 9.95 0 012.001 12c0-5.523 4.477-10 10-10zM8.593 7.3l-.2.008a1 1 0 00-.372.1 1.3 1.3 0 00-.294.228c-.12.113-.188.211-.261.306A2.73 2.73 0 006.9 9.62c.002.49.13.967.33 1.413.409.902 1.082 1.857 1.97 2.742.214.213.424.427.65.626a9.45 9.45 0 003.84 2.046l.568.087c.185.01.37-.004.556-.013a2 2 0 00.833-.231c.13-.068.259-.141.383-.22 0 0 .042-.029.125-.09.135-.1.218-.171.33-.288.084-.087.154-.187.21-.302.078-.163.156-.474.188-.733.024-.198.017-.306.014-.373-.004-.107-.093-.218-.19-.265l-.582-.261s-.87-.379-1.402-.621a.502.502 0 00-.176-.041.48.48 0 00-.378.127c-.005-.002-.072.055-.795.931a.35.35 0 01-.368.13 1.4 1.4 0 01-.191-.066c-.124-.052-.167-.072-.252-.108a6 6 0 01-1.575-1.003c-.126-.11-.243-.23-.363-.346a6.3 6.3 0 01-1.02-1.268l-.059-.095a1 1 0 01-.102-.205c-.038-.147.061-.265.061-.265s.243-.266.356-.41c.11-.14.203-.276.263-.373.118-.19.155-.385.093-.536-.28-.684-.57-1.364-.868-2.041-.059-.134-.234-.23-.393-.249a3.001 3.001 0 00-.565-.012l.202-.007z"/></svg><svg viewBox="0 0 40 40" id="whatsapp-round" xmlns="http://www.w3.org/2000/svg"><path d="M20.002 3.333c9.205 0 16.666 7.462 16.666 16.667 0 9.205-7.461 16.667-16.666 16.667a16.583 16.583 0 01-8.384-2.259l-8.276 2.259 2.253-8.28A16.583 16.583 0 013.335 20c0-9.205 7.462-16.667 16.667-16.667zm-5.68 8.834l-.334.013a1.668 1.668 0 00-.62.167c-.18.102-.345.23-.49.38-.2.188-.313.351-.435.51a4.55 4.55 0 00-.943 2.796c.003.817.217 1.612.55 2.355.682 1.504 1.803 3.095 3.283 4.57.357.355.707.712 1.084 1.044a15.75 15.75 0 006.4 3.41l.946.145c.309.016.617-.007.927-.022.485-.026.96-.157 1.388-.385.218-.113.431-.235.639-.367 0 0 .07-.047.208-.15.225-.166.363-.285.55-.48a1.94 1.94 0 00.35-.503c.13-.272.26-.79.313-1.222.04-.33.029-.51.024-.621-.007-.179-.155-.364-.317-.442l-.97-.435s-1.45-.632-2.337-1.035a.834.834 0 00-.293-.068.8.8 0 00-.63.211c-.008-.003-.12.092-1.325 1.552a.583.583 0 01-.613.217 2.321 2.321 0 01-.319-.11c-.206-.087-.278-.12-.42-.18a10 10 0 01-2.625-1.672c-.21-.183-.405-.383-.605-.577a10.501 10.501 0 01-1.7-2.113l-.098-.158a1.663 1.663 0 01-.17-.342c-.063-.245.102-.442.102-.442s.405-.443.593-.683c.183-.233.338-.46.438-.622.197-.316.259-.641.155-.893-.466-1.14-.949-2.274-1.446-3.402-.099-.223-.39-.383-.655-.415-.09-.01-.18-.02-.27-.026a5.002 5.002 0 00-.672.006l.337-.011z"/></svg><svg viewBox="0 0 24 24" id="youtube" xmlns="http://www.w3.org/2000/svg"><g clip-path="url(#qclip0_6_93)"><path fill-rule="evenodd" clip-rule="evenodd" d="M12 4c.855 0 1.732.022 2.582.058l1.004.048.961.057.9.061.822.064a3.8 3.8 0 013.494 3.423l.04.425.075.91c.07.943.122 1.971.122 2.954 0 .983-.052 2.011-.122 2.954l-.075.91-.04.425a3.8 3.8 0 01-3.495 3.423l-.82.063-.9.062-.962.057-1.004.048c-.86.037-1.721.057-2.582.058a61.923 61.923 0 01-2.582-.058l-1.004-.048-.961-.057-.9-.062-.822-.063a3.8 3.8 0 01-3.494-3.423l-.04-.425-.075-.91A41 41 0 012 12c0-.983.052-2.011.122-2.954l.075-.91.04-.425A3.8 3.8 0 015.73 4.288l.821-.064.9-.061.962-.057 1.004-.048c.86-.037 1.722-.057 2.583-.058zm-2 5.575v4.85c0 .462.5.75.9.52l4.2-2.425a.6.6 0 000-1.04l-4.2-2.424a.6.6 0 00-.9.52v-.001z"/></g><defs><clipPath id="qclip0_6_93"><path d="M0 0h24v24H0z"/></clipPath></defs></svg></svg>