<svg width="48" height="48" viewBox="0 0 48 48" fill="none" xmlns="http://www.w3.org/2000/svg">
<path fill-rule="evenodd" clip-rule="evenodd" d="M26.6254 1.78125C27.1598 1.78125 27.4879 1.8375 27.9848 2.025C28.6316 2.26875 28.6785 2.31563 32.466 6.08438C34.566 8.175 36.3941 10.0594 36.516 10.2656C36.6379 10.4719 36.8066 10.8938 36.8816 11.2031C36.966 11.5125 37.0316 11.9531 37.0316 12.1875C37.0316 12.4219 36.9754 12.825 36.9004 13.0781C36.8348 13.3406 36.6848 13.7344 36.5629 13.9688C36.441 14.2031 36.1504 14.5781 35.916 14.8219C35.6816 15.0563 35.2504 15.3563 34.9691 15.4969C34.6879 15.6375 34.2191 15.7875 33.9379 15.8438C33.6566 15.9 33.1691 15.9187 32.2973 15.8344L31.2285 16.9219L31.6035 17.1844C31.8004 17.325 32.0723 17.5781 32.1941 17.7469C32.3254 17.9062 32.4941 18.2156 32.5879 18.4219C32.6941 18.6719 32.741 19.0156 32.7285 19.4531C32.7191 19.8094 32.7098 20.2219 32.691 20.3531C32.6723 20.5688 33.3941 21.1969 39.4691 26.1937C43.2098 29.2687 46.491 32.0156 46.7629 32.2969C47.0254 32.5781 47.3723 33.075 47.5223 33.4031C47.6723 33.7219 47.8504 34.2375 47.9066 34.5469C47.9816 34.8844 48.0004 35.3812 47.9629 35.7937C47.9348 36.1594 47.8129 36.7125 47.7098 37.0125C47.5973 37.3031 47.3535 37.7719 47.166 38.0531C46.9785 38.3344 46.641 38.7281 46.4066 38.9344C46.1723 39.1406 45.666 39.4594 45.2816 39.6375C44.8316 39.8531 44.3254 40.0031 43.8754 40.0687C43.3129 40.1437 43.0316 40.1344 42.4691 40.0219C42.0848 39.9375 41.5316 39.7594 41.2504 39.6188C40.9691 39.4688 40.5848 39.2438 40.4066 39.0938C40.2285 38.9531 37.4535 35.6719 28.4066 24.75L28.0598 24.825C27.8629 24.8625 27.4691 24.8906 27.1879 24.8812C26.8598 24.8812 26.4941 24.7969 26.166 24.6469C25.8754 24.5156 25.491 24.2344 25.2566 23.9813C25.0316 23.7281 24.8441 23.475 24.8441 23.4188C24.8441 23.3531 24.5816 23.5594 23.6723 24.4688L23.7379 24.9187C23.7754 25.1625 23.7566 25.6313 23.7098 25.9688C23.6629 26.3062 23.5035 26.8125 23.3723 27.0938C23.2316 27.375 22.9129 27.8062 22.6691 28.0594C22.4254 28.3031 21.9379 28.6406 21.591 28.8094C21.0004 29.0906 20.8785 29.1094 20.016 29.1094C19.1348 29.1094 19.0316 29.0906 18.4223 28.7906C17.8223 28.5 17.4473 28.1531 14.0535 24.7594C10.6504 21.3656 10.3129 20.9906 10.0223 20.3906C9.72227 19.7812 9.70352 19.6781 9.70352 18.7969C9.70352 17.9344 9.72227 17.8125 10.0129 17.2313C10.1723 16.875 10.491 16.4156 10.716 16.1906C10.9316 15.9656 11.2973 15.675 11.5316 15.5344C11.766 15.3937 12.2629 15.225 12.6379 15.1406C13.1348 15.0375 13.4535 15.0188 14.391 15.1688L22.9598 6.60938L22.9504 5.71875C22.941 5.10938 22.9785 4.67812 23.091 4.35938C23.1754 4.10625 23.4285 3.6375 23.6535 3.32812C23.8785 3.01875 24.2254 2.65312 24.4316 2.5125C24.6285 2.37187 25.0504 2.14687 25.3598 2.01562C25.7816 1.84688 26.091 1.78125 26.6254 1.78125ZM25.2473 4.34062C25.0785 4.5375 24.891 4.86562 24.8348 5.09062C24.7785 5.30625 24.7598 5.63438 24.7973 5.8125C24.8254 5.99062 24.9098 6.23438 24.966 6.3375C25.0316 6.45 26.5973 8.08125 28.4535 9.975C30.3098 11.8688 32.016 13.5375 32.2504 13.6875C32.4848 13.8469 32.8223 13.9969 33.0004 14.025C33.1785 14.0531 33.5066 14.0344 33.7316 13.9781C33.9473 13.9219 34.2754 13.7344 34.4723 13.575C34.6598 13.4062 34.8848 13.0969 34.9785 12.8906C35.0723 12.6844 35.1566 12.3563 35.1566 12.1688C35.1566 11.9719 35.091 11.6531 35.016 11.4656C34.9129 11.2219 33.7598 9.99375 31.3316 7.55625C28.9973 5.22187 27.666 3.95625 27.4223 3.83438C27.216 3.74063 26.8785 3.65625 26.6723 3.65625C26.466 3.65625 26.1285 3.74063 25.9223 3.83438C25.716 3.92813 25.4066 4.15312 25.2379 4.34062H25.2473ZM16.116 16.1719C16.1254 16.2281 17.5785 17.7094 19.341 19.4719C21.1129 21.2437 22.5941 22.6875 22.6504 22.6875C22.7066 22.6875 24.516 20.9156 26.6816 18.75L30.6191 14.8125L26.6348 10.8281C24.4504 13.0312 24.3848 13.0781 24.0098 13.0781C23.6816 13.0781 23.5691 13.0219 23.3441 12.7781C23.1941 12.6094 23.0723 12.3656 23.0723 12.2344C23.0723 12.1031 23.1285 11.8875 23.2035 11.7469C23.2785 11.5969 23.7848 11.0437 24.3285 10.5L25.3223 9.51562C24.3379 8.53125 24.0379 8.25 24.0098 8.25C23.9816 8.25 22.191 10.0125 20.0254 12.1688C17.8598 14.3156 16.0973 16.125 16.116 16.1719ZM12.8348 17.0062C12.6848 17.0344 12.4223 17.2031 12.2254 17.3719C12.0379 17.5312 11.8129 17.8406 11.7191 18.0469C11.6254 18.2531 11.541 18.5906 11.541 18.7969C11.541 19.0031 11.6254 19.3406 11.7191 19.5469C11.841 19.8 13.1066 21.1219 15.4879 23.4938C18.4129 26.4094 19.1535 27.0938 19.4629 27.1875C19.6785 27.2531 20.0348 27.2813 20.3066 27.2531C20.6254 27.2156 20.8785 27.1219 21.0941 26.9344C21.2629 26.7937 21.4879 26.5688 21.591 26.4375C21.6848 26.3062 21.8066 26.0156 21.8441 25.7812C21.891 25.5375 21.8816 25.1812 21.8348 24.9375C21.7504 24.5438 21.4785 24.2531 18.1129 20.8781C16.1254 18.8813 14.3723 17.1938 14.2129 17.1188C14.0629 17.0531 13.7816 16.9688 13.6035 16.9406C13.4254 16.9125 13.2379 16.9031 13.1816 16.9219C13.1348 16.9406 12.9754 16.9781 12.8348 17.0062ZM26.4098 21.9188C26.3816 22.0312 26.4191 22.275 26.4941 22.4531C26.5785 22.65 26.7566 22.8469 26.9441 22.9313C27.1441 23.0312 27.3379 23.0594 27.5254 23.0156C27.7129 22.9781 28.2754 22.4906 29.2879 21.4875C30.2723 20.5031 30.7973 19.9125 30.8535 19.7156C30.9285 19.4813 30.9098 19.3219 30.8066 19.0781C30.7316 18.9 30.5816 18.7125 30.4785 18.6562C30.3754 18.6094 30.1316 18.5625 29.9348 18.5625C29.6066 18.5625 29.4941 18.6562 28.0223 20.1375C27.1691 21 26.4379 21.7969 26.4098 21.9188ZM29.9348 23.5969C29.9441 23.6531 32.5504 26.8125 35.7004 30.6281C39.6566 35.3906 41.5691 37.6313 41.841 37.8C42.066 37.9406 42.4598 38.1094 42.7129 38.1656C42.9754 38.2313 43.3691 38.25 43.6035 38.2219C43.8379 38.2031 44.2129 38.1 44.4473 37.9969C44.6816 37.9031 45.0566 37.6312 45.2816 37.3969C45.516 37.1719 45.7879 36.7969 45.891 36.5625C46.0316 36.2625 46.0879 35.9437 46.0879 35.4281C46.0879 34.8281 46.0504 34.6406 45.8066 34.1719C45.5348 33.6469 45.1785 33.3375 38.4941 27.825C34.6223 24.6375 31.4441 22.0312 31.416 22.0312C31.3879 22.0312 31.0316 22.3594 30.6285 22.7625C30.2254 23.1562 29.916 23.5312 29.9348 23.5969ZM3.08477 23.7188C4.91289 23.7188 5.50352 23.7469 5.70039 23.85C5.85039 23.9156 6.01914 24.0844 6.07539 24.225C6.14102 24.3562 6.19727 24.5719 6.19727 24.7031C6.19727 24.8438 6.06602 25.0688 5.55977 25.5938H0.666016L0.337891 25.2656C0.119141 25.0469 0.00976562 24.8531 0.00976562 24.6844C0.0191406 24.5344 0.0847656 24.3188 0.159766 24.1969C0.244141 24.075 0.403516 23.9156 0.506641 23.85C0.666016 23.7562 1.28477 23.7281 3.07539 23.7188H3.08477ZM12.1598 34.9781C17.466 34.9688 18.5254 34.9875 18.9754 35.1094C19.2754 35.1844 19.7441 35.3625 20.0066 35.4938C20.2785 35.6344 20.7848 36.0281 21.1223 36.3656C21.5348 36.7781 21.8348 37.1906 22.0223 37.5938C22.1816 37.9313 22.3598 38.4281 22.416 38.7C22.4723 38.9625 22.5191 39.3281 22.5191 39.4969C22.5285 39.7594 22.5848 39.8344 23.0066 40.0781C23.2785 40.2281 23.6348 40.5469 23.8129 40.7812C23.9816 41.0156 24.1879 41.4188 24.2629 41.6719C24.3566 42 24.3941 42.6469 24.3941 45.5625L23.8316 46.2188H0.581641L0.0191406 45.5625V43.7812C0.0191406 42.2438 0.0472656 41.9344 0.206641 41.5125C0.300391 41.2406 0.525391 40.8469 0.703516 40.6406C0.881641 40.4344 1.21914 40.1625 1.45352 40.0312C1.83789 39.825 1.89414 39.7594 1.89414 39.4969C1.89414 39.3281 1.94102 38.9625 1.99727 38.7C2.05352 38.4281 2.22227 37.9406 2.37227 37.6219C2.52227 37.2937 2.86914 36.7875 3.15039 36.4969C3.43164 36.1969 3.90039 35.8031 4.20039 35.625C4.50977 35.4469 5.00664 35.2312 5.31602 35.1375C5.81289 34.9969 6.56289 34.9781 12.1598 34.9781ZM4.95977 37.3594C4.77227 37.4906 4.48164 37.7719 4.32227 37.9969C4.17227 38.2125 3.97539 38.6063 3.90039 38.8594C3.82539 39.1219 3.76914 39.4031 3.76914 39.4969C3.76914 39.6469 4.23789 39.6562 12.2254 39.6562H20.691C20.5785 39.0375 20.4473 38.6531 20.3254 38.3906C20.2035 38.1375 19.9504 37.7812 19.7629 37.6219C19.5754 37.4531 19.2473 37.2188 19.0223 37.1062L18.6285 36.8906C7.02226 36.8531 6.00977 36.8719 5.69102 36.9844C5.48477 37.0594 5.15664 37.2281 4.95977 37.3594ZM2.04414 42.0094C1.94102 42.1781 1.90352 42.4969 1.89414 43.2937V44.3438H22.5191C22.5191 42.6844 22.4723 42.1875 22.3973 42.0375C22.341 41.8969 22.1723 41.7281 22.0223 41.6625C21.816 41.55 20.1473 41.5312 12.1785 41.5312C4.39726 41.5406 2.55977 41.5594 2.39102 41.6625C2.28789 41.7281 2.12852 41.8875 2.04414 42.0094ZM3.97539 16.7812C4.36914 16.7906 4.40664 16.8188 5.89727 18.3094C6.73164 19.1438 7.44414 19.9312 7.48164 20.0625C7.50977 20.1938 7.50977 20.4094 7.48164 20.5594C7.45352 20.7 7.34102 20.8969 7.23789 21C7.13477 21.1031 6.93789 21.2156 6.78789 21.2438C6.64727 21.2719 6.43164 21.2719 6.30039 21.2344C6.16914 21.1969 5.50352 20.6156 4.80977 19.9313C4.12539 19.2563 3.43164 18.5344 3.28164 18.3281C3.10352 18.075 3.01914 17.85 3.01914 17.6437C3.03164 17.4312 3.12539 17.2344 3.30039 17.0531C3.51602 16.8375 3.64727 16.7812 3.97539 16.7812ZM6.56289 28.0312C6.87227 28.0312 7.01289 28.0875 7.23789 28.3125C7.43477 28.5094 7.51914 28.6875 7.51914 28.9031C7.51914 29.0906 7.42539 29.3438 7.25664 29.5781C7.10664 29.7844 6.41289 30.5063 5.72852 31.1813C5.03477 31.8656 4.36914 32.4469 4.23789 32.4844C4.10664 32.5219 3.89102 32.5219 3.74102 32.4938C3.60039 32.4656 3.40352 32.3531 3.30039 32.25C3.19727 32.1469 3.08477 31.95 3.05664 31.8094C3.02852 31.6594 3.02852 31.4438 3.05664 31.3125C3.09414 31.1812 3.80664 30.3937 4.65039 29.5594C6.13164 28.0781 6.18789 28.0312 6.56289 28.0312ZM21.4129 13.875C21.5723 13.875 21.7973 13.9781 21.9754 14.1469C22.2285 14.3719 22.2848 14.4937 22.2848 14.8125C22.2848 15.1406 22.2379 15.2437 21.9566 15.4875C21.6754 15.7406 21.5816 15.7687 21.2535 15.7219C21.0191 15.6844 20.8035 15.5813 20.6629 15.4313C20.5316 15.2719 20.4566 15.0656 20.4566 14.8594C20.4566 14.6812 20.4941 14.4469 20.5504 14.3438C20.5973 14.2406 20.7566 14.0906 20.8973 14.0156C21.0473 13.9406 21.2723 13.8844 21.4129 13.875Z" fill="#2551E8"/>
</svg>
