<svg width="48" height="48" viewBox="0 0 48 48" fill="none" xmlns="http://www.w3.org/2000/svg">
<g clip-path="url(#clip0_193_5326)">
<path fill-rule="evenodd" clip-rule="evenodd" d="M18.1312 0.1875H41.4375L42.3 1.0125C42.7781 1.4625 44.1844 2.79375 45.4219 3.96562C46.6594 5.14687 47.7469 6.21563 47.8313 6.35625C47.9906 6.59063 48 7.52813 48 22.1719C48 36.7969 47.9906 37.7531 47.8313 38.0625C47.7375 38.25 47.5312 38.4563 47.3438 38.55C47.0531 38.7 46.6594 38.7188 43.4531 38.7188C39.9375 38.7188 39.8719 38.7281 38.2969 39C36.7875 39.2531 36.5062 39.3469 32.7656 40.6875C30.6 41.4656 27.2062 42.6937 25.2188 43.4062C23.2313 44.1188 20.0063 45.2812 18.0469 45.9844C16.0875 46.6875 14.2312 47.3531 13.9219 47.4563C13.6125 47.5688 13.3219 47.6906 13.2656 47.7375C13.2188 47.775 13.0594 47.8125 12.9188 47.8125C12.7781 47.8125 12.4969 47.7188 12.3094 47.5969C12.0844 47.4563 11.8969 47.2406 11.8031 47.0062C11.7188 46.8094 10.4531 43.3312 9 39.2812C7.5375 35.2313 6.31875 31.8188 6.28125 31.6875C6.24375 31.5562 6.25312 31.35 6.29062 31.2188C6.3375 31.0781 6.49687 30.9281 6.675 30.8531C6.90937 30.75 7.03125 30.75 7.2 30.8344C7.3125 30.8906 7.45312 31.0125 7.50937 31.1062C7.56562 31.1906 8.82187 34.6406 10.3125 38.7656C12.2344 44.1 13.05 46.2563 13.1344 46.2375C13.2094 46.2188 16.5562 45.0187 20.5781 43.575C24.6 42.1312 27.9562 40.9125 28.0312 40.8656C28.1531 40.8 28.1438 40.7906 28.0031 40.7812C27.9188 40.7812 25.2563 41.2219 22.0969 41.7656C18.9469 42.3 16.0875 42.7969 15.75 42.8531C15.2063 42.9562 15.1031 42.9469 14.7656 42.7875C14.5594 42.6937 14.325 42.4781 14.2406 42.3281C14.1281 42.1406 13.1906 36.8625 11.475 26.8594C10.05 18.5063 8.87813 11.6625 8.86875 11.6531C8.85938 11.6438 7.44375 12.1219 5.71875 12.7219C3.99375 13.3125 2.33438 13.8844 2.03438 13.9969C1.64063 14.1469 1.49062 14.2406 1.52812 14.3438C1.54687 14.4187 2.69063 17.6063 4.06875 21.4219C5.4375 25.2375 6.5625 28.4344 6.5625 28.5188C6.5625 28.6125 6.45937 28.7906 6.32812 28.9219C6.20625 29.0531 6.00938 29.1562 5.8875 29.1562C5.76562 29.1656 5.57812 29.0906 5.45625 28.9969C5.2875 28.8656 4.65 27.1688 2.71875 21.7969C1.33125 17.925 0.15 14.6906 0.09375 14.5969C0.046875 14.5125 0 14.2594 0 14.0344C0 13.7344 0.065625 13.5656 0.253125 13.3312C0.46875 13.0875 0.778125 12.9375 2.0625 12.4875C2.91563 12.1781 4.70625 11.5688 6.04688 11.1094C7.3875 10.6594 8.5125 10.2562 8.55 10.2281C8.59687 10.2 8.54062 9.70312 8.4375 9.14062C8.33438 8.56875 8.25 7.9125 8.25 7.65937C8.25 7.33125 8.30625 7.15312 8.46563 6.95625C8.5875 6.81562 8.8125 6.65625 8.9625 6.59063C9.1125 6.525 10.9875 6.17812 13.125 5.82187C15.2625 5.45625 17.0438 5.15625 17.0906 5.15625C17.1281 5.15625 17.1562 4.28438 17.1562 3.20625C17.1562 1.54688 17.1844 1.21875 17.325 0.9375C17.4094 0.759375 17.625 0.515625 17.8031 0.403125L18.1312 0.1875ZM18.5531 11.1656C18.5719 20.5031 18.5625 20.625 18.3844 20.8125C18.2625 20.925 18.0656 21 17.8688 21C17.6156 21 17.4937 20.9344 17.3438 20.7375C17.1562 20.4844 17.1562 20.3812 17.1562 13.5187L17.1656 6.5625C16.6875 6.6375 15.0094 6.92813 13.1344 7.24688L9.7125 7.8375C9.75 8.33437 11.0344 15.8813 12.5812 24.9375C14.1281 33.9844 15.4219 41.4094 15.4406 41.4375C15.4688 41.4562 18.8906 40.8937 23.0531 40.1813C27.2156 39.4688 30.7219 38.85 30.8531 38.8125C30.9844 38.7656 28.2937 38.7281 24.6375 38.7188C18.7031 38.7188 18.1688 38.7 17.8594 38.55C17.6437 38.4469 17.4562 38.2594 17.3438 38.0156C17.175 37.65 17.1656 37.3313 17.1656 30.5813C17.1656 26.0531 17.1938 23.4562 17.2594 23.3156C17.3063 23.2031 17.4563 23.0531 17.5875 22.9875C17.7094 22.9219 17.8687 22.875 17.9344 22.8656C18 22.8656 18.1688 22.95 18.3094 23.0531L18.5719 23.25V37.3125H46.6031V7.59375C41.3531 7.59375 41.2969 7.59375 40.8844 7.37812C40.6406 7.24687 40.3781 7.0125 40.275 6.83438C40.0969 6.54375 40.0781 6.29063 40.0406 4.07812L39.9938 1.64062C23.4844 1.60312 18.6562 1.62188 18.6188 1.65C18.5719 1.6875 18.5437 5.97187 18.5531 11.1656ZM41.4938 6.14062L45.7125 6.17813C44.2969 4.8375 43.35 3.92812 42.6844 3.29062L41.4844 2.12813L41.4938 6.14062ZM43.0594 10.4531L43.2844 10.7156C43.4062 10.8563 43.5094 11.0438 43.5094 11.1375C43.5094 11.2219 43.425 11.4094 43.1344 11.8125L22.3688 11.8219L22.1813 11.6156C22.0781 11.5125 21.9938 11.3062 21.9938 11.1656C21.9938 11.0156 22.05 10.8281 22.1156 10.7344C22.1812 10.65 22.3312 10.5375 22.4437 10.4906C22.5562 10.4531 27.2437 10.425 43.0594 10.4531ZM43.1344 15.4688L43.3219 15.7313C43.425 15.8719 43.5094 16.0406 43.5094 16.1063C43.5094 16.1625 43.4625 16.3125 43.4156 16.4344C43.3594 16.5469 43.2094 16.6969 43.0875 16.7625C42.9 16.8469 40.6313 16.875 22.5094 16.875L22.2562 16.6688C22.0875 16.5188 22.0125 16.3594 22.0031 16.1344C21.9937 15.9 22.05 15.7688 22.2188 15.6375C22.425 15.4781 22.875 15.4688 43.1344 15.4688ZM43.0406 20.4375L43.275 20.6719C43.4062 20.8031 43.5094 21.0094 43.5094 21.1406C43.5094 21.2719 43.4062 21.4781 43.05 21.8438H32.775C27.1313 21.8438 22.4344 21.8156 22.35 21.7781C22.2656 21.7313 22.1437 21.5812 22.0781 21.4219C22.0031 21.2344 21.9937 21.0656 22.05 20.9062C22.0969 20.775 22.2094 20.6156 22.2938 20.5594C22.425 20.4656 24.6562 20.4375 43.0406 20.4375ZM22.5187 25.4062H32.6813C40.6313 25.4062 42.9 25.4344 43.0875 25.5281C43.2094 25.5844 43.3594 25.7344 43.4156 25.8562C43.4625 25.9687 43.5094 26.1187 43.5094 26.1844C43.5094 26.2406 43.425 26.4094 43.1344 26.8125H32.7937C22.9969 26.8219 22.4531 26.8125 22.2375 26.6531C22.0781 26.5406 22.0125 26.3906 22.0031 26.1656C22.0031 25.9219 22.0687 25.7906 22.2562 25.6219L22.5187 25.4062ZM22.35 30.4688H43.1344L43.3219 30.7312C43.4344 30.8719 43.5187 31.0594 43.5094 31.1531C43.5094 31.2469 43.4062 31.4344 43.0594 31.8281H22.425L22.2094 31.6219C22.0875 31.5 21.9938 31.2938 21.9938 31.1344C21.9938 30.9844 22.0781 30.7781 22.1719 30.675L22.35 30.4688Z" fill="#2551E8"/>
</g>
<defs>
<clipPath id="clip0_193_5326">
<rect width="48" height="48" fill="white"/>
</clipPath>
</defs>
</svg>
