<svg width="48" height="48" viewBox="0 0 48 48" fill="none" xmlns="http://www.w3.org/2000/svg">
<g clip-path="url(#clip0_153_3359)">
<path fill-rule="evenodd" clip-rule="evenodd" d="M37.809 9.09375C38.0902 9.09375 38.409 9.16875 38.6902 9.31875C38.9434 9.43125 39.2715 9.68437 39.4215 9.8625C39.5715 10.05 39.759 10.3594 39.8152 10.5562C39.8809 10.7625 39.9371 11.2875 39.9371 12.5625H40.659C41.0621 12.5625 41.5965 12.6281 41.859 12.7031C42.1121 12.7781 42.4684 12.9469 42.6277 13.0781C42.7965 13.2094 43.0684 13.5 43.2184 13.7344C43.3777 13.9688 43.4996 14.2781 43.4996 14.4375C43.4996 14.6344 43.4246 14.775 43.2371 14.9062C43.0965 15.0188 42.8996 15.0938 42.7965 15.0938C42.6934 15.0938 42.384 14.85 41.5777 13.9688H37.5934V16.95C37.584 19.6688 37.6027 19.9406 37.9215 20.3438L45.9371 20.2969L44.9059 18.75C44.3434 17.8969 43.8746 17.1187 43.8746 17.0156C43.8652 16.9125 43.9496 16.7156 44.0621 16.5656C44.1746 16.4062 44.334 16.3125 44.484 16.3125C44.6152 16.3125 44.7934 16.3406 44.8777 16.3781C44.9715 16.425 45.609 17.3156 46.3121 18.375C47.1652 19.6594 47.6527 20.5031 47.7934 20.9062C47.9996 21.5063 47.9996 21.5812 48.009 33.1406L47.7371 33.6562C47.5684 33.9844 47.3246 34.275 46.6684 34.7344L41.7652 34.7906L41.709 35.5594C41.6715 36.1031 41.5871 36.4781 41.4184 36.8438C41.2684 37.1531 40.959 37.5656 40.6215 37.875C40.2277 38.25 39.8902 38.4656 39.4215 38.6531C38.9715 38.8312 38.5871 38.9062 38.2027 38.9062C37.809 38.9062 37.434 38.8312 36.984 38.6531C36.534 38.475 36.1684 38.2406 35.8309 37.9219C35.5121 37.6219 35.2215 37.2281 35.034 36.8438C34.809 36.3844 34.7246 36.0562 34.6402 34.7812H33.8621C33.1309 34.7812 33.084 34.7719 32.9059 34.5188C32.7934 34.3781 32.709 34.2 32.709 34.125C32.709 34.05 32.7934 33.8719 32.9059 33.7219C33.0934 33.4688 33.1121 33.4688 35.1371 33.4688L35.7371 32.8781C36.1684 32.4375 36.4777 32.2219 36.8902 32.0625C37.3121 31.8937 37.6402 31.8469 38.2027 31.8469C38.7652 31.8469 39.0934 31.8937 39.5152 32.0625C39.9184 32.2219 40.2559 32.4562 41.2965 33.4688H43.6871C45.9465 33.4781 46.0965 33.4688 46.5934 33.0938V29.25L24.1965 29.2688C1.94961 29.2969 1.79961 29.2969 1.60273 29.4844C1.40586 29.6625 1.39648 29.7563 1.40586 33.0938L1.65898 33.2812C1.88398 33.45 2.06211 33.4781 3.84336 33.4688L4.30273 32.9719C4.55586 32.7094 4.96836 32.3719 5.21211 32.2312C5.46523 32.0906 5.94336 31.9312 6.28086 31.8656C6.74961 31.7812 7.02148 31.7719 7.45273 31.8656C7.76211 31.9219 8.24023 32.0906 8.52148 32.2312C8.80273 32.3719 9.23398 32.7094 9.93711 33.4688H11.6996L12.2996 32.8781C12.7309 32.4375 13.0402 32.2219 13.4527 32.0625C13.8746 31.8937 14.2027 31.8469 14.7652 31.8469C15.3277 31.8469 15.6559 31.8937 16.0777 32.0625C16.4902 32.2219 16.7902 32.4375 17.8121 33.4688H24.1402C30.3465 33.4688 30.4684 33.4688 30.6559 33.6562C30.759 33.7594 30.8434 33.9656 30.8434 34.125C30.8434 34.2844 30.759 34.4906 30.6559 34.5938C30.4684 34.7812 30.3465 34.7812 18.3277 34.7812L18.2715 35.5031C18.2434 35.9063 18.159 36.3563 18.084 36.5156C18.009 36.6656 17.8402 36.8531 17.6902 36.9375C17.4652 37.0594 17.409 37.0594 17.184 36.9375C17.0527 36.8625 16.8934 36.7219 16.8371 36.6375C16.7621 36.5156 16.7621 36.3281 16.8559 35.9344C16.9402 35.5406 16.9496 35.2594 16.8746 34.9219C16.8277 34.6594 16.6684 34.2844 16.5184 34.0781C16.359 33.8438 16.0684 33.6094 15.7496 33.4406C15.3934 33.2625 15.0934 33.1875 14.7652 33.1875C14.4371 33.1875 14.1371 33.2625 13.7809 33.4406C13.4621 33.6094 13.1715 33.8438 13.0121 34.0781C12.8621 34.2844 12.7027 34.6406 12.6465 34.875C12.5715 35.1844 12.5715 35.4281 12.6465 35.7656C12.7027 36.0187 12.8621 36.4031 13.0121 36.6094C13.1715 36.8438 13.4621 37.0781 13.7809 37.2469C14.1652 37.4344 14.4277 37.5 14.8309 37.5C15.2902 37.5 15.4121 37.5375 15.609 37.7344C15.7402 37.8656 15.8434 38.0625 15.8434 38.175C15.8527 38.2969 15.7402 38.5031 15.5996 38.6438C15.384 38.8781 15.2809 38.9062 14.7746 38.9062C14.3715 38.9062 14.0059 38.8312 13.5465 38.6531C13.1059 38.475 12.7309 38.2406 12.384 37.9219C12.0934 37.65 11.7559 37.2094 11.5965 36.8906C11.3715 36.45 11.2965 36.1594 11.2027 34.7812H10.4527L10.3965 35.5031C10.359 35.9719 10.2559 36.4219 10.1059 36.75C9.98398 37.0312 9.71211 37.4531 9.50586 37.6781C9.30898 37.9031 8.98086 38.1938 8.78398 38.3063C8.59648 38.4281 8.21211 38.6156 7.94023 38.7188C7.64961 38.8312 7.22773 38.9062 6.89023 38.9062C6.50586 38.9062 6.13086 38.8312 5.71836 38.6719C5.38086 38.5406 4.93086 38.2969 4.72461 38.1281C4.50898 37.9594 4.19023 37.6406 4.02148 37.4156C3.84336 37.1813 3.62773 36.7781 3.54336 36.525C3.44961 36.2625 3.38398 35.7656 3.37461 34.7812H2.48398C1.94961 34.7812 1.47148 34.7344 1.28398 34.6594C1.12461 34.5844 0.852734 34.425 0.702734 34.2937C0.543359 34.1625 0.327734 33.8625 0.205859 33.6281C0.0183594 33.2156 -0.000390625 33.0562 -0.00976562 29.4844L0.252734 29.025C0.393359 28.7719 0.637109 28.4719 0.796484 28.3594C0.946484 28.2469 1.22773 28.1063 1.40586 28.0406C1.61211 27.975 2.42773 27.9375 3.57148 27.9375C4.58398 27.9375 5.43711 27.9188 5.46523 27.8906C5.50273 27.8625 5.41836 27.6844 5.01523 27.1219L4.03086 27.075C3.29961 27.0375 2.95273 26.9813 2.67148 26.8313C2.46523 26.7281 1.89336 26.2875 1.40586 25.8562C0.805859 25.3219 0.440234 24.9094 0.0464844 24.1406L0.0746094 21.6562C0.0933594 19.8938 0.140234 19.0875 0.224609 18.8906C0.290234 18.7312 0.468359 18.4875 0.618359 18.3375C0.768359 18.1875 1.03086 18.0094 1.19023 17.9437C1.41523 17.85 1.98711 17.8125 4.96836 17.8125L6.14023 16.8469C6.78711 16.3219 7.55586 15.7406 7.85586 15.5625C8.14648 15.3844 8.74648 15.1031 9.98398 14.6719L13.359 14.6437C16.1434 14.6156 16.8559 14.6437 17.4371 14.7562C17.8215 14.8406 18.459 15.0563 18.8434 15.2438C19.2277 15.4219 19.7527 15.7313 20.0152 15.9188C20.2684 16.0969 20.9246 16.6219 21.4684 17.0625C22.1996 17.6625 22.5465 17.8969 22.8277 17.9437C23.034 17.9812 24.0652 18.225 25.1246 18.4781C26.184 18.7406 27.4496 19.0781 27.9371 19.2375C28.4246 19.3969 29.0152 19.6219 29.2496 19.7344C29.484 19.8469 29.859 20.1563 30.084 20.4C30.3184 20.6531 30.5902 21.0469 30.6934 21.2812C30.8527 21.6375 30.8902 21.9656 30.984 25.2656L31.1809 24.9375C31.2934 24.7594 31.6121 24.3938 31.884 24.1406C32.1652 23.8781 32.5965 23.5875 33.2902 23.2969L33.2715 14.2031L33.5434 13.6875C33.7309 13.3219 33.9277 13.0969 34.2277 12.9094C34.4809 12.75 34.8465 12.6281 35.7184 12.5156V11.7188C35.7184 11.2781 35.7559 10.7719 35.8121 10.5938C35.859 10.4156 36.0371 10.0969 36.2059 9.9C36.3746 9.70312 36.7027 9.44063 36.9371 9.31875C37.1996 9.1875 37.5277 9.10313 37.7996 9.09375H37.809ZM37.059 11.775L37.0402 12.5625H38.5402C38.5402 11.0062 38.5215 10.9031 38.334 10.7156C38.2027 10.5938 37.9965 10.5 37.8277 10.5C37.6402 10.5 37.4621 10.5844 37.3121 10.7437C37.1152 10.95 37.0871 11.0812 37.059 11.775ZM34.6684 14.2594L34.6965 27.9375H46.6027V27.1875C44.6434 27.1406 44.5402 27.1219 44.109 26.85C43.8277 26.6719 43.5465 26.4 43.3684 26.1094C43.1715 25.7812 43.0777 25.5 43.0496 25.1344C43.0309 24.8438 43.059 24.4594 43.1152 24.2812C43.1809 24.1031 43.3777 23.7656 43.5746 23.5406C43.7715 23.3063 44.0996 23.0438 44.3059 22.95C44.5871 22.8281 44.9246 22.7812 45.6371 22.7812H46.6027V21.75C39.7684 21.75 37.884 21.7125 37.6684 21.6562C37.4809 21.6 37.1434 21.4031 36.9277 21.2062C36.7215 21.0187 36.4871 20.7188 36.4121 20.55C36.3184 20.3156 36.2902 19.5281 36.2902 17.1094V13.9688C35.334 13.9688 35.034 14.0156 34.8934 14.1094L34.6684 14.2594ZM9.05586 16.4906C8.74648 16.6406 8.23086 16.95 7.90273 17.1937C7.58398 17.4281 7.32148 17.6719 7.32148 17.7188C7.32148 17.7844 8.28711 17.8125 10.0402 17.8125H12.759V15.9375C11.2684 15.9563 10.5652 16.0125 10.2277 16.0875C9.89023 16.1625 9.36523 16.3406 9.05586 16.4906ZM14.1184 17.7656C17.484 17.8125 17.7652 17.7938 17.9809 17.6531C18.1402 17.5594 18.5246 17.475 18.9934 17.4469L19.734 17.3906C19.0871 16.9125 18.6465 16.65 18.3371 16.5C18.0277 16.35 17.4465 16.1625 17.0434 16.0875C16.6402 16.0031 15.8246 15.9375 15.1871 15.9375H14.0621L14.1184 17.7656ZM18.8996 19.9219C20.5402 19.9688 20.5402 19.9688 20.5402 19.7344C20.5402 19.6125 20.4277 19.3687 20.2871 19.2094C20.0621 18.9562 19.9496 18.9094 19.4434 18.8719L18.8715 18.825L18.8996 19.9219ZM1.41523 19.9688V20.4375L3.48711 20.4844C3.92773 20.9719 4.04023 21.1969 4.04023 21.3469C4.03086 21.4875 3.94648 21.9 3.83398 22.2656C3.73086 22.6219 3.56211 23.0812 3.46836 23.2687C3.36523 23.4656 3.13086 23.7281 2.93398 23.8594C2.74648 23.9906 2.39961 24.1312 2.18398 24.1687C1.96836 24.2062 1.78086 24.2531 1.78086 24.2812C1.78086 24.3094 2.10898 24.6187 2.50273 24.9844L3.22461 25.6406L4.74336 25.7063C5.06211 24.6188 5.18398 24.4219 5.61523 23.9906C6.00898 23.6062 6.28086 23.4187 6.66523 23.2969C7.03086 23.175 7.34961 23.1375 7.79023 23.175C8.14648 23.2031 8.55898 23.3063 8.79336 23.4188C9.01836 23.5312 9.34648 23.7844 9.53398 23.9719C9.73086 24.1687 9.98398 24.5344 10.0965 24.7969C10.2184 25.05 10.3215 25.3594 10.3215 25.4719V25.6875H19.5559C19.734 24.9563 19.9121 24.5625 20.0715 24.3281C20.2215 24.0938 20.5496 23.775 20.7934 23.625C21.0371 23.4656 21.384 23.2969 21.5715 23.25C21.7496 23.1938 22.1059 23.1562 22.3684 23.1562C22.6215 23.1562 23.0246 23.2125 23.259 23.2875C23.484 23.3719 23.8871 23.6156 24.1402 23.8312C24.384 24.0562 24.6652 24.3844 24.759 24.5625C24.8527 24.7406 24.9746 25.0688 25.0309 25.2844L25.134 25.6875H29.5402V24.1875C28.4434 24.1406 28.2652 24.0938 27.9371 23.8594C27.7121 23.7 27.2809 23.2219 26.9715 22.7812C26.5777 22.2188 26.3902 21.8625 26.3527 21.5906C26.3059 21.2344 26.334 21.1781 26.6996 20.7938C26.9246 20.5688 27.0934 20.3813 27.0746 20.3719C27.0652 20.3625 26.0996 20.1281 24.9465 19.8375C23.784 19.5469 22.6121 19.275 22.3402 19.2375L21.8527 19.1719C21.9465 20.2594 21.9184 20.4563 21.7871 20.7188C21.6934 20.8969 21.5059 21.0938 21.384 21.1594C21.2246 21.2344 20.6621 21.2812 19.6684 21.2812H18.1965C17.5496 20.6344 17.5402 20.6062 17.5402 19.875V19.125C1.91211 19.125 1.78086 19.125 1.60273 19.3125C1.46211 19.4531 1.41523 19.6219 1.41523 19.9688ZM1.41523 22.3125C1.41523 22.6687 1.45273 22.7906 1.57461 22.8375C1.66836 22.875 1.84648 22.8656 1.97773 22.8187C2.09961 22.7719 2.25898 22.6219 2.31523 22.5C2.37148 22.3687 2.44648 22.1719 2.48398 22.05C2.53086 21.8531 2.51211 21.8438 1.97773 21.8438H1.41523V22.3125ZM28.3871 22.3875C28.6684 22.7063 28.8277 22.8094 29.1465 22.8563L29.5496 22.9219L29.4934 21.8906C28.3684 21.8438 28.0402 21.8719 28.0402 21.9094C28.0309 21.9469 28.1902 22.1625 28.3871 22.3875ZM44.4371 24.675C44.3715 24.8906 44.3715 25.0594 44.4371 25.2375C44.4934 25.3781 44.634 25.5656 44.7465 25.6406C44.8965 25.7437 45.2059 25.7812 45.7777 25.7812H46.6027V24.0938C45.3371 24.1031 44.9621 24.15 44.7934 24.2344C44.6434 24.3188 44.4934 24.5063 44.4371 24.675ZM6.49648 24.975C6.38398 25.1062 6.24336 25.3781 6.19648 25.5656C6.13086 25.8 6.13086 26.0344 6.19648 26.25C6.25273 26.4281 6.35586 26.6719 6.43086 26.7844C6.50586 26.9063 6.76836 27.0844 7.01211 27.1969C7.34023 27.3375 7.54648 27.375 7.79023 27.3281C7.96836 27.2906 8.25898 27.15 8.43711 27.0188C8.61523 26.8781 8.82148 26.6156 8.89648 26.4375C8.96211 26.2594 9.00898 25.9594 8.99023 25.7812C8.96211 25.6031 8.84023 25.3031 8.71836 25.125C8.59648 24.9563 8.32461 24.7312 8.11836 24.6375C7.91211 24.5437 7.67773 24.4688 7.60273 24.4781C7.51836 24.4781 7.29336 24.5344 7.08711 24.6094C6.88086 24.6844 6.61836 24.8437 6.49648 24.975ZM21.3934 24.8625C21.2715 24.9844 21.1121 25.2094 21.0371 25.3781C20.9715 25.5469 20.9152 25.8094 20.9152 25.9688C20.9152 26.1187 20.9715 26.3625 21.0371 26.5031C21.1121 26.6438 21.2902 26.8688 21.4402 27.0094C21.5902 27.1406 21.8902 27.2719 22.134 27.3187C22.4809 27.375 22.6215 27.3469 22.959 27.1687C23.1934 27.0469 23.4559 26.8125 23.5684 26.625C23.709 26.3719 23.7465 26.1844 23.709 25.8281C23.6902 25.5656 23.5871 25.2469 23.484 25.1062C23.3809 24.975 23.1934 24.7969 23.0715 24.7219C22.9402 24.6375 22.6871 24.5531 22.509 24.525C22.3215 24.4969 22.0496 24.5156 21.8996 24.5719C21.7402 24.6188 21.5152 24.75 21.3934 24.8625ZM32.0996 26.25C31.9309 26.6344 31.7152 27.1688 31.6027 27.4406L31.4152 27.9375H33.2902C33.2902 25.425 33.2527 24.8438 33.1965 24.8438C33.1402 24.8438 32.9434 25.0031 32.7465 25.1906C32.5309 25.4063 32.2777 25.8281 32.0996 26.25ZM27.1965 27.0844H24.8996C24.4965 27.675 24.4121 27.8625 24.4496 27.8906C24.4871 27.9188 25.734 27.9375 27.2152 27.9375C28.6965 27.9375 29.934 27.9 29.9527 27.8625C29.9715 27.825 30.0746 27.5719 30.1871 27.3C30.3184 26.9531 30.3465 26.8125 30.2621 26.8219C30.1965 26.8313 29.9996 26.8875 29.8215 26.9625C29.5777 27.0469 28.8652 27.0844 27.1965 27.0844ZM9.87148 27.4688C9.75898 27.675 9.66523 27.8625 9.66523 27.8906C9.66523 27.9188 12.0465 27.9375 14.9621 27.9375C17.8684 27.9375 20.259 27.9188 20.259 27.8906C20.259 27.8625 20.1371 27.675 19.9965 27.4594L19.7434 27.0844L10.0777 27.0938L9.87148 27.4688ZM5.15586 34.05C4.99648 34.2656 4.82773 34.6219 4.77148 34.8281C4.72461 35.0344 4.70586 35.3813 4.73398 35.5969C4.76211 35.8219 4.86523 36.1594 4.95898 36.3469C5.06211 36.5438 5.28711 36.825 5.46523 36.9844C5.65273 37.1344 5.96211 37.3125 6.15898 37.3781C6.36523 37.4438 6.71211 37.5 6.94648 37.5C7.22773 37.5 7.53711 37.4156 7.88398 37.2375C8.28711 37.0313 8.46523 36.8625 8.70898 36.4594C8.96211 36.0281 9.00898 35.8594 9.00898 35.3625C9.00898 34.95 8.95273 34.6594 8.80273 34.3781C8.69023 34.1625 8.49336 33.8813 8.36211 33.7594C8.22148 33.6375 7.94961 33.4594 7.74336 33.3656C7.53711 33.2719 7.15273 33.1875 6.89961 33.1875C6.59961 33.1875 6.24336 33.2719 5.93398 33.4125C5.57773 33.5719 5.34336 33.7594 5.15586 34.05ZM36.459 34.0594C36.3184 34.275 36.1496 34.6594 36.1027 34.9219C36.0277 35.2687 36.0371 35.5125 36.1309 35.8594C36.1965 36.1125 36.3746 36.4875 36.5246 36.6844C36.684 36.8812 37.0121 37.1438 37.2746 37.275C37.5746 37.425 37.9027 37.5 38.2121 37.5C38.5402 37.5 38.8402 37.425 39.1965 37.2469C39.5434 37.0687 39.8059 36.8531 40.0027 36.5625C40.1621 36.3281 40.3215 35.9531 40.359 35.7188C40.3965 35.4844 40.3965 35.1281 40.359 34.9219C40.3215 34.7156 40.1621 34.3594 40.0027 34.125C39.8059 33.8344 39.5434 33.6188 39.1965 33.4406C38.8402 33.2625 38.5402 33.1875 38.2121 33.1875C37.9027 33.1875 37.5746 33.2625 37.2371 33.4219C36.8902 33.5906 36.6465 33.7969 36.459 34.0594ZM21.609 30.8438C23.1371 30.8438 23.2215 30.8531 23.4277 31.0594C23.5402 31.1719 23.634 31.3687 23.6434 31.5C23.6434 31.6313 23.559 31.8375 23.4559 31.9688C23.2777 32.2031 23.2684 32.2031 21.6277 32.2031C20.0434 32.2031 19.9777 32.1938 19.7715 31.9875C19.6402 31.8563 19.5559 31.6594 19.5559 31.4812C19.5559 31.2844 19.6309 31.1344 19.7809 31.0125C19.9777 30.8625 20.184 30.8438 21.609 30.8438ZM27.5621 30.8438C28.9777 30.8344 29.1371 30.8531 29.3715 31.0312C29.5402 31.1531 29.634 31.3031 29.634 31.4719C29.6434 31.6125 29.559 31.8375 29.4559 31.9688C29.2777 32.2031 29.2777 32.2031 25.959 32.2031L25.7246 31.9219C25.5559 31.7156 25.509 31.575 25.5465 31.4062C25.584 31.275 25.6965 31.0969 25.809 31.0031C25.9777 30.8625 26.2121 30.8438 27.5621 30.8438ZM14.1371 20.625C15.084 20.625 15.1027 20.625 15.2902 20.8781C15.3934 21.0187 15.4871 21.2063 15.4871 21.2812C15.4871 21.3562 15.3934 21.5344 15.2902 21.675C15.1027 21.9281 15.084 21.9375 14.1184 21.9375C13.2559 21.9375 13.1059 21.9094 12.9465 21.75C12.8434 21.6469 12.7496 21.45 12.7402 21.3094C12.7309 21.15 12.8059 20.9813 12.9465 20.8406C13.1434 20.6438 13.2465 20.625 14.1371 20.625ZM37.8277 24.2812C38.859 24.2812 38.9246 24.2906 39.1496 24.5156C39.2809 24.6469 39.384 24.8156 39.384 24.8906C39.384 24.9656 39.3277 25.1344 39.2621 25.2656C39.2059 25.3969 39.0184 25.5469 38.8684 25.5938C38.709 25.65 38.2496 25.6875 37.8371 25.6875C37.4246 25.6875 36.9465 25.65 36.7777 25.5938C36.6184 25.5375 36.4309 25.4156 36.384 25.3125C36.3277 25.2094 36.2902 25.0406 36.2902 24.9281C36.2996 24.825 36.4027 24.6375 36.5246 24.5062C36.7402 24.2906 36.8059 24.2812 37.8277 24.2812Z" fill="#2551E8"/>
</g>
<defs>
<clipPath id="clip0_153_3359">
<rect width="48" height="48" fill="white"/>
</clipPath>
</defs>
</svg>
