<svg width="56" height="56" viewBox="0 0 56 56" fill="none" xmlns="http://www.w3.org/2000/svg">
<g clip-path="url(#clip0_166_2501)">
<path fill-rule="evenodd" clip-rule="evenodd" d="M11.21 -4.88283e-05L49.8194 -0.0109863L50.3116 0.262451C50.585 0.404639 50.9678 0.699951 51.1647 0.918701C51.3506 1.13745 51.5913 1.57495 51.6788 1.8812C51.81 2.35151 51.8428 2.98589 51.8209 5.10776C51.7881 7.66714 51.7772 7.76558 51.5475 7.99526C51.4163 8.12651 51.1647 8.24683 50.9897 8.24683C50.8038 8.25776 50.5631 8.15933 50.4319 8.03901C50.2022 7.8312 50.1913 7.73276 50.2022 5.21714C50.2022 3.14995 50.1694 2.54839 50.0381 2.24214C49.9506 2.03433 49.7756 1.81558 49.6553 1.74995C49.5131 1.67339 42.9288 1.64058 30.5694 1.64058C16.4381 1.64058 11.6366 1.67339 11.4506 1.77183C11.3194 1.83745 11.1553 1.9687 11.0788 2.06714C10.9694 2.19839 10.9475 4.51714 10.9475 12.0859C10.9475 21.8093 10.9366 21.9296 10.7178 22.2359C10.5647 22.4546 10.4006 22.5312 10.1491 22.5312C9.91939 22.5312 9.70064 22.4437 9.29595 22.039L9.35064 1.78276L9.67876 1.24683C9.90845 0.885889 10.2038 0.601514 10.6085 0.349951L11.21 -4.88283e-05ZM51.0006 10.5C51.2194 10.5 51.4381 10.5875 51.5694 10.7296C51.7881 10.9703 51.7881 11.1343 51.8209 31.139C51.8428 48.7375 51.821 51.3953 51.6788 52.0187C51.5913 52.4015 51.4053 52.9593 51.2522 53.2437C51.11 53.5281 50.7819 54.0093 50.5194 54.3046C50.2569 54.6 49.7975 54.9937 49.4913 55.1906C49.196 55.3765 48.6491 55.639 47.6319 55.9999H27.9991C10.4772 55.9999 8.32251 55.989 7.87408 55.8359C7.61158 55.7375 7.09751 55.5078 6.73658 55.3109C6.38658 55.125 5.85064 54.6984 5.55533 54.3703C5.24908 54.0312 4.89908 53.539 4.75689 53.2765C4.62564 53.0031 4.42876 52.489 4.34126 52.1281C4.21001 51.6687 4.16626 50.9687 4.16626 49.7984C4.15533 48.2234 4.1772 48.1031 4.41783 47.7203C4.56001 47.4906 4.80064 47.2062 4.94283 47.075C5.08501 46.9546 5.36939 46.7906 5.5772 46.725C5.80689 46.6484 6.66001 46.5937 9.29595 46.6046V35.9953C9.29595 29.1375 9.3397 25.3093 9.40533 25.1671C9.47095 25.0468 9.65689 24.8937 9.82095 24.8281C10.0288 24.7515 10.2038 24.7515 10.3897 24.8281C10.5428 24.8937 10.7288 25.0687 10.8053 25.2109C10.9147 25.4296 10.9366 27.825 10.9366 46.6046H20.9444C28.7319 46.6046 31.0178 46.6265 31.2256 46.7359C31.3788 46.8125 31.5538 46.9874 31.6084 47.1187C31.6741 47.25 31.7288 47.4249 31.7288 47.5015C31.7288 47.5781 31.6303 47.775 31.2803 48.2453H18.6694C8.7272 48.2453 6.03658 48.2671 5.9272 48.3765C5.8397 48.4749 5.79595 48.9453 5.79595 49.8312C5.79595 50.6406 5.86158 51.3734 5.96001 51.7671C6.05845 52.1171 6.2772 52.6203 6.4522 52.8937C6.63814 53.1562 6.98814 53.5281 7.25064 53.714C7.5022 53.9 7.96158 54.1187 8.25689 54.2062C8.7272 54.3484 11.2428 54.3703 25.8991 54.3703C35.2944 54.3703 42.9835 54.3375 42.9835 54.3156C42.9835 54.2828 42.8085 53.9984 42.6006 53.6812C42.3819 53.364 42.1085 52.7843 41.9991 52.4015C41.8241 51.8328 41.7803 51.3734 41.7803 50.1046C41.7913 48.9562 41.7475 48.4749 41.6491 48.3765C41.5397 48.2671 40.6756 48.2343 37.9522 48.2343C34.4303 48.2343 34.3975 48.2343 34.1569 47.9937C34.0147 47.8624 33.9053 47.6218 33.9053 47.4796C33.9053 47.3265 33.9928 47.075 34.3319 46.6593H42.0538L42.4803 46.9328C42.71 47.075 43.0053 47.3703 43.1366 47.589C43.3444 47.9281 43.3772 48.1796 43.421 49.9406C43.4756 51.6687 43.5085 51.964 43.7163 52.4015C43.8475 52.664 44.1428 53.0796 44.3725 53.3093C44.6022 53.539 45.0397 53.8562 45.335 54.0203C45.7944 54.2609 46.035 54.3046 46.7569 54.3046C47.4897 54.3156 47.7413 54.2609 48.2335 54.0203C48.5725 53.8562 49.021 53.5171 49.2506 53.2546C49.4803 52.9921 49.7319 52.6312 49.8194 52.4562C49.9069 52.2703 50.0272 51.8546 50.0928 51.5265C50.1694 51.1109 50.2131 44.5046 50.2022 30.9312C50.2022 11.0906 50.2131 10.9375 50.421 10.7296C50.5522 10.5984 50.7928 10.5 51.0006 10.5ZM29.0381 6.68276H34.3975C39.3413 6.68276 39.7897 6.6937 40.1944 6.87964C40.435 6.98901 40.796 7.26245 40.9928 7.4812C41.1897 7.69995 41.3975 8.06089 41.4522 8.29058C41.5069 8.52026 41.7038 9.63589 41.8897 10.7843C42.0756 11.9218 42.2725 12.9609 42.3163 13.0812C42.371 13.2015 42.546 13.3328 42.721 13.3656C42.896 13.4093 43.1803 13.5406 43.3444 13.6718C43.5084 13.7921 43.7381 14.0984 43.8585 14.339C44.0663 14.7328 44.0772 14.9953 44.0772 19.9171H44.3834C44.5475 19.9171 44.7991 20.0265 44.9303 20.1578C45.0725 20.3 45.1819 20.5296 45.1819 20.7046C45.171 20.8796 45.0616 21.1312 44.9085 21.2843C44.6678 21.525 44.5475 21.5578 42.9835 21.5578V22.4328C42.9835 22.914 42.9397 23.439 42.8741 23.6031C42.8085 23.7671 42.6225 24.0515 42.4585 24.2156C42.2944 24.3906 42.01 24.5984 41.8131 24.6859C41.5725 24.7843 40.9819 24.839 39.9538 24.839C38.5866 24.839 38.4006 24.8171 37.9522 24.5875C37.646 24.4234 37.3725 24.1718 37.2194 23.8984C37.0225 23.5484 36.9788 23.2968 36.9678 21.5578H31.9366L31.9147 22.5859C31.8928 23.5484 31.86 23.6359 31.5538 24.0296C31.3678 24.2593 31.0506 24.5328 30.8428 24.6421C30.5366 24.7953 30.1756 24.839 28.9288 24.839C27.5397 24.839 27.3538 24.8171 26.9053 24.5875C26.5991 24.4234 26.3256 24.1718 26.1725 23.8984C25.9756 23.5484 25.9319 23.2968 25.9209 21.5578H25.1553C24.7397 21.5578 24.2694 21.4921 24.1163 21.4156C23.9631 21.339 23.7881 21.1531 23.7334 21.0109C23.6569 20.814 23.6569 20.639 23.7334 20.4312C23.7991 20.2671 23.9413 20.0812 24.0616 20.0265C24.1819 19.9609 24.3788 19.9171 24.4991 19.9171C24.7178 19.9171 24.7178 19.8296 24.7506 17.314C24.7725 15.1703 24.8053 14.6562 24.9585 14.3937C25.0459 14.2078 25.2756 13.9343 25.4506 13.7812C25.6147 13.6281 25.9428 13.4421 26.1725 13.3765C26.3913 13.3 26.5772 13.2015 26.5772 13.1578C26.5772 13.114 26.7741 11.9437 27.0147 10.5656C27.3866 8.3562 27.485 7.99526 27.7475 7.61245C27.9225 7.38276 28.2835 7.07651 28.5459 6.93433L29.0381 6.68276ZM28.6116 10.9484C28.4038 12.1843 28.2288 13.2015 28.2288 13.2125C28.2288 13.2343 31.0069 13.2453 34.4085 13.2453C39.8225 13.2453 40.5881 13.2234 40.5881 13.0812C40.5881 12.9937 40.435 11.9984 40.2491 10.8609C40.0631 9.73433 39.8444 8.7062 39.7569 8.56401L39.6038 8.32339C29.7381 8.32339 29.3444 8.33433 29.1694 8.50933C29.0491 8.64058 28.8631 9.44995 28.6116 10.9484ZM26.3803 17.5875L26.4241 19.8625L42.4475 19.9171L42.3928 14.9406C26.7194 14.8859 26.5881 14.8859 26.4678 15.1046C26.3803 15.2578 26.3475 15.9906 26.3803 17.5875ZM27.6272 23.1437H30.2522L30.2631 21.5578H27.5616L27.6272 23.1437ZM38.6741 23.1437H41.2991L41.31 21.5578H38.6085L38.6741 23.1437ZM19.0741 8.66245C19.1178 8.65151 19.26 8.7062 19.4022 8.78276C19.5335 8.84839 19.6975 8.97964 19.7741 9.07808C19.8506 9.17651 19.9163 9.46089 19.9163 9.71245C19.9163 10.1718 19.9272 10.1828 20.3319 10.2484C20.5506 10.2812 20.9116 10.3906 21.1194 10.489C21.3272 10.5875 21.5678 10.8062 21.6663 10.9703C21.8085 11.2437 21.8085 11.3093 21.6663 11.5718C21.5678 11.7468 21.36 11.9437 21.196 12.0093C20.9553 12.1296 20.8131 12.1187 20.4413 11.9875C20.1788 11.889 19.96 11.8234 19.9491 11.8234C19.9272 11.8234 19.9163 12.4906 19.9163 14.7765L20.496 15.039C20.8022 15.1812 21.2288 15.4875 21.4366 15.7281C21.6444 15.9578 21.9069 16.3625 22.0272 16.6359C22.1803 16.975 22.246 17.3687 22.246 17.8937C22.246 18.4843 22.1803 18.8015 21.9506 19.3156C21.7866 19.6765 21.4475 20.1796 21.196 20.4312C20.9444 20.6937 20.5506 20.989 20.321 21.0875C19.9381 21.2734 19.9053 21.3171 19.9163 21.7218C19.9163 21.9953 19.8397 22.2687 19.6975 22.4546C19.5335 22.6843 19.3913 22.7609 19.096 22.7609C18.8335 22.7609 18.6366 22.6843 18.4944 22.5093C18.3522 22.3562 18.2756 22.1156 18.2756 21.3937L17.7069 21.2515C17.3897 21.175 16.8866 20.9562 16.5803 20.7593C16.2413 20.5296 16.0006 20.289 15.9569 20.1031C15.9022 19.9062 15.9241 19.6875 16.0335 19.4796C16.1319 19.2828 16.3178 19.1187 16.5038 19.075C16.7225 19.0203 16.9631 19.0968 17.4334 19.3484C17.7725 19.5453 18.1116 19.6984 18.1663 19.6984C18.2319 19.6984 18.2756 18.9765 18.2756 15.8156L17.7725 15.5421C17.4881 15.389 17.0944 15.1046 16.8975 14.9078C16.6897 14.7218 16.4491 14.3937 16.3397 14.1968C16.2413 14.0109 16.1319 13.475 16.11 13.0265C16.0663 12.3156 16.0881 12.1296 16.3178 11.6703C16.46 11.375 16.7772 10.9593 17.0178 10.7625C17.2585 10.5546 17.6413 10.3359 17.8709 10.2593C18.2538 10.139 18.2756 10.0953 18.2756 9.71245C18.2756 9.4937 18.3303 9.20933 18.4069 9.07808C18.4835 8.95776 18.6366 8.81558 18.7678 8.76089C18.8881 8.7062 19.0194 8.66245 19.0741 8.66245ZM17.7178 12.8625C17.7178 13.1031 17.8053 13.4093 17.8928 13.5406C17.9803 13.6828 18.1116 13.7921 18.1663 13.7921C18.2319 13.7921 18.2756 13.4203 18.2866 12.9281C18.2975 12.4359 18.2538 12.0312 18.1881 11.9875C18.1225 11.9546 17.9913 12.0421 17.8928 12.1734C17.7835 12.3156 17.7069 12.6 17.7178 12.8625ZM20.0913 19.2609C20.1897 19.1734 20.3428 18.9437 20.4413 18.7687C20.5288 18.5828 20.6053 18.2218 20.6053 17.9484C20.6163 17.6421 20.5397 17.314 20.4085 17.0843C20.2881 16.8765 20.135 16.6906 20.0694 16.6687C19.9819 16.6359 19.9381 17.0296 19.9272 18.025C19.9053 19.3265 19.9163 19.414 20.0913 19.2609ZM23.2522 28.2296C28.7428 28.2296 28.896 28.2406 29.1038 28.4484C29.235 28.5796 29.3225 28.8203 29.3225 29.0171C29.3335 29.2468 29.246 29.4546 29.0928 29.5968C28.8631 29.8046 28.71 29.8156 17.5975 29.8156L17.3897 29.5421C17.2694 29.389 17.171 29.1375 17.1819 28.9625C17.1819 28.7984 17.2803 28.5687 17.4006 28.4484C17.6085 28.2406 17.7616 28.2296 23.2522 28.2296ZM35.0647 28.2187L42.9835 28.2843L43.3335 28.6125C43.5194 28.7875 43.7491 29.1046 43.8256 29.2906C43.9241 29.5093 43.9788 30.0453 43.9788 30.6578C43.9788 31.3906 43.9241 31.7953 43.7819 32.1125C43.6725 32.3531 43.41 32.6703 42.8303 33.0968H38.9256C35.196 33.0968 35.01 33.0859 34.7256 32.8781C34.5725 32.7578 34.3319 32.5171 34.2006 32.3531C34.0038 32.0906 33.971 31.8609 33.9381 30.8218C33.9053 29.8156 33.9381 29.5203 34.1022 29.1703C34.2116 28.9406 34.4741 28.6234 34.6819 28.4812L35.0647 28.2187ZM35.5569 31.5109H42.3381V29.8703H35.5569V31.5109ZM18.735 31.5109C19.7631 31.5109 19.8178 31.5218 20.1022 31.8062C20.3319 32.0468 20.3756 32.1781 20.31 32.4406C20.2772 32.6156 20.135 32.8562 19.9928 32.9656C19.8069 33.1187 19.5553 33.1625 18.7678 33.1625C17.9475 33.1515 17.7288 33.1187 17.4881 32.9328C17.2803 32.7796 17.1709 32.6046 17.16 32.364C17.1491 32.1234 17.2147 31.9375 17.4006 31.7625C17.6303 31.5328 17.7506 31.5109 18.735 31.5109ZM22.7491 31.5109H25.8225C28.7428 31.5109 28.896 31.5218 29.1038 31.7296C29.235 31.8609 29.3225 32.0906 29.3225 32.3312C29.3225 32.6156 29.246 32.7687 29.0272 32.9328C28.7319 33.1406 28.5678 33.1515 22.76 33.1515L22.4866 32.8781C22.3335 32.725 22.2131 32.4843 22.2131 32.3203C22.2241 32.1671 22.3444 31.9265 22.4866 31.7734L22.7491 31.5109ZM17.521 38.1828L23.2303 38.1937C28.4803 38.1937 28.9506 38.2046 29.1366 38.3796C29.246 38.489 29.3335 38.7296 29.3335 38.9484C29.3335 39.2 29.246 39.4078 29.0928 39.55C28.8631 39.7687 28.71 39.7687 17.5975 39.7687L17.3897 39.4953C17.2694 39.3531 17.171 39.1015 17.171 38.9484C17.16 38.7953 17.2366 38.5656 17.335 38.4343L17.521 38.1828ZM38.9475 38.1828C42.535 38.1828 42.8631 38.2046 43.1585 38.3906C43.3444 38.5 43.6069 38.8062 43.7381 39.0687C43.935 39.4625 43.9788 39.725 43.9788 40.589C43.9897 41.4421 43.946 41.7046 43.7381 42.1203C43.5522 42.4812 43.3663 42.6781 42.9944 42.8531C42.5131 43.1046 42.4803 43.1046 35.0538 43.05L34.6272 42.7218C34.3975 42.5359 34.146 42.2296 34.0694 42.0328C33.9819 41.825 33.9163 41.2343 33.9163 40.589C33.9163 39.714 33.96 39.4078 34.135 39.0578C34.2553 38.8171 34.5178 38.5218 34.7147 38.4015C35.0538 38.1937 35.2616 38.1828 38.9475 38.1828ZM35.5569 41.464H42.3381V39.8234H35.5569V41.464ZM18.7131 41.464C19.7631 41.464 19.8288 41.4749 20.1022 41.7593C20.3319 42 20.3756 42.1203 20.321 42.3937C20.2772 42.5687 20.1678 42.7875 20.0803 42.8859C19.96 42.9953 19.61 43.0499 18.8553 43.0828C17.9038 43.1156 17.7506 43.0937 17.4881 42.8859C17.2584 42.7218 17.1819 42.5687 17.1819 42.2843C17.1819 42.0437 17.2694 41.814 17.4006 41.6828C17.5975 41.4859 17.7725 41.464 18.7131 41.464ZM22.76 41.464H25.8225C28.7428 41.464 28.896 41.464 29.1038 41.6828C29.246 41.814 29.3225 42.0437 29.3225 42.2843C29.3225 42.5687 29.2569 42.7218 29.0272 42.8859C28.7319 43.1046 28.6116 43.1156 22.6397 43.05L22.4209 42.7765C22.3006 42.6234 22.2131 42.3828 22.2131 42.2515C22.2241 42.1093 22.3444 41.8796 22.4866 41.7265L22.76 41.464ZM29.4975 16.6359C30.3835 16.6359 30.4381 16.6468 30.6569 16.9421C30.7772 17.1062 30.8756 17.325 30.8756 17.4343C30.8756 17.5328 30.7553 17.7515 30.6241 17.9046C30.4491 18.1015 30.2303 18.2 29.8803 18.2437C29.6178 18.2765 29.2022 18.2765 28.9834 18.2328C28.7538 18.2 28.4694 18.0687 28.3491 17.9484C28.2288 17.8281 28.1303 17.5875 28.1303 17.4015C28.1303 17.2156 28.2288 16.975 28.3491 16.8546C28.535 16.6687 28.721 16.6359 29.4975 16.6359ZM39.4506 16.6359C40.3366 16.6359 40.3913 16.6468 40.61 16.9421C40.7303 17.1062 40.8288 17.325 40.8288 17.4343C40.8288 17.5328 40.6975 17.7515 40.5553 17.9265C40.3147 18.2 40.2381 18.2218 39.396 18.2218C38.5756 18.2218 38.4881 18.2 38.2913 17.9484C38.171 17.7953 38.0835 17.5437 38.0835 17.3796C38.0835 17.2046 38.1819 16.975 38.3022 16.8546C38.4881 16.6687 38.6741 16.6359 39.4506 16.6359Z" fill="#2551E8"/>
</g>
<defs>
<clipPath id="clip0_166_2501">
<rect width="56" height="56" fill="white"/>
</clipPath>
</defs>
</svg>
